<?xml version="1.0" encoding="UTF-8" standalone="no"?>
<!-- Created with Inkscape (http://www.inkscape.org/) -->

<svg
   xmlns:dc="http://purl.org/dc/elements/1.1/"
   xmlns:cc="http://creativecommons.org/ns#"
   xmlns:rdf="http://www.w3.org/1999/02/22-rdf-syntax-ns#"
   xmlns:svg="http://www.w3.org/2000/svg"
   xmlns="http://www.w3.org/2000/svg"
   xmlns:sodipodi="http://sodipodi.sourceforge.net/DTD/sodipodi-0.dtd"
   xmlns:inkscape="http://www.inkscape.org/namespaces/inkscape"
   width="256"
   height="256"
   id="svg2"
   version="1.1"
   inkscape:version="0.91 r13725"
   sodipodi:docname="danger.svg"
   inkscape:export-filename="/home/undefer/unDE/3D/GameEngine/dizzy/danger.png"
   inkscape:export-xdpi="22.5"
   inkscape:export-ydpi="22.5">
  <defs
     id="defs4">
    <linearGradient
       id="linearGradient3593">
      <stop
         style="stop-color:#9b0000;stop-opacity:1;"
         offset="0"
         id="stop3595" />
      <stop
         id="stop3603"
         offset="0.5"
         style="stop-color:#ff0000;stop-opacity:1;" />
      <stop
         style="stop-color:#a30000;stop-opacity:1;"
         offset="1"
         id="stop3597" />
    </linearGradient>
    <inkscape:perspective
       sodipodi:type="inkscape:persp3d"
       inkscape:vp_x="0 : 526.18109 : 1"
       inkscape:vp_y="0 : 1000 : 0"
       inkscape:vp_z="744.09448 : 526.18109 : 1"
       inkscape:persp3d-origin="372.04724 : 350.78739 : 1"
       id="perspective10" />
    <inkscape:perspective
       id="perspective4902"
       inkscape:persp3d-origin="0.5 : 0.33333333 : 1"
       inkscape:vp_z="1 : 0.5 : 1"
       inkscape:vp_y="0 : 1000 : 0"
       inkscape:vp_x="0 : 0.5 : 1"
       sodipodi:type="inkscape:persp3d" />
    <inkscape:perspective
       id="perspective6406"
       inkscape:persp3d-origin="0.5 : 0.33333333 : 1"
       inkscape:vp_z="1 : 0.5 : 1"
       inkscape:vp_y="0 : 1000 : 0"
       inkscape:vp_x="0 : 0.5 : 1"
       sodipodi:type="inkscape:persp3d" />
  </defs>
  <sodipodi:namedview
     id="base"
     pagecolor="#ffffff"
     bordercolor="#666666"
     borderopacity="1.0"
     inkscape:pageopacity="0.0"
     inkscape:pageshadow="2"
     inkscape:zoom="2.0089306"
     inkscape:cx="-44.669529"
     inkscape:cy="158.1899"
     inkscape:document-units="px"
     inkscape:current-layer="layer1"
     showgrid="true"
     inkscape:window-width="1906"
     inkscape:window-height="1066"
     inkscape:window-x="20"
     inkscape:window-y="34"
     inkscape:window-maximized="0"
     inkscape:snap-grids="false"
     showguides="true"
     inkscape:guide-bbox="true">
    <inkscape:grid
       type="xygrid"
       id="grid2819"
       empspacing="5"
       visible="true"
       enabled="true"
       snapvisiblegridlinesonly="true" />
  </sodipodi:namedview>
  <metadata
     id="metadata7">
    <rdf:RDF>
      <cc:Work
         rdf:about="">
        <dc:format>image/svg+xml</dc:format>
        <dc:type
           rdf:resource="http://purl.org/dc/dcmitype/StillImage" />
        <dc:title />
      </cc:Work>
    </rdf:RDF>
  </metadata>
  <g
     inkscape:label="Layer 1"
     inkscape:groupmode="layer"
     id="layer1"
     transform="translate(0,-796.36218)">
    <rect
       style="fill:#924308;fill-opacity:1;stroke:#000000;stroke-width:4;stroke-linecap:round;stroke-linejoin:miter;stroke-miterlimit:4;stroke-dasharray:none;stroke-opacity:1"
       id="rect5010"
       width="318.57144"
       height="312.85715"
       x="-32.868217"
       y="768.74377"
       inkscape:export-xdpi="90"
       inkscape:export-ydpi="90" />
    <path
       style="fill:#ff0707;fill-opacity:1;stroke:none;stroke-width:3.5;stroke-miterlimit:4;stroke-dasharray:none;stroke-opacity:1"
       id="path4253"
       d="m 44.062809,901.08629 c -0.112799,0.92921 -0.207647,1.85948 -0.327532,2.78817 -0.104397,0.66909 -0.10864,1.34763 -0.178037,2.01966 -0.0975,0.53454 -0.175612,1.07031 -0.213023,1.61246 -0.02841,0.57121 -0.01032,1.14094 -0.09074,1.70812 -0.09376,0.50599 -0.145176,1.01712 -0.172992,1.53049 -0.02166,0.50739 -0.0212,1.01536 -0.02173,1.5231 1.65e-4,0.51061 9.49e-4,1.02121 0.0013,1.53182 -0.0052,0.58082 -0.0026,1.16168 -0.0014,1.74251 -0.01229,0.49399 0.0049,0.71675 0.317307,1.08759 0.30904,0.23355 0.620579,0.47469 0.975365,0.63464 0.334681,0.23087 0.726227,0.36221 1.108909,0.48924 0.400837,0.2496 0.842186,0.35233 1.305421,0.39935 0.527121,-0.009 1.030424,0.14063 1.547109,0.21902 0.53353,0.0451 1.056509,0.0597 1.580785,0.17246 0.550341,0.12263 1.116227,0.13381 1.677397,0.14989 0.650974,0.0154 1.302193,0.0118 1.953287,0.01 0.624926,-0.0254 1.259258,0.0575 1.877461,-0.0479 0.499929,-0.11336 1.008434,-0.1662 1.519303,-0.19381 0.5969,-0.15602 1.21839,-0.1547 1.81871,-0.28107 0.583728,-0.16357 1.195471,-0.15418 1.784907,-0.272 0.717425,-0.10717 1.382116,-0.40312 2.051106,-0.66723 1.156132,-0.63865 2.870767,-1.6164 -2.475188,1.43286 -0.08128,0.0464 0.160527,-0.0962 0.239524,-0.14637 0.158153,-0.10039 0.313504,-0.20514 0.471251,-0.30617 0.56136,-0.36836 1.133703,-0.71916 1.696948,-1.08453 0.541691,-0.32366 0.998575,-0.75694 1.457997,-1.18387 0.423654,-0.35551 0.792403,-0.75018 1.131958,-1.18446 0.29481,-0.43604 0.432646,-0.9582 0.58529,-1.45647 0.199532,-0.68204 0.261045,-1.39068 0.29602,-2.09705 0.02183,-0.57651 0.01868,-1.15354 0.01692,-1.73034 -0.0021,-0.51314 -0.0033,-1.02628 -0.004,-1.53943 -0.0038,-0.47677 0.02821,-0.95211 -0.05904,-1.42268 -0.03668,-0.45527 -0.258414,-0.84119 -0.417042,-1.25919 -0.237239,-0.47896 -0.316359,-1.01451 -0.552042,-1.49171 -0.186985,-0.43162 -0.491458,-0.78072 -0.831998,-1.09721 -0.380952,-0.38973 -0.765978,-0.77661 -1.166453,-1.1472 -0.315602,-0.37584 -0.721734,-0.65182 -1.11496,-0.93847 -0.395644,-0.28202 -0.770931,-0.59565 -1.189352,-0.84496 -0.388211,-0.25564 -0.717026,-0.57994 -1.075329,-0.87409 -0.79986,-0.44756 -1.699414,-0.67691 -2.574,-0.93126 -0.957037,-0.21825 -1.937335,-0.49972 -2.927455,-0.45041 0.247877,-0.32246 -1.289499,0.60325 -0.885273,0.37133 5.255688,-3.01543 3.383847,-2.03361 2.314275,-1.25467 -0.42137,0.36612 -0.825136,0.75214 -1.273971,1.08542 -1.553041,1.11551 -3.115621,1.84204 -4.816884,2.53282 -0.466598,0.19425 -0.904623,0.39444 -1.409305,0.4744 -0.420738,0.1833 -0.876059,0.2662 -1.320562,0.37365 -0.606804,0.20472 -1.206164,0.43077 -1.832334,0.57281 -0.294289,0.17066 -0.638342,0.19875 -0.95315,0.30153 -0.131411,0.0429 -0.251783,0.11458 -0.380687,0.16451 -0.435,0.095 -0.786534,0.36975 -1.197082,0.52391 -1.12402,0.64128 -2.667978,1.5387 2.59303,-1.4866 0,0 -3.522287,1.38062 -3.522287,1.38062 l 0,0 c 1.251215,-0.73607 2.539195,-1.63071 3.903267,-2.24885 0.392012,-0.19938 0.790119,-0.37767 1.211187,-0.50901 0.440673,-0.16127 0.901261,-0.27158 1.346015,-0.4217 0.617964,-0.17339 1.216501,-0.40761 1.836177,-0.57575 0.446869,-0.1182 0.891374,-0.24128 1.335241,-0.36803 0.469799,-0.13057 0.900792,-0.35601 1.357811,-0.52363 1.377269,-0.60166 4.154829,-1.8167 -1.688214,1.17473 0.507295,-0.24048 0.917029,-0.66582 1.313736,-1.05431 1.286311,-1.04847 2.477858,-1.56446 4.133724,-2.4913 0.167436,-0.0937 0.453437,-0.18008 0.644357,-0.20956 0.112768,-0.0174 0.227591,-0.0168 0.341386,-0.0252 1.001606,0.0617 1.98075,0.30739 2.948612,0.56091 0.924079,0.26486 1.897226,0.49539 2.712737,1.02161 0.347495,0.28229 0.668235,0.59639 1.049894,0.83472 0.413216,0.27225 0.802389,0.57812 1.205547,0.8647 0.40526,0.293 0.79745,0.6068 1.128939,0.98352 0.40045,0.37317 0.790639,0.75751 1.177091,1.14464 0.365464,0.35107 0.687397,0.74743 0.89841,1.2121 0.246585,0.48935 0.323072,1.03479 0.568284,1.52693 0.164125,0.43707 0.421309,0.83203 0.454214,1.31038 0.103491,0.49417 0.09846,0.98701 0.08738,1.49099 4.73e-4,0.51334 0.0014,1.02668 0.0023,1.54002 3.11e-4,0.58434 8.35e-4,1.16885 -0.02063,1.75289 -0.03264,0.73127 -0.08191,1.46349 -0.256312,2.17733 -0.147489,0.52906 -0.291737,1.06202 -0.515992,1.56362 -0.308165,0.47458 -0.667407,0.90908 -1.122068,1.25266 -0.440926,0.45685 -0.912095,0.88722 -1.42585,1.2609 -0.574735,0.34046 -1.122973,0.72507 -1.693924,1.07223 -1.503549,1.01869 -3.060676,1.98649 -4.722726,2.724 -0.681952,0.26642 -1.3771,0.50973 -2.10639,0.60747 -0.596388,0.0738 -1.191916,0.14841 -1.780408,0.27373 -0.617957,0.0835 -1.234849,0.17169 -1.851998,0.25909 -0.505038,0.0448 -1.002941,0.13275 -1.505217,0.19915 -0.633275,0.0273 -1.267484,0.009 -1.9012,0.0163 -0.652169,-0.002 -1.304421,-0.006 -1.956361,-0.0244 -0.578163,-0.0254 -1.157842,-0.0551 -1.72313,-0.18964 -0.522188,-0.0902 -1.054155,-0.0696 -1.576256,-0.16377 -0.510063,-0.0937 -1.016778,-0.18874 -1.536421,-0.21326 -0.478668,-0.0826 -0.921799,-0.24271 -1.356296,-0.45992 -0.391691,-0.15113 -0.787596,-0.28967 -1.137587,-0.52827 -0.378087,-0.21417 -0.749365,-0.45938 -1.061826,-0.76248 -0.318196,-0.39073 -0.466731,-0.8122 -0.429596,-1.32493 0.0011,-0.58013 0.0037,-1.16029 -0.0022,-1.7404 -3.3e-4,-0.51072 -9.54e-4,-1.02144 -0.0016,-1.53216 -1.64e-4,-0.51296 -0.0015,-1.02606 0.01386,-1.53885 0.0209,-0.5258 0.05722,-1.05164 0.156506,-1.56941 0.09929,-0.55645 0.104578,-1.11099 0.111635,-1.67611 0.02602,-0.55107 0.07179,-1.09995 0.197093,-1.63899 0.121571,-0.66837 0.07481,-1.36122 0.206519,-2.03071 0.12641,-0.92106 0.254791,-1.83926 0.295996,-2.76922 0,0 3.396495,-1.67773 3.396495,-1.67773 z"
       inkscape:connector-curvature="0" />
    <path
       style="fill:#ff0707;fill-opacity:1;stroke:none;stroke-width:3.5;stroke-miterlimit:4;stroke-dasharray:none;stroke-opacity:1"
       id="path4255"
       d="m 70.674597,924.6907 c 0.71434,-1.44496 1.252163,-2.95957 1.814894,-4.46704 0.492228,-1.44125 1.08331,-2.84587 1.704357,-4.23559 0.410933,-0.88823 0.756803,-1.79953 1.059394,-2.72932 0.236175,-0.6741 0.494039,-1.34077 0.722342,-2.01758 0.204,-0.58921 0.352832,-1.19446 0.55838,-1.78316 0.211838,-0.53485 0.358156,-1.09201 0.530911,-1.64011 0.193624,-0.61044 0.40873,-1.21201 0.682052,-1.79137 0.317587,-0.50228 0.628749,-1.01095 0.963775,-1.50249 0.376475,-0.54258 0.809433,-1.0401 1.23295,-1.54531 0.476352,-0.56155 0.979234,-1.09977 1.470503,-1.6482 0.469294,-0.55089 0.99326,-1.04865 1.503971,-1.55961 0.431065,-0.4238 0.833183,-0.87377 1.232327,-1.32714 0.338069,-0.39828 0.668258,-0.80218 1.004015,-1.2024 0.316312,-0.4064 0.598248,-0.83788 0.899504,-1.25539 0.294349,-0.37603 0.540226,-0.78526 0.815572,-1.17385 0.275536,-0.32359 0.591553,-0.61605 0.919661,-0.88604 2.998431,-1.70335 3.141697,-2.84731 4.704965,-0.79206 0.489939,0.74183 0.929263,1.523 1.26189,2.34859 0.282535,0.68995 0.471765,1.40769 0.576208,2.14453 0.02944,0.56205 0.143667,1.11234 0.206117,1.67079 0.1273,0.67818 0.239635,1.35616 0.30492,2.04336 0.112937,0.68481 0.186108,1.37481 0.2821,2.06187 0.117982,0.64872 0.212876,1.30025 0.25417,1.95843 0.03372,0.69215 0.02859,1.38547 0.03172,2.07825 -0.0089,0.7882 -0.0033,1.57645 -0.0046,2.36466 -0.0027,0.77731 0.0027,1.55468 -0.0027,2.33197 -0.0051,0.91797 -0.004,1.83593 -0.0047,2.75392 2.05e-4,0.83864 0.0035,1.6773 0.0083,2.51593 0.0049,0.63791 0.0028,1.27583 0.0047,1.91375 2.45e-4,0.69686 -0.0074,1.39364 -0.0053,2.09051 0.01334,0.71354 -0.02748,1.42931 0.02526,2.14139 0.08009,0.57458 0.160675,1.14818 0.203909,1.72691 0.08141,0.53171 0.179361,1.06146 0.295542,1.58678 0.14404,0.59031 0.198594,1.19351 0.22758,1.79855 0.0056,0.6398 0.04426,1.28133 0.0043,1.92043 0,0 -3.392694,1.67889 -3.392694,1.67889 l 0,0 c 0.111096,-0.6133 0.01692,-1.24969 0.03036,-1.86983 -0.02287,-0.58366 -0.06426,-1.1679 -0.197142,-1.73862 -0.124353,-0.54266 -0.230757,-1.08724 -0.328969,-1.63548 -0.03351,-0.57814 -0.101081,-1.15235 -0.18831,-1.72486 -0.07599,-0.72176 -0.01867,-1.4494 -0.03584,-2.17417 0.002,-0.69506 -0.0056,-1.39002 -0.0053,-2.08507 0.0019,-0.63952 -2.18e-4,-1.27903 0.0047,-1.91853 0.0049,-0.84147 0.0081,-1.68295 0.0083,-2.52443 -6.88e-4,-0.91641 3.88e-4,-1.83279 -0.0047,-2.74918 -0.0054,-0.77664 1.15e-4,-1.55337 -0.0016,-2.33003 -1.65e-4,-0.78709 0.0076,-1.5742 -7.3e-4,-2.36127 0.0019,-0.68532 0.0012,-1.37093 -0.02681,-2.0558 -0.03685,-0.64823 -0.106554,-1.2934 -0.229746,-1.93152 -0.116096,-0.69098 -0.158446,-1.39344 -0.299101,-2.08147 -0.0529,-0.68511 -0.153506,-1.36249 -0.2994,-2.03432 -0.06532,-0.55692 -0.202248,-1.10166 -0.209232,-1.6643 -0.07803,-0.71172 -0.237381,-1.40827 -0.514229,-2.07127 -0.305134,-0.79673 -0.729716,-1.5502 -1.210363,-2.25335 -0.202054,-0.25214 -0.389316,-0.52213 -0.683108,-0.67616 -0.06008,-0.0315 -0.123622,-0.0624 -0.191012,-0.0702 -0.05074,-0.006 -0.193868,0.0572 -0.150062,0.031 1.021324,-0.61226 2.059787,-1.19547 3.08968,-1.7932 -0.385285,0.17764 -0.635761,0.51934 -0.973066,0.7678 -0.31575,0.36122 -0.528746,0.79171 -0.825088,1.16859 -0.318011,0.40822 -0.595334,0.84219 -0.896692,1.26119 -0.307566,0.42734 -0.668099,0.80883 -0.999991,1.21366 -0.375741,0.48134 -0.804806,0.91841 -1.227172,1.35971 -0.503424,0.52163 -1.054078,0.99332 -1.52304,1.5492 -0.488489,0.54341 -0.97084,1.0901 -1.468876,1.62394 -0.397971,0.52271 -0.873982,0.98371 -1.237056,1.53472 -0.374876,0.45217 -0.601503,0.99531 -0.98404,1.44037 -0.304696,0.55271 -0.528171,1.13809 -0.709998,1.74221 -0.193346,0.54561 -0.31061,1.11362 -0.521493,1.65348 -0.239441,0.57268 -0.369334,1.1775 -0.56703,1.76461 -0.211112,0.68917 -0.494742,1.35491 -0.745407,2.03033 -0.308926,0.94355 -0.632207,1.88071 -1.063752,2.77734 -0.644722,1.39148 -1.285317,2.78844 -1.778778,4.24236 -0.346985,0.91765 -0.644375,1.85544 -0.999654,2.76942 -0.09509,0.24462 -0.207901,0.48197 -0.311852,0.72296 -0.07551,0.17341 -0.157805,0.34402 -0.226516,0.52024 -0.05589,0.14332 -0.09795,0.29166 -0.14693,0.43749 0,0 -3.447206,1.55963 -3.447206,1.55963 z"
       inkscape:connector-curvature="0" />
    <path
       style="fill:#ff0707;fill-opacity:1;stroke:none;stroke-width:3.5;stroke-miterlimit:4;stroke-dasharray:none;stroke-opacity:1"
       id="path4257"
       d="m 79.671545,911.80458 c 1.379024,0.14167 2.756855,0.29597 4.139517,0.4016 1.247572,0.11729 2.48619,0.29549 3.726851,0.46713 0.698979,0.0779 1.37618,0.26962 2.074288,0.35676 0.553406,-0.003 1.08134,0.15968 1.625637,0.23188 0.609483,0.049 1.211447,0.0515 1.811227,0.17459 0.589045,0.12677 1.194588,0.13559 1.794476,0.15175 0.117702,0.002 0.235403,0.004 0.353104,0.006 0,0 -3.054587,2.20909 -3.054587,2.20909 l 0,0 c -0.118002,-0.003 -0.236004,-0.007 -0.354006,-0.01 -0.617716,-0.0236 -1.238173,-0.0479 -1.843012,-0.18754 -0.596274,-0.0993 -1.20306,-0.0769 -1.801231,-0.16551 -0.54013,-0.0905 -1.07493,-0.20257 -1.623793,-0.23117 -0.683298,-0.11414 -1.353193,-0.29777 -2.042138,-0.37966 -1.221566,-0.18951 -2.446225,-0.35238 -3.676747,-0.47342 -1.396944,-0.1216 -2.791507,-0.29842 -4.194623,-0.32429 0,0 3.065037,-2.22688 3.065037,-2.22688 z"
       inkscape:connector-curvature="0" />
    <path
       style="fill:#ff0707;fill-opacity:1;stroke:none;stroke-width:3.5;stroke-miterlimit:4;stroke-dasharray:none;stroke-opacity:1"
       id="path4259"
       d="m 113.49642,922.4406 c 0.0906,-2.32377 0.36657,-4.63141 0.69796,-6.93121 0.32306,-2.01739 0.69726,-4.02585 1.14117,-6.02003 0.27427,-1.17951 0.58261,-2.35048 0.87863,-3.52458 0.20504,-0.91247 0.36066,-1.83505 0.57932,-2.74434 0.19642,-0.64642 0.4154,-1.28458 0.5776,-1.94093 0.13747,-0.54767 0.3401,-1.07532 0.51086,-1.61257 0.13897,-0.54952 0.3517,-1.06923 0.60424,-1.57481 0.36574,-0.64356 0.76926,-1.26703 1.177,-1.88499 0.94819,-1.30198 2.13484,-1.56938 3.86071,-2.45911 0.0754,-0.0389 0.17054,0.0247 0.2467,0.062 0.15666,0.0767 0.35669,0.27923 0.48124,0.39463 0.55062,0.61503 0.99784,1.33154 1.41944,2.04135 0.41184,0.69725 0.77323,1.42314 1.1514,2.13921 0.48302,0.88261 0.95256,1.77021 1.38659,2.67803 0.5245,0.99257 0.98695,2.01504 1.51536,3.00548 0.48676,0.85788 0.98222,1.71172 1.44679,2.58199 0.28363,0.5559 0.62566,1.07725 0.89418,1.64084 0.22888,0.62477 0.45437,1.24879 0.70158,1.86682 0.29615,0.71203 0.43758,1.47161 0.67481,2.20209 0.27334,0.8176 0.61943,1.60155 0.99666,2.37529 0.33183,0.64403 0.58586,1.32445 0.89359,1.97881 0.21893,0.45384 0.38593,0.92896 0.56285,1.39982 0.29783,0.58242 0.40174,1.22561 0.56953,1.84942 0.0982,0.45704 0.30412,0.87643 0.43403,1.32323 0.15807,0.43565 0.25018,0.8886 0.40115,1.3261 0.025,0.0358 0.0326,0.097 0.0751,0.10745 0.0304,0.007 0.0396,-0.0487 0.0565,-0.0751 0.0299,-0.0467 0.13242,-0.1697 0.0835,-0.14373 -1.05182,0.55805 -2.06398,1.18859 -3.11335,1.75125 -0.0864,0.0463 0.15183,-0.12524 0.21715,-0.19834 0.0754,-0.0844 0.13543,-0.18133 0.20314,-0.272 0.50467,-0.83714 0.86929,-1.7489 1.24839,-2.64728 0.39606,-0.87488 0.70339,-1.78541 1.01458,-2.69281 0.24485,-0.77016 0.44305,-1.55324 0.6468,-2.33487 0.17401,-0.75388 0.32817,-1.5122 0.42661,-2.27986 0.0706,-0.76904 0.21502,-1.52802 0.29471,-2.29607 0.10966,-0.68464 0.22353,-1.36687 0.28121,-2.05831 0.0691,-0.71796 0.2181,-1.42253 0.36172,-2.12801 0.0935,-0.66025 0.20039,-1.31286 0.39229,-1.95236 0.17719,-0.5673 0.35861,-1.13281 0.53258,-1.70127 0.15961,-0.66265 0.3003,-1.32837 0.48685,-1.98462 0.22705,-0.6959 0.45143,-1.39221 0.67142,-2.09031 0.18972,-0.5679 0.39956,-1.12941 0.61179,-1.68938 0.18328,-0.56692 0.31174,-1.14818 0.49885,-1.71451 0.2063,-0.60332 0.54911,-1.14518 0.85342,-1.70148 0.0522,-0.0931 0.10449,-0.18628 0.15673,-0.27941 0,0 3.45331,-1.52829 3.45331,-1.52829 l 0,0 c -0.0568,0.0863 -0.11358,0.17268 -0.17037,0.25901 -0.27763,0.55534 -0.62312,1.07471 -0.87277,1.64384 -0.19114,0.56858 -0.36166,1.13861 -0.48988,1.72451 -0.20496,0.56286 -0.42939,1.11801 -0.62733,1.68312 -0.24379,0.68532 -0.42847,1.39163 -0.67803,2.0757 -0.19166,0.65526 -0.36519,1.31264 -0.48006,1.98644 -0.16963,0.57113 -0.34088,1.13897 -0.52963,1.70334 -0.20178,0.62824 -0.36453,1.25924 -0.41532,1.92084 -0.13927,0.6938 -0.30241,1.38198 -0.38223,2.08657 -0.0492,0.69476 -0.13392,1.38529 -0.2801,2.06711 -0.0736,0.77426 -0.22014,1.53629 -0.30201,2.30908 -0.0906,0.78136 -0.2213,1.55381 -0.39588,2.32047 -0.20507,0.79141 -0.41332,1.58155 -0.64959,2.36437 -0.29887,0.92099 -0.61969,1.83805 -1.01288,2.72366 -0.38105,0.90647 -0.75083,1.81789 -1.19153,2.69718 -0.8956,1.54556 -0.98594,1.07808 -3.76576,2.56279 -0.21242,0.11345 -0.46431,-0.24985 -0.53053,-0.38568 -0.15298,-0.44551 -0.24438,-0.90531 -0.413,-1.34603 -0.11854,-0.45237 -0.3349,-0.87073 -0.42305,-1.33268 -0.16388,-0.61125 -0.24018,-1.24894 -0.55652,-1.81113 -0.18153,-0.46084 -0.33801,-0.93145 -0.54647,-1.38177 -0.2956,-0.65837 -0.537,-1.3421 -0.87118,-1.98403 -0.37451,-0.79222 -0.73576,-1.58692 -1.02201,-2.4165 -0.24209,-0.72122 -0.38347,-1.47133 -0.67017,-2.17858 -0.24299,-0.61053 -0.48608,-1.21876 -0.70015,-1.84031 -0.26395,-0.55969 -0.604,-1.07934 -0.87042,-1.63822 -0.44569,-0.87901 -0.93478,-1.73514 -1.42248,-2.59135 -0.53141,-0.99425 -0.98783,-2.02446 -1.52289,-3.01717 -0.4449,-0.89657 -0.90148,-1.78535 -1.39603,-2.65606 -0.38421,-0.70727 -0.74701,-1.42587 -1.14446,-2.12544 -0.39509,-0.67529 -0.82327,-1.36123 -1.37649,-1.91682 -0.10937,-0.0796 -0.19717,-0.18478 -0.3462,-0.17058 -0.0535,0.005 -0.19607,0.087 -0.14997,0.0593 5.93196,-3.55893 3.42346,-2.30561 2.56788,-1.3983 -0.41679,0.59411 -0.78577,1.21925 -1.18155,1.82732 -0.23552,0.49662 -0.51468,0.97092 -0.63809,1.51349 -0.12921,0.54853 -0.35987,1.06701 -0.52736,1.60502 -0.14848,0.6615 -0.33136,1.31516 -0.57802,1.94745 -0.23914,0.9099 -0.4256,1.83144 -0.6064,2.75482 -0.28272,1.18548 -0.62823,2.35574 -0.92162,3.53899 -0.4713,1.9983 -0.89616,4.00489 -1.23059,6.03178 -0.34244,2.24846 -0.66347,4.52384 -0.56454,6.80366 0,0 -3.37095,1.71759 -3.37095,1.71759 z"
       inkscape:connector-curvature="0" />
    <path
       style="fill:#ff0707;fill-opacity:1;stroke:none;stroke-width:3.5;stroke-miterlimit:4;stroke-dasharray:none;stroke-opacity:1"
       id="path4261"
       d="m 168.84364,903.47778 c -0.41063,-0.8031 -0.6768,-1.66817 -1.04065,-2.49189 -0.33283,-0.6336 -0.66023,-1.27233 -1.04397,-1.87701 -0.25557,-0.46834 -0.62832,-0.85392 -0.96336,-1.26376 -0.2586,-0.29202 -0.61715,-0.44395 -0.93419,-0.65351 -0.36935,-0.17586 -0.76871,-0.3037 -1.16674,-0.40355 -0.53357,-0.1113 -1.08158,-0.11574 -1.62436,-0.12542 -0.53889,0.019 -1.08848,-0.0575 -1.6196,0.0476 -0.55125,0.0475 -1.00438,0.2156 -1.50653,0.42565 -1.19756,0.65038 -1.02207,0.55741 2.74016,-1.5742 0.0894,-0.0507 -0.17662,0.10543 -0.26117,0.16386 -0.22772,0.15736 -0.42724,0.34839 -0.62969,0.53579 -0.28743,0.3324 -0.67741,0.54713 -0.97537,0.86617 -0.36047,0.33327 -0.62497,0.74525 -0.90991,1.14012 -0.30344,0.43252 -0.62083,0.85399 -0.87171,1.32007 -0.22395,0.45277 -0.45588,0.9009 -0.6983,1.34406 -0.28205,0.48042 -0.48879,0.99694 -0.68711,1.51588 -0.25952,0.5633 -0.49401,1.13743 -0.7428,1.70548 -0.21704,0.47743 -0.38444,0.978 -0.53768,1.47923 -0.10574,0.5389 -0.29202,1.05381 -0.46593,1.57272 -0.17155,0.55947 -0.30979,1.12778 -0.46984,1.69043 -0.17928,0.54986 -0.21343,1.12586 -0.28303,1.69507 -0.13125,0.6236 -0.16354,1.26064 -0.24574,1.89074 -0.10504,0.52573 -0.1861,1.05402 -0.22842,1.58844 -0.0192,0.54347 -0.14936,1.07321 -0.21398,1.61185 -0.0652,0.61979 -0.0717,1.24344 -0.0764,1.86599 -0.0381,0.54765 -0.1448,1.08677 -0.20002,1.63289 -0.0735,0.47501 -0.0292,0.93422 0.0477,1.4029 0.083,0.49724 0.29528,0.93609 0.59797,1.33459 0.41153,0.52992 0.79852,1.07679 1.17352,1.633 0.25498,0.48022 0.62961,0.88049 0.90377,1.34677 0.2082,0.32845 0.45449,0.6298 0.72934,0.90493 0.4639,0.29199 0.98989,0.43724 1.51017,0.59415 0.53658,0.18642 1.11485,0.13838 1.65907,0.26845 0.43538,0.12813 0.88597,0.169 1.3369,0.19291 0.51405,0.0727 0.95345,-0.11885 1.40477,-0.34252 0.43217,-0.18313 0.10049,-0.024 0.48331,-0.25665 0.072,-0.0438 0.29388,-0.16511 0.22085,-0.12306 -5.0281,2.89526 -3.79232,2.28331 -2.71049,1.50904 0.32838,-0.28931 0.69614,-0.53322 1.06751,-0.76428 0.38436,-0.2428 0.73942,-0.51598 1.04867,-0.849 0.44766,-0.58602 0.79287,-1.24137 1.1779,-1.86865 0.2531,-0.44933 0.5737,-0.86072 0.79645,-1.32629 0.23846,-0.50144 0.32634,-1.05021 0.4614,-1.58392 0.14024,-0.51018 0.19632,-1.03523 0.22676,-1.56164 0.022,-0.50855 0.0198,-1.01773 0.0195,-1.52664 -0.0181,-0.44953 -0.21912,-0.84998 -0.40019,-1.25172 -0.2128,-0.40417 -0.5692,-0.69214 -0.91936,-0.97264 -0.4182,-0.30575 -0.88041,-0.53341 -1.32067,-0.80045 -0.36377,-0.21204 -0.71205,-0.44565 -1.0783,-0.65449 -0.30641,-0.14823 -0.64906,-0.13708 -0.96755,-0.2407 0,0 3.12723,-2.14981 3.12723,-2.14981 l 0,0 c 0.35498,0.0711 0.71546,0.13 1.02814,0.32657 0.35563,0.22065 0.71005,0.44247 1.06833,0.6582 0.46322,0.26285 0.9228,0.53068 1.353,0.84652 0.39245,0.31986 0.77092,0.67078 1.00734,1.12584 0.20393,0.4494 0.43254,0.89246 0.47582,1.39314 8.9e-4,0.51466 0.004,1.02948 -0.0114,1.54399 -0.0225,0.54835 -0.063,1.0978 -0.19822,1.63187 -0.13878,0.54236 -0.21979,1.10379 -0.43092,1.62312 -0.16927,0.51694 -0.50453,0.93212 -0.78588,1.39218 -0.38455,0.63533 -0.77626,1.26552 -1.14878,1.90876 -0.26735,0.38627 -0.5958,0.71206 -1.00421,0.94779 -0.34197,0.26592 -0.73047,0.46457 -1.07697,0.72195 -0.1559,0.16564 -0.12976,0.16074 -0.32844,0.27888 -1.33496,0.79381 -2.68883,1.74082 -4.14793,2.3673 -0.50157,0.18462 -0.98176,0.28831 -1.5193,0.20293 -0.46037,-0.041 -0.91345,-0.11793 -1.3623,-0.22918 -0.56249,-0.0762 -1.13145,-0.12315 -1.67195,-0.31223 -0.57108,-0.18429 -1.15908,-0.35113 -1.62928,-0.74315 -0.286,-0.30644 -0.56291,-0.61981 -0.77473,-0.9836 -0.26518,-0.46067 -0.62591,-0.86265 -0.87052,-1.33771 -0.37167,-0.55352 -0.76183,-1.09181 -1.18245,-1.60955 -0.3239,-0.45336 -0.5726,-0.93746 -0.68364,-1.48822 -0.0887,-0.49815 -0.1695,-0.98331 -0.0909,-1.49181 0.0446,-0.54022 0.12822,-1.07405 0.22012,-1.60807 0.007,-0.63311 0.0121,-1.2672 0.0599,-1.89877 0.0502,-0.53712 0.16622,-1.06156 0.21386,-1.59635 0.033,-0.54582 0.094,-1.08914 0.21917,-1.62249 0.12301,-0.62267 0.11289,-1.26651 0.24201,-1.89005 0.12184,-0.57224 0.0758,-1.17421 0.26883,-1.73613 0.16151,-0.56451 0.30524,-1.13202 0.45999,-1.69767 0.15538,-0.52068 0.38914,-1.01799 0.47093,-1.55902 0.12913,-0.52571 0.32242,-1.03345 0.51609,-1.53824 0.27092,-0.55392 0.46705,-1.14048 0.75554,-1.68633 0.20889,-0.52011 0.36433,-1.06618 0.66093,-1.5469 0.22086,-0.45289 0.48353,-0.88471 0.70582,-1.33468 0.21184,-0.49838 0.51812,-0.93886 0.84319,-1.36987 0.26605,-0.41545 0.54872,-0.83168 0.88258,-1.19553 0.10324,-0.10697 0.17484,-0.24216 0.28045,-0.3468 0.20468,-0.20279 0.5086,-0.30379 0.70062,-0.52567 1.20494,-1.38121 3.01048,-2.14321 4.61913,-2.91924 0.50496,-0.1959 1.03238,-0.28315 1.56909,-0.34747 0.54879,-0.0263 1.09868,-0.01 1.64781,0 0.56544,0.0203 1.13709,0.0399 1.6849,0.19574 0.42302,0.12829 0.8571,0.25165 1.23428,0.4885 0.36354,0.20989 0.71729,0.44267 0.99377,0.76398 0.34384,0.42179 0.71301,0.82946 0.97338,1.31114 0.39141,0.62259 0.71713,1.28322 1.05275,1.93692 0.3505,0.80344 0.59872,1.65543 1.04244,2.41499 0,0 -3.27235,1.91749 -3.27235,1.91749 z"
       inkscape:connector-curvature="0" />
    <path
       style="fill:#ff0707;fill-opacity:1;stroke:none;stroke-width:3.5;stroke-miterlimit:4;stroke-dasharray:none;stroke-opacity:1"
       id="path4263"
       d="m 193.08595,901.66953 c -0.75462,-0.19534 -1.50609,-0.40108 -2.27362,-0.5408 -0.63998,-0.0665 -1.26375,-0.21831 -1.90166,-0.30153 -0.57345,-0.0671 -1.15131,-0.0746 -1.72791,-0.0805 -0.68857,-0.11365 -1.38342,-0.17925 -2.0796,-0.22163 -0.57268,0.0516 -1.15878,-0.27597 -1.72976,-0.16211 -0.0945,0.0188 -0.17733,0.0754 -0.26599,0.11314 -1.10499,0.96394 0.19326,-0.19293 2.8008,-1.5086 0.0956,-0.0482 -0.12866,0.17159 -0.18438,0.26303 -0.17713,0.2907 -0.30006,0.60685 -0.41755,0.92453 -0.18791,0.60426 -0.33497,1.2185 -0.42611,1.84454 -0.037,0.61179 -0.13577,1.21503 -0.22431,1.82073 -0.0557,0.53253 -0.19793,1.04941 -0.27952,1.5779 -0.11023,0.51684 -0.22649,1.02926 -0.28848,1.5547 -0.0201,0.60781 -0.0761,1.20758 -0.16182,1.80934 -0.0965,0.65168 -0.12485,1.31027 -0.14153,1.96798 0.0106,0.61487 -0.11153,1.22008 -0.18452,1.82812 -0.0582,0.57461 -0.0678,1.15249 -0.0739,1.72954 0.006,0.55484 0.007,1.10497 -0.0653,1.65564 -0.10224,0.6172 -0.14694,1.24083 -0.17334,1.86518 -0.0186,0.537 -0.0184,1.07439 -0.0186,1.61164 0.0394,0.54981 -0.07,1.0871 -0.14484,1.62818 -0.0784,0.63821 -0.0818,1.27979 -0.17182,1.9166 -0.095,0.59541 -0.14682,1.19575 -0.17489,1.79762 -0.0195,0.51802 -0.019,1.0365 -0.0192,1.5548 -0.0164,0.50266 -0.007,0.99546 0.1222,1.48316 0.21888,0.49834 0.83948,0.5621 1.31511,0.67425 0.76782,0.15528 1.55499,0.17436 2.33573,0.19038 0.70118,-0.0362 1.39002,0.094 2.08334,0.17404 0.0965,0.009 0.19294,0.018 0.2894,0.027 0,0 -3.08151,2.18989 -3.08151,2.18989 l 0,0 c -0.097,-0.0113 -0.19403,-0.0227 -0.29105,-0.034 -0.68164,-0.0889 -1.36178,-0.17274 -2.05129,-0.15354 -0.79963,-0.0294 -1.60642,-0.0652 -2.38712,-0.25487 -0.62538,-0.1678 -1.26825,-0.34385 -1.53537,-1.00073 -0.15936,-0.51623 -0.20213,-1.03731 -0.17339,-1.57653 -1.6e-4,-0.52368 -0.001,-1.04749 0.015,-1.57098 0.0245,-0.61434 0.0711,-1.22766 0.16693,-1.83551 0.0923,-0.63502 0.12501,-1.2687 0.1692,-1.90893 0.0622,-0.52818 0.19147,-1.04786 0.15998,-1.58213 3.1e-4,-0.54282 3.7e-4,-1.08577 0.0179,-1.62837 0.0248,-0.6346 0.0603,-1.2705 0.15699,-1.8988 0.0805,-0.53586 0.0996,-1.06731 0.0828,-1.60971 0.006,-0.5881 0.0162,-1.17658 0.0629,-1.76313 0.0524,-0.60413 0.19801,-1.19736 0.20414,-1.80411 0.0134,-0.66951 0.0297,-1.34076 0.11826,-2.00543 0.0819,-0.59668 0.17285,-1.18662 0.16468,-1.79136 0.037,-0.53181 0.12329,-1.05633 0.27648,-1.56805 0.0669,-0.53371 0.20844,-1.04992 0.28317,-1.58061 0.0834,-0.60646 0.22081,-1.20469 0.2275,-1.81943 0.0809,-0.64931 0.22641,-1.28302 0.39985,-1.91362 0.64515,-2.04695 1.53573,-2.73238 4.22118,-3.57307 0.69273,-0.0607 1.36804,0.12854 2.06081,0.14542 0.69139,0.0569 1.37888,0.15104 2.07059,0.20144 0.58671,0.0106 1.17424,0.0303 1.75517,0.12084 0.63592,0.10014 1.26763,0.22548 1.90375,0.32419 0.77535,0.1658 1.54085,0.37346 2.31348,0.55131 0,0 -3.12896,2.14288 -3.12896,2.14288 z"
       inkscape:connector-curvature="0" />
    <path
       style="fill:#ff0707;fill-opacity:1;stroke:none;stroke-width:3.5;stroke-miterlimit:4;stroke-dasharray:none;stroke-opacity:1"
       id="path4265"
       d="m 185.67292,913.13133 c 0.99945,0.14785 2.0141,0.11648 3.01529,0.23414 0.61928,0.0856 1.23354,0.16105 1.84037,0.30913 0,0 -3.11276,2.15369 -3.11276,2.15369 l 0,0 c -0.5893,-0.13274 -1.19209,-0.19358 -1.78809,-0.28939 -1.0133,-0.10023 -2.03395,-0.11114 -3.04704,-0.21917 0,0 3.09223,-2.1884 3.09223,-2.1884 z"
       inkscape:connector-curvature="0" />
    <path
       style="fill:#ff0707;fill-opacity:1;stroke:none;stroke-width:3.5;stroke-miterlimit:4;stroke-dasharray:none;stroke-opacity:1"
       id="path4267"
       d="m 195.9834,927.35655 c 0.0397,-1.05089 0.008,-2.10263 0.0565,-3.15301 0.0624,-1.08368 0.22491,-2.16042 0.43117,-3.22535 0.18394,-0.89288 0.51326,-1.74533 0.76717,-2.61867 0.21395,-0.80403 0.51229,-1.58166 0.7689,-2.37221 0.15863,-0.64222 0.40319,-1.2579 0.68469,-1.85515 0.35665,-0.68734 0.69166,-1.38682 1.02008,-2.08824 0.26482,-0.56697 0.51988,-1.13853 0.79079,-1.70262 0.29788,-0.61697 0.54947,-1.25518 0.82077,-1.88421 0.25438,-0.56986 0.46671,-1.15631 0.72784,-1.72347 0.23453,-0.53036 0.5208,-1.0338 0.79524,-1.54345 0.32142,-0.69185 0.74041,-1.33206 1.1339,-1.984 1.03276,-1.73956 3.07511,-2.6579 4.97803,-3.20887 0.68745,-0.23286 1.39985,-0.36015 2.12087,-0.42372 0.6614,-0.0348 1.32468,-0.0285 1.98692,-0.0292 0.59214,-0.0361 1.15964,0.018 1.72706,0.18783 0.6442,0.25542 1.28393,0.52764 1.88055,0.88165 0.42517,0.23742 0.82645,0.53112 1.16696,0.88008 0.28307,0.33177 0.46546,0.71845 0.65505,1.10721 0.26994,0.53274 0.40096,1.11038 0.47765,1.69809 0.06,0.55072 0.0545,1.10523 0.0539,1.65829 -0.002,0.66722 -0.008,1.33441 -0.007,2.00163 0.0166,0.65559 -0.0905,1.30706 -0.23691,1.94388 -0.0851,0.50596 -0.24962,0.99016 -0.38322,1.48355 -0.13887,0.49308 -0.28531,0.98375 -0.46429,1.4639 -0.17126,0.49434 -0.4546,0.93231 -0.79023,1.32957 -0.34915,0.37857 -0.7508,0.70464 -1.16444,1.00962 -1.47339,0.76913 -2.95635,2.10323 -4.70374,2.36377 -0.61315,0.0628 -1.23138,0.0524 -1.84704,0.0544 -0.64925,-0.003 -1.29851,-0.002 -1.94777,-0.002 -0.51647,0.0517 -1.00162,-0.0416 -1.50248,-0.14387 -0.48317,-0.0694 -0.95014,-0.0734 -1.408,-0.25503 -0.55194,-0.20783 -1.06277,-0.52492 -1.54637,-0.86029 -0.32158,-0.15036 -0.96172,-0.68294 -1.30949,-0.53156 -0.267,1.32525 -0.008,-0.0851 3.17604,-1.82734 0.047,-0.0257 0.026,0.10419 0.0439,0.15474 0.0283,0.0803 0.0584,0.16015 0.0945,0.23727 0.13461,0.28795 0.15069,0.28408 0.33839,0.54411 0.39657,0.66033 0.86167,1.2735 1.28366,1.91658 0.30461,0.48982 0.5634,1.01139 0.88444,1.49054 0.29769,0.37066 0.34037,0.85309 0.54126,1.26721 0.23884,0.46112 0.44182,0.93936 0.64898,1.41528 0.27197,0.7321 0.63477,1.42251 0.98204,2.12041 0.31246,0.58533 0.63694,1.16205 0.98357,1.72732 0.24694,0.42091 0.54147,0.81039 0.79178,1.22921 0.28742,0.41687 0.43612,0.90101 0.62613,1.36486 0.10884,0.21205 0.19968,0.43126 0.2855,0.6533 0,0 -3.31191,1.84157 -3.31191,1.84157 l 0,0 c -0.0819,-0.22073 -0.17119,-0.43744 -0.28378,-0.64482 -0.17848,-0.44775 -0.31352,-0.9164 -0.59477,-1.31472 -0.25102,-0.41753 -0.54372,-0.8087 -0.78705,-1.23119 -0.34217,-0.57977 -0.66176,-1.17098 -0.97884,-1.76506 -0.34834,-0.70184 -0.71614,-1.39468 -0.99777,-2.1272 -0.21894,-0.46595 -0.42831,-0.93633 -0.6604,-1.39571 -0.1982,-0.40236 -0.24638,-0.85877 -0.51543,-1.22811 -0.3106,-0.4866 -0.57376,-1.00363 -0.86404,-1.50255 -0.41562,-0.64024 -0.87953,-1.24841 -1.27975,-1.89947 -0.81339,-1.13809 -2.47283,-4.91043 2.67925,-3.25529 0.50178,0.16513 0.96048,0.4463 1.40601,0.72484 0.47025,0.30572 0.95677,0.60205 1.49598,0.76874 0.45613,0.11382 0.93041,0.10516 1.38871,0.21421 0.48011,0.0954 0.9599,0.10448 1.44909,0.0905 0.64681,0.003 1.29363,0.009 1.94044,0.004 0.60602,-0.005 1.21798,-0.002 1.81514,-0.11897 1.43294,-0.35165 3.82061,-2.07918 -1.84514,1.29671 0.44088,-0.24983 0.82264,-0.58846 1.19945,-0.9227 0.35171,-0.34482 0.6758,-0.74052 0.8483,-1.2069 0.20527,-0.45561 0.32308,-0.93635 0.48235,-1.40843 0.10764,-0.50575 0.32282,-0.97588 0.39648,-1.4901 0.15413,-0.61045 0.28578,-1.23382 0.28063,-1.86651 0.003,-0.66589 2.5e-4,-1.33177 9.2e-4,-1.99766 -9.9e-4,-0.53917 0.001,-1.07928 -0.0378,-1.61733 -0.0557,-0.54665 -0.1563,-1.08739 -0.41421,-1.57958 -0.18356,-0.34511 -0.34301,-0.70067 -0.60399,-0.99704 -0.33009,-0.31386 -0.69649,-0.58967 -1.09613,-0.80935 -0.58026,-0.32394 -1.19082,-0.59662 -1.82624,-0.79343 -0.55262,-0.11416 -1.10643,-0.12929 -1.67008,-0.11287 -0.65552,-2.7e-4 -1.31285,-0.005 -1.96571,0.0629 -0.70218,0.0872 -1.39204,0.24151 -2.05982,0.47903 -1.23887,0.46615 -3.06153,1.65022 2.15668,-1.38422 0.0954,-0.0555 -0.19161,0.11234 -0.27428,0.18545 -0.0869,0.0769 -0.15941,0.16909 -0.2304,0.26084 -0.0785,0.10144 -0.14479,0.21174 -0.21718,0.31762 -0.39506,0.63307 -0.80885,1.26455 -1.12433,1.94057 -0.2378,0.53192 -0.59442,1.00177 -0.80763,1.54804 -0.28672,0.55576 -0.49178,1.14492 -0.73495,1.71867 -0.30614,0.61546 -0.52232,1.27074 -0.81372,1.8935 -0.2885,0.55259 -0.51531,1.13465 -0.79831,1.69012 -0.31283,0.71191 -0.68505,1.39838 -1.01309,2.10245 -0.30746,0.56792 -0.55236,1.17707 -0.71341,1.80227 -0.24789,0.7927 -0.56881,1.5612 -0.78522,2.3638 -0.22982,0.87528 -0.58229,1.7134 -0.78539,2.59666 -0.21359,1.05283 -0.41021,2.1132 -0.47665,3.18725 -0.0572,1.03419 -0.0318,2.07037 -0.005,3.10544 0,0 -3.38038,1.72239 -3.38038,1.72239 z"
       inkscape:connector-curvature="0" />
  </g>
</svg>
