<?xml version="1.0" encoding="UTF-8" standalone="no"?>
<!-- Created with Inkscape (http://www.inkscape.org/) -->

<svg
   xmlns:dc="http://purl.org/dc/elements/1.1/"
   xmlns:cc="http://creativecommons.org/ns#"
   xmlns:rdf="http://www.w3.org/1999/02/22-rdf-syntax-ns#"
   xmlns:svg="http://www.w3.org/2000/svg"
   xmlns="http://www.w3.org/2000/svg"
   xmlns:xlink="http://www.w3.org/1999/xlink"
   xmlns:sodipodi="http://sodipodi.sourceforge.net/DTD/sodipodi-0.dtd"
   xmlns:inkscape="http://www.inkscape.org/namespaces/inkscape"
   width="256"
   height="256"
   id="svg2"
   version="1.1"
   inkscape:version="0.47 r22583"
   sodipodi:docname="dizzy-underwater.svg"
   inkscape:export-filename="/home/undefer/unDE/3D/GameEngine/dizzy/dizzy-underwater.png"
   inkscape:export-xdpi="90"
   inkscape:export-ydpi="90">
  <defs
     id="defs4">
    <linearGradient
       id="linearGradient3593">
      <stop
         style="stop-color:#9b0000;stop-opacity:1;"
         offset="0"
         id="stop3595" />
      <stop
         id="stop3603"
         offset="0.5"
         style="stop-color:#ff0000;stop-opacity:1;" />
      <stop
         style="stop-color:#a30000;stop-opacity:1;"
         offset="1"
         id="stop3597" />
    </linearGradient>
    <inkscape:perspective
       sodipodi:type="inkscape:persp3d"
       inkscape:vp_x="0 : 526.18109 : 1"
       inkscape:vp_y="0 : 1000 : 0"
       inkscape:vp_z="744.09448 : 526.18109 : 1"
       inkscape:persp3d-origin="372.04724 : 350.78739 : 1"
       id="perspective10" />
    <inkscape:perspective
       id="perspective4902"
       inkscape:persp3d-origin="0.5 : 0.33333333 : 1"
       inkscape:vp_z="1 : 0.5 : 1"
       inkscape:vp_y="0 : 1000 : 0"
       inkscape:vp_x="0 : 0.5 : 1"
       sodipodi:type="inkscape:persp3d" />
    <inkscape:perspective
       id="perspective6406"
       inkscape:persp3d-origin="0.5 : 0.33333333 : 1"
       inkscape:vp_z="1 : 0.5 : 1"
       inkscape:vp_y="0 : 1000 : 0"
       inkscape:vp_x="0 : 0.5 : 1"
       sodipodi:type="inkscape:persp3d" />
  </defs>
  <sodipodi:namedview
     id="base"
     pagecolor="#ffffff"
     bordercolor="#666666"
     borderopacity="1.0"
     inkscape:pageopacity="0.0"
     inkscape:pageshadow="2"
     inkscape:zoom="1.3843545"
     inkscape:cx="151.81819"
     inkscape:cy="103.54633"
     inkscape:document-units="px"
     inkscape:current-layer="layer1"
     showgrid="true"
     inkscape:window-width="1010"
     inkscape:window-height="754"
     inkscape:window-x="0"
     inkscape:window-y="0"
     inkscape:window-maximized="0"
     inkscape:snap-grids="false"
     showguides="true"
     inkscape:guide-bbox="true">
    <inkscape:grid
       type="xygrid"
       id="grid2819"
       empspacing="5"
       visible="true"
       enabled="true"
       snapvisiblegridlinesonly="true" />
  </sodipodi:namedview>
  <metadata
     id="metadata7">
    <rdf:RDF>
      <cc:Work
         rdf:about="">
        <dc:format>image/svg+xml</dc:format>
        <dc:type
           rdf:resource="http://purl.org/dc/dcmitype/StillImage" />
        <dc:title></dc:title>
      </cc:Work>
    </rdf:RDF>
  </metadata>
  <g
     inkscape:label="Layer 1"
     inkscape:groupmode="layer"
     id="layer1"
     transform="translate(0,-796.36218)">
    <rect
       style="fill:#f0f0f0;stroke:#000000;stroke-width:4;stroke-linecap:round;stroke-linejoin:miter;stroke-miterlimit:4;stroke-opacity:1;stroke-dasharray:none;fill-opacity:1"
       id="rect5010"
       width="318.57144"
       height="312.85715"
       x="-33.57143"
       y="-29.714283"
       transform="translate(0,796.36218)"
       inkscape:export-xdpi="90"
       inkscape:export-ydpi="90" />
    <g
       id="g6442"
       transform="translate(0,7.4944676)">
      <path
         sodipodi:nodetypes="csssc"
         id="path3607"
         d="m 180.3315,874.36775 c 0,20.00698 -7.50933,29.05363 -25.0144,29.05396 -22.9237,4.3e-4 -24.60797,-12.25373 -25.01441,-29.05396 -0.35124,-14.51851 14.40234,-24.66503 25.01441,-24.35863 11.87676,0.34291 25.0144,10.2524 25.0144,24.35863 z"
         style="fill:#ffffff;fill-opacity:1;stroke:#000000;stroke-width:2.64246678;stroke-linecap:round;stroke-linejoin:round;stroke-miterlimit:4;stroke-opacity:1" />
      <path
         transform="matrix(1.6676274,0,0,1.549545,-94.405173,766.09705)"
         d="m 155.84498,73.5 a 8.3449821,8.3449821 0 1 1 -16.68996,0 8.3449821,8.3449821 0 1 1 16.68996,0 z"
         sodipodi:ry="8.3449821"
         sodipodi:rx="8.3449821"
         sodipodi:cy="73.5"
         sodipodi:cx="147.5"
         id="path3616"
         style="fill:#0000ff;fill-opacity:1;stroke:none"
         sodipodi:type="arc" />
      <path
         transform="matrix(1.2507202,0,0,1.1621584,-54.798969,739.36744)"
         d="m 171.24313,121 a 6.2431326,6.2431326 0 1 1 -12.48626,0 6.2431326,6.2431326 0 1 1 12.48626,0 z"
         sodipodi:ry="6.2431326"
         sodipodi:rx="6.2431326"
         sodipodi:cy="121"
         sodipodi:cx="165"
         id="path3620"
         style="fill:#000000;fill-opacity:1;stroke:none"
         sodipodi:type="arc" />
    </g>
    <path
       style="fill:none;stroke:#000000;stroke-width:4;stroke-linecap:round;stroke-linejoin:miter;stroke-opacity:1;stroke-miterlimit:4;stroke-dasharray:none"
       d="m 88.037733,153.84907 c 8.916462,2.16708 20.862027,7.26395 31.962267,7.26395 11.10025,0 22.32143,-4.01738 32.32143,-6.90681"
       id="path3637"
       sodipodi:nodetypes="czs"
       transform="translate(0,796.36218)" />
    <path
       style="fill:none;stroke:#000000;stroke-width:4;stroke-linecap:round;stroke-linejoin:miter;stroke-miterlimit:4;stroke-opacity:1;stroke-dasharray:none"
       d="m 55.778867,932.77987 c 10,10 13.486372,12.00036 24.221133,14.58231 13.644366,3.28178 21.99057,14.05414 40,13.98404 18.00943,-0.0701 28.211,-10.86183 40,-13.98404 12.89908,-3.4162 15.31596,-5.00369 25.31596,-15.00369"
       id="path3637-9"
       sodipodi:nodetypes="cszcz" />
    <path
       style="fill:none;stroke:#000000;stroke-width:4;stroke-linecap:butt;stroke-linejoin:miter;stroke-miterlimit:4;stroke-opacity:1;stroke-dasharray:none"
       d="m 181.87731,925.79714 10,10"
       id="path4916"
       sodipodi:nodetypes="cc" />
    <path
       style="fill:none;stroke:#000000;stroke-width:4;stroke-linecap:butt;stroke-linejoin:miter;stroke-miterlimit:4;stroke-opacity:1;stroke-dasharray:none"
       d="m 58.611792,926.69633 -10,10"
       id="path4918"
       sodipodi:nodetypes="cc" />
    <path
       style="fill:#000000;fill-opacity:1;stroke:none"
       d="m 178.44835,845.82711 c 0,0 -3.70619,-7.47613 -8.05691,-10.27277 -4.35072,-2.79664 -9.32569,-3.015 -16.47621,-3.41533 -7.15052,-0.40033 -12.08401,-1.24099 -14.6735,1.06192 -2.58949,2.30291 -2.73827,4.56536 -0.2071,6.88909 2.53117,2.32374 14.1165,1.11551 14.1165,1.11551 0,0 8.41581,-0.0458 12.70299,0.97669 4.28718,1.02246 12.59423,3.64489 12.59423,3.64489 z"
       id="path6424"
       sodipodi:nodetypes="czzzzzzc" />
    <use
       x="0"
       y="0"
       xlink:href="#path6424"
       id="use6426"
       transform="matrix(-1,0,0,1,237.08884,-0.31226951)"
       width="256"
       height="256" />
    <use
       x="0"
       y="0"
       xlink:href="#g6442"
       id="use6452"
       transform="matrix(-1,0,0,1,240.55928,0.72235832)"
       width="256"
       height="256" />
  </g>
</svg>
