<?xml version="1.0" encoding="UTF-8" standalone="no"?>
<!-- Created with Inkscape (http://www.inkscape.org/) -->

<svg
   xmlns:dc="http://purl.org/dc/elements/1.1/"
   xmlns:cc="http://creativecommons.org/ns#"
   xmlns:rdf="http://www.w3.org/1999/02/22-rdf-syntax-ns#"
   xmlns:svg="http://www.w3.org/2000/svg"
   xmlns="http://www.w3.org/2000/svg"
   xmlns:xlink="http://www.w3.org/1999/xlink"
   xmlns:sodipodi="http://sodipodi.sourceforge.net/DTD/sodipodi-0.dtd"
   xmlns:inkscape="http://www.inkscape.org/namespaces/inkscape"
   width="256"
   height="256"
   id="svg2"
   version="1.1"
   inkscape:version="0.91 r13725"
   sodipodi:docname="zaks.svg"
   inkscape:export-filename="/home/undefer/unDE/3D/GameEngine/dizzy/zaks.png"
   inkscape:export-xdpi="90"
   inkscape:export-ydpi="90">
  <defs
     id="defs4">
    <linearGradient
       id="linearGradient3593">
      <stop
         style="stop-color:#9b0000;stop-opacity:1;"
         offset="0"
         id="stop3595" />
      <stop
         id="stop3603"
         offset="0.5"
         style="stop-color:#ff0000;stop-opacity:1;" />
      <stop
         style="stop-color:#a30000;stop-opacity:1;"
         offset="1"
         id="stop3597" />
    </linearGradient>
    <inkscape:perspective
       sodipodi:type="inkscape:persp3d"
       inkscape:vp_x="0 : 526.18109 : 1"
       inkscape:vp_y="0 : 1000 : 0"
       inkscape:vp_z="744.09448 : 526.18109 : 1"
       inkscape:persp3d-origin="372.04724 : 350.78739 : 1"
       id="perspective10" />
    <inkscape:perspective
       id="perspective4902"
       inkscape:persp3d-origin="0.5 : 0.33333333 : 1"
       inkscape:vp_z="1 : 0.5 : 1"
       inkscape:vp_y="0 : 1000 : 0"
       inkscape:vp_x="0 : 0.5 : 1"
       sodipodi:type="inkscape:persp3d" />
    <inkscape:perspective
       id="perspective6406"
       inkscape:persp3d-origin="0.5 : 0.33333333 : 1"
       inkscape:vp_z="1 : 0.5 : 1"
       inkscape:vp_y="0 : 1000 : 0"
       inkscape:vp_x="0 : 0.5 : 1"
       sodipodi:type="inkscape:persp3d" />
  </defs>
  <sodipodi:namedview
     id="base"
     pagecolor="#ffffff"
     bordercolor="#666666"
     borderopacity="1.0"
     inkscape:pageopacity="0.0"
     inkscape:pageshadow="2"
     inkscape:zoom="1.9424778"
     inkscape:cx="18.606984"
     inkscape:cy="171.50299"
     inkscape:document-units="px"
     inkscape:current-layer="layer1"
     showgrid="true"
     inkscape:window-width="1906"
     inkscape:window-height="1066"
     inkscape:window-x="0"
     inkscape:window-y="0"
     inkscape:window-maximized="0"
     inkscape:snap-grids="false"
     showguides="true"
     inkscape:guide-bbox="true">
    <inkscape:grid
       type="xygrid"
       id="grid2819"
       empspacing="5"
       visible="true"
       enabled="true"
       snapvisiblegridlinesonly="true" />
  </sodipodi:namedview>
  <metadata
     id="metadata7">
    <rdf:RDF>
      <cc:Work
         rdf:about="">
        <dc:format>image/svg+xml</dc:format>
        <dc:type
           rdf:resource="http://purl.org/dc/dcmitype/StillImage" />
        <dc:title />
      </cc:Work>
    </rdf:RDF>
  </metadata>
  <g
     inkscape:label="Layer 1"
     inkscape:groupmode="layer"
     id="layer1"
     transform="translate(0,-796.36218)">
    <image
       sodipodi:absref="/home/undefer/MyFiles/Изображения/Диззи/zx/zaks.png"
       y="791.26398"
       x="305.64755"
       id="image4916"
       xlink:href="file:///home/undefer/MyFiles/%D0%98%D0%B7%D0%BE%D0%B1%D1%80%D0%B0%D0%B6%D0%B5%D0%BD%D0%B8%D1%8F/%D0%94%D0%B8%D0%B7%D0%B7%D0%B8/zx/zaks.png"
       style="image-rendering:optimizeQuality"
       preserveAspectRatio="none"
       height="254.01839"
       width="212.49617" />
    <path
       style="fill:#25f7ff;fill-opacity:1;fill-rule:evenodd;stroke:#000000;stroke-width:0.91078985px;stroke-linecap:butt;stroke-linejoin:miter;stroke-opacity:1"
       d="m -79.178866,800.66606 32.23792,-9.53978 -21.382289,18.75062 5.263327,7.23708 3.618545,22.36916 -2.631667,3.9475 1.644799,4.27646 3.289581,-2.63166 2.960623,2.96062 -1.315837,2.96062 3.9475,1.97376 -4.934368,2.63166 2.302705,3.9475 4.605417,-2.96062 0.32896,4.27646 -3.618541,1.97374 5.263327,3.61855 7.894999,-1.64479 13.158336,11.18458 13.816244,32.89583 -8.552908,8.88188 -27.303539,26.97458 -2.631673,22.69815 6.579172,38.81694 4.605409,14.8032 -1.644786,9.2108 -5.592295,3.6186 -26.974584,0 -10.197703,-2.6317 -10.197713,2.9607 -23.356045,0 -8.22396,-9.211 9.86876,-58.55447 0.98688,-51.97539 -4.27646,-12.82937 -12.82938,-9.5398 -11.18458,14.14521 -4.27646,-0.98687 -9.21084,-59.87041 2.30272,-6.25022 -3.59517,-7.71882 c 0,0 -2.12818,0.69216 -5.28672,1.79758 -1.71768,0.60116 -4.43306,-1.43412 -1.31582,-2.63167 2.81625,-1.08192 8.13768,-3.90987 13.35788,-6.19377 l -5.38306,-8.41665 c -1.25524,-1.96263 2.04185,-3.3669 3.53872,-1.83749 l 15.13208,15.46104 2.63167,-5.26334 9.21083,6.57917 14.14521,39.14604 7.895,-5.59229 -8.22396,-8.22396 6.90812,-4.27646 -6.57916,-4.93438 7.56604,0.65792 3.28958,-7.56604 -0.65792,-3.28958 z"
       id="path4919"
       inkscape:connector-curvature="0"
       sodipodi:nodetypes="cccccccccccccccccccccccccccccccccccccccccsscsscccccccccccc" />
    <path
       style="fill:#000000;fill-opacity:1;fill-rule:evenodd;stroke:#000000;stroke-width:0.91078985px;stroke-linecap:butt;stroke-linejoin:miter;stroke-opacity:1"
       d="m -99.093148,862.81456 c 0,0 10.197713,5.92126 14.145212,5.5923 1.973746,-0.16448 11.073009,-1.02279 12.993856,-5.3867 1.441799,-3.27557 3.289582,-6.12684 3.289582,-6.12684 0,0 1.89151,7.19596 -2.05599,12.29481 -3.9475,5.09885 -10.279957,9.58091 -12.582662,9.74539 -4.605417,0.32896 -15.789998,-16.11896 -15.789998,-16.11896 z"
       id="path4921"
       inkscape:connector-curvature="0"
       sodipodi:nodetypes="csscssc" />
    <path
       style="fill:#ffffff;fill-opacity:1;fill-rule:evenodd;stroke:#000000;stroke-width:0.91078985px;stroke-linecap:butt;stroke-linejoin:miter;stroke-opacity:1"
       d="m -78.689362,847.05992 c 1.317157,-1.50074 6.813774,-4.68039 8.442038,-2.1217 1.628256,2.5587 -0.890524,5.69065 -3.216618,7.0863 -2.326084,1.39565 -5.622515,3.38109 -6.320335,1.52022 -0.697829,-1.86087 -0.222251,-4.98408 1.094915,-6.48482 z"
       id="path4923"
       inkscape:connector-curvature="0"
       sodipodi:nodetypes="zsssz" />
    <path
       style="fill:#ffffff;fill-opacity:1;fill-rule:evenodd;stroke:#000000;stroke-width:0.91078985px;stroke-linecap:butt;stroke-linejoin:miter;stroke-opacity:1"
       d="m -94.903843,845.63605 c 0.930436,-0.58152 4.652178,-2.55869 7.210869,0 2.5587,2.55869 1.872556,6.90529 1.872556,6.90529 -1.194027,1.84113 -6.292118,3.5621 -7.920383,-0.15965 -1.628255,-3.72173 -2.093478,-6.16412 -1.163042,-6.74564 z"
       id="path4925"
       inkscape:connector-curvature="0"
       sodipodi:nodetypes="zsssz" />
    <path
       style="fill:#9e212c;fill-opacity:1;fill-rule:evenodd;stroke:#000000;stroke-width:0.91078985px;stroke-linecap:butt;stroke-linejoin:miter;stroke-opacity:1"
       d="m -90.716888,871.97898 15.003259,0 c 0,0 -4.419562,5.17554 -6.978262,5.17554 -2.558691,0 -8.024997,-5.17554 -8.024997,-5.17554 z"
       id="path4927"
       inkscape:connector-curvature="0" />
    <ellipse
       style="fill:none;fill-opacity:1;stroke:none;stroke-opacity:1"
       id="path4929"
       cx="-91.269325"
       cy="848.95068"
       rx="0.90135849"
       ry="0.98858678" />
    <ellipse
       style="fill:#000000;fill-opacity:1;stroke:none;stroke-opacity:1"
       id="path4931"
       cx="-76.585892"
       cy="848.80536"
       rx="0.87228245"
       ry="0.90135849" />
    <ellipse
       style="fill:#000000;fill-opacity:1;stroke:none;stroke-opacity:1"
       id="path4933"
       cx="-91.15303"
       cy="848.77625"
       rx="0.95951074"
       ry="1.0467389" />
    <path
       style="fill:#f4e8d4;fill-opacity:1;fill-rule:evenodd;stroke:#000000;stroke-width:2.511;stroke-linecap:butt;stroke-linejoin:miter;stroke-opacity:1;stroke-miterlimit:4;stroke-dasharray:none"
       d="m -88.566486,867.58446 c 3.454071,0.16448 5.921255,-2.46718 7.56605,-4.7699 1.644786,-2.3027 1.480298,-4.93437 0.32895,-6.74364 -0.575674,-0.90464 -3.125102,1.48031 -5.016612,1.93263 -1.89151,0.45232 -4.111979,-0.2056 -4.687653,0.37008 -1.151348,1.15136 -3.289582,2.63167 -2.631664,4.44093 0.657909,1.80928 4.440929,4.7699 4.440929,4.7699 z"
       id="path4935"
       inkscape:connector-curvature="0"
       sodipodi:nodetypes="csssssc" />
    <path
       style="fill:#000000;fill-opacity:1;fill-rule:evenodd;stroke:#000000;stroke-width:0.91078985px;stroke-linecap:butt;stroke-linejoin:miter;stroke-opacity:1"
       d="m -153.70023,840.11644 c 0.32896,2.79614 0.65792,4.93438 3.28958,4.7699 2.63168,-0.16448 5.5923,-4.44094 6.90812,-7.56604 1.31584,-3.12511 4.7699,-4.60542 6.08574,-3.9475 1.31583,0.65792 -6.08574,50.33062 -7.895,50.16614 -1.80928,-0.16448 -8.22396,-27.13906 -7.895,-29.27729 0.32896,-2.13823 -1.56471,-12.05659 -1.50656,-12.84163 0.0582,-0.78506 1.01312,-1.30358 1.01312,-1.30358 z"
       id="path4939"
       inkscape:connector-curvature="0" />
    <path
       style="fill:#323232;fill-opacity:1;fill-rule:evenodd;stroke:#000000;stroke-width:0.91078985px;stroke-linecap:butt;stroke-linejoin:miter;stroke-opacity:1"
       d="m -100.83536,839.12301 c -0.23261,-1.16305 5.931517,-7.55979 16.864128,-7.79239 10.932602,-0.23262 23.842386,8.2576 23.260865,8.95543 -0.581525,0.69782 -11.863041,-5.00108 -21.63261,-4.41956 -9.769559,0.58152 -18.492383,3.25652 -18.492383,3.25652 z"
       id="path4941"
       inkscape:connector-curvature="0" />
    <path
       style="fill:#323232;fill-opacity:1;stroke:#000000;stroke-width:0.91078985;stroke-opacity:1"
       d="m -56.749533,865.54071 c -1.710582,-1.21302 -1.805131,-1.4638 -2.449287,-6.49655 -0.589736,-4.60761 -0.722174,-5.21843 -1.614648,-7.44729 -0.421244,-1.05198 -0.704545,-2.18268 -0.704545,-2.8119 0,-1.12778 0.336145,-1.62039 0.580459,-0.85064 0.219728,0.69232 0.541956,0.57409 2.210851,-0.81118 l 1.511957,-1.25502 1.104888,1.0842 c 0.607697,0.5963 1.104897,1.20632 1.104897,1.35559 0,0.14927 -0.272426,0.86645 -0.605393,1.59375 -0.332966,0.72729 -0.568487,1.35563 -0.523376,1.3963 0.04508,0.0406 0.809492,0.43841 1.698623,0.88387 l 1.616588,0.80992 -2.135738,1.13655 c -1.174655,0.62512 -2.137642,1.23204 -2.139965,1.34872 -0.0036,0.17681 2.429168,4.49131 2.682705,4.75791 0.04463,0.0469 1.001422,-0.50106 2.126247,-1.21771 2.284516,-1.45549 2.352862,-1.43966 2.378464,0.55091 l 0.01348,1.04674 -1.959983,1.03394 c -1.077993,0.56867 -1.905864,1.12151 -1.839705,1.22856 0.06612,0.10704 0.81748,0.66234 1.669624,1.23399 1.385247,0.92929 1.479824,1.03938 0.892993,1.03938 -0.360992,0 -1.371823,0.31402 -2.24629,0.69783 -0.874459,0.38379 -1.677065,0.69423 -1.783554,0.68983 -0.10649,-0.005 -0.82166,-0.45336 -1.589274,-0.9977 z"
       id="path4951"
       inkscape:connector-curvature="0" />
    <path
       style="fill:#323232;fill-opacity:1;stroke:#000000;stroke-width:0.68764633;stroke-miterlimit:4;stroke-dasharray:none;stroke-opacity:1"
       d="m -105.20982,870.97254 c -0.55422,-0.66779 -3.11467,-2.4075 -3.79436,-2.57809 -0.34938,-0.0877 -0.63433,-0.22658 -0.63322,-0.30867 9.1e-4,-0.0821 1.09904,-0.91628 2.43986,-1.85377 1.34081,-0.93749 2.50471,-1.81273 2.58644,-1.94496 0.0817,-0.13223 -1.65882,-2.05004 -3.86786,-4.2618 l -4.01646,-4.02137 0.90463,-0.55923 c 0.49755,-0.30756 1.89904,-1.17222 3.11441,-1.92146 1.21539,-0.74923 2.34721,-1.48663 2.51517,-1.63867 0.24425,-0.2211 -0.20969,-0.66082 -2.26793,-2.19685 -1.41533,-1.05623 -2.57332,-1.97529 -2.57332,-2.04237 0,-0.13804 4.55877,0.13612 5.15789,0.3102 0.74891,0.21761 2.74649,10.06127 2.74926,13.54776 0.002,2.07105 -0.60336,5.4767 -1.4573,8.20331 -0.47314,1.51073 -0.55444,1.6308 -0.85721,1.26597 z"
       id="path4955"
       inkscape:connector-curvature="0" />
    <path
       style="fill:#000000;fill-opacity:1;fill-rule:evenodd;stroke:#000000;stroke-width:0.91078985px;stroke-linecap:butt;stroke-linejoin:miter;stroke-opacity:1"
       d="m -85.934813,934.52748 c 2.960623,-1.48032 10.362183,6.90812 16.283437,2.79614 5.921245,-4.11198 6.414684,-16.28344 9.210831,-16.28344 2.796152,0 2.138234,35.19854 0.986877,41.44872 -1.151357,6.2502 -3.618544,18.91512 -5.592299,21.21787 -1.973745,2.30266 -9.046347,-13.98074 -9.868745,-20.55992 -0.822397,-6.57917 -1.644795,-18.9151 -4.934376,-22.20469 -3.289582,-3.28958 -6.085725,-6.41468 -6.085725,-6.41468 z"
       id="path4957"
       inkscape:connector-curvature="0" />
    <path
       style="fill:#f4e8d4;fill-opacity:1;fill-rule:evenodd;stroke:#000000;stroke-width:0.91078985px;stroke-linecap:butt;stroke-linejoin:miter;stroke-opacity:1"
       d="m -88.073047,931.56685 c 0,0 9.046356,8.22396 15.789999,5.42781 6.743652,-2.79614 11.184585,-13.32281 11.184585,-16.28343 0,-2.96063 -7.566044,-9.21083 -11.678024,-9.21083 -4.111979,0 -16.118948,10.69114 -15.789999,13.48728 0.32896,2.79615 0.493439,6.57917 0.493439,6.57917 z"
       id="path4959"
       inkscape:connector-curvature="0" />
    <path
       style="fill:none;fill-rule:evenodd;stroke:#000000;stroke-width:0.91078985px;stroke-linecap:butt;stroke-linejoin:miter;stroke-opacity:1"
       d="m -83.456936,935.32992 0,-5.92126"
       id="path4961"
       inkscape:connector-curvature="0" />
    <path
       style="fill:none;fill-rule:evenodd;stroke:#000000;stroke-width:0.91078985px;stroke-linecap:butt;stroke-linejoin:miter;stroke-opacity:1"
       d="m -77.785831,937.74893 -0.08224,-8.55292"
       id="path4963"
       inkscape:connector-curvature="0" />
    <path
       style="fill:none;fill-rule:evenodd;stroke:#000000;stroke-width:0.91078985px;stroke-linecap:butt;stroke-linejoin:miter;stroke-opacity:1"
       d="m -71.294067,936.35342 -0.116299,-7.32717"
       id="path4965"
       inkscape:connector-curvature="0" />
    <path
       style="fill:none;fill-rule:evenodd;stroke:#000000;stroke-width:0.91078985px;stroke-linecap:butt;stroke-linejoin:miter;stroke-opacity:1"
       d="m -138.16905,832.60997 -0.11631,-3.14022"
       id="path4973"
       inkscape:connector-curvature="0" />
    <path
       style="fill:#f4e8d4;fill-opacity:1;stroke:#000000;stroke-width:0.08780977;stroke-miterlimit:4;stroke-dasharray:none;stroke-opacity:1"
       d="m -151.69927,844.15948 c -0.72945,-0.3595 -1.16835,-1.47667 -1.43077,-3.64186 -0.0777,-0.64083 -0.18019,-1.16515 -0.22783,-1.16515 -0.0476,0 -0.35356,0.17965 -0.67982,0.3992 -0.32628,0.21956 -0.59322,0.38315 -0.59322,0.36354 0,-0.0196 0.076,-0.25088 0.16875,-0.51394 l 0.16874,-0.47827 -1.90812,-4.09957 c -1.04948,-2.25476 -1.9522,-4.11425 -2.00605,-4.13221 -0.0538,-0.0179 -1.419,0.41306 -3.03366,0.95779 -1.61465,0.54474 -3.07416,0.99042 -3.24336,0.99042 -0.5126,0 -1.30274,-0.44792 -1.38777,-0.78669 -0.0978,-0.38973 0.24128,-0.66544 1.3815,-1.12326 0.46551,-0.18691 3.04454,-1.38258 5.73117,-2.65703 2.68663,-1.27445 5.52591,-2.60604 6.30951,-2.95908 0.7836,-0.35304 1.42472,-0.68523 1.42472,-0.7382 0,-0.0529 -1.13379,-1.86567 -2.51954,-4.02824 -3.79528,-5.92282 -3.57638,-5.4641 -2.89351,-6.06368 0.47836,-0.42 1.24274,-0.57444 1.85048,-0.37387 0.30727,0.10142 1.76427,1.51669 5.84922,5.68174 2.99201,3.05067 6.45861,6.57837 7.70356,7.83932 l 2.26355,2.29265 0.008,1.42272 0.008,1.42272 -0.43566,0.0917 c -1.13876,0.23965 -2.91653,1.45506 -3.76297,2.57261 -0.30046,0.39671 -0.81924,1.29911 -1.15285,2.00535 -1.53276,3.24488 -3.61298,5.82767 -5.34853,6.64069 -0.69504,0.3256 -1.67537,0.36082 -2.24389,0.0806 l 0,0 z"
       id="path4975"
       inkscape:connector-curvature="0" />
    <path
       style="fill:#25f7ff;fill-opacity:1;fill-rule:evenodd;stroke:#000000;stroke-width:0.91078985px;stroke-linecap:butt;stroke-linejoin:miter;stroke-opacity:1"
       d="m 80.821139,528.02812 32.237911,-9.53978 -21.382274,18.75062 5.26332,7.23708 3.618544,22.36916 -2.631664,3.9475 1.6448,4.27646 3.289584,-2.63166 2.96062,2.96062 -1.31584,2.96062 3.94749,1.97376 -4.93435,2.63166 2.3027,3.9475 4.60541,-2.96062 0.32896,4.27646 -3.61854,1.97374 5.26332,3.61855 7.895,-1.64479 13.15834,11.18458 13.81624,32.89583 -8.55291,8.88188 -27.30353,26.97458 -2.63168,22.69812 6.57918,38.81698 4.6054,14.8031 -1.64478,9.2109 -5.5923,3.6185 -26.974571,0 -10.19771,-2.6316 -10.197713,2.9606 -23.35604,0 -8.223958,-9.2109 9.868754,-58.55446 0.986877,-51.97541 -4.276459,-12.82937 -12.829376,-9.5398 -11.184581,14.14521 -4.276459,-0.98687 -9.2108363,-59.87041 2.302714,-6.25022 -3.59517,-7.71882 c 0,0 -2.12817905,0.69216 -5.2867156,1.79758 -1.717686,0.60116 -4.43306,-1.43412 -1.315827,-2.63168 2.816253,-1.08191 8.1376876,-3.90986 13.3578796,-6.19376 l -5.383059,-8.41665 c -1.255232,-1.96263 2.041854,-3.3669 3.538719,-1.83749 l 15.1320803,15.46104 2.631673,-5.26334 9.210827,6.57917 14.145212,39.14604 7.895,-5.59229 -8.223959,-8.22396 6.908123,-4.27646 -6.579164,-4.93438 7.566041,0.65792 3.289581,-7.56604 -0.657918,-3.28958 z"
       id="path4919-3"
       inkscape:connector-curvature="0"
       sodipodi:nodetypes="cccccccccccccccccccccccccccccccccccccccccsscsscccccccccccc" />
    <path
       style="fill:#000000"
       d="m 93.935366,759.57567 c 0,-0.6717 -2.74779,-1.2213 -6.106207,-1.2213 -3.35842,0 -6.10621,-0.5496 -6.10621,-1.2212 0,-0.6717 -0.84932,-1.2213 -1.88737,-1.2213 -2.44306,0 -7.88257,-5.4395 -7.88257,-7.8826 0,-1.038 -0.897262,-1.8873 -1.993908,-1.8873 -1.096663,0 -3.094117,-1.2365 -4.438779,-2.7478 -1.658357,-1.8639 -2.621117,-2.2568 -2.99281,-1.2213 -0.648938,1.8079 -5.2294,2.0753 -5.2294,0.3053 0,-0.6716 -0.897265,-1.2212 -1.993928,-1.2212 -1.096655,0 -2.999295,-1.1592 -4.228069,-2.576 -2.010377,-2.318 -2.422264,-2.3879 -4.112289,-0.6978 -2.055634,2.0556 -2.541477,5.7163 -0.758661,5.7163 0.615704,0 1.440041,-0.6869 1.831863,-1.5266 0.569908,-1.2212 0.854867,-1.2212 1.424776,0 0.391822,0.8397 1.765721,1.5266 3.053113,1.5266 1.287392,0 2.340712,0.5496 2.340712,1.2212 0,0.6717 -2.747799,1.2213 -6.106209,1.2213 -3.358419,0 -6.106217,0.5495 -6.106217,1.2212 0,0.6717 2.747798,1.2212 6.106217,1.2212 3.35841,0 6.106209,-0.5495 6.106209,-1.2212 0,-0.6717 1.099113,-1.2212 2.442483,-1.2212 1.343369,0 2.442483,0.5495 2.442483,1.2212 0,0.6717 1.413154,1.2212 3.14034,1.2212 3.533773,0 6.629602,2.5256 6.629602,5.4084 0,1.0555 0.549562,1.9191 1.221242,1.9191 0.67167,0 1.22123,0.5496 1.22123,1.2213 0,0.7494 -5.931735,1.2212 -15.352744,1.2212 -12.407854,0 -15.725406,-0.3726 -17.295453,-1.9427 -1.650843,-1.6508 -1.683604,-2.1095 -0.218079,-3.0531 1.476764,-0.9509 1.466982,-1.276 -0.06804,-2.2629 -1.510991,-0.9714 -1.367059,-1.5216 0.915926,-3.5017 1.489743,-1.292 2.708617,-3.5461 2.708617,-5.0092 0,-3.1244 6.270797,-9.9934 7.033711,-7.7047 0.957021,2.8711 2.736231,1.4589 2.736231,-2.1718 0,-2.0151 0.549561,-3.6637 1.221241,-3.6637 0.723696,0 1.221242,-4.4779 1.221242,-10.9912 0,-6.51327 0.497546,-10.99127 1.221242,-10.99127 0.723704,0 1.221241,4.478 1.221241,10.99127 0,6.5133 -0.497537,10.9912 -1.221241,10.9912 -0.67168,0 -1.221242,1.6486 -1.221242,3.6637 0,2.0151 -0.549561,3.6637 -1.221242,3.6637 -0.67168,0 -1.221241,0.5496 -1.221241,1.2213 0,0.6717 1.648675,1.2212 3.663725,1.2212 2.84957,0 3.663725,-0.5428 3.663725,-2.4425 0,-1.3433 0.549561,-2.4425 1.221241,-2.4425 0.67169,0 1.221242,0.8494 1.221242,1.8874 0,1.758 5.175727,7.8826 6.661334,7.8826 0.366366,0 0.666125,-1.0991 0.666125,-2.4425 0,-1.3434 -0.549562,-2.4425 -1.221242,-2.4425 -0.697856,0 -1.221241,-3.6637 -1.221241,-8.5487 0,-4.8849 0.523385,-8.5487 1.221241,-8.5487 0.697856,0 1.221242,3.6638 1.221242,8.5487 0,7.6906 1.339125,11.0682 2.784125,7.0222 0.31712,-0.8879 0.99832,-1.0735 1.62833,-0.4435 0.63001,0.63 0.4445,1.3112 -0.44342,1.6283 -1.80779,0.6457 -2.07538,5.2267 -0.30532,5.2267 0.67168,0 1.22124,0.8427 1.22124,1.8726 0,1.7149 7.60621,10.3398 9.11862,10.3398 0.35822,0 0.65132,-1.4132 0.65132,-3.1403 0,-3.5338 2.52554,-6.6296 5.408361,-6.6296 1.0555,0 1.91909,-0.5496 1.91909,-1.2213 0,-0.6716 -0.54956,-1.2212 -1.22124,-1.2212 -0.67168,0 -1.221241,-1.6487 -1.221241,-3.6637 0,-2.0151 0.549561,-3.6638 1.221241,-3.6638 0.67168,0 1.22124,-2.7477 1.22124,-6.1062 0,-3.3583 0.54957,-6.1062 1.22125,-6.1062 0.67169,0 1.22124,-2.1982 1.22124,-4.8849 0,-2.6868 -0.54955,-4.88507 -1.22124,-4.88507 -0.67168,0 -1.22125,-1.0989 -1.22125,-2.4425 0,-1.3433 -0.54956,-2.4426 -1.22124,-2.4426 -0.67168,0 -1.221241,-1.6488 -1.221241,-3.6637 0,-2.01508 -0.54956,-3.66379 -1.22124,-3.66379 -0.67168,0 -1.22124,-1.64862 -1.22124,-3.66374 0,-2.01502 -0.54956,-3.66369 -1.22124,-3.66369 -0.67169,0 -1.22125,-2.15244 -1.22125,-4.7832 0,-2.68204 -0.67058,-5.0553 -1.52655,-5.40262 -1.15256,-0.46766 -1.07776,-0.96417 0.30531,-2.02661 1.38306,-1.06242 1.45787,-1.55893 0.30531,-2.02659 -1.98492,-0.80542 -1.98492,-7.3761 0,-8.08499 0.88793,-0.31712 1.07344,-0.99832 0.44343,-1.62833 -0.63002,-0.63001 -1.3112,-0.4445 -1.62833,0.44342 -0.77814,2.17879 -2.78414,1.88983 -2.78414,-0.40105 0,-1.06018 -2.19824,-4.03967 -4.88497,-6.62109 -6.280613,-6.03442 -6.615428,-10.83721 -1.11376,-15.97655 3.59788,-3.36091 3.67254,-3.62149 1.62468,-5.66934 -1.53954,-1.53954 -2.28937,-1.71794 -2.65173,-0.63087 -0.7764,2.32923 -4.443296,1.79886 -6.40787,-0.92684 -0.968252,-1.34337 -2.502723,-2.44248 -3.409943,-2.44248 -2.480991,0 -6.111135,-3.95022 -4.21192,-4.5833 2.329245,-0.77641 1.798865,-4.44331 -0.926838,-6.40789 -1.343369,-0.96824 -2.442483,-2.73823 -2.442483,-3.93332 0,-1.19509 -0.549561,-2.17289 -1.221242,-2.17289 -0.67168,0 -1.221241,-0.97779 -1.221241,-2.17288 0,-1.19509 -1.099123,-2.96508 -2.442484,-3.93332 -2.716248,-1.95776 -3.340895,-8.02267 -0.915935,-8.89313 1.025895,-0.36826 0.587149,-1.38294 -1.337759,-3.09387 l -2.864316,-2.54589 3.114118,-3.11412 c 1.712759,-1.71276 3.917635,-3.11411 4.899712,-3.11411 0.982087,0 2.030943,-0.68695 2.330803,-1.52656 0.299859,-0.8396 1.016687,-1.0845 1.592953,-0.54421 0.576275,0.54028 0.239337,1.50201 -0.748733,2.13717 -1.581168,1.01642 -1.581168,1.29325 0,2.30968 0.98807,0.63516 1.370356,1.58097 0.84953,2.10181 -0.520835,0.52082 -1.436762,0.15445 -2.035406,-0.81417 -0.598644,-0.96862 -1.458521,-1.39104 -1.910846,-0.93872 -1.138396,1.13841 2.532087,4.60245 4.876724,4.60245 2.409503,0 2.427801,0.887 0.06694,3.24781 -1.655315,1.65533 -2.243057,1.4336 -5.531518,-2.0867 -2.023675,-2.16635 -4.026128,-3.5921 -4.449892,-3.16834 -0.423772,0.42378 0.554125,1.94709 2.173099,3.38515 1.966432,1.74668 2.436837,2.79656 1.417035,3.16262 -1.80433,0.64768 -2.083869,7.67188 -0.305306,7.67188 0.67168,0 1.221241,-1.64868 1.221241,-3.66373 0,-2.01505 0.549562,-3.66372 1.221242,-3.66372 0.67168,0 1.221242,1.09912 1.221242,2.44248 0,1.34337 0.549561,2.44249 1.221241,2.44249 0.67168,0 1.221242,-1.09912 1.221242,-2.44249 0,-1.59293 0.814164,-2.44248 2.340721,-2.44248 1.287392,0 2.564483,-0.67134 2.837993,-1.49186 0.314706,-0.94411 1.762779,-0.22637 3.943957,1.95481 2.616836,2.61685 3.061984,3.68441 1.848913,4.43414 -1.27527,0.78815 -1.188044,1.39718 0.43216,3.01739 1.892394,1.8924 2.167443,1.8924 4.059833,0 1.68945,-1.68945 1.74659,-2.20504 0.34068,-3.07394 -0.92908,-0.5742 -1.31916,-1.4141 -0.86684,-1.86642 0.45233,-0.45233 1.8054,0.16058 3.00684,1.36202 1.55953,1.55953 1.75084,2.32894 0.66877,2.68963 -2.29026,0.76343 -1.81588,2.74417 0.65724,2.74417 1.19508,0 2.96508,1.09911 3.93332,2.44248 0.96826,1.34337 2.73826,2.44248 3.93334,2.44248 2.48227,0 2.93855,1.9655 0.64632,2.78414 -0.8396,0.29986 -1.08449,1.01669 -0.54422,1.59297 0.54029,0.57626 1.45215,0.28759 2.02635,-0.64149 0.86891,-1.40592 1.38449,-1.34877 3.073944,0.34067 1.8382,1.83821 1.85018,2.20968 0.1267,3.93316 -1.723504,1.72348 -2.193094,1.61339 -4.972214,-1.16573 -1.68794,-1.68793 -3.06897,-3.91829 -3.06897,-4.95634 0,-1.03805 -0.89727,-1.88738 -1.99392,-1.88738 -1.09667,0 -3.09412,-1.2365 -4.43877,-2.74779 -1.65837,-1.86387 -2.62112,-2.25672 -2.99282,-1.22125 -0.92384,2.57366 -5.229385,1.81954 -5.229385,-0.91592 0,-1.34337 -0.549561,-2.44249 -1.221242,-2.44249 -0.671689,0 -1.221241,1.09912 -1.221241,2.44249 0,1.34336 -0.549562,2.44248 -1.221242,2.44248 -1.766805,0 -1.503778,-4.56679 0.305306,-5.30084 1.149444,-0.46641 1.074031,-0.94407 -0.305306,-1.93364 -1.60809,-1.15367 -1.612407,-1.45529 -0.03543,-2.46906 0.988071,-0.63515 1.426416,-1.52492 0.97409,-1.97725 -0.452325,-0.45232 -1.76205,0.11723 -2.910492,1.26567 -1.767807,1.76782 -1.823556,2.27265 -0.36346,3.29147 1.322804,0.92302 1.368944,1.3477 0.19806,1.82281 -0.839557,0.34067 -1.526511,1.67274 -1.526511,2.96013 0,1.52655 -0.849557,2.34071 -2.442483,2.34071 -1.34337,0 -2.442483,0.54956 -2.442483,1.22124 0,1.76539 4.586837,1.50503 5.186647,-0.2944 0.672491,-2.01749 4.583295,1.80646 4.583295,4.48152 0,2.2781 -4.434281,2.61113 -5.226631,0.39254 -0.29986,-0.8396 -0.960638,-1.14055 -1.468394,-0.66877 -1.089769,1.01253 2.234341,4.6378 4.252532,4.6378 2.019813,0 4.884976,-3.17213 4.884976,-5.40835 0,-1.10493 1.036196,-1.9191 2.442483,-1.9191 1.343361,0 2.442471,0.54957 2.442471,1.22125 0,0.67168 -0.54956,1.22124 -1.221229,1.22124 -0.67168,0 -1.221242,0.86359 -1.221242,1.9191 0,2.23622 -2.865153,5.40836 -4.884966,5.40836 -2.018201,0 -5.342311,3.62526 -4.252542,4.63781 0.507757,0.47177 1.168535,0.17082 1.468394,-0.66878 0.299859,-0.8396 1.552733,-1.52655 2.784148,-1.52655 1.231415,0 2.466282,-0.68204 2.744155,-1.51565 0.6725,-2.01749 4.583282,1.80647 4.583282,4.48152 0,2.27809 -4.434259,2.61112 -5.226609,0.39254 -0.299869,-0.8396 -0.960647,-1.14055 -1.468403,-0.66877 -1.208026,1.12242 2.33491,4.63781 4.674164,4.63781 0.999519,0 2.096048,-0.68695 2.436738,-1.52655 0.46639,-1.14945 0.94405,-1.07404 1.93362,0.30531 1.16819,1.62832 1.44991,1.62832 2.53546,0 1.07194,-1.60793 1.36242,-1.61225 2.37609,-0.0354 0.63515,0.98807 1.58097,1.37035 2.10181,0.84953 0.52082,-0.52084 0.15444,-1.43677 -0.81418,-2.03541 -0.96861,-0.59864 -1.28962,-1.53049 -0.71335,-2.07078 0.57625,-0.54027 1.29308,-0.29538 1.59295,0.54423 0.3341,0.93548 2.83066,1.52655 6.44786,1.52655 3.577624,0 6.146664,0.60131 6.522104,1.52655 0.47509,1.17089 0.89978,1.12475 1.8228,-0.19806 1.01325,-1.45212 1.55685,-1.37115 3.44048,0.51248 1.587324,1.58734 1.796884,2.38384 0.721454,2.74233 -1.737544,0.57917 -2.089474,5.18664 -0.396174,5.18664 0.615704,0 1.364814,-0.68695 1.664674,-1.52655 0.29986,-0.83961 1.01669,-1.08451 1.59294,-0.54423 0.57628,0.54029 0.23935,1.50202 -0.74872,2.13717 -1.57689,1.01368 -1.57256,1.30414 0.0354,2.37609 1.62832,1.08555 1.62832,1.35694 0,2.44248 -1.62832,1.08555 -1.62832,1.35694 0,2.4425 1.60567,1.07045 1.61051,1.36353 0.0392,2.37372 -1.49959,0.96406 -1.30633,1.57431 1.18206,3.73248 2.48839,2.15817 2.68165,2.76842 1.18207,3.73248 -1.57134,1.01019 -1.56651,1.30328 0.0392,2.37373 1.62831,1.08555 1.62831,1.35694 0,2.44248 -1.62832,1.08556 -1.62832,1.36727 0,2.53546 1.37934,0.98957 1.45475,1.46725 0.30531,1.93364 -2.56172,1.03945 -1.82538,5.30089 0.91582,5.30089 1.62832,0 2.44249,0.81417 2.44249,2.44249 0,1.34337 -0.54955,2.44249 -1.22124,2.44249 -0.67168,0 -1.22125,2.15243 -1.22125,4.78319 0,2.68205 -0.67057,5.05531 -1.52653,5.40263 -1.15256,0.46766 -1.07777,0.96417 0.3053,2.02659 1.38306,1.06246 1.45787,1.55893 0.30532,2.02662 -0.976,0.39601 -1.52656,3.18868 -1.52656,7.74334 0,4.5547 -0.55056,7.3474 -1.52656,7.7434 -1.15256,0.4677 -1.07775,0.9643 0.30532,2.02674 1.38307,1.0624 1.45787,1.5589 0.30531,2.0266 -0.83961,0.3406 -1.52655,2.2222 -1.52655,4.1814 0,1.9591 -0.54956,3.5619 -1.22124,3.5619 -0.671694,0 -1.221254,1.6487 -1.221254,3.6637 0,2.015 -0.54956,3.6638 -1.22124,3.6638 -1.76679,0 -1.50377,4.5667 0.30531,5.3008 1.15256,0.4676 1.07776,0.9642 -0.30531,2.0266 -1.38307,1.0625 -1.45787,1.559 -0.30531,2.0266 0.8396,0.3407 1.52655,1.6728 1.52655,2.9601 0,1.9655 0.89507,2.3407 5.582834,2.3407 5.76306,0 9.07207,1.9727 9.07207,5.4084 0,1.0555 0.54956,1.9191 1.22125,1.9191 0.67168,0 1.22124,0.5496 1.22124,1.2213 0,0.6716 -2.70201,1.2212 -6.00445,1.2212 -3.65904,0 -6.24638,0.5963 -6.62385,1.5266 -0.46767,1.1525 -0.96418,1.0777 -2.0266,-0.3053 -1.06244,-1.3832 -1.558954,-1.4579 -2.026614,-0.3053 -0.73406,1.809 -5.30085,2.072 -5.30085,0.3053 z m -46.407187,-6.1062 c 0,-1.593 -0.814164,-2.4425 -2.340721,-2.4425 -1.287392,0 -2.586051,-0.687 -2.88591,-1.5266 -0.317119,-0.8879 -0.998317,-1.0734 -1.62832,-0.4435 -0.630011,0.63 -0.444501,1.3113 0.443428,1.6284 0.839602,0.2999 1.526547,1.5985 1.526547,2.8859 0,1.5266 0.849567,2.3407 2.442483,2.3407 1.628329,0 2.442493,-0.8141 2.442493,-2.4424 z m 7.32745,0 c 0,-1.6284 -0.814165,-2.4425 -2.442484,-2.4425 -1.628328,0 -2.442483,0.8141 -2.442483,2.4425 0,1.6283 0.814155,2.4424 2.442483,2.4424 1.628319,0 2.442484,-0.8141 2.442484,-2.4424 z m 12.212425,0 c 0,-1.8998 -0.814164,-2.4425 -3.663725,-2.4425 -2.84957,0 -3.663734,0.5427 -3.663734,2.4425 0,1.8997 0.814164,2.4424 3.663734,2.4424 2.849561,0 3.663725,-0.5427 3.663725,-2.4424 z m 26.867312,0 c 0,-1.8998 -0.81416,-2.4425 -3.66372,-2.4425 -2.849557,0 -3.663727,0.5427 -3.663727,2.4425 0,1.8997 0.81417,2.4424 3.663727,2.4424 2.84956,0 3.66372,-0.5427 3.66372,-2.4424 z m 9.769944,0 c 0,-1.3435 -0.54956,-2.4425 -1.22124,-2.4425 -0.67169,0 -1.22124,1.099 -1.22124,2.4425 0,1.3433 0.54955,2.4424 1.22124,2.4424 0.67168,0 1.22124,-1.0991 1.22124,-2.4424 z m 7.32744,0 c 0,-1.6284 -0.81416,-2.4425 -2.44248,-2.4425 -1.62832,0 -2.44248,0.8141 -2.44248,2.4425 0,1.6283 0.81416,2.4424 2.44248,2.4424 1.62832,0 2.44248,-0.8141 2.44248,-2.4424 z m -48.849672,-13.4337 c 0,-0.6718 -0.549552,-1.2213 -1.221241,-1.2213 -0.67168,0 -1.221242,0.5495 -1.221242,1.2213 0,0.6717 0.549562,1.2212 1.221242,1.2212 0.671689,0 1.221241,-0.5495 1.221241,-1.2212 z M 101.26283,710.7258 c 0,-0.6716 -0.54956,-1.2213 -1.22124,-1.2213 -0.671694,0 -1.221244,0.5497 -1.221244,1.2213 0,0.6717 0.54955,1.2213 1.221244,1.2213 0.67168,0 1.22124,-0.5496 1.22124,-1.2213 z m 0,-9.76998 c 0,-3.35844 0.54955,-6.10624 1.22124,-6.10624 0.67168,0 1.22124,-2.15244 1.22124,-4.7832 0,-2.68168 0.65545,-5.00169 1.49186,-5.28048 0.94664,-0.31554 0.2501,-1.73903 -1.90588,-3.89502 -1.86875,-1.86876 -3.776594,-2.98944 -4.239664,-2.49041 -0.46304,0.49905 -0.15496,1.15269 0.68464,1.45255 0.839614,0.29985 1.526564,1.55272 1.526564,2.78413 0,1.23142 -0.68695,2.51768 -1.526564,2.85837 -1.15256,0.46767 -1.07775,0.96417 0.305324,2.02661 1.38306,1.06243 1.45786,1.55893 0.3053,2.0266 -0.855974,0.34732 -1.526544,2.72057 -1.526544,5.40261 0,2.63077 -0.54956,4.78321 -1.22125,4.78321 -0.67168,0 -1.22125,-2.19824 -1.22125,-4.88497 0,-2.68673 -0.54955,-4.88497 -1.22124,-4.88497 -0.72142,0 -1.22124,-4.38802 -1.22124,-10.72158 0,-9.3206 0.31916,-10.95161 2.44248,-12.48202 1.34337,-0.96825 2.4425,-2.50272 2.4425,-3.40994 0,-2.21109 -3.55815,-5.66835 -4.63782,-4.50632 -0.47178,0.50775 -0.17083,1.16853 0.66878,1.46839 2.33486,0.83388 1.81721,4.47792 -0.91594,6.44787 -2.12332,1.53041 -2.44248,3.16142 -2.44248,12.48202 0,6.33356 0.49982,10.72158 1.22124,10.72158 0.67169,0 1.22124,2.19824 1.22124,4.88497 0,2.68673 0.54956,4.88497 1.22124,4.88497 0.67169,0 1.22124,0.84749 1.22124,1.88342 0,2.00219 2.4397,5.32003 3.969044,5.39763 0.50377,0.025 0.91594,-2.70142 0.91594,-6.05978 z m 2.44248,-26.86736 c 0,-0.67168 -0.54956,-1.22124 -1.22124,-1.22124 -0.67169,0 -1.22124,0.54956 -1.22124,1.22124 0,0.67168 0.54955,1.22124 1.22124,1.22124 0.67168,0 1.22124,-0.54956 1.22124,-1.22124 z m 0,-4.88496 c 0,-0.67169 -0.54956,-1.22125 -1.22124,-1.22125 -0.67169,0 -1.22124,0.54956 -1.22124,1.22125 0,0.67168 0.54955,1.22124 1.22124,1.22124 0.67168,0 1.22124,-0.54956 1.22124,-1.22124 z m -19.539871,-8.5487 c 0,-2.68673 0.54955,-4.88497 1.22124,-4.88497 0.67168,0 1.22124,1.64867 1.22124,3.66372 0,2.84956 0.54277,3.66373 2.44248,3.66373 1.856597,0 2.442487,-0.81417 2.442487,-3.39412 0,-1.99316 1.00817,-4.12078 2.44248,-5.15457 1.68436,-1.21403 2.44248,-3.16142 2.44248,-6.27405 0,-2.50594 0.67902,-4.7561 1.52656,-5.05879 0.8396,-0.29986 1.0845,-1.0167 0.54423,-1.59295 -0.54029,-0.57627 -1.54387,-0.23934 -2.23016,0.74873 -0.94425,1.35945 -1.3985,1.42512 -1.86722,0.26995 -0.37544,-0.92526 -2.94448,-1.52656 -6.522097,-1.52656 -3.57762,0 -6.14665,0.6013 -6.52209,1.52656 -0.46873,1.15517 -0.92298,1.0895 -1.86723,-0.26995 -0.68629,-0.98807 -1.67395,-1.37036 -2.19478,-0.84953 -0.52083,0.52083 -0.17334,1.4251 0.77221,2.00948 1.36623,0.84438 0.92021,1.80887 -2.17253,4.69792 -2.98043,2.78413 -3.89173,4.66456 -3.89173,8.03041 0,3.58082 0.45246,4.39499 2.44249,4.39499 1.62832,0 2.44248,-0.81417 2.44248,-2.44249 0,-1.34337 0.54956,-2.44248 1.22124,-2.44248 0.67169,0 1.22124,2.19824 1.22124,4.88497 0,4.0708 0.40708,4.88496 2.44249,4.88496 2.03541,0 2.44249,-0.81416 2.44249,-4.88496 z m -9.76994,-8.5487 c 0,-0.67169 0.54956,-1.22124 1.22124,-1.22124 0.67168,0 1.22124,0.54955 1.22124,1.22124 0,0.67168 -0.54956,1.22125 -1.22124,1.22125 -0.67168,0 -1.22124,-0.54957 -1.22124,-1.22125 z m 7.32745,0 c 0,-0.67169 0.54956,-1.22124 1.22125,-1.22124 0.67168,0 1.22124,0.54955 1.22124,1.22124 0,0.67168 -0.54956,1.22125 -1.22124,1.22125 -0.67169,0 -1.22125,-0.54957 -1.22125,-1.22125 z m 4.88497,0 c 0,-0.67169 0.54956,-1.22124 1.22124,-1.22124 0.67168,0 1.22124,0.54955 1.22124,1.22124 0,0.67168 -0.54956,1.22125 -1.22124,1.22125 -0.67168,0 -1.22124,-0.54957 -1.22124,-1.22125 z m 17.097391,12.21242 c 0,-0.67168 -0.54956,-1.22124 -1.22124,-1.22124 -0.67169,0 -1.22124,0.54956 -1.22124,1.22124 0,0.67169 0.54955,1.22124 1.22124,1.22124 0.67168,0 1.22124,-0.54955 1.22124,-1.22124 z M 57.298112,615.46884 c 0,-0.67169 -1.099114,-1.22125 -2.442483,-1.22125 -1.34337,0 -2.442484,0.54956 -2.442484,1.22125 0,0.67168 1.099114,1.22124 2.442484,1.22124 1.343369,0 2.442483,-0.54956 2.442483,-1.22124 z m 9.769942,-4.88498 c 0,-0.67168 -0.549561,-1.22124 -1.221242,-1.22124 -0.671689,0 -1.221241,0.54956 -1.221241,1.22124 0,0.67169 0.549552,1.22125 1.221241,1.22125 0.671681,0 1.221242,-0.54956 1.221242,-1.22125 z m 48.849676,140.96641 c 0,-3.4357 -3.30902,-5.4083 -9.07209,-5.4083 -3.07054,0 -5.58281,-0.5496 -5.58281,-1.2213 0,-0.6716 1.44683,-1.2212 3.21516,-1.2212 1.77442,0 4.24051,-1.1822 5.50334,-2.6383 1.25849,-1.4511 2.68093,-2.2455 3.16098,-1.7655 0.48006,0.4801 0.0992,1.351 -0.84636,1.9354 -1.36623,0.8444 -0.92021,1.8088 2.17254,4.6979 3.75787,3.5104 5.18514,7.5405 2.67048,7.5405 -0.67169,0 -1.22124,-0.8637 -1.22124,-1.9192 z m -37.553191,-2.3501 c -1.81919,-2.0663 -2.04508,-7.9432 -0.30532,-7.9432 0.67169,0 1.22124,1.6487 1.22124,3.6637 0,2.0151 0.54956,3.6637 1.22124,3.6637 0.69786,0 1.22125,-3.6637 1.22125,-8.5486 0,-4.885 0.52339,-8.5487 1.22125,-8.5487 0.67168,0 1.22124,1.6029 1.22124,3.5619 0,1.9591 0.68694,3.8407 1.52655,4.1814 1.14944,0.4664 1.07404,0.9441 -0.30531,1.9336 -1.55192,1.1134 -1.5713,1.4821 -0.12686,2.4125 1.37757,0.8874 1.09507,1.7083 -1.47104,4.2744 -3.66661,3.6665 -3.43477,3.6089 -5.42424,1.3493 z m -43.048786,-6.722 c 0,-0.6716 0.549562,-1.2212 1.221242,-1.2212 0.67168,0 1.221242,-1.0991 1.221242,-2.4425 0,-1.3433 0.549561,-2.4425 1.221241,-2.4425 0.67168,0 1.221242,-1.0991 1.221242,-2.4425 0,-1.3433 0.549561,-2.4424 1.221241,-2.4424 0.67169,0 1.221242,-2.7479 1.221242,-6.1062 0,-3.3585 0.549562,-6.1062 1.221242,-6.1062 0.671689,0 1.221241,-1.6487 1.221241,-3.66377 0,-2.0149 0.549562,-3.6638 1.221242,-3.6638 0.671689,0 1.221251,1.6489 1.221251,3.6638 0,2.01507 -0.549562,3.66377 -1.221251,3.66377 -0.67168,0 -1.221242,2.7477 -1.221242,6.1062 0,3.3583 -0.549552,6.1062 -1.221241,6.1062 -0.67168,0 -1.221242,1.0991 -1.221242,2.4424 0,1.3434 -0.549552,2.4425 -1.221242,2.4425 -0.67168,0 -1.221241,0.8636 -1.221241,1.9191 0,1.8509 -2.754238,5.4084 -4.18712,5.4084 -0.383815,0 -0.697847,-0.5496 -0.697847,-1.2213 z m 65.947077,-2.4424 c 0,-0.6718 0.86358,-1.2213 1.9191,-1.2213 2.8828,0 5.40834,-3.0958 5.40834,-6.6296 0,-3.6013 0.66028,-3.8757 3.20431,-1.3317 1.59731,1.5973 1.30652,2.3106 -2.48901,6.1062 -4.13273,4.1328 -8.04274,5.6283 -8.04274,3.0764 z m -24.424851,-2.4425 c 0,-0.6717 0.54956,-1.2213 1.22124,-1.2213 0.67169,0 1.22124,0.5496 1.22124,1.2213 0,0.6717 -0.54955,1.2212 -1.22124,1.2212 -0.67168,0 -1.22124,-0.5495 -1.22124,-1.2212 z m 9.76994,-4.885 c 0,-2.0151 0.54956,-3.6637 1.22124,-3.6637 0.67168,0 1.22124,1.6486 1.22124,3.6637 0,2.0151 -0.54956,3.6637 -1.22124,3.6637 -0.67168,0 -1.22124,-1.6486 -1.22124,-3.6637 z m 14.654911,2.4425 c 0,-0.6717 0.54955,-1.2213 1.22124,-1.2213 0.67168,0 1.22124,0.5496 1.22124,1.2213 0,0.6716 -0.54956,1.2212 -1.22124,1.2212 -0.67169,0 -1.22124,-0.5496 -1.22124,-1.2212 z m -53.734651,-4.885 c 0,-0.6717 0.549552,-1.2212 1.221241,-1.2212 0.671681,0 1.221242,0.5495 1.221242,1.2212 0,0.6717 -0.549561,1.2213 -1.221242,1.2213 -0.671689,0 -1.221241,-0.5496 -1.221241,-1.2213 z m 14.654899,0 c 0,-0.6717 0.549562,-1.2212 1.221251,-1.2212 0.67168,0 1.221242,0.5495 1.221242,1.2212 0,0.6717 -0.549562,1.2213 -1.221242,1.2213 -0.671689,0 -1.221251,-0.5496 -1.221251,-1.2213 z m 9.769931,0 c 0,-0.6717 0.54956,-1.2212 1.22124,-1.2212 0.67168,0 1.22125,0.5495 1.22125,1.2212 0,0.6717 -0.54957,1.2213 -1.22125,1.2213 -0.67168,0 -1.22124,-0.5496 -1.22124,-1.2213 z m 31.752301,-1.2212 c 0,-1.3434 0.54956,-2.4425 1.22125,-2.4425 0.67167,0 1.22123,1.0991 1.22123,2.4425 0,1.3433 -0.54956,2.4425 -1.22123,2.4425 -0.67169,0 -1.22125,-1.0992 -1.22125,-2.4425 z m -21.982361,-3.6637 c 0,-2.0151 0.54956,-3.6638 1.22125,-3.6638 0.67168,0 1.22124,1.6487 1.22124,3.6638 0,2.015 -0.54956,3.6637 -1.22124,3.6637 -0.67169,0 -1.22125,-1.6487 -1.22125,-3.6637 z m 26.867321,0 c 0,-0.6717 0.54956,-1.2213 1.22124,-1.2213 0.67169,0 1.22124,0.5496 1.22124,1.2213 0,0.6717 -0.54955,1.2212 -1.22124,1.2212 -0.67168,0 -1.22124,-0.5495 -1.22124,-1.2212 z m -21.982351,-4.885 c 0,-0.6717 0.54956,-1.2212 1.22124,-1.2212 0.67168,0 1.22124,0.5495 1.22124,1.2212 0,0.6717 -0.54956,1.2212 -1.22124,1.2212 -0.67168,0 -1.22124,-0.5495 -1.22124,-1.2212 z m 21.982351,-3.6637 c 0,-2.68667 0.54956,-4.88507 1.22124,-4.88507 0.67169,0 1.22124,2.1984 1.22124,4.88507 0,2.6867 -0.54955,4.8849 -1.22124,4.8849 -0.67168,0 -1.22124,-2.1982 -1.22124,-4.8849 z m -41.522216,1.2212 c 0,-0.6717 0.549562,-1.2212 1.221242,-1.2212 0.67168,0 1.221241,0.5495 1.221241,1.2212 0,0.6717 -0.549561,1.2213 -1.221241,1.2213 -0.67168,0 -1.221242,-0.5496 -1.221242,-1.2213 z m 14.654895,0 c 0,-0.6717 0.54956,-1.2212 1.22125,-1.2212 0.67168,0 1.22124,0.5495 1.22124,1.2212 0,0.6717 -0.54956,1.2213 -1.22124,1.2213 -0.67169,0 -1.22125,-0.5496 -1.22125,-1.2213 z M 59.740595,713.1686 c 0,-0.6718 0.549562,-1.2215 1.221242,-1.2215 0.671689,0 1.221241,0.5497 1.221241,1.2215 0,0.6715 -0.549552,1.221 -1.221241,1.221 -0.67168,0 -1.221242,-0.5495 -1.221242,-1.221 z m 12.212414,0 c 0,-0.6718 0.8636,-1.2215 1.9191,-1.2215 2.46818,0 5.40835,-2.9403 5.40835,-5.4085 0,-1.0555 0.54956,-1.91912 1.22124,-1.91912 1.77865,0 1.499,-7.02468 -0.3053,-7.66907 -0.8396,-0.29986 -1.14056,-0.96064 -0.66878,-1.4684 1.14774,-1.23527 4.63782,2.35875 4.63782,4.77597 0,1.05542 0.54955,1.91903 1.22124,1.91903 0.67168,0 1.22124,1.09914 1.22124,2.44247 0,1.34342 -0.54956,2.44262 -1.22124,2.44262 -0.67169,0 -1.22124,0.8634 -1.22124,1.919 0,1.0556 -0.78509,2.7043 -1.74464,3.664 -1.97257,1.9725 -10.46779,2.3973 -10.46779,0.5235 z m -4.884955,-2.4428 c 0,-0.6716 0.549562,-1.2213 1.221242,-1.2213 0.67168,0 1.221241,0.5497 1.221241,1.2213 0,0.6717 -0.549561,1.2213 -1.221241,1.2213 -0.67168,0 -1.221242,-0.5496 -1.221242,-1.2213 z m -21.982368,-2.4426 c 0,-0.6717 0.549562,-1.2211 1.221242,-1.2211 0.671689,0 1.221251,0.5494 1.221251,1.2211 0,0.6717 -0.549562,1.2213 -1.221251,1.2213 -0.67168,0 -1.221242,-0.5496 -1.221242,-1.2213 z m 16.114441,-0.6773 c -1.318778,-1.4941 -1.266126,-2.133 0.305306,-3.7044 1.717695,-1.71775 2.08202,-1.71584 3.817985,0.02 1.705864,1.70586 1.715555,2.12266 0.08716,3.75086 -2.203593,2.2038 -2.206917,2.2037 -4.210527,-0.067 z m -11.229465,-4.20761 c 0,-0.67171 0.549552,-1.22128 1.221242,-1.22128 0.67168,0 1.221241,0.54957 1.221241,1.22128 0,0.67171 -0.549561,1.22119 -1.221241,1.22119 -0.67169,0 -1.221242,-0.54948 -1.221242,-1.22119 z m 4.884967,0 c 0,-0.67171 0.549561,-1.22128 1.221241,-1.22128 0.67168,0 1.221242,0.54957 1.221242,1.22128 0,0.67171 -0.549562,1.22119 -1.221242,1.22119 -0.67168,0 -1.221241,-0.54948 -1.221241,-1.22119 z m 17.09738,0 c 0,-0.67171 0.54956,-1.22128 1.22124,-1.22128 0.67168,0 1.22125,0.54957 1.22125,1.22128 0,0.67171 -0.54957,1.22119 -1.22125,1.22119 -0.67168,0 -1.22124,-0.54948 -1.22124,-1.22119 z m -6.106197,-3.66374 c -1.818246,-2.52268 -6.106217,-3.38027 -6.106217,-1.22128 0,0.67171 -0.549552,1.22128 -1.221241,1.22128 -0.671681,0 -1.221242,-1.09915 -1.221242,-2.44249 0,-1.34336 0.549561,-2.44248 1.221242,-2.44248 0.671689,0 1.221241,-1.09911 1.221241,-2.44248 0,-1.34337 -0.549552,-2.44249 -1.221241,-2.44249 -0.671681,0 -1.221242,-0.54956 -1.221242,-1.22124 0,-1.76995 4.580462,-1.50252 5.2294,0.30531 0.371693,1.03548 1.334453,0.64263 2.99281,-1.22124 3.19801,-3.5943 3.990215,-3.46597 3.990215,0.64633 0,1.99315 1.008172,4.12078 2.442472,5.15457 1.34337,0.96825 2.44249,2.18868 2.44249,2.71208 0,0.52341 -1.09912,0.95164 -2.44249,0.95164 -1.628307,0 -2.442472,0.81418 -2.442472,2.44249 0,1.34341 -0.428244,2.44246 -0.951638,2.44246 -0.523404,0 -1.743844,-1.09905 -2.712087,-2.44246 z m 10.991167,1.22127 c 0,-0.6717 0.54956,-1.22127 1.22124,-1.22127 0.67169,0 1.22124,0.54957 1.22124,1.22127 0,0.67162 -0.54955,1.22119 -1.22124,1.22119 -0.67168,0 -1.22124,-0.54957 -1.22124,-1.22119 z m -31.752293,-2.44255 c 0,-0.67165 0.549562,-1.22121 1.221242,-1.22121 0.671689,0 1.221251,0.54956 1.221251,1.22121 0,0.67171 -0.549562,1.22128 -1.221251,1.22128 -0.67168,0 -1.221242,-0.54957 -1.221242,-1.22128 z m 3.902015,-3.11972 c -1.318769,-1.49425 -1.266125,-2.13307 0.305315,-3.70451 1.717686,-1.71769 2.082011,-1.71577 3.817986,0.0201 1.705854,1.70586 1.715545,2.12264 0.08725,3.75096 -2.203592,2.20359 -2.206916,2.20354 -4.210526,-0.0667 z m 26.867328,-4.88498 c -1.31879,-1.49425 -1.26614,-2.13307 0.30531,-3.7045 1.71769,-1.71768 2.082,-1.71577 3.81798,0.0201 1.70585,1.70586 1.71555,2.12264 0.0872,3.75095 -2.20359,2.2036 -2.20692,2.20356 -4.21053,-0.0667 z M 45.085686,683.8584 c 0,-0.67168 0.549562,-1.22125 1.221242,-1.22125 0.671689,0 1.221251,0.54957 1.221251,1.22125 0,0.67168 -0.549562,1.22125 -1.221251,1.22125 -0.67168,0 -1.221242,-0.54957 -1.221242,-1.22125 z m 12.212426,0 c 0,-0.67168 0.549561,-1.22125 1.221242,-1.22125 0.671689,0 1.221241,0.54957 1.221241,1.22125 0,0.67168 -0.549552,1.22125 -1.221241,1.22125 -0.671681,0 -1.221242,-0.54957 -1.221242,-1.22125 z m -4.884967,-2.44249 c 0,-0.67168 0.549562,-1.22124 1.221242,-1.22124 0.67168,0 1.221242,0.54956 1.221242,1.22124 0,0.67169 -0.549562,1.22124 -1.221242,1.22124 -0.67168,0 -1.221242,-0.54955 -1.221242,-1.22124 z m 8.786982,-0.67727 c -1.318778,-1.49425 -1.266126,-2.13307 0.305306,-3.7045 1.717695,-1.7177 2.08202,-1.71577 3.817985,0.0201 1.705864,1.70586 1.715555,2.12264 0.08716,3.75096 -2.203593,2.2036 -2.206917,2.20354 -4.210527,-0.0667 z m -16.114441,-1.76521 c 0,-0.67168 0.549562,-1.22124 1.221242,-1.22124 0.671689,0 1.221251,0.54956 1.221251,1.22124 0,0.67169 -0.549562,1.22124 -1.221251,1.22124 -0.67168,0 -1.221242,-0.54955 -1.221242,-1.22124 z m 28.326853,-0.67727 c -1.31878,-1.49425 -1.26613,-2.13307 0.30531,-3.70451 1.71769,-1.71769 2.08201,-1.71577 3.81799,0.0201 1.70585,1.70587 1.71555,2.12265 0.0872,3.75097 -2.2036,2.20359 -2.20692,2.20354 -4.21053,-0.0667 z m -13.671944,-6.65018 c 0,-0.67169 0.549562,-1.22124 1.221242,-1.22124 0.671689,0 1.221241,0.54955 1.221241,1.22124 0,0.67168 -0.549552,1.22124 -1.221241,1.22124 -0.67168,0 -1.221242,-0.54956 -1.221242,-1.22124 z m 7.327459,0 c 0,-0.67169 0.549562,-1.22124 1.221242,-1.22124 0.67168,0 1.221241,0.54955 1.221241,1.22124 0,0.67168 -0.549561,1.22124 -1.221241,1.22124 -0.67168,0 -1.221242,-0.54956 -1.221242,-1.22124 z m 41.522216,-2.44248 c 0,-0.67169 0.54956,-1.22125 1.22124,-1.22125 0.67169,0 1.22124,0.54956 1.22124,1.22125 0,0.67168 -0.54955,1.22124 -1.22124,1.22124 -0.67168,0 -1.22124,-0.54956 -1.22124,-1.22124 z m 4.88497,-1.11948 c 0,-1.28739 -0.68695,-2.58605 -1.52655,-2.8859 -0.88793,-0.31713 -1.07344,-0.99832 -0.44344,-1.62834 0.63002,-0.63 1.31121,-0.44449 1.62834,0.44343 0.86092,2.41057 2.78414,1.77788 2.78414,-0.91593 0,-1.34336 0.54955,-2.44248 1.22124,-2.44248 0.67168,0 1.22124,1.09912 1.22124,2.44248 0,1.34337 -0.54956,2.44248 -1.22124,2.44248 -0.67169,0 -1.22124,1.09912 -1.22124,2.44249 0,1.34336 -0.54956,2.44249 -1.22124,2.44249 -0.67169,0 -1.22125,-1.05332 -1.22125,-2.34072 z m -68.389554,-3.7655 c 0,-0.67168 0.549562,-1.22124 1.221242,-1.22124 1.762816,0 1.505335,-4.54886 -0.305306,-5.39383 -1.221241,-0.5699 -1.221241,-0.85486 0,-1.42476 1.830141,-0.85409 2.114954,-12.72129 0.305306,-12.72129 -0.67168,0 -1.221242,-0.54955 -1.221242,-1.22124 0,-2.38308 6.262646,-1.17584 9.214834,1.77636 4.291915,4.29191 4.291915,14.13774 0,18.42965 -2.952188,2.95219 -9.214834,4.15944 -9.214834,1.77635 z m 8.223367,-3.16393 c 1.654823,-1.65482 1.687138,-2.12102 0.218079,-3.14608 -1.322803,-0.92303 -1.368953,-1.3477 -0.19806,-1.8228 3.278342,-1.33022 0.89803,-12.62831 -2.660563,-12.62831 -1.417826,0 -0.644557,9.59128 0.828701,10.27879 1.221241,0.56991 1.221241,0.85488 0,1.42478 -1.479032,0.69022 -2.234742,7.83631 -0.828701,7.83631 0.383825,0 1.572069,-0.87421 2.640544,-1.94269 z m 8.874025,3.16393 c 0,-0.67168 0.549562,-1.22124 1.221251,-1.22124 0.67168,0 1.221242,0.54956 1.221242,1.22124 0,0.67169 -0.549562,1.22124 -1.221242,1.22124 -0.671689,0 -1.221251,-0.54955 -1.221251,-1.22124 z m 2.442493,-7.32745 c 0,-0.67168 0.549552,-1.22124 1.221241,-1.22124 0.671681,0 1.221242,0.54956 1.221242,1.22124 0,0.67168 -0.549561,1.22124 -1.221242,1.22124 -0.671689,0 -1.221241,-0.54956 -1.221241,-1.22124 z m 48.849669,0 c 0,-0.67168 0.54956,-1.22124 1.22125,-1.22124 0.67168,0 1.22124,0.54956 1.22124,1.22124 0,0.67168 -0.54956,1.22124 -1.22124,1.22124 -0.67169,0 -1.22125,-0.54956 -1.22125,-1.22124 z m 6.3445,-0.67727 c -1.32004,-1.4957 -1.25766,-2.14155 0.36346,-3.76267 1.07638,-1.07638 2.32714,-1.58697 2.77946,-1.13463 0.45232,0.45232 0.0139,1.38393 -0.97409,2.07022 -1.35945,0.94425 -1.42512,1.3985 -0.26995,1.86722 1.64187,0.66622 2.12449,2.88869 0.61063,2.81191 -0.50376,-0.0255 -1.63304,-0.85896 -2.50951,-1.85205 z m 7.32745,-4.88498 c -1.32003,-1.49569 -1.25765,-2.14154 0.36347,-3.76265 1.07637,-1.07638 2.32713,-1.58697 2.77945,-1.13464 0.45233,0.45233 0.0139,1.38393 -0.97409,2.07022 -1.35944,0.94425 -1.42511,1.3985 -0.26994,1.86723 1.64186,0.66621 2.12448,2.88869 0.61062,2.81191 -0.50376,-0.0255 -1.63304,-0.85898 -2.50951,-1.85207 z m -65.947063,-2.44248 c -1.318778,-1.49425 -1.266126,-2.13307 0.305306,-3.7045 1.717695,-1.7177 2.08202,-1.71578 3.817985,0.0201 1.705864,1.70587 1.715555,2.12264 0.08716,3.75096 -2.203593,2.2036 -2.206917,2.20354 -4.210527,-0.0667 z m 53.734643,0 c -1.31878,-1.49425 -1.26614,-2.13307 0.30531,-3.7045 1.71769,-1.7177 2.08201,-1.71578 3.81799,0.0201 1.70585,1.70587 1.71554,2.12264 0.0872,3.75096 -2.2036,2.2036 -2.20692,2.20354 -4.21052,-0.0667 z m -6.3445,-1.76521 c 0,-0.67168 0.54956,-1.22124 1.22124,-1.22124 0.67169,0 1.22124,0.54956 1.22124,1.22124 0,0.67169 -0.54955,1.22125 -1.22124,1.22125 -0.67168,0 -1.22124,-0.54956 -1.22124,-1.22125 z m 24.42485,0 c 0,-0.67168 0.54955,-1.22124 1.22124,-1.22124 0.67168,0 1.22125,0.54956 1.22125,1.22124 0,0.67169 -0.54957,1.22125 -1.22125,1.22125 -0.67169,0 -1.22124,-0.54956 -1.22124,-1.22125 z m -25.34078,-5.4905 c -0.83961,-0.95362 -1.52655,-2.5356 -1.52655,-3.5155 0,-0.9799 0.68694,-2.02698 1.52655,-2.32683 0.88793,-0.31712 1.07343,-0.99832 0.44343,-1.62833 -0.63001,-0.63 -1.31121,-0.4445 -1.62833,0.44343 -0.64563,1.80778 -5.22661,2.07538 -5.22661,0.30531 0,-0.67169 -1.648684,-1.22124 -3.663734,-1.22124 -2.01505,0 -3.66373,0.54955 -3.66373,1.22124 0,1.77354 -6.993317,1.50107 -7.836307,-0.30531 -0.5699,-1.22124 -0.85486,-1.22124 -1.42477,0 -1.1065,2.37107 -2.95134,1.79855 -2.95134,-0.91593 0,-1.34337 -0.54956,-2.44248 -1.22125,-2.44248 -0.67168,0 -1.22124,0.86359 -1.22124,1.91909 0,1.8508 -2.75424,5.40836 -4.18711,5.40836 -0.38382,0 -0.69785,-0.9778 -0.69785,-2.17288 0,-1.19509 -1.09912,-2.96509 -2.44249,-3.93333 -1.343358,-0.96824 -2.442472,-2.18868 -2.442472,-2.71209 0,-0.5234 1.099114,-0.95165 2.442472,-0.95165 1.62832,0 2.44249,0.81417 2.44249,2.4425 0,2.93198 0.77296,3.06521 3.27384,0.56434 1.69002,-1.69002 1.62013,-2.10191 -0.69785,-4.11229 -1.4168,-1.22877 -2.57599,-3.08561 -2.57599,-4.1263 0,-1.04068 -0.68695,-2.13749 -1.52656,-2.43735 -0.8396,-0.29986 -1.14769,-0.95351 -0.68464,-1.45254 0.9877,-1.06444 7.09616,4.71239 7.09616,6.71088 0,1.95361 3.1705,4.85326 5.3066,4.85326 0.99952,0 2.0411,0.67133 2.31461,1.49185 0.31674,0.95026 1.70633,0.28281 3.827637,-1.8385 l 3.33035,-3.33035 -7.467747,-7.3299 c -6.86787,-6.74108 -7.30965,-7.488 -5.49959,-9.29807 1.0825,-1.08249 2.35419,-1.55273 2.82596,-1.04497 0.47178,0.50776 0.17082,1.16854 -0.66878,1.4684 -2.87649,1.02732 -1.5279,2.78414 2.13718,2.78414 3.63069,0 5.042927,-1.7792 2.17187,-2.73623 -0.94411,-0.3147 -0.22637,-1.76278 1.954797,-3.94395 2.76975,-2.76974 3.66238,-3.1118 4.54497,-1.74166 0.93257,1.44772 1.27256,1.43391 2.25314,-0.0915 0.63516,-0.98807 1.59689,-1.32501 2.13718,-0.74874 0.54027,0.57627 0.29537,1.2931 -0.54423,1.59296 -0.8396,0.29985 -1.52656,1.59851 -1.52656,2.8859 0,1.28739 -0.54955,2.34072 -1.22124,2.34072 -2.15902,0 -1.30143,4.28796 1.22124,6.10621 2.1721,1.56555 3.49302,6.10621 1.77636,6.10621 -1.48559,0 -6.66132,-6.12461 -6.66132,-7.88256 0,-2.34966 -0.89284,-2.39024 -3.140337,-0.14275 -2.2475,2.2475 -2.20691,3.14034 0.14274,3.14034 1.038047,0 3.236287,1.34892 4.884957,2.99759 3.03483,3.03482 4.01516,6.77234 1.77636,6.77234 -0.67168,0 -1.22124,0.54957 -1.22124,1.22126 0,0.67168 1.60288,1.22124 3.56196,1.22124 1.95908,0 3.882534,0.68694 4.274354,1.52654 0.56991,1.22125 0.85488,1.22125 1.42478,0 0.39182,-0.8396 2.81903,-1.52654 5.39381,-1.52654 2.64021,0 4.91916,0.66561 5.22662,1.52654 0.29987,0.83961 0.98333,1.11787 1.51882,0.61838 0.53548,-0.49951 -0.2977,-2.01079 -1.85154,-3.35842 l -2.82514,-2.45024 2.89548,-2.51124 c 2.38359,-2.06726 2.5848,-2.70325 1.13816,-3.59732 -0.96653,-0.59735 -1.39436,-1.44903 -0.95077,-1.89263 0.44361,-0.4436 2.27205,0.65894 4.0632,2.45009 1.79116,1.79116 2.8937,3.6196 2.4501,4.0632 -0.44361,0.4436 -1.27636,0.0464 -1.85056,-0.88269 -0.86615,-1.40146 -1.39976,-1.33352 -3.1321,0.39882 -1.14844,1.14845 -1.71799,2.45817 -1.26566,2.9105 0.45233,0.45232 1.34209,0.014 1.97725,-0.97409 0.97456,-1.51606 1.3249,-1.5326 2.24421,-0.10593 0.84779,1.31566 2.36346,0.41647 6.83468,-4.05474 3.15991,-3.15992 5.3876,-6.10299 4.95043,-6.54017 -0.43718,-0.43717 -1.26467,-0.0347 -1.83888,0.89439 -0.86889,1.4059 -1.38448,1.34876 -3.07393,-0.34068 -1.8382,-1.83821 -1.85017,-2.20968 -0.12669,-3.93316 1.72349,-1.72348 2.21864,-1.58783 5.24282,1.43635 2.12605,2.12606 2.79748,3.52028 1.84772,3.83686 -2.66617,0.88872 -1.57453,2.73623 1.61676,2.73623 3.10253,0 10.01843,5.59867 8.63045,6.98665 -0.40281,0.40282 -1.76207,-0.45483 -3.02055,-1.90589 -1.2585,-1.45105 -3.18545,-2.63827 -4.28211,-2.63827 -2.69289,0 -2.50809,1.09944 0.64435,3.83354 1.45106,1.25849 2.29156,2.63489 1.86779,3.05865 -0.42376,0.42377 -2.43532,-1.01173 -4.47014,-3.19 l -3.69965,-3.96049 -3.54307,3.79287 c -1.94871,2.08608 -4.1862,3.79289 -4.97221,3.79289 -2.3229,0 -5.79183,3.9832 -3.99154,4.58329 1.79942,0.5998 2.05979,5.18664 0.2944,5.18664 -0.67169,0 -1.22124,-0.86358 -1.22124,-1.9191 0,-1.05549 -0.82434,-2.74343 -1.83187,-3.75096 -1.62831,-1.62832 -2.03541,-1.62832 -3.66373,0 -2.07223,2.07225 -2.45968,5.67006 -0.61062,5.67006 0.67169,0 1.22124,0.54956 1.22124,1.22124 0,1.71917 -1.55918,1.43804 -3.35841,-0.60553 z m -13.738974,-9.1644 c 0,-0.67169 -0.54955,-1.22124 -1.22124,-1.22124 -0.67168,0 -1.22124,0.54955 -1.22124,1.22124 0,0.67168 0.54956,1.22124 1.22124,1.22124 0.67169,0 1.22124,-0.54956 1.22124,-1.22124 z m 34.194784,-17.09739 c 0,-0.67169 -0.54956,-1.22125 -1.22125,-1.22125 -0.67168,0 -1.22124,0.54956 -1.22124,1.22125 0,0.67168 0.54956,1.22124 1.22124,1.22124 0.67169,0 1.22125,-0.54956 1.22125,-1.22124 z m -34.194784,-6.10622 c 0,-2.89252 -0.77371,-3.06446 -3.14034,-0.69785 -2.366597,2.36662 -2.194657,3.14034 0.69786,3.14034 1.62832,0 2.44248,-0.81416 2.44248,-2.44249 z m 48.849684,30.53106 c 0,-0.67168 0.54957,-1.22124 1.22125,-1.22124 0.67169,0 1.22124,0.54956 1.22124,1.22124 0,0.67168 -0.54955,1.22124 -1.22124,1.22124 -0.67168,0 -1.22125,-0.54956 -1.22125,-1.22124 z M 42.643203,637.4512 c 0,-0.67169 0.549562,-1.22125 1.221242,-1.22125 0.671689,0 1.221241,0.54956 1.221241,1.22125 0,0.67168 -0.549552,1.22124 -1.221241,1.22124 -0.67168,0 -1.221242,-0.54956 -1.221242,-1.22124 z m 92.814407,0 c 0,-0.67169 0.54956,-1.22125 1.22124,-1.22125 0.67168,0 1.22124,0.54956 1.22124,1.22125 0,0.67168 -0.54956,1.22124 -1.22124,1.22124 -0.67168,0 -1.22124,-0.54956 -1.22124,-1.22124 z m -7.32746,-3.56197 c 0,-1.28738 -0.68204,-2.56805 -1.51565,-2.84592 -1.08206,-0.3607 -0.89076,-1.13011 0.66878,-2.68964 1.20144,-1.20144 2.55451,-1.81435 3.00683,-1.36202 0.45233,0.45232 0.0139,1.38393 -0.97409,2.07022 -1.35944,0.94426 -1.42511,1.39851 -0.26994,1.86723 1.80908,0.73406 2.0721,5.30085 0.30531,5.30085 -0.67168,0 -1.22124,-1.05332 -1.22124,-2.34072 z m -86.402874,-4.42535 c -3.868188,-4.05012 -5.205264,-7.88884 -2.747798,-7.88884 0.67168,0 1.221242,1.09913 1.221242,2.44249 0,2.92452 0.773133,3.06506 3.247813,0.59037 1.655324,-1.65531 1.433601,-2.24305 -2.086702,-5.53152 -2.16635,-2.02367 -3.5921,-4.02612 -3.168337,-4.44989 0.423772,-0.42377 1.904033,0.5365 3.289481,2.13393 2.073076,2.39028 2.711239,2.59334 3.60507,1.14709 0.597342,-0.96653 1.512221,-1.33119 2.033047,-0.81035 0.520835,0.52083 0.13855,1.46664 -0.84953,2.10181 -1.576878,1.01366 -1.572551,1.30413 0.03534,2.37607 1.628328,1.08556 1.628328,1.35694 0,2.44249 -1.628319,1.08555 -1.628319,1.35694 0,2.44248 1.628328,1.08555 1.628328,1.36727 0,2.53547 -1.379337,0.98956 -1.454759,1.46722 -0.305306,1.93362 1.637491,0.66444 2.132578,2.91391 0.610621,2.77443 -0.503758,-0.0462 -2.701995,-1.95401 -4.884967,-4.23965 z m 3.35841,-1.78263 c 0,-0.67168 -0.549552,-1.22124 -1.221241,-1.22124 -0.67168,0 -1.221242,0.54956 -1.221242,1.22124 0,0.67169 0.549562,1.22124 1.221242,1.22124 0.671689,0 1.221241,-0.54955 1.221241,-1.22124 z m -31.752301,2.4425 c 0,-0.67169 0.549562,-1.22126 1.221251,-1.22126 0.671671,0 1.221233,0.54957 1.221233,1.22126 0,0.67168 -0.549562,1.22124 -1.221233,1.22124 -0.671689,0 -1.221251,-0.54956 -1.221251,-1.22124 z m 85.486961,-2.4425 c 0,-0.67168 0.54955,-1.22124 1.221244,-1.22124 0.67168,0 1.22124,0.54956 1.22124,1.22124 0,0.67169 -0.54956,1.22124 -1.22124,1.22124 -0.671694,0 -1.221244,-0.54955 -1.221244,-1.22124 z m -86.571547,-3.22856 c -1.446125,-1.63311 -1.446125,-2.0749 0,-3.00665 1.429639,-0.92113 1.408235,-1.28356 -0.136664,-2.31348 -1.62832,-1.08555 -1.62832,-1.35694 0,-2.44248 1.628337,-1.08555 1.628337,-1.35694 0,-2.44249 -1.605677,-1.07046 -1.610514,-1.36354 -0.03916,-2.37373 1.502411,-0.96586 1.322384,-1.56039 -1.11172,-3.67147 -1.5974343,-1.38545 -2.5116483,-2.91176 -2.0315983,-3.39181 0.48005,-0.48005 1.3626143,-0.0803 1.9612493,0.88831 0.598644,0.96863 1.481208,1.36837 1.961258,0.88832 0.480059,-0.48005 -0.434173,-2.00636 -2.031598,-3.3918 -2.4341043,-2.11109 -2.6141223,-2.70561 -1.1117283,-3.67148 1.5713493,-1.01019 1.5665123,-1.30328 -0.03916,-2.37373 -1.605677,-1.07045 -1.610513,-1.36354 -0.03916,-2.37373 1.4995883,-0.96406 1.3063183,-1.57431 -1.182069,-3.73248 -2.439341,-2.11563 -2.659151,-2.77505 -1.221241,-3.66373 1.440896,-0.89052 1.235714,-1.53282 -1.150902,-3.60272 -1.597416,-1.38544 -2.511639,-2.91175 -2.03158,-3.3918 0.480041,-0.48005 1.362596,-0.0803 1.96124,0.88831 0.598644,0.96862 1.481208,1.36836 1.961258,0.88831 0.48005,-0.48005 -0.434173,-2.00636 -2.031598,-3.3918 -2.454825,-2.12906 -2.626909,-2.71178 -1.11172,-3.76445 1.357496,-0.94312 1.422108,-1.39583 0.266124,-1.86488 -3.814807,-1.54791 -0.522912,-10.18581 3.881814,-10.18581 1.1049333,0 1.9190883,-1.03621 1.9190883,-2.44248 0,-1.62833 -0.814155,-2.44249 -2.4424833,-2.44249 -1.34336,0 -2.442483,0.54955 -2.442483,1.22124 0,0.67168 -1.099105,1.22125 -2.442474,1.22125 -1.34337,0 -2.442484,-0.54957 -2.442484,-1.22125 0,-0.67169 1.099114,-1.22124 2.442484,-1.22124 1.343369,0 2.442474,-0.54956 2.442474,-1.22125 0,-2.45693 3.9945243,-1.12542 7.3274593,2.44249 1.882338,2.01505 4.065529,3.66373 4.851549,3.66373 2.048257,0 4.918384,-3.15606 4.918384,-5.40836 0,-1.05551 0.54957,-1.9191 1.22125,-1.9191 0.671681,0 1.221242,1.09912 1.221242,2.44249 0,1.34336 -0.549561,2.44249 -1.221242,2.44249 -0.67168,0 -1.22125,2.19823 -1.22125,4.88496 0,2.68673 -0.549562,4.88497 -1.221242,4.88497 -0.697856,0 -1.221242,3.66372 -1.221242,8.5487 0,4.88497 -0.523385,8.54869 -1.221241,8.54869 -0.67168,0 -1.221242,1.60288 -1.221242,3.56196 0,1.95908 -0.686954,3.84069 -1.526556,4.18138 -1.149454,0.46639 -1.074031,0.94406 0.305315,1.93363 1.628319,1.16819 1.628319,1.4499 0,2.53546 -1.628329,1.08554 -1.628329,1.36726 0,2.53545 1.379336,0.98957 1.454759,1.46723 0.305305,1.93364 -0.839602,0.34068 -1.526547,2.1765 -1.526547,4.0796 0,1.9031 -0.686945,3.73893 -1.526548,4.07961 -1.149462,0.46639 -1.074039,0.94406 0.305315,1.93363 1.62831,1.16819 1.62831,1.44991 0,2.53546 -1.628337,1.08554 -1.628337,1.35693 0,2.44248 1.62831,1.08555 1.62831,1.36727 0,2.53546 -1.379354,0.98957 -1.454777,1.46723 -0.305315,1.93363 1.641854,0.66621 2.124481,2.88869 0.610621,2.81191 -0.503758,-0.0256 -1.678786,-0.90794 -2.611143,-1.96087 z m 1.084586,-40.73615 c 0,-0.67168 -0.549561,-1.22125 -1.22125,-1.22125 -0.671681,0 -1.221242,0.54957 -1.221242,1.22125 0,0.67168 0.549561,1.22124 1.221242,1.22124 0.671689,0 1.22125,-0.54956 1.22125,-1.22124 z m 0,-4.36159 c 0,-0.38381 -0.850513,-1.54836 -1.890025,-2.58787 -2.3846843,-2.38467 -3.8173663,-1.19011 -1.5915963,1.32707 1.6679383,1.88633 3.4816213,2.54311 3.4816213,1.2608 z m -0.555117,-9.62719 c 3.640044,-3.64004 3.896787,-6.77234 0.555117,-6.77234 -1.343369,0 -2.442492,0.54956 -2.442492,1.22124 0,0.67168 -1.0991143,1.22124 -2.4424833,1.22124 -2.760121,0 -3.237066,2.86433 -0.915927,5.50068 1.983828,2.25325 1.775148,2.29982 5.2457853,-1.17082 z m 20.095002,53.06853 c 0,-0.67168 0.549552,-1.22125 1.221242,-1.22125 0.67168,0 1.221241,0.54957 1.221241,1.22125 0,0.67168 -0.549561,1.22124 -1.221241,1.22124 -0.67169,0 -1.221242,-0.54956 -1.221242,-1.22124 z m 87.92943,-1.22125 c 0,-1.62831 0.81416,-2.44248 2.44248,-2.44248 2.89252,0 3.06446,0.77373 0.69786,3.14034 -2.36663,2.36662 -3.14034,2.19468 -3.14034,-0.69786 z M 18.218352,616.69008 c 0,-2.68674 0.549561,-4.88497 1.221242,-4.88497 0.67168,0 1.221241,-1.64868 1.221241,-3.66373 0,-2.01505 0.549562,-3.66373 1.221242,-3.66373 0.697856,0 1.221241,-3.66372 1.221241,-8.54869 0,-4.88497 0.523395,-8.5487 1.221251,-8.5487 0.67168,0 1.221242,-2.07691 1.221242,-4.61536 0,-3.2144 0.74141,-5.14975 2.442483,-6.37581 1.701082,-1.22607 2.442493,-3.16143 2.442493,-6.37582 0,-2.53845 0.549552,-4.61537 1.221241,-4.61537 0.671681,0 1.221242,2.62647 1.221242,5.83662 0,4.43562 -0.586275,6.25916 -2.442483,7.59705 -1.701082,1.22607 -2.442493,3.16141 -2.442493,6.37581 0,2.53845 0.549562,4.61536 1.221242,4.61536 0.696454,0 1.221251,3.62981 1.221251,8.44693 0,5.65113 0.50526,8.6283 1.526547,8.9949 1.014647,0.36421 0.515881,1.4452 -1.487374,3.22363 -2.474562,2.19682 -2.699445,2.87003 -1.256617,3.76174 0.96653,0.59735 1.387242,1.45618 0.934917,1.9085 -0.452326,0.45233 -1.805404,-0.16058 -3.006837,-1.36201 -1.559536,-1.55954 -1.750847,-2.32896 -0.668774,-2.68965 1.886127,-0.62871 2.172225,-22.28404 0.294403,-22.28404 -0.697847,0 -1.221241,3.66374 -1.221241,8.5487 0,4.88497 -0.523386,8.5487 -1.221242,8.5487 -0.67168,0 -1.221251,1.64867 -1.221251,3.66372 0,2.01505 -0.549561,3.66373 -1.221241,3.66373 -0.67168,0 -1.221242,1.64868 -1.221242,3.66373 0,2.01505 -0.549561,3.66372 -1.221241,3.66372 -0.671681,0 -1.221242,-2.19823 -1.221242,-4.88496 z m 46.407219,3.66372 c 0,-0.67168 0.549552,-1.22124 1.221241,-1.22124 0.671681,0 1.221242,0.54956 1.221242,1.22124 0,0.67168 -0.549561,1.22124 -1.221242,1.22124 -0.671689,0 -1.221241,-0.54956 -1.221241,-1.22124 z M 32.87327,617.91132 c 0,-0.67168 0.549552,-1.22124 1.221242,-1.22124 0.67168,0 1.221241,0.54956 1.221241,1.22124 0,0.67168 -0.549561,1.22124 -1.221241,1.22124 -0.67169,0 -1.221242,-0.54956 -1.221242,-1.22124 z m 65.031136,-0.60553 c -1.82798,-2.07623 -2.01805,-5.50068 -0.30531,-5.50068 0.67169,0 1.22125,-1.05333 1.22125,-2.34072 0,-1.28739 0.68694,-2.61945 1.526544,-2.96013 1.14945,-0.46641 1.07404,-0.94406 -0.3053,-1.93363 -1.628324,-1.16819 -1.628324,-1.44991 0,-2.53546 1.56393,-1.04263 1.57961,-1.38365 0.10722,-2.33166 -1.444924,-0.93033 -1.361804,-1.47322 0.51248,-3.34751 1.58733,-1.58732 2.38385,-1.79688 2.74232,-0.72145 0.59983,1.79944 5.18666,2.0598 5.18666,0.29441 0,-0.67169 -1.09911,-1.22124 -2.44248,-1.22124 -1.34336,0 -2.44248,-0.54956 -2.44248,-1.22124 0,-0.67169 -1.09912,-1.22125 -2.44248,-1.22125 -2.703404,0 -3.308264,-1.88764 -0.91594,-2.85836 1.14945,-0.46641 1.07404,-0.94406 -0.3053,-1.93364 -1.583054,-1.13571 -1.593564,-1.46755 -0.0773,-2.44313 1.421944,-0.9149 0.996434,-1.83709 -2.24466,-4.86472 -3.70221,-3.45839 -3.85086,-3.88413 -2.00169,-5.7333 1.09863,-1.09862 2.38349,-1.58206 2.85527,-1.07429 0.47178,0.50775 0.17082,1.16853 -0.66878,1.46839 -2.8765,1.02732 -1.52792,2.78415 2.137164,2.78415 3.66609,0 5.01192,1.75499 2.13718,2.7869 -1.01465,0.36423 -0.51588,1.44522 1.48737,3.22364 2.37841,2.11147 2.66267,2.89275 1.34811,3.7052 -1.3102,0.80975 -0.94969,1.74569 1.68867,4.38405 2.70038,2.70039 3.56866,3.02204 4.45278,1.64949 0.93046,-1.44444 1.29915,-1.42505 2.41252,0.12687 0.98958,1.37933 1.46724,1.45476 1.93364,0.3053 0.97073,-2.39233 2.85836,-1.78746 2.85836,0.91594 0,1.59292 -0.81417,2.44248 -2.34072,2.44248 -1.28738,0 -2.66128,0.68695 -3.0531,1.52655 -0.56991,1.22124 -0.85488,1.22124 -1.42478,0 -1.29768,-2.78074 -2.95134,-1.58326 -2.95134,2.13718 0,2.01505 -0.54956,3.66372 -1.22124,3.66372 -1.74515,0 -1.51531,4.58342 0.25951,5.17502 0.88726,0.29575 -0.32013,2.29448 -3.01239,4.98674 -5.118204,5.11821 -4.699514,4.95187 -6.711744,2.66638 z m 6.644154,-4.94821 c 1.03949,-1.03951 1.47457,-2.27602 0.96679,-2.7478 -0.50774,-0.47178 -1.16852,-0.17083 -1.46838,0.66877 -0.29985,0.83961 -1.59853,1.52656 -2.88591,1.52656 -1.287394,0 -2.340714,0.54955 -2.340714,1.22124 0,1.87205 3.608694,1.45073 5.728214,-0.66877 z m 1.59923,-9.79903 c 0,-2.41718 -3.49008,-6.01119 -4.63781,-4.77592 -0.47178,0.50776 -0.17083,1.16854 0.66878,1.4684 0.8396,0.29986 1.52655,1.59852 1.52655,2.88591 0,1.28739 0.54956,2.34071 1.22125,2.34071 0.67167,0 1.22123,-0.86359 1.22123,-1.9191 z m 7.32745,-6.62959 c 0,-0.67169 -0.54955,-1.22124 -1.22124,-1.22124 -0.67168,0 -1.22125,0.54955 -1.22125,1.22124 0,0.67168 0.54957,1.22124 1.22125,1.22124 0.67169,0 1.22124,-0.54956 1.22124,-1.22124 z m -9.76993,-9.76994 c 0,-0.67168 -0.54956,-1.22124 -1.22124,-1.22124 -0.67169,0 -1.22124,0.54956 -1.22124,1.22124 0,0.67168 0.54955,1.22124 1.22124,1.22124 0.67168,0 1.22124,-0.54956 1.22124,-1.22124 z m 12.21242,25.64609 c 0,-1.62833 -0.81417,-2.44249 -2.44249,-2.44249 -1.34336,0 -2.44249,-0.54955 -2.44249,-1.22124 0,-0.67168 0.54957,-1.22124 1.22125,-1.22124 0.67169,0 1.22124,-1.09912 1.22124,-2.44249 0,-1.34337 0.54956,-2.44248 1.22125,-2.44248 0.67168,0 1.22124,0.54956 1.22124,1.22124 0,0.67168 0.86358,1.22124 1.91909,1.22124 1.85081,0 5.40836,2.75424 5.40836,4.18712 0,0.38382 -1.09911,0.69785 -2.44248,0.69785 -1.62832,0 -2.44249,0.81416 -2.44249,2.44249 0,1.34336 -0.54956,2.44248 -1.22124,2.44248 -0.67169,0 -1.22124,-1.09912 -1.22124,-2.44248 z m -75.71701,-1.22125 c 0,-0.67168 0.549561,-1.22124 1.221241,-1.22124 0.67169,0 1.221242,0.54956 1.221242,1.22124 0,0.67169 -0.549552,1.22125 -1.221242,1.22125 -0.67168,0 -1.221241,-0.54956 -1.221241,-1.22125 z m 28.393882,-7.98731 c -2.182963,-2.28564 -3.969031,-4.87434 -3.969031,-5.75267 0,-0.87833 -1.099123,-2.38916 -2.442493,-3.3574 -2.522678,-1.81825 -3.380268,-6.10622 -1.221241,-6.10622 0.671689,0 1.221241,1.09912 1.221241,2.44248 0,1.34337 0.549562,2.44249 1.221251,2.44249 0.67168,0 1.221242,-1.60288 1.221242,-3.56196 0,-1.95907 0.686945,-3.88253 1.526547,-4.27434 1.221242,-0.56992 1.221242,-0.85487 0,-1.42479 -0.839602,-0.39181 -1.526547,-1.76571 -1.526547,-3.0531 0,-1.28739 -0.549562,-2.34071 -1.221242,-2.34071 -0.671689,0 -1.221251,-1.09913 -1.221251,-2.44249 0,-1.34337 0.549562,-2.44249 1.221251,-2.44249 0.67168,0 1.221242,1.09912 1.221242,2.44249 0,2.6938 1.923224,3.32651 2.784139,0.91593 0.317118,-0.88793 0.998316,-1.07343 1.628328,-0.44343 0.630002,0.63001 0.444493,1.31121 -0.443436,1.62832 -0.839603,0.29986 -1.526548,1.59853 -1.526548,2.88592 0,1.78663 0.867254,2.34071 3.663725,2.34071 3.12095,0 3.66372,-0.46523 3.66372,-3.14034 0,-1.72718 -0.7851,-3.92542 -1.74463,-4.88496 -0.95955,-0.95955 -3.157782,-1.74464 -4.884959,-1.74464 -1.727194,0 -3.140339,-0.54955 -3.140339,-1.22124 0,-0.67168 -0.863593,-1.22124 -1.919098,-1.22124 -1.055505,0 -2.743436,-0.82434 -3.75096,-1.83186 -1.62832,-1.62832 -1.62832,-2.03541 0,-3.66373 1.007524,-1.00752 2.695455,-1.83186 3.75096,-1.83186 2.284243,0 2.56728,-2.00745 0.392541,-2.78414 -0.887929,-0.31712 -1.073429,-0.99832 -0.443436,-1.62833 0.630021,-0.63 1.311219,-0.4445 1.628337,0.44343 0.644384,1.8043 7.669094,2.08396 7.669094,0.30531 0,-0.67169 -1.099111,-1.22124 -2.442472,-1.22124 -1.343369,0 -2.442483,-0.54956 -2.442483,-1.22125 0,-2.17529 3.92514,-1.29355 6.268255,1.40811 l 2.28043,2.62935 2.44248,-2.81621 2.44248,-2.81621 2.60691,2.93466 c 1.74266,1.96175 2.78857,2.42857 3.15489,1.4081 0.64893,-1.80783 5.229387,-2.07525 5.229387,-0.30531 0,0.67168 -0.54956,1.22125 -1.22124,1.22125 -0.67168,0 -1.221247,0.54955 -1.221247,1.22124 0,1.77006 4.580997,1.50246 5.226627,-0.30532 0.31712,-0.88793 0.99831,-1.07343 1.62833,-0.44343 0.63,0.63002 0.4445,1.31121 -0.44343,1.62833 -2.41058,0.86092 -1.77787,2.78414 0.91592,2.78414 1.34337,0 2.4425,0.54956 2.4425,1.22124 0,0.67168 -0.8636,1.22125 -1.9191,1.22125 -2.72572,0 -5.40836,3.03302 -5.40836,6.11472 0,1.46664 -2.15614,4.69708 -4.884967,7.31894 -2.68674,2.58141 -4.88497,5.43959 -4.88497,6.35149 0,0.9119 -1.09912,2.4502 -2.44249,3.41845 -1.34336,0.96825 -2.44248,2.18868 -2.44248,2.71208 0,0.52341 1.09912,0.95165 2.44248,0.95165 1.34337,0 2.44249,-0.54956 2.44249,-1.22124 0,-0.67169 0.84932,-1.22125 1.88737,-1.22125 1.03806,0 3.3166,-1.42922 5.06343,-3.17605 2.512587,-2.5126 2.827267,-3.3916 1.506417,-4.20794 -0.91831,-0.56755 -1.306697,-1.39484 -0.8631,-1.83845 0.4436,-0.4436 2.26619,0.65309 4.05018,2.43709 l 3.24365,3.24364 -2.55901,2.21941 c -1.40745,1.22068 -2.559,2.86022 -2.559,3.64343 0,2.09049 -8.154567,9.89129 -10.339847,9.89129 -1.02991,0 -1.87258,0.54956 -1.87258,1.22124 0,2.88726 -6.87032,0.89265 -10.685857,-3.10234 z m 10.685857,0.65986 c 0,-0.67168 1.09913,-1.22124 2.44249,-1.22124 1.34337,0 2.44249,-0.54956 2.44249,-1.22124 0,-1.77355 -6.99333,-1.50108 -7.83631,0.3053 -0.56991,1.22125 -0.85488,1.22125 -1.42478,0 -0.84496,-1.81064 -5.393812,-2.06812 -5.393812,-0.3053 0,0.67168 1.099114,1.22124 2.442472,1.22124 1.34337,0 2.44249,0.54956 2.44249,1.22124 0,0.67168 1.09912,1.22124 2.44248,1.22124 1.34337,0 2.44248,-0.54956 2.44248,-1.22124 z m -2.9976,-11.54629 c 1.64869,-1.64868 2.9976,-4.39647 2.9976,-6.10621 0,-1.98969 0.67936,-3.10862 1.88738,-3.10862 2.44305,0 7.88256,-5.43951 7.88256,-7.88256 0,-2.42911 -5.63864,-2.52939 -8.0253,-0.14274 -0.95955,0.95954 -1.74464,3.15778 -1.74464,4.88496 0,2.32618 -0.63323,3.14034 -2.44248,3.14034 -1.34336,0 -2.44248,0.54957 -2.44248,1.22125 0,0.67168 -0.8636,1.22124 -1.9191,1.22124 -2.218832,0 -5.408345,2.8598 -5.408345,4.84928 0,1.92122 2.755695,4.81902 4.635155,4.8742 0.87013,0.0256 2.93098,-1.30247 4.57965,-2.95114 z m 5.44009,-15.32103 c 0,-0.67169 0.54956,-1.22125 1.22125,-1.22125 0.67168,0 1.22124,0.54956 1.22124,1.22125 0,0.67168 -0.54956,1.22124 -1.22124,1.22124 -0.67169,0 -1.22125,-0.54956 -1.22125,-1.22124 z m -2.44249,-4.88498 c 2.84311,-3.04356 4.37311,-3.66372 9.03868,-3.66372 3.088917,0 5.616227,-0.54957 5.616227,-1.22125 0,-0.67168 -1.05332,-1.22124 -2.34071,-1.22124 -1.28739,0 -2.619447,-0.68694 -2.960137,-1.52655 -0.46766,-1.15255 -0.96417,-1.07776 -2.0266,0.30531 -1.06243,1.38306 -1.55894,1.45787 -2.02661,0.30531 -0.94434,-2.32733 -4.54937,-1.82106 -6.52209,0.91593 -0.96825,1.34337 -2.73824,2.44249 -3.93333,2.44249 -1.35871,0 -2.17288,-0.91518 -2.17288,-2.44249 0,-2.66936 1.9388,-3.34294 2.73623,-0.95063 0.31555,0.94664 1.73903,0.25013 3.89502,-1.90587 1.86875,-1.86876 3.06816,-3.72732 2.66534,-4.13014 -0.40282,-0.40282 -1.86594,0.57459 -3.25139,2.17202 -2.06989,2.3866 -2.7122,2.59179 -3.60271,1.1509 -0.88868,-1.43791 -1.5481,-1.2181 -3.66372,1.22124 -2.177279,2.51043 -2.774393,2.69493 -3.825454,1.18207 -0.943123,-1.35752 -1.395831,-1.42212 -1.864878,-0.26614 -0.34069,0.83961 -1.672748,1.52655 -2.960131,1.52655 -1.287392,0 -2.340721,0.54956 -2.340721,1.22124 0,0.67168 2.060853,1.23768 4.579661,1.25778 3.535659,0.0282 5.275659,0.85507 7.632753,3.62719 1.67921,1.97487 3.24479,3.60711 3.47906,3.6272 0.23428,0.0201 1.96605,-1.61215 3.84839,-3.6272 z M 129.5335,602.519 c -2.22576,-2.51719 -0.79308,-3.71175 1.5916,-1.32707 1.03951,1.03951 1.89002,2.20405 1.89002,2.58787 0,1.28231 -1.81368,0.62552 -3.48162,-1.2608 z m -35.598134,-1.70507 c 0,-0.67168 0.54956,-1.22124 1.22124,-1.22124 0.67169,0 1.22124,0.54956 1.22124,1.22124 0,0.67168 -0.54955,1.22124 -1.22124,1.22124 -0.67168,0 -1.22124,-0.54956 -1.22124,-1.22124 z m 29.309814,-2.44249 c 0,-0.67168 0.54956,-1.22124 1.22124,-1.22124 0.67168,0 1.22124,0.54956 1.22124,1.22124 0,0.67168 -0.54956,1.22125 -1.22124,1.22125 -0.67168,0 -1.22124,-0.54957 -1.22124,-1.22125 z M 49.054726,585.55349 c -2.098988,-2.38404 -1.919507,-3.0582 0.814164,-3.0582 1.287393,0 2.568063,-0.68204 2.845927,-1.51564 0.360691,-1.08208 1.130108,-0.89076 2.689644,0.66877 1.201432,1.20144 1.768982,2.57043 1.261226,3.04221 -0.507766,0.47177 -1.168544,0.17082 -1.468403,-0.66879 -0.860915,-2.41057 -2.784139,-1.77787 -2.784139,0.91594 0,2.84325 -1.203035,3.0638 -3.358419,0.61571 z m 2.31929,-9.90183 c -2.22577,-2.51718 -0.793088,-3.71175 1.591596,-1.32706 1.039512,1.03951 1.890017,2.20406 1.890017,2.58787 0,1.28231 -1.813674,0.62552 -3.481613,-1.26081 z m 49.888814,-1.70507 c 0,-0.67168 0.54955,-1.22124 1.22124,-1.22124 0.67168,0 1.22124,0.54956 1.22124,1.22124 0,0.67169 -0.54956,1.22125 -1.22124,1.22125 -0.67169,0 -1.22124,-0.54956 -1.22124,-1.22125 z m -75.717019,-2.44248 c 0,-0.67168 0.549561,-1.22124 1.221241,-1.22124 0.67169,0 1.221242,0.54956 1.221242,1.22124 0,0.67169 -0.549552,1.22124 -1.221242,1.22124 -0.67168,0 -1.221241,-0.54955 -1.221241,-1.22124 z m 2.442483,-9.76993 c 0,-0.67169 0.549562,-1.22124 1.221242,-1.22124 0.671689,0 1.221251,0.54955 1.221251,1.22124 0,0.67168 -0.549562,1.22124 -1.221251,1.22124 -0.67168,0 -1.221242,-0.54956 -1.221242,-1.22124 z M 15.958382,554.8619 c -1.578818,-1.68254 -2.573847,-3.35588 -2.211179,-3.71856 0.65963,-0.65963 6.913632,5.00398 6.913632,6.26098 0,1.43729 -1.96492,0.37494 -4.702453,-2.54242 z m -9.9524553,-2.89767 c 0,-0.67168 0.549561,-1.22124 1.221241,-1.22124 0.67168,0 1.221242,0.54956 1.221242,1.22124 0,0.67169 -0.549562,1.22125 -1.221242,1.22125 -0.67168,0 -1.221241,-0.54956 -1.221241,-1.22125 z m 64.9641423,-0.67728 c -1.318787,-1.49425 -1.266134,-2.13307 0.305306,-3.7045 1.717684,-1.71769 2.082004,-1.71576 3.817974,0.0202 1.70586,1.70587 1.71556,2.12263 0.0872,3.75096 -2.2036,2.2036 -2.20691,2.20355 -4.210513,-0.0667 z m 20.522817,0.67728 c 0,-0.67168 0.54956,-1.22124 1.22124,-1.22124 0.67169,0 1.22124,0.54956 1.22124,1.22124 0,0.67169 -0.54955,1.22125 -1.22124,1.22125 -0.67168,0 -1.22124,-0.54956 -1.22124,-1.22125 z m -7.327447,-4.36158 c 0,-3.53377 -2.52555,-6.62959 -5.40836,-6.62959 -1.05551,0 -1.9191,-0.54956 -1.9191,-1.22124 0,-2.38309 6.26264,-1.17584 9.21482,1.77635 3.441237,3.44123 3.705627,5.01753 1.25298,7.4702 -2.47825,2.47823 -3.14034,2.18397 -3.14034,-1.39572 z m 4.88496,-10.29332 c 0,-0.67168 0.549567,-1.22125 1.221247,-1.22125 0.67168,0 1.22124,0.54957 1.22124,1.22125 0,0.67169 -0.54956,1.22124 -1.22124,1.22124 -0.67168,0 -1.221247,-0.54955 -1.221247,-1.22124 z m -9.76994,-2.44249 c 0,-0.67168 0.54956,-1.22124 1.22124,-1.22124 0.67169,0 1.22125,0.54956 1.22125,1.22124 0,0.67169 -0.54956,1.22124 -1.22125,1.22124 -0.67168,0 -1.22124,-0.54955 -1.22124,-1.22124 z m 4.88498,-2.44248 c 0,-0.67168 1.60288,-1.22124 3.56195,-1.22124 1.959067,0 3.807297,-0.68695 4.107147,-1.52656 0.29987,-0.8396 0.96064,-1.14054 1.4684,-0.66877 0.50777,0.47178 0.0727,1.70828 -0.96681,2.74779 -2.09366,2.09366 -8.170687,2.59107 -8.170687,0.66878 z m 12.212407,-7.32745 c 0,-0.67169 0.54957,-1.22124 1.22125,-1.22124 0.67169,0 1.22125,0.54955 1.22125,1.22124 0,0.67168 -0.54956,1.22124 -1.22125,1.22124 -0.67168,0 -1.22125,-0.54956 -1.22125,-1.22124 z"
       id="path4979"
       inkscape:connector-curvature="0" />
    <path
       style="fill:none;fill-rule:evenodd;stroke:#000000;stroke-width:0.91078985px;stroke-linecap:butt;stroke-linejoin:miter;stroke-opacity:1"
       d="m 108.87886,850.69074 2.20978,0.34891"
       id="path5006"
       inkscape:connector-curvature="0" />
    <path
       style="fill:none;fill-rule:evenodd;stroke:#000000;stroke-width:0.91078985px;stroke-linecap:butt;stroke-linejoin:miter;stroke-opacity:1"
       d="m 88.990823,865.34508 2.44239,2.32609"
       id="path5008"
       inkscape:connector-curvature="0" />
    <path
       style="fill:none;fill-rule:evenodd;stroke:#000000;stroke-width:0.91078985px;stroke-linecap:butt;stroke-linejoin:miter;stroke-opacity:1"
       d="m 76.081043,855.80813 -1.860871,1.86086"
       id="path5010"
       inkscape:connector-curvature="0" />
    <path
       style="fill:#707070;fill-opacity:1;fill-rule:evenodd;stroke:#000000;stroke-width:0.91078985px;stroke-linecap:butt;stroke-linejoin:miter;stroke-opacity:1"
       d="m -104.09188,869.59474 c 4.652167,-0.69783 4.394769,13.28449 18.002369,13.40079 13.60761,0.11631 27.036281,-21.56123 27.796745,-18.39261 0.697829,2.90761 -0.308321,14.92566 -0.789336,18.0179 -0.814128,5.2337 -6.047831,8.49022 -8.839137,12.67718 -2.973938,4.46093 -18.14348,20.00433 -18.14348,20.00433 0,0 -11.04891,-13.6076 -13.491302,-18.25978 -2.442389,-4.65216 -4.303249,-14.07281 -4.884779,-17.09672 -0.58152,-3.02392 0.34892,-10.35109 0.34892,-10.35109 z"
       id="path4937"
       inkscape:connector-curvature="0"
       sodipodi:nodetypes="csssscssc" />
    <path
       style="fill:#000000;fill-opacity:1;fill-rule:evenodd;stroke:#000000;stroke-width:0.91078985px;stroke-linecap:butt;stroke-linejoin:miter;stroke-opacity:1"
       d="m -79.6846,842.41915 c 0,0 2.796143,-2.30271 6.085725,-1.97375 3.289581,0.32895 7.401561,1.48031 5.921254,1.80927 -1.480316,0.32896 -4.111979,-0.49344 -6.579172,-0.16448 -2.467184,0.32896 -5.427807,0.32896 -5.427807,0.32896 z"
       id="path5086"
       inkscape:connector-curvature="0" />
    <path
       style="fill:#000000;fill-opacity:1;fill-rule:evenodd;stroke:#000000;stroke-width:0.91078985px;stroke-linecap:butt;stroke-linejoin:miter;stroke-opacity:1"
       d="m -98.928669,842.41915 c 0,0 3.61855,-2.30271 6.085734,-2.13823 2.467184,0.16448 5.592286,1.80927 5.592286,1.80927 0,0 -4.27645,0.16448 -6.414684,0.32896 -2.138225,0.16448 -5.263336,0 -5.263336,0 z"
       id="path5088"
       inkscape:connector-curvature="0" />
    <path
       style="fill:#f4e8d4;fill-opacity:1;stroke:#000000;stroke-width:0.08780977;stroke-miterlimit:4;stroke-dasharray:none;stroke-opacity:1"
       d="m -88.754919,882.26179 c -1.849859,-0.33499 -3.521459,-0.99354 -4.93383,-1.94378 -2.167662,-1.45837 -3.504592,-3.10871 -6.086435,-7.51326 -0.596936,-1.01836 -1.342766,-2.14038 -1.657396,-2.49339 -0.58316,-0.65428 -1.55435,-1.24409 -2.04857,-1.24409 -0.14736,0 -0.26793,-0.0167 -0.26793,-0.0371 0,-0.0204 0.0763,-0.29514 0.16963,-0.61059 0.32428,-1.09648 0.86577,-4.07127 0.99885,-5.48742 0.1011,-1.07571 0.101,-1.77374 -3.9e-4,-2.84945 -0.33801,-3.58593 -1.36707,-8.80872 -2.29157,-11.63043 -0.0474,-0.14468 -0.004,-0.20405 0.15041,-0.20531 0.17364,-0.002 0.56055,-0.79437 1.93259,-3.96071 0.94351,-2.17741 1.71548,-4.08821 1.71548,-4.24621 0,-0.3449 0.0478,-0.3655 2.115273,-0.91239 5.897692,-1.56006 12.40942,-2.58485 17.212252,-2.7088 5.015883,-0.12945 8.558865,0.55622 16.694449,3.23085 1.933207,0.63555 3.648415,1.15556 3.811574,1.15556 0.284871,0 0.264224,0.0484 -0.520079,1.21732 -0.449202,0.66952 -0.816733,1.28677 -0.816733,1.37165 0,0.0849 0.306545,0.94605 0.681216,1.91368 0.622589,1.60794 0.662491,1.76424 0.463656,1.81623 -0.524196,0.13708 -0.716354,1.56623 -0.394217,2.93198 0.09113,0.38638 0.398835,1.32908 0.683775,2.0949 0.666147,1.7903 0.90001,2.90399 1.409843,6.71364 0.390319,2.9166 0.695069,4.70892 0.822297,4.83615 0.03015,0.0301 -0.201275,0.20115 -0.514341,0.37995 -0.343377,0.19611 -1.437381,1.21518 -2.757429,2.56854 -4.010909,4.11216 -7.184729,7.23262 -8.536104,8.39264 -4.737929,4.06699 -8.83866,6.38542 -12.678258,7.16788 -1.360574,0.27726 -3.973722,0.30258 -5.358013,0.0519 z m 6.661681,-3.12337 c 3.563019,-1.2576 10.344924,-7.10148 12.571304,-10.83252 1.375648,-2.30537 2.030178,-5.65833 1.736712,-8.89662 -0.135434,-1.49437 -0.549507,-3.60069 -0.707847,-3.60069 -0.225539,0 -2.378255,3.74662 -3.548392,6.1757 -0.810548,1.68261 -1.313332,2.30581 -2.491274,3.08795 -1.814075,1.20454 -5.113785,2.19284 -8.859608,2.65359 -1.566158,0.19264 -2.680864,0.23064 -2.674489,0.0912 0.0018,-0.048 0.39245,-0.26438 0.867236,-0.48089 1.595321,-0.72754 3.335531,-2.35412 4.715915,-4.40802 1.347623,-2.00514 1.548625,-4.52478 0.524788,-6.5785 -0.639703,-1.28318 -1.151311,-1.28881 -3.370496,-0.0372 -2.273377,1.28227 -2.264206,1.27965 -4.660448,1.32773 -1.151412,0.0231 -2.23118,0.0952 -2.399476,0.1603 -0.437206,0.16906 -2.581342,2.39083 -2.883615,2.98805 -0.726073,1.43452 -0.35305,2.57083 1.505481,4.58607 0.457198,0.49575 0.80032,0.90136 0.762495,0.90136 -0.276434,0 -5.211184,-2.4288 -7.361905,-3.62339 l -0.491144,-0.27281 -0.348067,0.34892 -0.348058,0.34891 1.426087,1.97717 c 4.801484,6.65693 8.923536,11.25898 11.882765,13.26647 1.642947,1.11454 2.712924,1.32513 4.152036,0.81718 z m -6.098248,-24.41688 c 0.992233,-0.33671 1.765566,-0.80868 2.411425,-1.4717 l 0.465223,-0.47758 -0.0073,-1.70928 c -0.0082,-1.93066 -0.160344,-2.68515 -0.817597,-4.06048 -1.023236,-2.14118 -3.05264,-3.34668 -5.258136,-3.12341 -1.565238,0.15845 -3.693407,1.07489 -4.177948,1.79914 -0.541482,0.80934 -0.256906,2.82017 0.769672,5.43853 0.82779,2.11133 1.24475,2.73542 2.253987,3.37371 1.076808,0.68103 2.77044,0.77077 4.360834,0.23107 l 0,0 z m 11.519314,-0.39764 c 1.150856,-0.48666 3.422466,-1.78392 4.381783,-2.50234 1.454604,-1.08934 2.661291,-2.84669 2.965969,-4.31946 0.355035,-1.71621 -0.422006,-3.35333 -1.830132,-3.85584 -1.403199,-0.50075 -4.052049,0.24551 -6.319424,1.78037 -2.071182,1.40206 -2.917615,2.92817 -3.093052,5.57676 -0.11485,1.73387 0.263956,3.09925 0.989701,3.56739 0.493739,0.31848 1.838384,0.20421 2.905155,-0.24688 z m -14.167126,-11.53953 c 1.375302,-0.0741 3.154758,-0.17323 3.954349,-0.2202 l 1.453803,-0.0853 -1.744563,-0.86633 c -2.382854,-1.18329 -4.513164,-1.8481 -5.931519,-1.85103 -1.033756,-0.002 -2.883042,0.54116 -4.419562,1.29841 -0.758324,0.37373 -2.84946,1.65541 -2.84946,1.74646 0,0.21469 5.377202,0.20234 9.536952,-0.022 z m 14.59619,-0.009 c 2.578164,-0.22417 4.08421,-0.25696 5.429984,-0.11821 1.718851,0.17722 3.114464,0.17478 3.511513,-0.006 0.341811,-0.15574 0.517001,-0.61525 0.344862,-0.90454 -0.43084,-0.72409 -4.743266,-1.78134 -7.30918,-1.79196 -1.273794,-0.005 -2.147141,0.18141 -3.462103,0.74004 -0.893995,0.3798 -2.131266,1.15972 -2.81833,1.77654 l -0.465222,0.41766 1.744572,-9.1e-4 c 0.959508,-6e-4 2.320265,-0.0512 3.023904,-0.11233 l 0,10e-6 z"
       id="path5090"
       inkscape:connector-curvature="0" />
    <path
       style="fill:#000000;fill-opacity:1;fill-rule:evenodd;stroke:#000000;stroke-width:0.91078985px;stroke-linecap:butt;stroke-linejoin:miter;stroke-opacity:1"
       d="m -82.891955,819.59766 c 0.493438,2.54943 1.517512,2.92188 3.45407,3.24847 -2.014248,0.53091 -3.042867,1.72703 -3.536305,3.78302 -0.420448,-2.0565 -1.356941,-3.65967 -3.577419,-3.78302 2.214258,-0.33844 3.330704,-0.69904 3.659654,-3.24847 z"
       id="path5092"
       inkscape:connector-curvature="0"
       sodipodi:nodetypes="ccccc" />
    <path
       style="fill:none;fill-rule:evenodd;stroke:#000000;stroke-width:0.91078985px;stroke-linecap:butt;stroke-linejoin:miter;stroke-opacity:1"
       d="m -58.302311,947.35684 9.868753,-3.28958"
       id="path5094"
       inkscape:connector-curvature="0" />
    <path
       style="fill:#000000;fill-opacity:1;fill-rule:evenodd;stroke:#000000;stroke-width:0.91078985px;stroke-linecap:butt;stroke-linejoin:miter;stroke-opacity:1"
       d="m -99.013982,916.19873 c 0.493438,2.54943 1.517512,2.92188 3.45407,3.24847 -2.014248,0.53092 -3.042867,1.72703 -3.536306,3.78302 -0.420448,-2.0565 -1.356942,-3.65966 -3.577422,-3.78302 2.21426,-0.33844 3.330708,-0.69904 3.659658,-3.24847 z"
       id="path5092-7"
       inkscape:connector-curvature="0"
       sodipodi:nodetypes="ccccc" />
    <path
       style="fill:#000000;fill-opacity:1;fill-rule:evenodd;stroke:#000000;stroke-width:0.91078985px;stroke-linecap:butt;stroke-linejoin:miter;stroke-opacity:1"
       d="m -84.210861,943.50227 c 0.493439,2.54943 1.517513,2.92188 3.45407,3.24847 -2.014248,0.53092 -3.042866,1.72703 -3.536305,3.78302 -0.420448,-2.0565 -1.35694,-3.65966 -3.577419,-3.78302 2.214258,-0.33844 3.330704,-0.69904 3.659654,-3.24847 z"
       id="path5092-5"
       inkscape:connector-curvature="0"
       sodipodi:nodetypes="ccccc" />
    <path
       style="fill:#000000;fill-opacity:1;fill-rule:evenodd;stroke:#000000;stroke-width:0.91078985px;stroke-linecap:butt;stroke-linejoin:miter;stroke-opacity:1"
       d="m -81.908147,957.97644 c 0.493438,2.54943 1.517512,2.92188 3.45407,3.24847 -2.014248,0.53092 -3.042867,1.72703 -3.536306,3.78302 -0.420448,-2.0565 -1.35694,-3.65966 -3.577418,-3.78302 2.214257,-0.33844 3.330704,-0.69904 3.659654,-3.24847 z"
       id="path5092-3"
       inkscape:connector-curvature="0"
       sodipodi:nodetypes="ccccc" />
    <path
       style="fill:#000000;fill-opacity:1;fill-rule:evenodd;stroke:#000000;stroke-width:0.91078985px;stroke-linecap:butt;stroke-linejoin:miter;stroke-opacity:1"
       d="m -103.6194,945.14707 c 0.49344,2.54942 1.51751,2.92187 3.45407,3.24846 -2.01425,0.53092 -3.04287,1.72704 -3.53631,3.78302 -0.42044,-2.05649 -1.35694,-3.65966 -3.57741,-3.78302 2.21425,-0.33844 3.3307,-0.69904 3.65965,-3.24846 z"
       id="path5092-56"
       inkscape:connector-curvature="0"
       sodipodi:nodetypes="ccccc" />
    <path
       style="fill:#000000;fill-opacity:1;fill-rule:evenodd;stroke:#000000;stroke-width:0.91078985px;stroke-linecap:butt;stroke-linejoin:miter;stroke-opacity:1"
       d="m -110.19856,964.55561 c 0.49344,2.54942 1.51751,2.92187 3.45407,3.24846 -2.01425,0.53092 -3.04287,1.72703 -3.53631,3.78302 -0.42045,-2.0565 -1.35694,-3.65966 -3.57742,-3.78302 2.21426,-0.33844 3.33071,-0.69904 3.65966,-3.24846 z"
       id="path5092-2"
       inkscape:connector-curvature="0"
       sodipodi:nodetypes="ccccc" />
    <path
       style="fill:#000000;fill-opacity:1;fill-rule:evenodd;stroke:#000000;stroke-width:0.91078985px;stroke-linecap:butt;stroke-linejoin:miter;stroke-opacity:1"
       d="m -98.027105,978.04289 c 0.493438,2.54944 1.517512,2.92186 3.45407,3.24847 -2.014248,0.5309 -3.042867,1.72704 -3.536305,3.78306 -0.420448,-2.05657 -1.356941,-3.65974 -3.57742,-3.78306 2.214259,-0.33845 3.330705,-0.69903 3.659655,-3.24847 z"
       id="path5092-9"
       inkscape:connector-curvature="0"
       sodipodi:nodetypes="ccccc" />
    <path
       style="fill:#000000;fill-opacity:1;fill-rule:evenodd;stroke:#000000;stroke-width:1.69435847px;stroke-linecap:butt;stroke-linejoin:miter;stroke-opacity:1"
       d="m -46.316536,875.8109 c 0.893121,4.87463 2.746678,5.58678 6.251816,6.21124 -3.645764,1.01514 -5.507546,3.30216 -6.400657,7.23333 -0.761002,-3.93214 -2.456045,-6.99747 -6.475069,-7.23333 4.007766,-0.64712 6.028518,-1.33661 6.62391,-6.21124 z"
       id="path5092-1"
       inkscape:connector-curvature="0"
       sodipodi:nodetypes="ccccc" />
    <path
       style="fill:#000000;fill-opacity:1;fill-rule:evenodd;stroke:#000000;stroke-width:0.91078985px;stroke-linecap:butt;stroke-linejoin:miter;stroke-opacity:1"
       d="m -91.713246,955.74659 c 0.232606,2.5587 -1.395649,5.81522 0.930435,6.97826 2.326085,1.16305 3.489127,4.41957 1.163043,4.65217 -2.326085,0.23262 -1.860872,4.88479 -1.860872,4.88479 0,0 -1.395648,-2.32609 -3.489126,-3.25652 -2.093478,-0.93044 -4.884784,-1.16304 -6.513044,0.93043 -1.62826,2.09348 0.46522,-3.02391 0.93043,-5.81522 0.46522,-2.79129 -1.86086,-6.28043 -1.86086,-6.28043 0,0 2.791296,3.72174 5.582603,2.32609 2.791307,-1.39565 5.117391,-4.41957 5.117391,-4.41957 z"
       id="path5147"
       inkscape:connector-curvature="0" />
    <path
       style="fill:#000000;fill-opacity:1;fill-rule:evenodd;stroke:#000000;stroke-width:0.91078985px;stroke-linecap:butt;stroke-linejoin:miter;stroke-opacity:1"
       d="m -45.34496,920.3536 c 0.493439,2.54943 1.517512,2.92188 3.45407,3.24847 -2.014248,0.53092 -3.042867,1.72703 -3.536305,3.78302 -0.420448,-2.0565 -1.35694,-3.65966 -3.577419,-3.78302 2.214258,-0.33844 3.330704,-0.69904 3.659654,-3.24847 z"
       id="path5092-7-2"
       inkscape:connector-curvature="0"
       sodipodi:nodetypes="ccccc" />
    <ellipse
       style="fill:#f4e8d4;fill-opacity:1;stroke:#000000;stroke-width:0.49322626;stroke-miterlimit:4;stroke-dasharray:none;stroke-opacity:1"
       id="path5164"
       cx="-115.2191"
       cy="1029.7628"
       rx="3.4731743"
       ry="2.3803658" />
    <ellipse
       style="fill:#f4e8d4;fill-opacity:1;stroke:#000000;stroke-width:0.49322626;stroke-miterlimit:4;stroke-dasharray:none;stroke-opacity:1"
       id="path5164-7"
       cx="-108.48852"
       cy="1029.9092"
       rx="3.4731743"
       ry="2.3803658" />
    <ellipse
       style="fill:#f4e8d4;fill-opacity:1;stroke:#000000;stroke-width:0.49322626;stroke-miterlimit:4;stroke-dasharray:none;stroke-opacity:1"
       id="path5164-0"
       cx="-101.90113"
       cy="1029.9092"
       rx="3.4731743"
       ry="2.3803658" />
    <ellipse
       style="fill:#f4e8d4;fill-opacity:1;stroke:#000000;stroke-width:0.49322626;stroke-miterlimit:4;stroke-dasharray:none;stroke-opacity:1"
       id="path5164-9"
       cx="-95.313759"
       cy="1029.9092"
       rx="3.4731743"
       ry="2.3803658" />
    <ellipse
       style="fill:#f4e8d4;fill-opacity:1;stroke:#000000;stroke-width:0.48076108;stroke-miterlimit:4;stroke-dasharray:none;stroke-opacity:1"
       id="path5164-3"
       cx="-72.57753"
       cy="1030.264"
       rx="3.4026759"
       ry="2.3084261" />
    <ellipse
       style="fill:#f4e8d4;fill-opacity:1;stroke:#000000;stroke-width:0.48076108;stroke-miterlimit:4;stroke-dasharray:none;stroke-opacity:1"
       id="path5164-6"
       cx="-66.123856"
       cy="1030.264"
       rx="3.4026759"
       ry="2.3084261" />
    <ellipse
       style="fill:#f4e8d4;fill-opacity:1;stroke:#000000;stroke-width:0.48076108;stroke-miterlimit:4;stroke-dasharray:none;stroke-opacity:1"
       id="path5164-06"
       cx="-59.389591"
       cy="1030.264"
       rx="3.4026759"
       ry="2.3084261" />
    <ellipse
       style="fill:#f4e8d4;fill-opacity:1;stroke:#000000;stroke-width:0.48076108;stroke-miterlimit:4;stroke-dasharray:none;stroke-opacity:1"
       id="path5164-2"
       cx="-52.655323"
       cy="1030.264"
       rx="3.4026759"
       ry="2.3084261" />
    <path
       style="fill:#2eaeaf;fill-opacity:1;fill-rule:evenodd;stroke:none;stroke-width:1px;stroke-linecap:butt;stroke-linejoin:miter;stroke-opacity:1"
       d="m -123.34802,897.59444 c 0,0 5.35,-12.32826 8.83914,-10.7 3.48912,1.62826 -1.16305,20.70217 -2.09348,21.39999 -0.93044,0.69783 -3.02392,-6.28043 -3.02392,-6.28043 z"
       id="path5217"
       inkscape:connector-curvature="0" />
    <path
       style="fill:#2eaeaf;fill-opacity:1;fill-rule:evenodd;stroke:none;stroke-width:1px;stroke-linecap:butt;stroke-linejoin:miter;stroke-opacity:1"
       d="m -51.394189,904.2633 c 0,0 -3.289582,-10.52666 3.9475,-9.53978 7.23709,0.98688 5.263335,-6.57917 10.197712,-6.25021 4.934377,0.32896 15.132082,5.26333 9.210827,8.22395 -5.921245,2.96064 -11.184581,4.93438 -12.171449,8.88188 -0.986877,3.9475 -11.18459,-1.31584 -11.18459,-1.31584 z"
       id="path5219"
       inkscape:connector-curvature="0" />
    <path
       style="fill:none;fill-rule:evenodd;stroke:#000000;stroke-width:0.91078985px;stroke-linecap:butt;stroke-linejoin:miter;stroke-opacity:1"
       d="m -72.283048,909.36216 c 0,0 16.941359,-2.79614 23.191572,-3.78302 6.250204,-0.98687 14.638642,-12.00698 15.132081,-14.80312"
       id="path4967"
       inkscape:connector-curvature="0"
       sodipodi:nodetypes="csc" />
    <path
       style="fill:#c400c2;fill-rule:evenodd;stroke:#000000;stroke-width:1px;stroke-linecap:butt;stroke-linejoin:miter;stroke-opacity:1;fill-opacity:1"
       d="m 87.002281,891.99999 c 10.167427,-0.0643 10.296128,0.45045 18.404329,-5.85593 8.1082,-6.30637 13.32062,-14.09282 13.32062,-20.2705 0,-6.17768 3.02448,-5.79157 -0.51481,-10.93963 -3.53929,-5.14807 -22.329728,-7.65775 -29.987474,-7.5934 -7.657745,0.0644 -22.458429,0.1287 -25.611618,1.41572 -3.153189,1.28702 -8.365604,5.14806 -8.429955,9.07346 -0.06435,3.9254 -2.638382,10.61788 2.316629,15.89465 4.955012,5.27676 5.920274,8.62301 12.87016,11.96925 6.949887,3.34624 6.628133,4.63326 11.068338,5.27676 4.440205,0.64351 6.242027,0.90091 6.242027,0.90091 z"
       id="path4296"
       inkscape:connector-curvature="0" />
    <path
       style="fill:#f79696;fill-rule:evenodd;stroke:#000000;stroke-width:1px;stroke-linecap:butt;stroke-linejoin:miter;stroke-opacity:1;fill-opacity:1"
       d="m 65.766517,868.5763 c 0,0 14.028475,5.92027 22.265377,5.40546 8.236902,-0.5148 14.543276,-2.96013 17.374716,-4.37585 2.83144,-1.41572 -6.821185,9.00911 -9.523918,10.16742 -2.702734,1.15832 -1.287016,2.83144 -7.078588,3.08884 -5.791572,0.25741 -9.781322,0.25741 -14.671983,-3.98975 -4.89066,-4.24715 -6.949886,-7.07858 -8.365604,-10.29612 z"
       id="path4276"
       inkscape:connector-curvature="0" />
    <path
       style="fill:#ffffff;fill-rule:evenodd;stroke:none;stroke-width:1px;stroke-linecap:butt;stroke-linejoin:miter;stroke-opacity:1;fill-opacity:1"
       d="m 72.652053,871.53643 0.193052,3.9254 3.410593,-0.1287 0.257403,-2.76709"
       id="path4278"
       inkscape:connector-curvature="0" />
    <path
       style="fill:#ffffff;fill-rule:evenodd;stroke:none;stroke-width:1px;stroke-linecap:butt;stroke-linejoin:miter;stroke-opacity:1;fill-opacity:1"
       d="m 82.111621,874.11046 -0.193053,4.0541 3.861048,-0.83656 0.06435,-2.96013 z"
       id="path4280"
       inkscape:connector-curvature="0" />
    <path
       style="fill:#ffffff;fill-rule:evenodd;stroke:none;stroke-width:1px;stroke-linecap:butt;stroke-linejoin:miter;stroke-opacity:1;fill-opacity:1"
       d="m 92.600801,873.78871 0.193052,4.0541 3.153189,-0.57916 0,-3.9254 z"
       id="path4282"
       inkscape:connector-curvature="0" />
    <path
       style="fill:#ffffff;fill-rule:evenodd;stroke:none;stroke-width:1px;stroke-linecap:butt;stroke-linejoin:miter;stroke-opacity:1;fill-opacity:1"
       d="m 99.228933,876.16969 -0.193052,-2.44533 2.380979,-0.2574 0,1.02961 z"
       id="path4284"
       inkscape:connector-curvature="0" />
    <path
       style="fill:#ffffff;fill-rule:evenodd;stroke:none;stroke-width:1px;stroke-linecap:butt;stroke-linejoin:miter;stroke-opacity:1;fill-opacity:1"
       d="m 87.388386,882.60477 0.06435,-3.21754 3.925399,0 -0.257404,3.08884 z"
       id="path4286"
       inkscape:connector-curvature="0" />
    <path
       style="fill:#ffffff;fill-rule:evenodd;stroke:none;stroke-width:1px;stroke-linecap:butt;stroke-linejoin:miter;stroke-opacity:1;fill-opacity:1"
       d="m 77.027907,880.80295 0,-3.47495 3.667996,0.25741 -0.450456,4.5689 z"
       id="path4288"
       inkscape:connector-curvature="0" />
    <path
       style="fill:#ffffff;fill-rule:evenodd;stroke:none;stroke-width:1px;stroke-linecap:butt;stroke-linejoin:miter;stroke-opacity:1;fill-opacity:1"
       d="m 68.919707,872.95215 0.450455,-1.02961 1.287016,0.2574 -0.450455,2.57403 z"
       id="path4290"
       inkscape:connector-curvature="0" />
    <path
       style="fill:#ffffff;fill-rule:evenodd;stroke:#000000;stroke-width:1px;stroke-linecap:butt;stroke-linejoin:miter;stroke-opacity:1;fill-opacity:1"
       d="m 61.905469,854.86957 c 1.158315,-0.3861 3.925399,-2.25227 7.014238,-1.99487 3.088838,0.2574 7.529043,2.12358 10.167426,3.98975 2.638383,1.86617 6.242028,3.98975 6.885536,5.79157 0.643508,1.80182 2.316628,4.1828 0.321754,4.69761 -1.994875,0.51481 -1.673121,0.96526 -7.014238,0.1287 -5.341116,-0.83656 -4.375854,0.2574 -7.529043,-1.48007 -3.153189,-1.73747 -4.568907,-2.05922 -6.821185,-4.0541 -2.252278,-1.99487 -2.702734,-2.25228 -3.281891,-3.9254 -0.579157,-1.67312 0.257403,-3.15319 0.257403,-3.15319 z"
       id="path4298"
       inkscape:connector-curvature="0" />
    <path
       style="fill:#ffffff;fill-opacity:1;fill-rule:evenodd;stroke:#000000;stroke-width:1px;stroke-linecap:butt;stroke-linejoin:miter;stroke-opacity:1"
       d="m 89.640664,863.62128 c 0.359427,-1.04468 2.364992,-3.23922 4.504556,-5.14806 2.073698,-1.85008 3.707189,-3.01304 5.341116,-3.7967 1.737474,-0.83332 3.281894,-2.25228 6.628134,-2.25228 3.34624,0 4.1828,-0.32175 5.98462,0.83656 1.80183,1.15832 1.99488,2.70274 1.02962,4.05411 -0.96527,1.35136 -2.34329,3.07322 -3.9254,4.24715 -1.52604,1.13232 -3.4106,2.12357 -5.72722,3.21754 -2.31663,1.09396 -4.118455,2.38098 -7.529048,2.50968 -3.410592,0.1287 -4.375854,0.2574 -5.212414,-0.57916 -0.836561,-0.83656 -1.453391,-2.04416 -1.093964,-3.08884 z"
       id="path4300"
       inkscape:connector-curvature="0"
       sodipodi:nodetypes="zsssssssssz" />
    <path
       style="fill:#000000;fill-rule:evenodd;stroke:none;stroke-width:1px;stroke-linecap:butt;stroke-linejoin:miter;stroke-opacity:1;fill-opacity:1"
       d="m 79.448041,862.97916 c 0.182011,-1.09206 0.514989,-1.21113 1.365087,-2.09312 0.826462,-0.85748 2.047629,-0.95557 2.047629,-0.95557 1.002054,0.0455 2.821179,2.50266 3.094196,3.1852 0.273018,0.68255 1.001064,2.45716 0.864555,3.0942 -0.136508,0.63704 0.09101,1.04657 -1.592601,1.22858 -1.683607,0.18201 -1.638104,0.59153 -3.412716,0.36402 -1.774613,-0.22751 -1.865619,0.45503 -2.275145,-0.63704 -0.409526,-1.09207 -0.409526,-1.09207 -0.409526,-1.72911 0,-0.63704 0.318521,-2.45716 0.318521,-2.45716 z"
       id="path4302"
       inkscape:connector-curvature="0"
       sodipodi:nodetypes="cscssssssc" />
    <path
       style="fill:#ffffff;fill-rule:evenodd;stroke:none;stroke-width:1px;stroke-linecap:butt;stroke-linejoin:miter;stroke-opacity:1;fill-opacity:1"
       d="m 82.132711,864.66277 c 0.182011,-1.22858 -0.409526,-1.50159 0.31852,-2.04763 0.728046,-0.54603 1.001064,-1.09207 1.72911,-0.45503 0.728046,0.63704 0.864555,1.45609 0.910058,2.18414 0.0455,0.72805 1.865618,0.63704 -0.409526,1.04657 -2.275145,0.40952 -1.274081,0.77355 -1.820116,0.77355 -0.723612,-0.31511 -0.705872,-0.80969 -0.728046,-1.5016 z"
       id="path4304"
       inkscape:connector-curvature="0"
       sodipodi:nodetypes="csssscc" />
    <path
       style="fill:#000000;fill-rule:evenodd;stroke:none;stroke-width:1px;stroke-linecap:butt;stroke-linejoin:miter;stroke-opacity:1;fill-opacity:1"
       d="m 91.824826,860.74952 c 0.409526,-0.091 0.864555,-0.68254 2.04763,-0.40952 1.183075,0.27301 1.865618,0.77355 2.138635,1.50159 0.273018,0.72805 1.183075,2.36615 0.955561,3.32171 -0.227514,0.95556 0.273017,2.18414 -1.319584,2.18414 -1.592601,0 -2.138635,0.36402 -3.549225,0.13651 -1.410589,-0.22751 -1.683607,-0.0455 -2.138636,-1.41059 -0.455028,-1.36509 -1.046566,-2.59366 -0.273017,-3.32171 0.773549,-0.72805 2.138636,-2.00213 2.138636,-2.00213 z"
       id="path4306"
       inkscape:connector-curvature="0" />
    <path
       style="fill:#ffffff;fill-rule:evenodd;stroke:none;stroke-width:1px;stroke-linecap:butt;stroke-linejoin:miter;stroke-opacity:1;fill-opacity:1"
       d="m 93.872456,864.16224 c -0.409526,-0.77355 0.31852,-1.00106 -0.637041,-1.09207 -0.95556,-0.091 -1.820115,0 -1.865618,0.81905 -0.0455,0.81905 -0.364023,1.36509 0.273017,1.82012 0.637041,0.45503 0.09101,0.72804 1.09207,0.54603 1.001063,-0.18201 1.137572,-2.09313 1.137572,-2.09313 z"
       id="path4308"
       inkscape:connector-curvature="0" />
  </g>
</svg>
