# Blender v2.79 (sub 0) OBJ File: 'dizzy-z-scene-01.blend'
# www.blender.org
mtllib door.mtl
o Door_Cylinder.001
v -0.227654 -0.242867 -0.148468
v -0.227654 -0.242867 -0.051533
v -0.217524 0.274651 -0.050000
v -0.217524 0.274651 -0.150000
v 0.369785 -0.262228 -0.148468
v 0.105022 -0.253648 -0.148468
v 0.032883 -0.104352 -0.148902
v 0.051437 -0.094435 -0.148933
v 0.067699 -0.081089 -0.148973
v 0.081045 -0.064826 -0.149023
v 0.090963 -0.046273 -0.149078
v 0.097071 -0.026141 -0.149138
v 0.099133 -0.005204 -0.149200
v 0.097071 0.015732 -0.149262
v 0.090963 0.035864 -0.149321
v 0.081045 0.054418 -0.149375
v 0.067699 0.070680 -0.149421
v 0.051437 0.084026 -0.149459
v 0.032885 0.093943 -0.149487
v 0.012753 0.100050 -0.149503
v -0.008184 0.102112 -0.149508
v -0.029121 0.100050 -0.149500
v -0.049253 0.093943 -0.149480
v -0.067806 0.084026 -0.149449
v -0.084068 0.070680 -0.149408
v -0.097414 0.054418 -0.149359
v -0.107332 0.035864 -0.149303
v -0.113440 0.015732 -0.149243
v -0.115501 -0.005204 -0.149181
v -0.113440 -0.026141 -0.149119
v -0.107332 -0.046273 -0.149060
v -0.097414 -0.064826 -0.149007
v -0.084068 -0.081088 -0.148960
v -0.067806 -0.094435 -0.148922
v -0.049253 -0.104352 -0.148894
v -0.117901 -0.246423 -0.148468
v 0.392063 0.257432 -0.150000
v -0.254229 -1.600614 -0.144446
v -0.254229 -1.600614 -0.055553
v -0.150915 0.560432 -0.050001
v -0.150915 0.560431 -0.150000
v 0.369785 -0.262228 -0.051533
v 0.392063 0.257433 -0.050000
v 0.311335 -1.625597 -0.144446
v -0.145245 -0.303014 -0.148294
v -0.078056 -0.303014 -0.148302
v -0.008184 -0.303014 -0.148310
v 0.061687 -0.303014 -0.148317
v 0.128876 -0.303014 -0.148325
v 0.401459 0.566092 -0.150000
v 0.311335 -1.625597 -0.055553
v 0.401459 0.566093 -0.050000
v 0.081795 0.908041 -0.050001
v 0.081795 0.908041 -0.150001
v 0.397667 0.936013 -0.150001
v 0.397667 0.936014 -0.050001
v 0.253792 1.074547 -0.050002
v 0.253792 1.074546 -0.150002
v 0.377785 1.160529 -0.150002
v 0.377785 1.160529 -0.050002
v -0.232281 0.394035 -0.388893
v -0.232281 0.394035 -0.211107
v -0.151325 0.711957 -0.200000
v -0.151325 0.711957 -0.400000
v 1.878948 0.404750 -0.388893
v 1.711643 0.739361 -0.400000
v 1.878948 0.404750 -0.211107
v 1.711643 0.739362 -0.200000
v -0.308140 -0.819711 -0.388893
v -0.308140 -0.819711 -0.211107
v -0.329817 -0.443779 -0.200000
v -0.329817 -0.443779 -0.400000
v 1.963733 -0.831308 -0.388893
v 1.965995 -0.447611 -0.400000
v 1.963732 -0.831308 -0.211107
v 1.965995 -0.447611 -0.200000
v 1.896996 -1.622926 -0.144446
v 1.816548 0.270189 -0.150000
v 1.816548 0.270189 -0.050000
v 1.896996 -1.622926 -0.055553
v 1.447084 -1.616673 -0.144446
v 1.447084 -1.616673 -0.055553
v 1.357386 0.266357 -0.150000
v 1.465981 1.025079 -0.150001
v 1.465981 1.025079 -0.050001
v 1.357386 0.266357 -0.050000
v 1.381653 1.159579 -0.150001
v 1.381653 1.159579 -0.050001
v 1.377584 -1.612216 -0.144446
v 1.290013 1.222172 -0.150000
v 1.290013 1.222172 -0.050000
v 1.377584 -1.612216 -0.055553
v 0.927671 -1.605963 -0.144446
v 0.927671 -1.605963 -0.055553
v 0.895058 1.224659 -0.150000
v 1.108126 1.327317 -0.150001
v 1.108126 1.327317 -0.050001
v 0.895058 1.224659 -0.050000
v 0.894344 1.368490 -0.150001
v 0.894344 1.368490 -0.050001
v 0.416309 -1.610521 -0.144446
v 0.416309 -1.610521 -0.055553
v 0.430685 1.191588 -0.050000
v 0.430685 1.191588 -0.150000
v 0.831070 -1.604268 -0.144446
v 0.857550 1.203042 -0.150000
v 0.831070 -1.604268 -0.055553
v 0.857550 1.203042 -0.050000
v 0.632435 1.296734 -0.050001
v 0.632435 1.296733 -0.150001
v 0.861794 1.370186 -0.150001
v 0.861794 1.370186 -0.050001
v -0.067806 -0.094434 0.200000
v -0.049253 -0.104352 0.200000
v -0.145245 -0.303014 0.200000
v -0.029121 -0.110459 0.200000
v -0.084068 -0.081088 0.200000
v -0.097414 -0.064826 0.200000
v -0.107332 -0.046273 0.200000
v -0.113440 -0.026141 0.200000
v -0.115501 -0.005204 0.200000
v -0.113440 0.015732 0.200000
v -0.107332 0.035864 0.200000
v -0.097414 0.054418 0.200000
v -0.084068 0.070680 0.200000
v -0.067806 0.084026 0.200000
v -0.049253 0.093943 0.200000
v -0.029121 0.100050 0.200000
v -0.008184 0.102112 0.200000
v 0.012753 0.100050 0.200000
v 0.032885 0.093943 0.200000
v 0.051437 0.084026 0.200000
v 0.067699 0.070680 0.200000
v 0.081045 0.054418 0.200000
v 0.090963 0.035864 0.200000
v 0.097071 0.015732 0.200000
v 0.099133 -0.005204 0.200000
v 0.097071 -0.026141 0.200000
v 0.090963 -0.046273 0.200000
v 0.081045 -0.064826 0.200000
v 0.067699 -0.081089 0.200000
v 0.051437 -0.094434 0.200000
v 0.032883 -0.104352 0.200000
v 0.012753 -0.110459 0.200000
v -0.008184 -0.112521 0.200000
v -0.078056 -0.303014 0.200000
v -0.008184 -0.303014 0.200000
v 0.061687 -0.303014 0.200000
v 0.128876 -0.303014 0.200000
vn 0.0000 0.0000 -1.0000
vn 0.4150 0.1352 -0.8997
vn 0.4044 0.6052 -0.6857
vn 0.5147 0.5147 -0.6857
vn 0.6052 0.4044 -0.6857
vn 0.6724 0.2786 -0.6857
vn 0.7139 0.1420 -0.6857
vn 0.7279 0.0000 -0.6857
vn 0.7139 -0.1420 -0.6857
vn 0.6724 -0.2786 -0.6857
vn 0.6052 -0.4044 -0.6857
vn 0.5147 -0.5147 -0.6857
vn 0.4044 -0.6052 -0.6857
vn 0.2785 -0.6725 -0.6857
vn 0.1420 -0.7139 -0.6857
vn 0.0000 -0.7279 -0.6857
vn -0.1420 -0.7139 -0.6857
vn -0.2785 -0.6725 -0.6857
vn -0.4044 -0.6052 -0.6857
vn -0.5147 -0.5147 -0.6857
vn -0.6052 -0.4044 -0.6857
vn -0.6724 -0.2785 -0.6857
vn -0.7139 -0.1420 -0.6857
vn -0.7279 0.0000 -0.6857
vn -0.7139 0.1420 -0.6857
vn -0.6724 0.2786 -0.6857
vn -0.6052 0.4044 -0.6857
vn -0.5147 0.5147 -0.6857
vn -0.4044 0.6052 -0.6857
vn -0.4150 0.1352 -0.8997
vn 0.0000 0.7071 -0.7071
vn 0.7033 0.4413 -0.5573
vn -0.7033 0.4413 -0.5573
vn 0.7747 0.2517 -0.5799
vn 0.4049 0.6039 -0.6865
vn 0.7046 0.4392 -0.5574
vn 0.6362 -0.3095 -0.7067
vn 0.5153 0.5132 -0.6864
vn -0.0001 0.7060 -0.7081
vn -0.4050 0.6039 -0.6865
vn -0.7748 0.2517 -0.5799
vn -0.5154 0.5131 -0.6863
vn -0.6058 0.4026 -0.6862
vn -0.6729 0.2766 -0.6860
vn -0.7142 0.1399 -0.6858
vn -0.7279 -0.0021 -0.6857
vn -0.7137 -0.1441 -0.6855
vn -0.6720 -0.2805 -0.6853
vn -0.6046 -0.4061 -0.6851
vn -0.5141 -0.5162 -0.6850
vn -0.4039 -0.6065 -0.6849
vn -0.2781 -0.6735 -0.6848
vn -0.1418 -0.7148 -0.6847
vn -0.0001 -0.7288 -0.6847
vn 0.1417 -0.7148 -0.6848
vn 0.2780 -0.6735 -0.6848
vn 0.4038 -0.6065 -0.6849
vn 0.5140 -0.5162 -0.6850
vn 0.6046 -0.4062 -0.6852
vn 0.6720 -0.2806 -0.6854
vn 0.7136 -0.1441 -0.6855
vn 0.7278 -0.0021 -0.6857
vn 0.7141 0.1399 -0.6859
vn 0.6729 0.2766 -0.6861
vn 0.6057 0.4026 -0.6862
vn -0.6362 -0.3095 -0.7067
vn -0.7046 0.4391 -0.5574
vn -0.6529 -0.5148 -0.5555
vn -0.6529 -0.5148 0.5555
vn -0.4982 0.6219 0.6041
vn -0.4982 0.6219 -0.6041
vn 0.7105 -0.4406 -0.5486
vn 0.4143 0.6694 -0.6166
vn 0.7105 -0.4406 0.5486
vn 0.4143 0.6694 0.6166
vn -0.5618 -0.5984 -0.5712
vn -0.5618 -0.5984 0.5712
vn -0.5930 0.5550 0.5832
vn -0.5930 0.5550 -0.5832
vn 0.5756 -0.5881 -0.5681
vn 0.5781 0.5675 -0.5862
vn 0.5756 -0.5881 0.5681
vn 0.5781 0.5675 0.5862
vn -0.7070 0.0117 -0.7071
vn -0.9998 0.0196 0.0000
vn -0.9086 0.1136 0.4019
vn -0.7233 0.0893 -0.6847
vn 0.7064 -0.0323 -0.7071
vn 0.7076 -0.0269 -0.7060
vn -0.5949 -0.5588 -0.5777
vn -0.7299 -0.6836 0.0000
vn -0.6819 0.2959 0.6688
vn -0.6819 0.2959 -0.6688
vn 0.9991 -0.0428 0.0000
vn 0.8934 -0.0327 0.4480
vn 0.5518 -0.6027 -0.5763
vn 0.7116 -0.0072 -0.7025
vn 0.6764 -0.7365 0.0000
vn 0.7116 -0.0072 0.7025
vn -0.5598 0.4675 0.6841
vn -0.5598 0.4675 -0.6841
vn 0.7148 0.0352 -0.6984
vn 0.7148 0.0352 0.6984
vn -0.4599 0.5598 0.6892
vn -0.4599 0.5598 -0.6892
vn 0.3529 0.7533 -0.5549
vn 0.3529 0.7533 0.5549
vn 0.5872 -0.5712 -0.5735
vn 0.7248 0.1753 -0.6662
vn 0.7248 0.1753 0.6662
vn 0.5872 -0.5712 0.5735
vn -0.5660 -0.5861 -0.5797
vn -0.5660 -0.5861 0.5797
vn -0.7150 -0.0083 -0.6991
vn 0.6333 0.3438 -0.6933
vn 0.6333 0.3439 0.6933
vn -0.7150 -0.0083 0.6991
vn -0.2212 0.8104 -0.5425
vn -0.2212 0.8104 0.5425
vn 0.5835 -0.5741 -0.5744
vn 0.6786 0.4050 -0.6128
vn 0.6786 0.4050 0.6128
vn 0.5835 -0.5741 0.5744
vn -0.5774 -0.5765 -0.5781
vn -0.5774 -0.5765 0.5781
vn -0.7076 -0.0065 -0.7066
vn 0.2591 0.6942 -0.6715
vn 0.2591 0.6942 0.6715
vn -0.7076 -0.0065 0.7066
vn -0.5257 0.6334 -0.5678
vn -0.5257 0.6334 0.5678
vn -0.5751 -0.5813 -0.5757
vn -0.5751 -0.5813 0.5757
vn -0.6782 0.4131 0.6077
vn -0.6782 0.4131 -0.6077
vn 0.5784 -0.5756 -0.5780
vn 0.7049 -0.0129 -0.7091
vn 0.5784 -0.5756 0.5780
vn 0.7049 -0.0129 0.7091
vn -0.2792 0.6694 0.6884
vn -0.2792 0.6694 -0.6884
vn 0.4961 0.6620 -0.5617
vn 0.4961 0.6620 0.5617
usemtl Stone
s 1
f 116//1 114//2 113//3 117//4 118//5 119//6 120//7 121//8 122//9 123//10 124//11 125//12 126//13 127//14 128//15 129//16 130//17 131//18 132//19 133//20 134//21 135//22 136//23 137//24 138//25 139//26 140//27 141//28 142//29 143//30 144//1 145//1
f 116//1 146//31 115//32 114//2
f 145//1 147//31 146//31 116//1
f 144//1 148//31 147//31 145//1
f 143//30 149//33 148//31 144//1
usemtl DarkWood
f 35//34 34//35 113//3 114//2
f 114//2 115//32 45//36 36//37 35//34
f 34//35 33//38 117//4 113//3
f 46//39 45//36 115//32 146//31
f 8//40 7//41 143//30 142//29
f 9//42 8//40 142//29 141//28
f 10//43 9//42 141//28 140//27
f 11//44 10//43 140//27 139//26
f 12//45 11//44 139//26 138//25
f 13//46 12//45 138//25 137//24
f 14//47 13//46 137//24 136//23
f 15//48 14//47 136//23 135//22
f 16//49 15//48 135//22 134//21
f 17//50 16//49 134//21 133//20
f 18//51 17//50 133//20 132//19
f 19//52 18//51 132//19 131//18
f 20//53 19//52 131//18 130//17
f 21//54 20//53 130//17 129//16
f 22//55 21//54 129//16 128//15
f 23//56 22//55 128//15 127//14
f 24//57 23//56 127//14 126//13
f 25//58 24//57 126//13 125//12
f 26//59 25//58 125//12 124//11
f 27//60 26//59 124//11 123//10
f 28//61 27//60 123//10 122//9
f 29//62 28//61 122//9 121//8
f 30//63 29//62 121//8 120//7
f 31//64 30//63 120//7 119//6
f 32//65 31//64 119//6 118//5
f 33//38 32//65 118//5 117//4
f 47//39 46//39 146//31 147//31
f 48//39 47//39 147//31 148//31
f 7//41 6//66 49//67 149//33 143//30
f 49//67 48//39 148//31 149//33
f 61//68 62//69 63//70 64//71
f 65//72 61//68 64//71 66//73
f 65//72 67//74 62//69 61//68
f 62//69 67//74 68//75 63//70
f 64//71 63//70 68//75 66//73
f 67//74 65//72 66//73 68//75
f 69//76 70//77 71//78 72//79
f 73//80 69//76 72//79 74//81
f 73//80 75//82 70//77 69//76
f 70//77 75//82 76//83 71//78
f 72//79 71//78 76//83 74//81
f 75//82 73//80 74//81 76//83
usemtl Wood
f 1//84 2//85 3//86 4//87
f 5//88 6//66 7//41 8//40 9//42 10//43 11//44 12//45 13//46 14//47 15//48 16//49 17//50 18//51 19//52 20//53 21//54 22//55 23//56 24//57 25//58 26//59 27//60 28//61 29//62 30//63 31//64 32//65 33//38 34//35 35//34 36//37 1//84 4//87 37//89
f 38//90 39//91 2//85 1//84
f 4//87 3//86 40//92 41//93
f 42//94 5//88 37//89 43//95
f 44//96 38//90 1//84 36//37 45//36 46//39 47//39 48//39 49//67 6//66 5//88
f 37//89 4//87 41//93 50//97
f 44//96 51//98 39//91 38//90
f 3//86 43//95 52//99 40//92
f 41//93 40//92 53//100 54//101
f 51//98 44//96 5//88 42//94
f 43//95 37//89 50//97 52//99
f 50//97 41//93 54//101 55//102
f 40//92 52//99 56//103 53//100
f 54//101 53//100 57//104 58//105
f 52//99 50//97 55//102 56//103
f 55//102 54//101 58//105 59//106
f 53//100 56//103 60//107 57//104
f 58//105 57//104 60//107 59//106
f 56//103 55//102 59//106 60//107
f 77//108 78//109 79//110 80//111
f 81//112 77//108 80//111 82//113
f 81//112 83//114 78//109 77//108
f 78//109 84//115 85//116 79//110
f 80//111 79//110 86//117 82//113
f 82//113 86//117 83//114 81//112
f 83//114 87//118 84//115 78//109
f 84//115 87//118 88//119 85//116
f 79//110 85//116 88//119 86//117
f 86//117 88//119 87//118 83//114
f 89//120 90//121 91//122 92//123
f 93//124 89//120 92//123 94//125
f 93//124 95//126 90//121 89//120
f 90//121 96//127 97//128 91//122
f 92//123 91//122 98//129 94//125
f 94//125 98//129 95//126 93//124
f 95//126 99//130 96//127 90//121
f 96//127 99//130 100//131 97//128
f 91//122 97//128 100//131 98//129
f 98//129 100//131 99//130 95//126
f 101//132 102//133 103//134 104//135
f 105//136 101//132 104//135 106//137
f 105//136 107//138 102//133 101//132
f 102//133 107//138 108//139 103//134
f 104//135 103//134 109//140 110//141
f 107//138 105//136 106//137 108//139
f 106//137 104//135 110//141 111//142
f 103//134 108//139 112//143 109//140
f 110//141 109//140 112//143 111//142
f 108//139 106//137 111//142 112//143
