# Blender v2.76 (sub 0) OBJ File: 'dizzy-z-scene-02.blend'
# www.blender.org
mtllib flame.mtl
o Flame_Cube.1471
v 0.475758 -0.007998 0.000000
v 0.444355 0.132280 0.000000
v 0.444355 -0.007998 0.140278
v 0.444355 -0.148276 0.000000
v 0.444355 -0.007998 -0.140278
v 0.414800 0.122558 -0.130556
v 0.414800 0.122558 0.130556
v 0.414800 -0.138554 0.130556
v 0.414800 -0.138554 -0.130556
v 0.008411 -0.007998 0.351389
v 0.008411 0.132280 0.327778
v -0.178159 -0.007998 0.327778
v 0.008411 -0.148276 0.327778
v 0.194980 -0.007998 0.327778
v 0.182050 0.122558 0.305556
v -0.165228 0.122558 0.305556
v -0.165228 -0.138554 0.305556
v 0.182050 -0.138554 0.305556
v -0.458937 -0.007998 0.000000
v -0.427534 0.132280 0.000000
v -0.427534 -0.007998 -0.140278
v -0.427534 -0.148276 0.000000
v -0.427534 -0.007998 0.140278
v -0.397978 0.122558 0.130556
v -0.397978 0.122558 -0.130556
v -0.397978 -0.138554 -0.130556
v -0.397978 -0.138554 0.130556
v 0.008411 -0.007998 -0.351389
v 0.008411 0.132280 -0.327778
v 0.194980 -0.007998 -0.327778
v 0.008411 -0.148276 -0.327778
v -0.178159 -0.007998 -0.327778
v -0.165228 0.122558 -0.305556
v 0.182050 0.122558 -0.305556
v 0.182050 -0.138554 -0.305556
v -0.165228 -0.138554 -0.305556
v 0.008411 -0.359387 0.000000
v 0.194980 -0.335776 0.000000
v 0.008411 -0.335776 0.140278
v -0.178159 -0.335776 0.000000
v 0.008411 -0.335776 -0.140278
v 0.182050 -0.313554 -0.130556
v 0.182050 -0.313554 0.130556
v -0.165228 -0.313554 0.130556
v -0.165228 -0.313554 -0.130556
v 0.008411 0.343391 0.000000
v -0.178159 0.319780 0.000000
v 0.008411 0.319780 0.140278
v 0.194980 0.319780 0.000000
v 0.008411 0.319780 -0.140278
v -0.165228 0.297558 -0.130556
v -0.165228 0.297558 0.130556
v 0.182050 0.297558 0.130556
v 0.182050 0.297558 -0.130556
v 0.607551 -0.000000 0.000000
v 0.566728 0.182361 0.000000
v 0.566728 -0.000000 0.045590
v 0.566728 -0.182361 0.000000
v 0.566728 -0.000000 -0.045590
v 0.528306 0.169722 -0.042431
v 0.528306 0.169722 0.042431
v 0.528306 -0.169722 0.042431
v 0.528306 -0.169722 -0.042431
v 0.000000 -0.000000 0.114201
v 0.000000 0.182361 0.106528
v -0.242540 -0.000000 0.106528
v 0.000000 -0.182361 0.106528
v 0.242540 -0.000000 0.106528
v 0.225731 0.169722 0.099306
v -0.225731 0.169722 0.099306
v -0.225731 -0.169722 0.099306
v 0.225731 -0.169722 0.099306
v -0.607551 -0.000000 0.000000
v -0.566728 0.182361 0.000000
v -0.566728 -0.000000 -0.045590
v -0.566728 -0.182361 0.000000
v -0.566728 -0.000000 0.045590
v -0.528306 0.169722 0.042431
v -0.528306 0.169722 -0.042431
v -0.528306 -0.169722 -0.042431
v -0.528306 -0.169722 0.042431
v 0.000000 -0.000000 -0.114201
v 0.000000 0.182361 -0.106528
v 0.242540 -0.000000 -0.106528
v 0.000000 -0.182361 -0.106528
v -0.242540 -0.000000 -0.106528
v -0.225731 0.169722 -0.099306
v 0.225731 0.169722 -0.099306
v 0.225731 -0.169722 -0.099306
v -0.225731 -0.169722 -0.099306
v 0.000000 -0.456806 0.000000
v 0.242540 -0.426111 0.000000
v 0.000000 -0.426111 0.045590
v -0.242540 -0.426111 0.000000
v 0.000000 -0.426111 -0.045590
v 0.225731 -0.397222 -0.042431
v 0.225731 -0.397222 0.042431
v -0.225731 -0.397222 0.042431
v -0.225731 -0.397222 -0.042431
v 0.000000 0.456806 0.000000
v -0.242540 0.426111 0.000000
v 0.000000 0.426111 0.045590
v 0.242540 0.426111 0.000000
v 0.000000 0.426111 -0.045590
v -0.225731 0.397222 -0.042431
v -0.225731 0.397222 0.042431
v 0.225731 0.397222 0.042431
v 0.225731 0.397222 -0.042431
v 0.327056 -0.128831 -0.239583
v 0.350609 -0.007998 -0.257292
v 0.327056 0.112835 -0.239583
v 0.327056 0.231585 -0.120833
v 0.350609 0.249294 0.000000
v 0.327056 0.231585 0.120833
v 0.327056 0.112835 0.239583
v 0.350609 -0.007998 0.257292
v 0.327056 -0.128831 0.239583
v 0.327056 -0.247581 0.120833
v 0.350609 -0.265290 0.000000
v 0.327056 -0.247581 -0.120833
v 0.169119 0.231585 0.239583
v 0.008411 0.249294 0.257292
v -0.152298 0.231585 0.239583
v -0.310235 0.112835 0.239583
v -0.333787 -0.007998 0.257292
v -0.310235 -0.128831 0.239583
v -0.152298 -0.247581 0.239583
v 0.008411 -0.265290 0.257292
v 0.169119 -0.247581 0.239583
v -0.310235 0.231585 0.120833
v -0.333787 0.249294 0.000000
v -0.310235 0.231585 -0.120833
v -0.310235 0.112835 -0.239583
v -0.333787 -0.007998 -0.257292
v -0.310235 -0.128831 -0.239583
v -0.310235 -0.247581 -0.120833
v -0.333787 -0.265290 0.000000
v -0.310235 -0.247581 0.120833
v -0.152298 0.231585 -0.239583
v 0.008411 0.249294 -0.257292
v 0.169119 0.231585 -0.239583
v 0.169119 -0.247581 -0.239583
v 0.008411 -0.265290 -0.257292
v -0.152298 -0.247581 -0.239583
v 0.414240 -0.157083 -0.077865
v 0.444857 -0.000000 -0.083620
v 0.414240 0.157083 -0.077865
v 0.414240 0.311458 -0.039271
v 0.444857 0.334479 0.000000
v 0.414240 0.311458 0.039271
v 0.414240 0.157083 0.077865
v 0.444857 -0.000000 0.083620
v 0.414240 -0.157083 0.077865
v 0.414240 -0.311458 0.039271
v 0.444857 -0.334479 0.000000
v 0.414240 -0.311458 -0.039271
v 0.208921 0.311458 0.077865
v 0.000000 0.334479 0.083620
v -0.208921 0.311458 0.077865
v -0.414240 0.157083 0.077865
v -0.444857 -0.000000 0.083620
v -0.414240 -0.157083 0.077865
v -0.208921 -0.311458 0.077865
v 0.000000 -0.334479 0.083620
v 0.208921 -0.311458 0.077865
v -0.414240 0.311458 0.039271
v -0.444857 0.334479 0.000000
v -0.414240 0.311458 -0.039271
v -0.414240 0.157083 -0.077865
v -0.444857 -0.000000 -0.083620
v -0.414240 -0.157083 -0.077865
v -0.414240 -0.311458 -0.039271
v -0.444857 -0.334479 0.000000
v -0.414240 -0.311458 0.039271
v -0.208921 0.311458 -0.077865
v 0.000000 0.334479 -0.083620
v 0.208921 0.311458 -0.077865
v 0.208921 -0.311458 -0.077865
v 0.000000 -0.334479 -0.083620
v -0.208921 -0.311458 -0.077865
v 0.279337 -0.211702 -0.203704
v 0.279337 0.195706 -0.203704
v 0.279337 -0.211702 0.203704
v 0.279337 0.195706 0.203704
v -0.262515 -0.211702 -0.203704
v -0.262515 0.195706 -0.203704
v -0.262515 -0.211702 0.203704
v -0.262515 0.195706 0.203704
v 0.352204 -0.264815 -0.066204
v 0.352204 0.264815 -0.066204
v 0.352204 -0.264815 0.066204
v 0.352204 0.264815 0.066204
v -0.352204 -0.264815 -0.066204
v -0.352204 0.264815 -0.066204
v -0.352204 -0.264815 0.066204
v -0.352204 0.264815 0.066204
vn 1.000000 0.000000 0.000000
vn 0.553700 0.000000 -0.832700
vn 0.500000 0.253500 -0.828000
vn 0.904200 0.427000 0.000000
vn 0.353800 0.473000 -0.806900
vn 0.631000 0.775800 0.000000
vn 0.214800 0.000000 -0.976700
vn 0.203300 0.137800 -0.969400
vn 0.178900 0.245000 -0.952800
vn 0.500000 0.253500 0.828000
vn 0.553700 0.000000 0.832700
vn 0.203300 0.137800 0.969400
vn 0.214800 0.000000 0.976700
vn 0.353800 0.473000 0.806900
vn 0.178900 0.245000 0.952800
vn 0.500000 -0.253500 0.828000
vn 0.904200 -0.427000 0.000000
vn 0.353800 -0.473000 0.806900
vn 0.631000 -0.775800 0.000000
vn 0.203300 -0.137800 0.969400
vn 0.178900 -0.245000 0.952800
vn 0.500000 -0.253500 -0.828000
vn 0.203300 -0.137800 -0.969400
vn 0.353800 -0.473000 -0.806900
vn 0.178900 -0.245000 -0.952800
vn 0.000000 0.000000 1.000000
vn 0.076300 0.000000 0.997100
vn 0.079700 0.105800 0.991200
vn 0.000000 0.099600 0.995000
vn 0.099200 0.264200 0.959300
vn 0.000000 0.273300 0.961900
vn -0.079700 0.105800 0.991200
vn -0.076300 0.000000 0.997100
vn -0.203300 0.137800 0.969400
vn -0.214800 0.000000 0.976700
vn -0.099200 0.264200 0.959300
vn -0.178900 0.245000 0.952800
vn -0.079700 -0.105800 0.991200
vn 0.000000 -0.099600 0.995000
vn -0.099200 -0.264200 0.959300
vn 0.000000 -0.273300 0.961900
vn -0.203300 -0.137800 0.969400
vn -0.178900 -0.245000 0.952800
vn 0.079700 -0.105800 0.991200
vn 0.099200 -0.264200 0.959300
vn -1.000000 0.000000 0.000000
vn -0.553700 0.000000 0.832700
vn -0.500000 0.253500 0.828000
vn -0.904200 0.427000 0.000000
vn -0.353800 0.473000 0.806900
vn -0.631000 0.775800 0.000000
vn -0.500000 0.253500 -0.828000
vn -0.553700 0.000000 -0.832700
vn -0.203300 0.137800 -0.969400
vn -0.214800 0.000000 -0.976700
vn -0.353800 0.473000 -0.806900
vn -0.178900 0.245000 -0.952800
vn -0.500000 -0.253500 -0.828000
vn -0.904200 -0.427000 0.000000
vn -0.353800 -0.473000 -0.806900
vn -0.631000 -0.775800 0.000000
vn -0.203300 -0.137800 -0.969400
vn -0.178900 -0.245000 -0.952800
vn -0.500000 -0.253500 0.828000
vn -0.353800 -0.473000 0.806900
vn 0.000000 0.000000 -1.000000
vn -0.076300 0.000000 -0.997100
vn -0.079700 0.105800 -0.991200
vn 0.000000 0.099600 -0.995000
vn -0.099200 0.264200 -0.959300
vn 0.000000 0.273300 -0.961900
vn 0.079700 0.105800 -0.991200
vn 0.076300 0.000000 -0.997100
vn 0.099200 0.264200 -0.959300
vn 0.079700 -0.105800 -0.991200
vn 0.000000 -0.099600 -0.995000
vn 0.099200 -0.264200 -0.959300
vn 0.000000 -0.273300 -0.961900
vn -0.079700 -0.105800 -0.991200
vn -0.099200 -0.264200 -0.959300
vn 0.000000 -1.000000 0.000000
vn 0.000000 -0.635400 -0.772100
vn 0.170800 -0.599000 -0.782300
vn 0.288700 -0.957400 0.000000
vn 0.170800 -0.599000 0.782300
vn 0.000000 -0.635400 0.772100
vn -0.170800 -0.599000 0.782300
vn -0.288700 -0.957400 0.000000
vn -0.170800 -0.599000 -0.782300
vn 0.000000 1.000000 0.000000
vn 0.000000 0.635400 -0.772100
vn -0.170800 0.599000 -0.782300
vn -0.288700 0.957400 0.000000
vn -0.170800 0.599000 0.782300
vn 0.000000 0.635400 0.772100
vn 0.170800 0.599000 0.782300
vn 0.288700 0.957400 0.000000
vn 0.170800 0.599000 -0.782300
vn 0.899500 0.000000 -0.437000
vn 0.810800 0.413900 -0.413900
vn 0.899500 0.437000 0.000000
vn 0.567000 0.732900 -0.375900
vn 0.619300 0.785100 0.000000
vn 0.619300 0.000000 -0.785100
vn 0.567000 0.375900 -0.732900
vn 0.467300 0.625100 -0.625100
vn 0.810800 0.413900 0.413900
vn 0.899500 0.000000 0.437000
vn 0.567000 0.375900 0.732900
vn 0.619300 0.000000 0.785100
vn 0.567000 0.732900 0.375900
vn 0.467300 0.625100 0.625100
vn 0.810800 -0.413900 0.413900
vn 0.899500 -0.437000 0.000000
vn 0.567000 -0.732900 0.375900
vn 0.619300 -0.785100 0.000000
vn 0.567000 -0.375900 0.732900
vn 0.467300 -0.625100 0.625100
vn 0.810800 -0.413900 -0.413900
vn 0.567000 -0.375900 -0.732900
vn 0.567000 -0.732900 -0.375900
vn 0.467300 -0.625100 -0.625100
vn 0.282000 0.000000 0.959400
vn 0.272000 0.357300 0.893500
vn 0.000000 0.354800 0.934900
vn 0.263200 0.682100 0.682100
vn 0.000000 0.707100 0.707100
vn -0.272000 0.357300 0.893500
vn -0.282000 0.000000 0.959400
vn -0.567000 0.375900 0.732900
vn -0.619300 0.000000 0.785100
vn -0.263200 0.682100 0.682100
vn -0.467300 0.625100 0.625100
vn -0.272000 -0.357300 0.893500
vn 0.000000 -0.354800 0.934900
vn -0.263200 -0.682100 0.682100
vn 0.000000 -0.707100 0.707100
vn -0.567000 -0.375900 0.732900
vn -0.467300 -0.625100 0.625100
vn 0.272000 -0.357300 0.893500
vn 0.263200 -0.682100 0.682100
vn -0.899500 0.000000 0.437000
vn -0.810800 0.413900 0.413900
vn -0.899500 0.437000 0.000000
vn -0.567000 0.732900 0.375900
vn -0.619300 0.785100 0.000000
vn -0.810800 0.413900 -0.413900
vn -0.899500 0.000000 -0.437000
vn -0.567000 0.375900 -0.732900
vn -0.619300 0.000000 -0.785100
vn -0.567000 0.732900 -0.375900
vn -0.467300 0.625100 -0.625100
vn -0.810800 -0.413900 -0.413900
vn -0.899500 -0.437000 0.000000
vn -0.567000 -0.732900 -0.375900
vn -0.619300 -0.785100 0.000000
vn -0.567000 -0.375900 -0.732900
vn -0.467300 -0.625100 -0.625100
vn -0.810800 -0.413900 0.413900
vn -0.567000 -0.732900 0.375900
vn -0.282000 0.000000 -0.959400
vn -0.272000 0.357300 -0.893500
vn 0.000000 0.354800 -0.934900
vn -0.263200 0.682100 -0.682100
vn 0.000000 0.707100 -0.707100
vn 0.272000 0.357300 -0.893500
vn 0.282000 0.000000 -0.959400
vn 0.263200 0.682100 -0.682100
vn 0.272000 -0.357300 -0.893500
vn 0.000000 -0.354800 -0.934900
vn 0.263200 -0.682100 -0.682100
vn 0.000000 -0.707100 -0.707100
vn -0.272000 -0.357300 -0.893500
vn -0.263200 -0.682100 -0.682100
vn 0.000000 -0.934900 -0.354800
vn 0.272000 -0.893500 -0.357300
vn 0.282000 -0.959400 0.000000
vn 0.272000 -0.893500 0.357300
vn 0.000000 -0.934900 0.354800
vn -0.272000 -0.893500 0.357300
vn -0.282000 -0.959400 0.000000
vn -0.272000 -0.893500 -0.357300
vn 0.000000 0.934900 -0.354800
vn -0.272000 0.893500 -0.357300
vn -0.282000 0.959400 0.000000
vn -0.272000 0.893500 0.357300
vn 0.000000 0.934900 0.354800
vn 0.272000 0.893500 0.357300
vn 0.282000 0.959400 0.000000
vn 0.272000 0.893500 -0.357300
usemtl Flame.001
s 1
f 55//1 59//2 60//3 56//4
f 56//4 60//3 148//5 149//6
f 59//2 146//7 147//8 60//3
f 60//3 147//8 190//9 148//5
f 55//1 56//4 61//10 57//11
f 57//11 61//10 151//12 152//13
f 56//4 149//6 150//14 61//10
f 61//10 150//14 192//15 151//12
f 55//1 57//11 62//16 58//17
f 58//17 62//16 154//18 155//19
f 57//11 152//13 153//20 62//16
f 62//16 153//20 191//21 154//18
f 55//1 58//17 63//22 59//2
f 59//2 63//22 145//23 146//7
f 58//17 155//19 156//24 63//22
f 63//22 156//24 189//25 145//23
f 64//26 68//27 69//28 65//29
f 65//29 69//28 157//30 158//31
f 68//27 152//13 151//12 69//28
f 69//28 151//12 192//15 157//30
f 64//26 65//29 70//32 66//33
f 66//33 70//32 160//34 161//35
f 65//29 158//31 159//36 70//32
f 70//32 159//36 196//37 160//34
f 64//26 66//33 71//38 67//39
f 67//39 71//38 163//40 164//41
f 66//33 161//35 162//42 71//38
f 71//38 162//42 195//43 163//40
f 64//26 67//39 72//44 68//27
f 68//27 72//44 153//20 152//13
f 67//39 164//41 165//45 72//44
f 72//44 165//45 191//21 153//20
f 73//46 77//47 78//48 74//49
f 74//49 78//48 166//50 167//51
f 77//47 161//35 160//34 78//48
f 78//48 160//34 196//37 166//50
f 73//46 74//49 79//52 75//53
f 75//53 79//52 169//54 170//55
f 74//49 167//51 168//56 79//52
f 79//52 168//56 194//57 169//54
f 73//46 75//53 80//58 76//59
f 76//59 80//58 172//60 173//61
f 75//53 170//55 171//62 80//58
f 80//58 171//62 193//63 172//60
f 73//46 76//59 81//64 77//47
f 77//47 81//64 162//42 161//35
f 76//59 173//61 174//65 81//64
f 81//64 174//65 195//43 162//42
f 82//66 86//67 87//68 83//69
f 83//69 87//68 175//70 176//71
f 86//67 170//55 169//54 87//68
f 87//68 169//54 194//57 175//70
f 82//66 83//69 88//72 84//73
f 84//73 88//72 147//8 146//7
f 83//69 176//71 177//74 88//72
f 88//72 177//74 190//9 147//8
f 82//66 84//73 89//75 85//76
f 85//76 89//75 178//77 179//78
f 84//73 146//7 145//23 89//75
f 89//75 145//23 189//25 178//77
f 82//66 85//76 90//79 86//67
f 86//67 90//79 171//62 170//55
f 85//76 179//78 180//80 90//79
f 90//79 180//80 193//63 171//62
f 91//81 95//82 96//83 92//84
f 92//84 96//83 156//24 155//19
f 95//82 179//78 178//77 96//83
f 96//83 178//77 189//25 156//24
f 91//81 92//84 97//85 93//86
f 93//86 97//85 165//45 164//41
f 92//84 155//19 154//18 97//85
f 97//85 154//18 191//21 165//45
f 91//81 93//86 98//87 94//88
f 94//88 98//87 174//65 173//61
f 93//86 164//41 163//40 98//87
f 98//87 163//40 195//43 174//65
f 91//81 94//88 99//89 95//82
f 95//82 99//89 180//80 179//78
f 94//88 173//61 172//60 99//89
f 99//89 172//60 193//63 180//80
f 100//90 104//91 105//92 101//93
f 101//93 105//92 168//56 167//51
f 104//91 176//71 175//70 105//92
f 105//92 175//70 194//57 168//56
f 100//90 101//93 106//94 102//95
f 102//95 106//94 159//36 158//31
f 101//93 167//51 166//50 106//94
f 106//94 166//50 196//37 159//36
f 100//90 102//95 107//96 103//97
f 103//97 107//96 150//14 149//6
f 102//95 158//31 157//30 107//96
f 107//96 157//30 192//15 150//14
f 100//90 103//97 108//98 104//91
f 104//91 108//98 177//74 176//71
f 103//97 149//6 148//5 108//98
f 108//98 148//5 190//9 177//74
usemtl Flame.002
f 1//1 5//99 6//100 2//101
f 2//101 6//100 112//102 113//103
f 5//99 110//104 111//105 6//100
f 6//100 111//105 182//106 112//102
f 1//1 2//101 7//107 3//108
f 3//108 7//107 115//109 116//110
f 2//101 113//103 114//111 7//107
f 7//107 114//111 184//112 115//109
f 1//1 3//108 8//113 4//114
f 4//114 8//113 118//115 119//116
f 3//108 116//110 117//117 8//113
f 8//113 117//117 183//118 118//115
f 1//1 4//114 9//119 5//99
f 5//99 9//119 109//120 110//104
f 4//114 119//116 120//121 9//119
f 9//119 120//121 181//122 109//120
f 10//26 14//123 15//124 11//125
f 11//125 15//124 121//126 122//127
f 14//123 116//110 115//109 15//124
f 15//124 115//109 184//112 121//126
f 10//26 11//125 16//128 12//129
f 12//129 16//128 124//130 125//131
f 11//125 122//127 123//132 16//128
f 16//128 123//132 188//133 124//130
f 10//26 12//129 17//134 13//135
f 13//135 17//134 127//136 128//137
f 12//129 125//131 126//138 17//134
f 17//134 126//138 187//139 127//136
f 10//26 13//135 18//140 14//123
f 14//123 18//140 117//117 116//110
f 13//135 128//137 129//141 18//140
f 18//140 129//141 183//118 117//117
f 19//46 23//142 24//143 20//144
f 20//144 24//143 130//145 131//146
f 23//142 125//131 124//130 24//143
f 24//143 124//130 188//133 130//145
f 19//46 20//144 25//147 21//148
f 21//148 25//147 133//149 134//150
f 20//144 131//146 132//151 25//147
f 25//147 132//151 186//152 133//149
f 19//46 21//148 26//153 22//154
f 22//154 26//153 136//155 137//156
f 21//148 134//150 135//157 26//153
f 26//153 135//157 185//158 136//155
f 19//46 22//154 27//159 23//142
f 23//142 27//159 126//138 125//131
f 22//154 137//156 138//160 27//159
f 27//159 138//160 187//139 126//138
f 28//66 32//161 33//162 29//163
f 29//163 33//162 139//164 140//165
f 32//161 134//150 133//149 33//162
f 33//162 133//149 186//152 139//164
f 28//66 29//163 34//166 30//167
f 30//167 34//166 111//105 110//104
f 29//163 140//165 141//168 34//166
f 34//166 141//168 182//106 111//105
f 28//66 30//167 35//169 31//170
f 31//170 35//169 142//171 143//172
f 30//167 110//104 109//120 35//169
f 35//169 109//120 181//122 142//171
f 28//66 31//170 36//173 32//161
f 32//161 36//173 135//157 134//150
f 31//170 143//172 144//174 36//173
f 36//173 144//174 185//158 135//157
f 37//81 41//175 42//176 38//177
f 38//177 42//176 120//121 119//116
f 41//175 143//172 142//171 42//176
f 42//176 142//171 181//122 120//121
f 37//81 38//177 43//178 39//179
f 39//179 43//178 129//141 128//137
f 38//177 119//116 118//115 43//178
f 43//178 118//115 183//118 129//141
f 37//81 39//179 44//180 40//181
f 40//181 44//180 138//160 137//156
f 39//179 128//137 127//136 44//180
f 44//180 127//136 187//139 138//160
f 37//81 40//181 45//182 41//175
f 41//175 45//182 144//174 143//172
f 40//181 137//156 136//155 45//182
f 45//182 136//155 185//158 144//174
f 46//90 50//183 51//184 47//185
f 47//185 51//184 132//151 131//146
f 50//183 140//165 139//164 51//184
f 51//184 139//164 186//152 132//151
f 46//90 47//185 52//186 48//187
f 48//187 52//186 123//132 122//127
f 47//185 131//146 130//145 52//186
f 52//186 130//145 188//133 123//132
f 46//90 48//187 53//188 49//189
f 49//189 53//188 114//111 113//103
f 48//187 122//127 121//126 53//188
f 53//188 121//126 184//112 114//111
f 46//90 49//189 54//190 50//183
f 50//183 54//190 141//168 140//165
f 49//189 113//103 112//102 54//190
f 54//190 112//102 182//106 141//168
