# Blender v2.79 (sub 0) OBJ File: 'dizzy-z-scene-02.blend'
# www.blender.org
mtllib flame-2.mtl
o Flame.001_Cube.4022
v 0.617224 -0.009198 -0.000000
v 0.576400 0.173163 -0.000000
v 0.576400 -0.009198 0.182361
v 0.576400 -0.191559 -0.000000
v 0.576400 -0.009198 -0.182361
v 0.537978 0.160524 -0.169722
v 0.537978 0.160524 0.169722
v 0.537978 -0.178920 0.169722
v 0.537978 -0.178920 -0.169722
v 0.009672 -0.009198 0.456806
v 0.009672 0.173163 0.426111
v -0.232868 -0.009198 0.426111
v 0.009672 -0.191559 0.426111
v 0.252213 -0.009198 0.426111
v 0.235403 0.160524 0.397222
v -0.216058 0.160524 0.397222
v -0.216058 -0.178920 0.397222
v 0.235403 -0.178920 0.397222
v -0.597879 -0.009198 -0.000000
v -0.557056 0.173163 -0.000000
v -0.557056 -0.009198 -0.182361
v -0.557056 -0.191559 -0.000000
v -0.557056 -0.009198 0.182361
v -0.518633 0.160524 0.169722
v -0.518633 0.160524 -0.169722
v -0.518633 -0.178920 -0.169722
v -0.518633 -0.178920 0.169722
v 0.009672 -0.009198 -0.456806
v 0.009672 0.173163 -0.426111
v 0.252213 -0.009198 -0.426111
v 0.009672 -0.191559 -0.426111
v -0.232868 -0.009198 -0.426111
v -0.216058 0.160524 -0.397222
v 0.235403 0.160524 -0.397222
v 0.235403 -0.178920 -0.397222
v -0.216058 -0.178920 -0.397222
v 0.009672 -0.466003 -0.000000
v 0.252213 -0.435309 -0.000000
v 0.009672 -0.435309 0.182361
v -0.232868 -0.435309 -0.000000
v 0.009672 -0.435309 -0.182361
v 0.235403 -0.406420 -0.169722
v 0.235403 -0.406420 0.169722
v -0.216058 -0.406420 0.169722
v -0.216058 -0.406420 -0.169722
v 0.002486 0.745833 -0.000000
v -0.226281 0.445059 -0.000000
v 0.002486 0.715139 0.182361
v 0.240834 0.423501 -0.000000
v 0.002486 0.715139 -0.182361
v -0.209471 0.416170 -0.169722
v -0.209471 0.416170 0.169722
v 0.224025 0.394612 0.169722
v 0.224025 0.394612 -0.169722
v 0.788555 0.001200 -0.000000
v 0.735485 0.238269 -0.000000
v 0.735485 0.001200 0.059267
v 0.774410 -0.238864 0.000000
v 0.735485 0.001200 -0.059267
v 0.685536 0.221839 -0.055160
v 0.685536 0.221839 0.055160
v 0.724461 -0.222433 0.055160
v 0.724461 -0.222433 -0.055160
v -0.001262 0.001200 0.148462
v -0.001262 0.238269 0.138486
v -0.316564 0.001200 0.138486
v -0.001262 -0.235870 0.138486
v 0.314041 0.001200 0.138486
v 0.292188 0.221839 0.129097
v -0.294711 0.221839 0.129097
v -0.294711 -0.219439 0.129097
v 0.292188 -0.219439 0.129097
v -0.791078 0.001200 -0.000000
v -0.738008 0.238269 -0.000000
v -0.738008 0.001200 -0.059267
v -0.785915 -0.238864 0.000000
v -0.738008 0.001200 0.059267
v -0.688059 0.221839 0.055160
v -0.688059 0.221839 -0.055160
v -0.735967 -0.222433 -0.055160
v -0.735967 -0.222433 0.055160
v -0.001262 0.001200 -0.148462
v -0.001262 0.238269 -0.138486
v 0.314041 0.001200 -0.138486
v -0.001262 -0.235870 -0.138486
v -0.316564 0.001200 -0.138486
v -0.294711 0.221839 -0.129097
v 0.292188 0.221839 -0.129097
v 0.292188 -0.219439 -0.129097
v -0.294711 -0.219439 -0.129097
v -0.001262 -0.592648 -0.000000
v 0.314041 -0.552745 -0.000000
v -0.001262 -0.552745 0.059267
v -0.316564 -0.552745 -0.000000
v -0.001262 -0.552745 -0.059267
v 0.292188 -0.515189 -0.055160
v 0.292188 -0.515189 0.055160
v -0.294711 -0.515189 0.055160
v -0.294711 -0.515189 -0.055160
v 0.002331 1.022623 -0.000000
v -0.319558 0.587482 -0.000000
v 0.002331 0.982720 0.059267
v 0.288290 0.570714 -0.000000
v 0.002331 0.982720 -0.059267
v -0.297706 0.549926 -0.055160
v -0.297706 0.549926 0.055160
v 0.266438 0.533158 0.055160
v 0.266438 0.533158 -0.055160
v 0.423912 -0.166281 -0.311458
v 0.454530 -0.009198 -0.334479
v 0.423912 0.147886 -0.311458
v 0.704172 0.618451 -0.157083
v 0.734789 0.641472 -0.000000
v 0.704172 0.618451 0.157083
v 0.423912 0.147886 0.311458
v 0.454530 -0.009198 0.334479
v 0.423912 -0.166281 0.311458
v 0.423912 -0.320656 0.157083
v 0.454530 -0.343677 -0.000000
v 0.423912 -0.320656 -0.157083
v 0.207215 0.308848 0.311458
v 0.002486 0.623507 0.334479
v -0.192661 0.330406 0.311458
v -0.404567 0.147886 0.311458
v -0.435185 -0.009198 0.334479
v -0.404567 -0.166281 0.311458
v -0.199249 -0.320656 0.311458
v 0.009672 -0.343677 0.334479
v 0.218593 -0.320656 0.311458
v -0.627338 0.593300 0.157083
v -0.657956 0.616320 -0.000000
v -0.627338 0.593300 -0.157083
v -0.404567 0.147886 -0.311458
v -0.435185 -0.009198 -0.334479
v -0.404567 -0.166281 -0.311458
v -0.404567 -0.320656 -0.157083
v -0.435185 -0.343677 -0.000000
v -0.404567 -0.320656 0.157083
v -0.192661 0.330406 -0.311458
v 0.002486 0.623507 -0.334479
v 0.207215 0.308848 -0.311458
v 0.218593 -0.320656 -0.311458
v 0.009672 -0.343677 -0.334479
v -0.199249 -0.320656 -0.311458
v 0.576175 -0.206003 -0.101224
v 0.577053 0.001200 -0.108706
v 0.537250 0.205408 -0.101224
v 0.821103 0.768996 -0.051052
v 0.860906 0.798923 -0.000000
v 0.821103 0.768996 0.051052
v 0.537250 0.205408 0.101224
v 0.577053 0.001200 0.108706
v 0.576175 -0.206003 0.101224
v 0.576175 -0.406690 0.051052
v 0.615978 -0.436617 0.000000
v 0.576175 -0.406690 -0.051052
v 0.244585 0.421665 0.101224
v 0.002331 0.863599 0.108706
v -0.275853 0.438433 0.101224
v -0.539773 0.205408 0.101224
v -0.579576 0.001200 0.108706
v -0.587681 -0.206003 0.101224
v -0.272859 -0.403696 0.101224
v -0.001262 -0.433623 0.108706
v 0.270336 -0.403696 0.101224
v -0.791288 0.801334 0.051052
v -0.831091 0.831261 -0.000000
v -0.791288 0.801334 -0.051052
v -0.539773 0.205408 -0.101224
v -0.579576 0.001200 -0.108706
v -0.587681 -0.206003 -0.101224
v -0.587681 -0.406690 -0.051052
v -0.627484 -0.436617 0.000000
v -0.587681 -0.406690 0.051052
v -0.275853 0.438433 -0.101224
v 0.002331 0.863599 -0.108706
v 0.244585 0.421665 -0.101224
v 0.270336 -0.403696 -0.101224
v -0.001262 -0.433623 -0.108706
v -0.272859 -0.403696 -0.101224
v 0.361876 -0.274013 -0.264815
v 0.642136 0.571808 -0.264815
v 0.361876 -0.274013 0.264815
v 0.642136 0.571808 0.264815
v -0.342532 -0.274013 -0.264815
v -0.565302 0.546656 -0.264815
v -0.342532 -0.274013 0.264815
v -0.565302 0.546656 0.264815
v 0.495528 -0.346054 -0.086065
v 0.740456 0.708360 -0.086065
v 0.495528 -0.346054 0.086065
v 0.740456 0.708360 0.086065
v -0.507034 -0.346054 -0.086065
v -0.710642 0.740697 -0.086065
v -0.507034 -0.346054 0.086065
v -0.710642 0.740697 0.086065
vn 0.9969 0.0781 0.0000
vn 0.5467 0.0472 -0.8360
vn 0.5387 0.0024 -0.8425
vn 0.9992 -0.0391 0.0000
vn 0.2806 0.4766 -0.8331
vn 0.6826 0.7307 0.0000
vn 0.2081 0.0172 -0.9779
vn 0.1787 0.0359 -0.9832
vn 0.0443 0.2339 -0.9712
vn 0.5387 0.0024 0.8425
vn 0.5467 0.0472 0.8360
vn 0.1787 0.0359 0.9832
vn 0.2081 0.0172 0.9779
vn 0.2806 0.4766 0.8331
vn 0.0443 0.2339 0.9712
vn 0.5209 -0.2075 0.8280
vn 0.9346 -0.3556 0.0000
vn 0.3384 -0.4882 0.8044
vn 0.6120 -0.7908 0.0000
vn 0.2040 -0.1208 0.9715
vn 0.1621 -0.2497 0.9546
vn 0.5209 -0.2075 -0.8280
vn 0.2040 -0.1208 -0.9715
vn 0.3384 -0.4882 -0.8044
vn 0.1621 -0.2497 -0.9546
vn 0.0000 0.0000 1.0000
vn 0.0740 0.0030 0.9973
vn 0.0657 0.0554 0.9963
vn 0.0027 0.0587 0.9983
vn 0.0855 0.1645 0.9826
vn 0.0313 0.2849 0.9580
vn -0.0655 0.0539 0.9964
vn -0.0735 0.0036 0.9973
vn -0.1820 0.0383 0.9825
vn -0.2065 0.0207 0.9782
vn -0.0725 0.1625 0.9840
vn -0.0029 0.2656 0.9640
vn -0.0702 -0.1003 0.9925
vn 0.0000 -0.0996 0.9950
vn -0.0860 -0.2654 0.9603
vn 0.0000 -0.2733 0.9619
vn -0.2046 -0.1166 0.9719
vn -0.1593 -0.2504 0.9549
vn 0.0716 -0.1011 0.9923
vn 0.0879 -0.2652 0.9601
vn -0.9953 0.0969 0.0000
vn -0.5448 0.0579 0.8365
vn -0.5374 0.0218 0.8430
vn -1.0000 0.0033 0.0000
vn -0.2314 0.5131 0.8265
vn -0.6453 0.7639 0.0000
vn -0.5374 0.0218 -0.8430
vn -0.5448 0.0579 -0.8365
vn -0.1820 0.0383 -0.9825
vn -0.2065 0.0207 -0.9782
vn -0.2314 0.5131 -0.8265
vn -0.0029 0.2656 -0.9640
vn -0.5255 -0.1964 -0.8278
vn -0.9406 -0.3395 0.0000
vn -0.3358 -0.4907 -0.8040
vn -0.6089 -0.7932 0.0000
vn -0.2046 -0.1166 -0.9719
vn -0.1593 -0.2504 -0.9549
vn -0.5255 -0.1964 0.8278
vn -0.3358 -0.4907 0.8040
vn 0.0000 0.0000 -1.0000
vn -0.0735 0.0036 -0.9973
vn -0.0655 0.0539 -0.9964
vn 0.0027 0.0587 -0.9983
vn -0.0725 0.1625 -0.9840
vn 0.0313 0.2849 -0.9580
vn 0.0657 0.0554 -0.9963
vn 0.0740 0.0030 -0.9973
vn 0.0855 0.1645 -0.9826
vn 0.0716 -0.1011 -0.9923
vn 0.0000 -0.0996 -0.9950
vn 0.0879 -0.2652 -0.9601
vn 0.0000 -0.2733 -0.9619
vn -0.0702 -0.1003 -0.9925
vn -0.0860 -0.2654 -0.9603
vn 0.0000 -1.0000 0.0000
vn 0.0000 -0.6354 -0.7721
vn 0.1536 -0.6048 -0.7814
vn 0.2590 -0.9658 0.0000
vn 0.1536 -0.6048 0.7814
vn 0.0000 -0.6354 0.7721
vn -0.1507 -0.6057 0.7813
vn -0.2540 -0.9672 0.0000
vn -0.1507 -0.6057 -0.7813
vn 0.0296 0.9995 0.0000
vn 0.0316 0.6172 -0.7861
vn -0.1532 0.5970 -0.7875
vn -0.1490 0.9888 0.0000
vn -0.1532 0.5970 0.7875
vn 0.0316 0.6172 0.7861
vn 0.2221 0.5711 0.7902
vn 0.2448 0.9695 0.0000
vn 0.2221 0.5711 -0.7902
vn 1.0000 0.0000 0.0000
vn 0.8995 0.0000 -0.4370
vn 0.9119 -0.0529 -0.4070
vn 0.9976 -0.0689 0.0000
vn 0.5641 0.6411 -0.5203
vn 0.6890 0.7247 0.0000
vn 0.6193 0.0000 -0.7851
vn 0.5231 0.1197 -0.8438
vn 0.3118 0.4668 -0.8275
vn 0.9119 -0.0529 0.4070
vn 0.8995 0.0000 0.4370
vn 0.5231 0.1197 0.8438
vn 0.6193 0.0000 0.7851
vn 0.5641 0.6411 0.5203
vn 0.3118 0.4668 0.8275
vn 0.8108 -0.4139 0.4139
vn 0.8995 -0.4370 0.0000
vn 0.5670 -0.7329 0.3759
vn 0.6193 -0.7851 0.0000
vn 0.5670 -0.3759 0.7329
vn 0.4673 -0.6251 0.6251
vn 0.8108 -0.4139 -0.4139
vn 0.5670 -0.3759 -0.7329
vn 0.5670 -0.7329 -0.3759
vn 0.4673 -0.6251 -0.6251
vn 0.2820 0.0000 0.9594
vn 0.2459 0.2093 0.9464
vn 0.0064 0.2332 0.9724
vn 0.2694 0.4579 0.8472
vn 0.0048 0.6801 0.7331
vn -0.2486 0.2069 0.9462
vn -0.2820 0.0000 0.9594
vn -0.5352 0.1339 0.8340
vn -0.6193 0.0000 0.7851
vn -0.2738 0.4507 0.8496
vn -0.3123 0.5032 0.8058
vn -0.2720 -0.3573 0.8935
vn 0.0000 -0.3548 0.9349
vn -0.2632 -0.6821 0.6821
vn 0.0000 -0.7071 0.7071
vn -0.5670 -0.3759 0.7329
vn -0.4673 -0.6251 0.6251
vn 0.2720 -0.3573 0.8935
vn 0.2632 -0.6821 0.6821
vn -1.0000 0.0000 0.0000
vn -0.8995 0.0000 0.4370
vn -0.9108 -0.0013 0.4128
vn -0.9999 -0.0129 0.0000
vn -0.5539 0.6706 0.4934
vn -0.6675 0.7446 0.0000
vn -0.9108 -0.0013 -0.4128
vn -0.8995 0.0000 -0.4370
vn -0.5352 0.1339 -0.8340
vn -0.6193 0.0000 -0.7851
vn -0.5539 0.6706 -0.4934
vn -0.3123 0.5032 -0.8058
vn -0.8108 -0.4139 -0.4139
vn -0.8995 -0.4370 0.0000
vn -0.5670 -0.7329 -0.3759
vn -0.6193 -0.7851 0.0000
vn -0.5670 -0.3759 -0.7329
vn -0.4673 -0.6251 -0.6251
vn -0.8108 -0.4139 0.4139
vn -0.5670 -0.7329 0.3759
vn -0.2820 0.0000 -0.9594
vn -0.2486 0.2069 -0.9462
vn 0.0064 0.2332 -0.9724
vn -0.2738 0.4507 -0.8496
vn 0.0048 0.6801 -0.7331
vn 0.2459 0.2093 -0.9464
vn 0.2820 0.0000 -0.9594
vn 0.2694 0.4579 -0.8472
vn 0.2720 -0.3573 -0.8935
vn 0.0000 -0.3548 -0.9349
vn 0.2632 -0.6821 -0.6821
vn 0.0000 -0.7071 -0.7071
vn -0.2720 -0.3573 -0.8935
vn -0.2632 -0.6821 -0.6821
vn 0.0000 -0.9349 -0.3548
vn 0.2720 -0.8935 -0.3573
vn 0.2820 -0.9594 0.0000
vn 0.2720 -0.8935 0.3573
vn 0.0000 -0.9349 0.3548
vn -0.2720 -0.8935 0.3573
vn -0.2820 -0.9594 0.0000
vn -0.2720 -0.8935 -0.3573
vn 0.0058 1.0000 0.0000
vn 0.0052 0.9256 -0.3785
vn -0.2719 0.9104 -0.3118
vn -0.2527 0.9675 0.0000
vn -0.2719 0.9104 0.3118
vn 0.0052 0.9256 0.3785
vn 0.2604 0.9147 0.3091
vn 0.2393 0.9709 0.0000
vn 0.2604 0.9147 -0.3091
usemtl Flame.001
s 1
f 55//1 59//2 60//3 56//4
f 56//4 60//3 148//5 149//6
f 59//2 146//7 147//8 60//3
f 60//3 147//8 190//9 148//5
f 55//1 56//4 61//10 57//11
f 57//11 61//10 151//12 152//13
f 56//4 149//6 150//14 61//10
f 61//10 150//14 192//15 151//12
f 55//1 57//11 62//16 58//17
f 58//17 62//16 154//18 155//19
f 57//11 152//13 153//20 62//16
f 62//16 153//20 191//21 154//18
f 55//1 58//17 63//22 59//2
f 59//2 63//22 145//23 146//7
f 58//17 155//19 156//24 63//22
f 63//22 156//24 189//25 145//23
f 64//26 68//27 69//28 65//29
f 65//29 69//28 157//30 158//31
f 68//27 152//13 151//12 69//28
f 69//28 151//12 192//15 157//30
f 64//26 65//29 70//32 66//33
f 66//33 70//32 160//34 161//35
f 65//29 158//31 159//36 70//32
f 70//32 159//36 196//37 160//34
f 64//26 66//33 71//38 67//39
f 67//39 71//38 163//40 164//41
f 66//33 161//35 162//42 71//38
f 71//38 162//42 195//43 163//40
f 64//26 67//39 72//44 68//27
f 68//27 72//44 153//20 152//13
f 67//39 164//41 165//45 72//44
f 72//44 165//45 191//21 153//20
f 73//46 77//47 78//48 74//49
f 74//49 78//48 166//50 167//51
f 77//47 161//35 160//34 78//48
f 78//48 160//34 196//37 166//50
f 73//46 74//49 79//52 75//53
f 75//53 79//52 169//54 170//55
f 74//49 167//51 168//56 79//52
f 79//52 168//56 194//57 169//54
f 73//46 75//53 80//58 76//59
f 76//59 80//58 172//60 173//61
f 75//53 170//55 171//62 80//58
f 80//58 171//62 193//63 172//60
f 73//46 76//59 81//64 77//47
f 77//47 81//64 162//42 161//35
f 76//59 173//61 174//65 81//64
f 81//64 174//65 195//43 162//42
f 82//66 86//67 87//68 83//69
f 83//69 87//68 175//70 176//71
f 86//67 170//55 169//54 87//68
f 87//68 169//54 194//57 175//70
f 82//66 83//69 88//72 84//73
f 84//73 88//72 147//8 146//7
f 83//69 176//71 177//74 88//72
f 88//72 177//74 190//9 147//8
f 82//66 84//73 89//75 85//76
f 85//76 89//75 178//77 179//78
f 84//73 146//7 145//23 89//75
f 89//75 145//23 189//25 178//77
f 82//66 85//76 90//79 86//67
f 86//67 90//79 171//62 170//55
f 85//76 179//78 180//80 90//79
f 90//79 180//80 193//63 171//62
f 91//81 95//82 96//83 92//84
f 92//84 96//83 156//24 155//19
f 95//82 179//78 178//77 96//83
f 96//83 178//77 189//25 156//24
f 91//81 92//84 97//85 93//86
f 93//86 97//85 165//45 164//41
f 92//84 155//19 154//18 97//85
f 97//85 154//18 191//21 165//45
f 91//81 93//86 98//87 94//88
f 94//88 98//87 174//65 173//61
f 93//86 164//41 163//40 98//87
f 98//87 163//40 195//43 174//65
f 91//81 94//88 99//89 95//82
f 95//82 99//89 180//80 179//78
f 94//88 173//61 172//60 99//89
f 99//89 172//60 193//63 180//80
f 100//90 104//91 105//92 101//93
f 101//93 105//92 168//56 167//51
f 104//91 176//71 175//70 105//92
f 105//92 175//70 194//57 168//56
f 100//90 101//93 106//94 102//95
f 102//95 106//94 159//36 158//31
f 101//93 167//51 166//50 106//94
f 106//94 166//50 196//37 159//36
f 100//90 102//95 107//96 103//97
f 103//97 107//96 150//14 149//6
f 102//95 158//31 157//30 107//96
f 107//96 157//30 192//15 150//14
f 100//90 103//97 108//98 104//91
f 104//91 108//98 177//74 176//71
f 103//97 149//6 148//5 108//98
f 108//98 148//5 190//9 177//74
usemtl Flame.002
f 1//99 5//100 6//101 2//102
f 2//102 6//101 112//103 113//104
f 5//100 110//105 111//106 6//101
f 6//101 111//106 182//107 112//103
f 1//99 2//102 7//108 3//109
f 3//109 7//108 115//110 116//111
f 2//102 113//104 114//112 7//108
f 7//108 114//112 184//113 115//110
f 1//99 3//109 8//114 4//115
f 4//115 8//114 118//116 119//117
f 3//109 116//111 117//118 8//114
f 8//114 117//118 183//119 118//116
f 1//99 4//115 9//120 5//100
f 5//100 9//120 109//121 110//105
f 4//115 119//117 120//122 9//120
f 9//120 120//122 181//123 109//121
f 10//26 14//124 15//125 11//126
f 11//126 15//125 121//127 122//128
f 14//124 116//111 115//110 15//125
f 15//125 115//110 184//113 121//127
f 10//26 11//126 16//129 12//130
f 12//130 16//129 124//131 125//132
f 11//126 122//128 123//133 16//129
f 16//129 123//133 188//134 124//131
f 10//26 12//130 17//135 13//136
f 13//136 17//135 127//137 128//138
f 12//130 125//132 126//139 17//135
f 17//135 126//139 187//140 127//137
f 10//26 13//136 18//141 14//124
f 14//124 18//141 117//118 116//111
f 13//136 128//138 129//142 18//141
f 18//141 129//142 183//119 117//118
f 19//143 23//144 24//145 20//146
f 20//146 24//145 130//147 131//148
f 23//144 125//132 124//131 24//145
f 24//145 124//131 188//134 130//147
f 19//143 20//146 25//149 21//150
f 21//150 25//149 133//151 134//152
f 20//146 131//148 132//153 25//149
f 25//149 132//153 186//154 133//151
f 19//143 21//150 26//155 22//156
f 22//156 26//155 136//157 137//158
f 21//150 134//152 135//159 26//155
f 26//155 135//159 185//160 136//157
f 19//143 22//156 27//161 23//144
f 23//144 27//161 126//139 125//132
f 22//156 137//158 138//162 27//161
f 27//161 138//162 187//140 126//139
f 28//66 32//163 33//164 29//165
f 29//165 33//164 139//166 140//167
f 32//163 134//152 133//151 33//164
f 33//164 133//151 186//154 139//166
f 28//66 29//165 34//168 30//169
f 30//169 34//168 111//106 110//105
f 29//165 140//167 141//170 34//168
f 34//168 141//170 182//107 111//106
f 28//66 30//169 35//171 31//172
f 31//172 35//171 142//173 143//174
f 30//169 110//105 109//121 35//171
f 35//171 109//121 181//123 142//173
f 28//66 31//172 36//175 32//163
f 32//163 36//175 135//159 134//152
f 31//172 143//174 144//176 36//175
f 36//175 144//176 185//160 135//159
f 37//81 41//177 42//178 38//179
f 38//179 42//178 120//122 119//117
f 41//177 143//174 142//173 42//178
f 42//178 142//173 181//123 120//122
f 37//81 38//179 43//180 39//181
f 39//181 43//180 129//142 128//138
f 38//179 119//117 118//116 43//180
f 43//180 118//116 183//119 129//142
f 37//81 39//181 44//182 40//183
f 40//183 44//182 138//162 137//158
f 39//181 128//138 127//137 44//182
f 44//182 127//137 187//140 138//162
f 37//81 40//183 45//184 41//177
f 41//177 45//184 144//176 143//174
f 40//183 137//158 136//157 45//184
f 45//184 136//157 185//160 144//176
f 46//185 50//186 51//187 47//188
f 47//188 51//187 132//153 131//148
f 50//186 140//167 139//166 51//187
f 51//187 139//166 186//154 132//153
f 46//185 47//188 52//189 48//190
f 48//190 52//189 123//133 122//128
f 47//188 131//148 130//147 52//189
f 52//189 130//147 188//134 123//133
f 46//185 48//190 53//191 49//192
f 49//192 53//191 114//112 113//104
f 48//190 122//128 121//127 53//191
f 53//191 121//127 184//113 114//112
f 46//185 49//192 54//193 50//186
f 50//186 54//193 141//170 140//167
f 49//192 113//104 112//103 54//193
f 54//193 112//103 182//107 141//170
