# Blender v2.79 (sub 0) OBJ File: 'dizzy-z-scene-02.blend'
# www.blender.org
mtllib grasshopper-collisions.mtl
o 02.Ground.054_Cube.4118
v -14.994396 58.335247 -3.599996
v -14.994396 66.330139 -3.599996
v -14.994396 58.335247 3.600004
v -14.994396 66.330139 3.600004
v -16.258049 58.335247 3.600004
v -16.258049 58.335247 -3.599996
v -16.258049 60.530136 3.600004
v -16.258049 60.530136 -3.599996
v -17.658049 58.335247 3.600004
v -17.658049 58.335247 -3.599996
v -17.658049 60.530136 3.600004
v -17.658049 60.530136 -3.599996
v -18.058048 58.335247 3.600004
v -18.058048 58.335247 -3.599996
v -18.058048 60.430138 3.600004
v -18.058048 60.430138 -3.599996
v -18.958048 58.335247 3.600004
v -18.958048 58.335247 -3.599996
v -18.958048 60.630138 3.600004
v -18.958048 60.630138 -3.599996
v -19.958048 58.335247 3.600004
v -19.958048 58.335247 -3.599996
v -19.958048 60.430138 3.600004
v -19.958048 60.430138 -3.599996
v -20.758049 58.335247 3.600004
v -20.758049 58.335247 -3.599996
v -20.758049 60.630138 3.600004
v -20.758049 60.630138 -3.599996
v -22.058048 58.335247 3.600004
v -22.058048 58.335247 -3.599996
v -22.058048 60.530136 3.600004
v -22.058048 60.530136 -3.599996
v -23.058048 58.335247 3.600004
v -23.058048 58.335247 -3.599996
v -23.058048 60.930138 3.600004
v -23.058048 60.930138 -3.599996
v -24.058048 58.335247 3.600004
v -24.058048 58.335247 -3.599996
v -24.058048 61.330135 3.600004
v -24.058048 61.330135 -3.599996
v -25.058048 58.335247 3.600004
v -25.058048 58.335247 -3.599996
v -25.058048 61.530136 3.600004
v -25.058048 61.530136 -3.599996
v -26.058048 58.335247 3.600004
v -26.058048 58.335247 -3.599996
v -26.058048 62.230137 3.600004
v -26.058048 62.230137 -3.599996
v -26.758049 58.335247 3.600004
v -26.758049 58.335247 -3.599996
v -26.758049 62.430138 3.600004
v -26.758049 62.430138 -3.599996
v -27.458048 58.335247 3.600004
v -27.458048 58.335247 -3.599996
v -27.458048 62.230137 3.600004
v -27.458048 62.230137 -3.599996
v -29.158047 58.335247 3.600004
v -29.158047 58.335247 -3.599996
v -29.158047 63.130138 3.600004
v -29.158047 63.130138 -3.599996
v -29.858047 58.335247 3.600004
v -29.858047 58.335247 -3.599996
v -29.858047 62.930138 3.600004
v -29.858047 62.930138 -3.599996
v -30.558048 58.335247 3.600004
v -30.558048 58.335247 -3.599996
v -30.558048 62.830135 3.600004
v -30.558048 62.830135 -3.599996
v -31.558048 58.335247 3.600004
v -31.558048 58.335247 -3.599996
v -31.558048 62.930138 3.600004
v -31.558048 62.930138 -3.599996
v -32.958046 58.335247 3.600004
v -32.958046 58.335247 -3.599996
v -32.958046 62.730137 3.600004
v -32.958046 62.730137 -3.599996
v -33.658051 58.335247 3.600004
v -33.658051 58.335247 -3.599996
v -33.658051 62.230137 3.600004
v -33.658051 62.230137 -3.599996
v -36.658051 58.335247 3.600004
v -36.658051 58.335247 -3.599996
v -36.658051 62.230137 3.600004
v -36.658051 62.230137 -3.599996
v -37.258049 58.335247 3.600004
v -37.258049 58.335247 -3.599996
v -37.258049 62.430138 3.600004
v -37.258049 62.430138 -3.599996
v -37.458050 58.335247 3.600004
v -37.458050 58.335247 -3.599996
v -37.458050 62.630138 3.600004
v -37.458050 62.630138 -3.599996
v -38.458050 58.335247 3.600004
v -38.458050 58.335247 -3.599996
v -38.458050 62.730137 3.600004
v -38.458050 62.730137 -3.599996
v -39.158051 58.335247 3.600004
v -39.158051 58.335247 -3.599996
v -39.158051 63.230137 3.600004
v -39.158051 63.230137 -3.599996
v -39.758049 58.335247 3.600004
v -39.758049 58.335247 -3.599996
v -39.758049 63.430138 3.600004
v -39.758049 63.430138 -3.599996
v -40.058052 58.335247 3.600004
v -40.058052 58.335247 -3.599996
v -40.058052 63.730137 3.600004
v -40.058052 63.730137 -3.599996
v -40.458050 58.335247 3.600004
v -40.458050 58.335247 -3.599996
v -40.458050 63.730137 3.600004
v -40.458050 63.730137 -3.599996
v -40.658051 58.335247 3.600004
v -40.658051 58.335247 -3.599996
v -40.658051 64.430138 3.600004
v -40.658051 64.430138 -3.599996
v -41.258049 58.335247 3.600004
v -41.258049 58.335247 -3.599996
v -41.258049 64.830139 3.600004
v -41.258049 64.830139 -3.599996
v -42.358051 58.335247 3.600004
v -42.358051 58.335247 -3.599996
v -42.358051 64.530136 3.600004
v -42.358051 64.530136 -3.599996
v -43.358051 58.335247 3.600004
v -43.358051 58.335247 -3.599996
v -43.358051 64.830139 3.600004
v -43.358051 64.830139 -3.599996
v -43.958054 58.335247 3.600004
v -43.958054 58.335247 -3.599996
v -43.958054 64.530136 3.600004
v -43.958054 64.530136 -3.599996
v -44.858051 58.335247 3.600004
v -44.858051 58.335247 -3.599996
v -44.858051 68.930138 3.600004
v -44.858051 68.930138 -3.599996
v -11.994396 58.335247 -3.599996
v -11.994396 66.330139 -3.599996
v -11.994396 58.335247 3.600004
v -11.994396 66.330139 3.600004
v -47.858051 58.335247 3.600004
v -47.858051 58.335247 -3.599996
v -47.858051 68.930138 3.600004
v -47.858051 68.930138 -3.599996
vn 0.0000 -0.7071 -0.7071
vn -0.2998 0.3721 -0.8784
vn -0.5067 0.6290 -0.5895
vn -0.5067 0.6290 0.5895
vn 0.0000 -0.7071 0.7071
vn 0.5773 -0.5773 0.5773
vn 0.5773 0.5773 0.5773
vn -0.2998 0.3721 0.8784
vn -0.0895 0.7271 -0.6806
vn -0.0895 0.7271 0.6806
vn -0.0085 0.6467 -0.7627
vn 0.0079 0.7482 -0.6634
vn -0.0085 0.6467 0.7627
vn 0.0079 0.7482 0.6634
vn 0.0154 0.6497 0.7600
vn 0.0154 0.6497 -0.7600
vn 0.0621 0.7372 -0.6727
vn 0.0621 0.7372 0.6727
vn 0.0980 0.6403 -0.7618
vn 0.0980 0.6403 0.7618
vn 0.2626 0.6565 -0.7071
vn 0.2070 0.6964 -0.6871
vn 0.2626 0.6565 0.7071
vn 0.2572 0.6015 -0.7563
vn 0.2070 0.6964 0.6871
vn 0.2572 0.6015 0.7563
vn 0.3186 0.6688 -0.6717
vn 0.0000 0.7598 -0.6502
vn 0.3186 0.6688 0.6717
vn 0.0000 0.7598 0.6502
vn 0.0622 0.5947 0.8015
vn 0.0622 0.5947 -0.8015
vn 0.0807 0.7708 -0.6319
vn -0.1441 0.6759 -0.7228
vn 0.0807 0.7708 0.6319
vn -0.1441 0.6759 0.7228
vn -0.0143 0.6776 0.7353
vn -0.0143 0.6776 -0.7353
vn -0.0154 0.7321 -0.6810
vn -0.0154 0.7321 0.6810
vn -0.2802 0.6994 -0.6575
vn -0.1899 0.5927 -0.7826
vn -0.2802 0.6994 0.6575
vn -0.1899 0.5927 0.7826
vn 0.1068 0.6584 -0.7450
vn 0.3400 0.5502 -0.7627
vn 0.1068 0.6584 0.7450
vn 0.3400 0.5502 0.7627
vn 0.3295 0.6953 0.6387
vn 0.3295 0.6953 -0.6387
vn 0.2248 0.5973 -0.7699
vn 0.3347 0.6574 -0.6751
vn 0.2248 0.5973 0.7699
vn 0.3347 0.6574 0.6751
vn 0.2971 0.7173 -0.6302
vn 0.2971 0.7173 0.6302
vn 0.2965 0.3930 -0.8704
vn 0.2965 0.3930 0.8704
vn 0.6226 0.4545 -0.6370
vn 0.1251 0.7708 -0.6247
vn 0.6226 0.4545 0.6370
vn 0.0080 0.6324 -0.7746
vn 0.1251 0.7708 0.6247
vn 0.0080 0.6324 0.7746
vn -0.0666 0.7714 -0.6328
vn 0.1569 0.3227 -0.9334
vn -0.0666 0.7714 0.6328
vn 0.1569 0.3227 0.9334
vn 0.5111 0.6262 0.5887
vn 0.5111 0.6262 -0.5887
vn -0.5773 -0.5773 -0.5773
vn -0.5773 0.5773 -0.5773
vn 0.5773 0.5773 -0.5773
vn 0.5773 -0.5773 -0.5773
vn -0.5773 -0.5773 0.5773
vn -0.5773 0.5773 0.5773
usemtl MarsGround
s 1
f 6//1 8//2 2//3 1//1
f 4//4 3//5 139//6 140//7
f 5//5 6//1 1//1 3//5
f 8//2 7//8 4//4 2//3
f 7//8 5//5 3//5 4//4
f 6//1 5//5 9//5 10//1
f 10//1 9//5 13//5 14//1
f 7//8 8//2 12//9 11//10
f 8//2 6//1 10//1 12//9
f 5//5 7//8 11//10 9//5
f 16//11 14//1 18//1 20//12
f 11//10 12//9 16//11 15//13
f 12//9 10//1 14//1 16//11
f 9//5 11//10 15//13 13//5
f 18//1 17//5 21//5 22//1
f 13//5 15//13 19//14 17//5
f 14//1 13//5 17//5 18//1
f 15//13 16//11 20//12 19//14
f 23//15 24//16 28//17 27//18
f 19//14 20//12 24//16 23//15
f 20//12 18//1 22//1 24//16
f 17//5 19//14 23//15 21//5
f 28//17 26//1 30//1 32//19
f 24//16 22//1 26//1 28//17
f 21//5 23//15 27//18 25//5
f 22//1 21//5 25//5 26//1
f 30//1 29//5 33//5 34//1
f 25//5 27//18 31//20 29//5
f 26//1 25//5 29//5 30//1
f 27//18 28//17 32//19 31//20
f 36//21 34//1 38//1 40//22
f 31//20 32//19 36//21 35//23
f 32//19 30//1 34//1 36//21
f 29//5 31//20 35//23 33//5
f 40//22 38//1 42//1 44//24
f 33//5 35//23 39//25 37//5
f 34//1 33//5 37//5 38//1
f 35//23 36//21 40//22 39//25
f 42//1 41//5 45//5 46//1
f 37//5 39//25 43//26 41//5
f 38//1 37//5 41//5 42//1
f 39//25 40//22 44//24 43//26
f 48//27 46//1 50//1 52//28
f 43//26 44//24 48//27 47//29
f 44//24 42//1 46//1 48//27
f 41//5 43//26 47//29 45//5
f 49//5 51//30 55//31 53//5
f 45//5 47//29 51//30 49//5
f 46//1 45//5 49//5 50//1
f 47//29 48//27 52//28 51//30
f 54//1 53//5 57//5 58//1
f 50//1 49//5 53//5 54//1
f 51//30 52//28 56//32 55//31
f 52//28 50//1 54//1 56//32
f 60//33 58//1 62//1 64//34
f 55//31 56//32 60//33 59//35
f 56//32 54//1 58//1 60//33
f 53//5 55//31 59//35 57//5
f 62//1 61//5 65//5 66//1
f 57//5 59//35 63//36 61//5
f 58//1 57//5 61//5 62//1
f 59//35 60//33 64//34 63//36
f 67//37 68//38 72//39 71//40
f 63//36 64//34 68//38 67//37
f 64//34 62//1 66//1 68//38
f 61//5 63//36 67//37 65//5
f 72//39 70//1 74//1 76//41
f 68//38 66//1 70//1 72//39
f 65//5 67//37 71//40 69//5
f 66//1 65//5 69//5 70//1
f 76//41 74//1 78//1 80//42
f 69//5 71//40 75//43 73//5
f 70//1 69//5 73//5 74//1
f 71//40 72//39 76//41 75//43
f 78//1 77//5 81//5 82//1
f 73//5 75//43 79//44 77//5
f 74//1 73//5 77//5 78//1
f 75//43 76//41 80//42 79//44
f 84//45 82//1 86//1 88//46
f 79//44 80//42 84//45 83//47
f 80//42 78//1 82//1 84//45
f 77//5 79//44 83//47 81//5
f 85//5 87//48 91//49 89//5
f 81//5 83//47 87//48 85//5
f 82//1 81//5 85//5 86//1
f 83//47 84//45 88//46 87//48
f 90//1 89//5 93//5 94//1
f 86//1 85//5 89//5 90//1
f 87//48 88//46 92//50 91//49
f 88//46 86//1 90//1 92//50
f 96//51 94//1 98//1 100//52
f 91//49 92//50 96//51 95//53
f 92//50 90//1 94//1 96//51
f 89//5 91//49 95//53 93//5
f 98//1 97//5 101//5 102//1
f 93//5 95//53 99//54 97//5
f 94//1 93//5 97//5 98//1
f 95//53 96//51 100//52 99//54
f 103//48 104//46 108//55 107//56
f 99//54 100//52 104//46 103//48
f 100//52 98//1 102//1 104//46
f 97//5 99//54 103//48 101//5
f 108//55 106//1 110//1 112//57
f 104//46 102//1 106//1 108//55
f 101//5 103//48 107//56 105//5
f 102//1 101//5 105//5 106//1
f 110//1 109//5 113//5 114//1
f 105//5 107//56 111//58 109//5
f 106//1 105//5 109//5 110//1
f 107//56 108//55 112//57 111//58
f 116//59 114//1 118//1 120//60
f 111//58 112//57 116//59 115//61
f 112//57 110//1 114//1 116//59
f 109//5 111//58 115//61 113//5
f 120//60 118//1 122//1 124//62
f 113//5 115//61 119//63 117//5
f 114//1 113//5 117//5 118//1
f 115//61 116//59 120//60 119//63
f 122//1 121//5 125//5 126//1
f 117//5 119//63 123//64 121//5
f 118//1 117//5 121//5 122//1
f 119//63 120//60 124//62 123//64
f 128//65 126//1 130//1 132//66
f 123//64 124//62 128//65 127//67
f 124//62 122//1 126//1 128//65
f 121//5 123//64 127//67 125//5
f 129//5 131//68 135//69 133//5
f 125//5 127//67 131//68 129//5
f 126//1 125//5 129//5 130//1
f 127//67 128//65 132//66 131//68
f 136//70 134//1 142//71 144//72
f 130//1 129//5 133//5 134//1
f 131//68 132//66 136//70 135//69
f 132//66 130//1 134//1 136//70
f 138//73 140//7 139//6 137//74
f 1//1 2//3 138//73 137//74
f 3//5 1//1 137//74 139//6
f 2//3 4//4 140//7 138//73
f 141//75 143//76 144//72 142//71
f 133//5 135//69 143//76 141//75
f 134//1 133//5 141//75 142//71
f 135//69 136//70 144//72 143//76
