# Blender v2.76 (sub 0) OBJ File: 'dizzy-z-scene-01.blend'
# www.blender.org
mtllib kitchen-knife.mtl
o Cube.002_Cube.083
v 0.475505 0.678047 0.180000
v 0.065110 0.985975 0.180000
v -0.274853 0.913132 -0.000000
v 0.065110 0.985975 -0.180000
v -0.064164 0.745232 0.000000
v 0.194384 1.226717 0.000000
v 0.910582 0.548015 0.000000
v 0.475505 0.678047 -0.180000
v 0.335302 0.482909 0.000000
v 0.615709 0.873184 0.000000
v 0.917396 0.174783 0.000000
v 0.785395 0.350246 0.180000
v 0.785395 0.350246 -0.180000
v 0.660207 0.152477 0.000000
v -0.524058 1.176452 -0.000000
v -0.059940 1.367770 -0.000000
v -0.167397 1.140451 0.095400
v -0.167397 1.140451 -0.095400
v -0.906874 1.703858 -0.009000
v -0.348383 1.501269 -0.000000
v -0.436220 1.338860 -0.009900
v -0.436220 1.338860 0.009900
v -1.201498 1.954195 -0.004500
v -0.906874 1.703858 0.009000
v -0.990253 1.561511 -0.000000
v -0.823495 1.846204 -0.000000
v -1.294293 2.039058 -0.000000
v -1.201498 1.954195 0.004500
v -1.229891 1.827453 -0.000000
v -1.173105 2.080937 -0.000000
v 0.283962 0.831197 -0.180000
v 0.415396 1.040368 0.000000
v 0.283962 0.831197 0.180000
v 0.152529 0.622027 0.000000
v 0.162066 1.166532 0.135000
v -0.109270 1.102389 0.158850
v -0.031846 0.805418 0.135000
v 0.015122 1.359947 -0.000000
v -0.109270 1.102389 -0.158850
v -0.233663 0.844832 -0.000000
v 0.162066 1.166532 -0.135000
v -0.031846 0.805418 -0.135000
v 0.641922 0.519928 -0.180000
v 0.784409 0.713091 0.000000
v 0.641922 0.519928 0.180000
v 0.499435 0.326764 0.000000
v 0.370353 0.531693 0.135000
v 0.580658 0.824400 0.135000
v 0.580658 0.824400 -0.135000
v 0.370353 0.531693 -0.135000
v 0.884396 0.218649 -0.135000
v 0.964741 0.370923 0.000000
v 0.884396 0.218649 0.135000
v 0.804050 0.066375 0.000000
v 0.879285 0.498573 0.135000
v 0.879285 0.498573 -0.135000
v 0.691504 0.201919 0.135000
v 0.691504 0.201919 -0.135000
v -0.167397 1.139336 0.010800
v -0.082903 1.312891 -0.000000
v -0.167397 1.139336 -0.010800
v -0.251890 0.965782 -0.000000
v -0.247989 0.969962 0.071550
v -0.247989 0.969962 -0.071550
v -0.086804 1.310941 -0.071550
v -0.086804 1.310941 0.071550
v -0.688296 1.529871 0.009225
v -0.599901 1.681692 -0.000000
v -0.688296 1.529871 -0.009225
v -0.776690 1.378051 -0.000000
v -0.502098 1.217054 0.005175
v -0.502098 1.217054 -0.005175
v -0.370342 1.460667 -0.009675
v -0.370342 1.460667 0.009675
v -1.081445 1.849179 0.007875
v -1.015713 1.983166 -0.000000
v -1.081445 1.849179 -0.007875
v -1.147176 1.715192 -0.000000
v -0.969408 1.597098 -0.002250
v -0.844340 1.810617 -0.011250
v -0.844340 1.810617 0.011250
v -0.969408 1.597098 0.002250
v -1.271094 2.017843 0.001125
v -1.273392 2.109555 -0.000000
v -1.271095 2.017843 -0.001125
v -1.268797 1.926130 -0.000000
v -1.222793 1.859138 -0.001125
v -1.180204 2.049252 -0.005625
v -1.180204 2.049252 0.005625
v -1.222793 1.859138 0.001125
v 0.185387 0.674320 -0.135000
v 0.382538 0.988075 -0.135000
v 0.185387 0.674320 0.135000
v 0.382538 0.988075 0.135000
v -0.202565 0.909221 -0.119138
v -0.015976 1.295557 -0.119138
v -0.202565 0.909221 0.119138
v -0.015976 1.295557 0.119138
v 0.535057 0.375055 -0.135000
v 0.748787 0.664801 -0.135000
v 0.535057 0.375055 0.135000
v 0.748787 0.664801 0.135000
v 0.795200 0.141141 -0.100000
v 0.922257 0.364393 -0.100000
v 0.795200 0.141141 0.100000
v 0.922257 0.364393 0.100000
v -0.230767 1.009171 -0.008100
v -0.104027 1.269502 -0.008100
v -0.230767 1.009171 0.008100
v -0.104027 1.269502 0.008100
v -0.754592 1.416006 -0.002981
v -0.622000 1.643737 -0.010856
v -0.754592 1.416006 0.002981
v -0.622000 1.643737 0.010856
v -1.130743 1.748688 -0.001969
v -1.032146 1.949669 -0.009844
v -1.130743 1.748688 0.001969
v -1.032146 1.949669 0.009844
v -1.258340 1.932415 -0.000500
v -1.247763 2.070268 -0.002500
v -1.258340 1.932415 0.000500
v -1.247763 2.070268 0.002500
vn 0.005700 0.004100 1.000000
vn 0.430200 0.485200 0.761300
vn 0.402300 0.491100 0.772600
vn 0.007400 0.000900 1.000000
vn -0.350900 -0.514100 0.782600
vn -0.412200 -0.481500 0.773400
vn -0.460100 -0.448700 0.766100
vn 0.009600 0.003800 0.999900
vn 0.490500 0.444300 0.749700
vn -0.032200 0.019500 0.999300
vn 0.347200 0.499300 0.793800
vn 0.025500 0.615600 0.787600
vn -0.328700 0.165600 0.929800
vn -0.562900 -0.317100 0.763300
vn -0.337500 -0.503400 0.795300
vn -0.988700 -0.149700 0.000000
vn -0.894000 0.137100 -0.426600
vn -0.562900 -0.317100 -0.763300
vn -0.730900 -0.682400 0.000000
vn -0.894000 0.137100 0.426600
vn -0.684000 0.255200 0.683400
vn -0.933700 0.358000 0.000000
vn -0.684000 0.255200 -0.683400
vn -0.032200 0.019500 -0.999300
vn -0.328700 0.165600 -0.929800
vn 0.025500 0.615600 -0.787600
vn 0.347200 0.499300 -0.793800
vn 0.402300 0.491100 -0.772600
vn 0.007400 0.000900 -1.000000
vn -0.350900 -0.514100 -0.782600
vn -0.337500 -0.503400 -0.795300
vn -0.518500 -0.855100 0.000000
vn -0.558500 -0.829400 0.000000
vn 0.605700 0.795600 0.000000
vn 0.295400 0.955300 0.000000
vn 0.637900 0.770100 0.000000
vn 0.884200 0.467100 0.000000
vn 0.636300 0.286300 -0.716400
vn 0.490500 0.444300 -0.749700
vn 0.739100 0.673600 0.000000
vn 0.636300 0.286300 0.716400
vn 0.813200 0.016400 0.581700
vn 0.999400 0.033800 0.000000
vn 0.813200 0.016400 -0.581700
vn 0.005700 0.004100 -1.000000
vn -0.412200 -0.481500 -0.773400
vn 0.430200 0.485200 -0.761300
vn 0.009600 0.003800 -0.999900
vn -0.460100 -0.448700 -0.766100
vn -0.650500 -0.759500 0.000000
vn -0.715300 -0.698800 0.000000
vn 0.663400 0.748300 0.000000
vn 0.838800 -0.544400 0.000000
vn 0.566300 -0.370700 -0.736100
vn 0.566300 -0.370700 0.736100
vn 0.071300 -0.725900 0.684000
vn 0.105300 -0.994400 0.000000
vn 0.071300 -0.725900 -0.684000
vn 0.148200 -0.086600 0.985100
vn -0.354000 -0.543500 0.761100
vn 0.148200 -0.086600 -0.985100
vn -0.354000 -0.543500 -0.761100
vn -0.604700 -0.796400 0.000000
vn -0.412000 0.911200 0.000000
vn -0.623600 0.644300 0.442600
vn -0.623600 0.644300 -0.442600
vn -0.633100 0.363500 -0.683400
vn -0.863800 0.503700 0.000000
vn -0.633100 0.363500 0.683400
vn -0.804100 0.390300 0.448400
vn -0.648400 0.301900 0.698800
vn -0.804100 0.390300 -0.448400
vn -0.648400 0.301900 -0.698800
vn -0.639000 -0.769200 0.000000
vn -0.049200 -0.056100 -0.997200
vn -0.049200 -0.056100 0.997200
vn -0.040600 -0.045800 0.998100
vn -0.654700 -0.755800 0.000000
vn -0.040600 -0.045800 -0.998100
vn -0.024700 -0.025800 -0.999400
vn 0.070000 0.098900 -0.992600
vn 0.067800 0.091200 -0.993500
vn -0.018700 -0.021600 -0.999600
vn -0.038300 -0.041100 -0.998400
vn -0.042900 -0.035200 -0.998400
vn -0.034100 -0.021300 -0.999200
vn 0.055600 0.100200 -0.993400
vn 0.591800 0.806100 0.000000
vn 0.061600 0.083100 0.994600
vn 0.061600 0.083100 -0.994600
vn 0.595800 0.803100 0.000000
vn 0.067800 0.091200 0.993500
vn -0.011400 -0.011400 -0.999800
vn -0.011400 -0.011400 0.999800
vn -0.018700 -0.021600 0.999600
vn -0.048000 -0.013200 -0.998700
vn 0.019200 0.086200 -0.996100
vn -0.051200 -0.024400 -0.998400
vn -0.057600 -0.017300 -0.998200
vn -0.054800 -0.005900 -0.998500
vn -0.027500 0.049200 -0.998400
vn -0.024700 -0.025800 0.999400
vn -0.038300 -0.041100 0.998400
vn 0.070000 0.098900 0.992600
vn 0.055600 0.100200 0.993400
vn -0.034100 -0.021300 0.999200
vn -0.042900 -0.035200 0.998400
vn -0.678700 -0.734300 0.000000
vn -0.746100 -0.665700 0.000000
vn 0.587900 0.808900 0.000000
vn 0.539500 0.842000 0.000000
vn -0.996300 0.085500 0.000000
vn -0.054800 -0.005900 0.998500
vn -0.027500 0.049200 0.998400
vn -0.400600 0.916200 0.000000
vn -0.953900 -0.300100 0.000000
vn -0.057600 -0.017300 0.998200
vn -0.048000 -0.013200 0.998700
vn -0.051200 -0.024400 0.998400
vn 0.019200 0.086200 0.996100
vn -0.849200 -0.528000 0.000000
vn 0.355700 0.934600 0.000000
usemtl Wood
s 1
f 1//1 48//2 94//3 33//4
f 1//1 33//4 93//5 47//6
f 1//1 47//6 101//7 45//8
f 1//1 45//8 102//9 48//2
f 2//10 33//4 94//3 35//11
f 2//10 35//11 98//12 36//13
f 2//10 36//13 97//14 37//15
f 2//10 37//15 93//5 33//4
f 3//16 64//17 95//18 40//19
f 3//16 40//19 97//14 63//20
f 3//16 63//20 109//21 62//22
f 3//16 62//22 107//23 64//17
f 4//24 39//25 96//26 41//27
f 4//24 41//27 92//28 31//29
f 4//24 31//29 91//30 42//31
f 4//24 42//31 95//18 39//25
f 5//32 42//31 91//30 34//33
f 5//32 34//33 93//5 37//15
f 5//32 37//15 97//14 40//19
f 5//32 40//19 95//18 42//31
f 6//34 41//27 96//26 38//35
f 6//34 38//35 98//12 35//11
f 6//34 35//11 94//3 32//36
f 6//34 32//36 92//28 41//27
f 7//37 56//38 100//39 44//40
f 7//37 44//40 102//9 55//41
f 7//37 55//41 106//42 52//43
f 7//37 52//43 104//44 56//38
f 8//45 50//46 91//30 31//29
f 8//45 31//29 92//28 49//47
f 8//45 49//47 100//39 43//48
f 8//45 43//48 99//49 50//46
f 9//50 47//6 93//5 34//33
f 9//50 34//33 91//30 50//46
f 9//50 50//46 99//49 46//51
f 9//50 46//51 101//7 47//6
f 10//52 49//47 92//28 32//36
f 10//52 32//36 94//3 48//2
f 10//52 48//2 102//9 44//40
f 10//52 44//40 100//39 49//47
f 11//53 51//54 104//44 52//43
f 11//53 52//43 106//42 53//55
f 11//53 53//55 105//56 54//57
f 11//53 54//57 103//58 51//54
f 12//59 55//41 102//9 45//8
f 12//59 45//8 101//7 57//60
f 12//59 57//60 105//56 53//55
f 12//59 53//55 106//42 55//41
f 13//61 58//62 99//49 43//48
f 13//61 43//48 100//39 56//38
f 13//61 56//38 104//44 51//54
f 13//61 51//54 103//58 58//62
f 14//63 57//60 101//7 46//51
f 14//63 46//51 99//49 58//62
f 14//63 58//62 103//58 54//57
f 14//63 54//57 105//56 57//60
f 16//64 66//65 98//12 38//35
f 16//64 38//35 96//26 65//66
f 16//64 65//66 108//67 60//68
f 16//64 60//68 110//69 66//65
f 17//70 63//20 97//14 36//13
f 17//70 36//13 98//12 66//65
f 17//70 66//65 110//69 59//71
f 17//70 59//71 109//21 63//20
f 18//72 65//66 96//26 39//25
f 18//72 39//25 95//18 64//17
f 18//72 64//17 107//23 61//73
f 18//72 61//73 108//67 65//66
usemtl Steel
f 15//74 72//75 107//23 62//22
f 15//74 62//22 109//21 71//76
f 15//74 71//76 113//77 70//78
f 15//74 70//78 111//79 72//75
f 19//80 80//81 112//82 69//83
f 19//80 69//83 111//79 79//84
f 19//80 79//84 115//85 77//86
f 19//80 77//86 116//87 80//81
f 20//88 74//89 110//69 60//68
f 20//88 60//68 108//67 73//90
f 20//88 73//90 112//82 68//91
f 20//88 68//91 114//92 74//89
f 21//93 73//90 108//67 61//73
f 21//93 61//73 107//23 72//75
f 21//93 72//75 111//79 69//83
f 21//93 69//83 112//82 73//90
f 22//94 71//76 109//21 59//71
f 22//94 59//71 110//69 74//89
f 22//94 74//89 114//92 67//95
f 22//94 67//95 113//77 71//76
f 23//96 88//97 116//87 77//86
f 23//96 77//86 115//85 87//98
f 23//96 87//98 119//99 85//100
f 23//96 85//100 120//101 88//97
f 24//102 82//103 113//77 67//95
f 24//102 67//95 114//92 81//104
f 24//102 81//104 118//105 75//106
f 24//102 75//106 117//107 82//103
f 25//108 79//84 111//79 70//78
f 25//108 70//78 113//77 82//103
f 25//108 82//103 117//107 78//109
f 25//108 78//109 115//85 79//84
f 26//110 81//104 114//92 68//91
f 26//110 68//91 112//82 80//81
f 26//110 80//81 116//87 76//111
f 26//110 76//111 118//105 81//104
f 27//112 83//113 122//114 84//115
f 27//112 84//115 120//101 85//100
f 27//112 85//100 119//99 86//116
f 27//112 86//116 121//117 83//113
f 28//118 90//119 117//107 75//106
f 28//118 75//106 118//105 89//120
f 28//118 89//120 122//114 83//113
f 28//118 83//113 121//117 90//119
f 29//121 87//98 115//85 78//109
f 29//121 78//109 117//107 90//119
f 29//121 90//119 121//117 86//116
f 29//121 86//116 119//99 87//98
f 30//122 89//120 118//105 76//111
f 30//122 76//111 116//87 88//97
f 30//122 88//97 120//101 84//115
f 30//122 84//115 122//114 89//120
