# Blender v2.76 (sub 0) OBJ File: 'dizzy-z-scene-01.blend'
# www.blender.org
mtllib light-drop.mtl
o Cube.006_Cube.087
v 0.089378 -0.027387 0.000000
v 0.088066 0.005000 0.000000
v 0.083396 -0.026962 0.035716
v 0.081944 -0.054549 0.000000
v 0.083396 -0.026962 -0.035716
v 0.082195 0.005000 -0.035227
v 0.082195 0.005000 0.035227
v 0.076389 -0.052847 0.032639
v 0.076389 -0.052847 -0.032639
v 0.000000 -0.027387 0.089378
v 0.000000 0.005000 0.088066
v -0.035716 -0.026962 0.083396
v 0.000000 -0.054549 0.081944
v 0.035716 -0.026962 0.083396
v 0.035227 0.005000 0.082195
v -0.035227 0.005000 0.082195
v -0.032639 -0.052847 0.076389
v 0.032639 -0.052847 0.076389
v -0.089378 -0.027387 0.000000
v -0.088066 0.005000 0.000000
v -0.083396 -0.026962 -0.035716
v -0.081944 -0.054549 0.000000
v -0.083396 -0.026962 0.035716
v -0.082195 0.005000 0.035227
v -0.082195 0.005000 -0.035227
v -0.076389 -0.052847 -0.032639
v -0.076389 -0.052847 0.032639
v 0.000000 -0.027387 -0.089378
v 0.000000 0.005000 -0.088066
v 0.035716 -0.026962 -0.083396
v 0.000000 -0.054549 -0.081944
v -0.035716 -0.026962 -0.083396
v -0.035227 0.005000 -0.082195
v 0.035227 0.005000 -0.082195
v 0.032639 -0.052847 -0.076389
v -0.032639 -0.052847 -0.076389
v 0.000000 -0.091493 0.000000
v 0.035069 -0.087361 0.000000
v 0.000000 -0.087361 0.035069
v -0.035069 -0.087361 0.000000
v 0.000000 -0.087361 -0.035069
v 0.032639 -0.083472 -0.032639
v 0.032639 -0.083472 0.032639
v -0.032639 -0.083472 0.032639
v -0.032639 -0.083472 -0.032639
v 0.000000 0.107387 0.048414
v 0.000000 0.075000 0.065332
v 0.019718 0.106962 0.045421
v 0.000000 0.134549 0.031760
v -0.019718 0.106962 0.045421
v -0.026133 0.075000 0.060977
v 0.026133 0.075000 0.060977
v 0.014115 0.132847 0.030583
v -0.014115 0.132847 0.030583
v 0.000000 0.171493 0.000000
v -0.007620 0.167361 0.000000
v 0.000000 0.167361 0.007620
v 0.007620 0.167361 0.000000
v 0.000000 0.167361 -0.007620
v -0.008052 0.163472 -0.008052
v -0.008052 0.163472 0.008052
v 0.008052 0.163472 0.008052
v 0.008052 0.163472 -0.008052
v -0.048414 0.107387 0.000000
v -0.065332 0.075000 0.000000
v -0.045421 0.106962 0.019718
v -0.031760 0.134549 0.000000
v -0.045421 0.106962 -0.019718
v -0.060977 0.075000 -0.026133
v -0.060977 0.075000 0.026133
v -0.030583 0.132847 0.014115
v -0.030583 0.132847 -0.014115
v 0.048414 0.107387 0.000000
v 0.065332 0.075000 0.000000
v 0.045421 0.106962 -0.019718
v 0.031760 0.134549 0.000000
v 0.045421 0.106962 0.019718
v 0.060977 0.075000 0.026133
v 0.060977 0.075000 -0.026133
v 0.030583 0.132847 -0.014115
v 0.030583 0.132847 0.014115
v 0.000000 0.107387 -0.048414
v 0.000000 0.075000 -0.065332
v -0.019718 0.106962 -0.045421
v 0.000000 0.134549 -0.031760
v 0.019718 0.106962 -0.045421
v 0.026133 0.075000 -0.060977
v -0.026133 0.075000 -0.060977
v -0.014115 0.132847 -0.030583
v 0.014115 0.132847 -0.030583
v 0.059896 -0.051146 -0.059896
v 0.065494 -0.026536 -0.065494
v 0.064582 0.005000 -0.064582
v 0.074238 0.040000 -0.031816
v 0.079541 0.040000 0.000000
v 0.074238 0.040000 0.031816
v 0.064582 0.005000 0.064582
v 0.065494 -0.026536 0.065494
v 0.059896 -0.051146 0.059896
v 0.059896 -0.071927 0.030208
v 0.064323 -0.075026 0.000000
v 0.059896 -0.071927 -0.030208
v 0.031816 0.040000 0.074238
v 0.000000 0.040000 0.079541
v -0.031816 0.040000 0.074238
v -0.064582 0.005000 0.064582
v -0.065494 -0.026536 0.065494
v -0.059896 -0.051146 0.059896
v -0.030208 -0.071927 0.059896
v 0.000000 -0.075026 0.064323
v 0.030208 -0.071927 0.059896
v -0.074238 0.040000 0.031816
v -0.079541 0.040000 0.000000
v -0.074238 0.040000 -0.031816
v -0.064582 0.005000 -0.064582
v -0.065494 -0.026536 -0.065494
v -0.059896 -0.051146 -0.059896
v -0.059896 -0.071927 -0.030208
v -0.064323 -0.075026 0.000000
v -0.059896 -0.071927 0.030208
v -0.031816 0.040000 -0.074238
v 0.000000 0.040000 -0.079541
v 0.031816 0.040000 -0.074238
v 0.030208 -0.071927 -0.059896
v 0.000000 -0.075026 -0.064323
v -0.030208 -0.071927 -0.059896
v 0.017711 0.151927 -0.010000
v 0.017465 0.155026 0.000000
v 0.017711 0.151927 0.010000
v 0.010000 0.151927 0.017711
v 0.000000 0.155026 0.017465
v -0.010000 0.151927 0.017711
v -0.017711 0.151927 0.010000
v -0.017465 0.155026 0.000000
v -0.017711 0.151927 -0.010000
v -0.010000 0.151927 -0.017711
v 0.000000 0.155026 -0.017465
v 0.010000 0.151927 -0.017711
v 0.047910 0.075000 0.047910
v 0.036003 0.106536 0.036003
v 0.025289 0.131146 0.025289
v -0.025289 0.131146 0.025289
v -0.036003 0.106536 0.036003
v -0.047910 0.075000 0.047910
v -0.025289 0.131146 -0.025289
v -0.036003 0.106536 -0.036003
v -0.047910 0.075000 -0.047910
v 0.047910 0.075000 -0.047910
v 0.036003 0.106536 -0.036003
v 0.025289 0.131146 -0.025289
v 0.050926 -0.065648 -0.050926
v 0.058330 0.040000 -0.058330
v 0.050926 -0.065648 0.050926
v 0.058330 0.040000 0.058330
v -0.050926 -0.065648 -0.050926
v -0.058330 0.040000 -0.058330
v -0.050926 -0.065648 0.050926
v -0.058330 0.040000 0.058330
v 0.017694 0.145648 -0.017694
v 0.017694 0.145648 0.017694
v -0.017694 0.145648 -0.017694
v -0.017694 0.145648 0.017694
vn 0.993200 -0.116500 0.000000
vn 0.929300 -0.120900 -0.348800
vn 0.929000 0.139200 -0.342800
vn 0.990400 0.137700 0.000000
vn 0.892500 0.308500 -0.328800
vn 0.952300 0.305000 0.000000
vn 0.701500 -0.125400 -0.701500
vn 0.700000 0.141500 -0.700000
vn 0.671300 0.313900 -0.671300
vn 0.929000 0.139200 0.342800
vn 0.929300 -0.120900 0.348800
vn 0.700000 0.141500 0.700000
vn 0.701500 -0.125400 0.701500
vn 0.892500 0.308500 0.328800
vn 0.671300 0.313900 0.671300
vn 0.822800 -0.466400 0.324600
vn 0.881100 -0.473000 0.000000
vn 0.563200 -0.775800 0.284300
vn 0.594100 -0.804300 0.000000
vn 0.627900 -0.459700 0.627900
vn 0.497600 -0.710500 0.497600
vn 0.822800 -0.466400 -0.324600
vn 0.627900 -0.459700 -0.627900
vn 0.563200 -0.775800 -0.284300
vn 0.497600 -0.710500 -0.497600
vn 0.000000 -0.116500 0.993200
vn 0.348800 -0.120900 0.929300
vn 0.342800 0.139200 0.929000
vn 0.000000 0.137700 0.990400
vn 0.328800 0.308500 0.892500
vn 0.000000 0.305000 0.952300
vn -0.342800 0.139200 0.929000
vn -0.348800 -0.120900 0.929300
vn -0.700000 0.141500 0.700000
vn -0.701500 -0.125400 0.701500
vn -0.328800 0.308500 0.892500
vn -0.671300 0.313900 0.671300
vn -0.324600 -0.466400 0.822800
vn 0.000000 -0.473000 0.881100
vn -0.284300 -0.775800 0.563200
vn 0.000000 -0.804300 0.594100
vn -0.627900 -0.459700 0.627900
vn -0.497600 -0.710500 0.497600
vn 0.324600 -0.466400 0.822800
vn 0.284300 -0.775800 0.563200
vn -0.993200 -0.116500 0.000000
vn -0.929300 -0.120900 0.348800
vn -0.929000 0.139200 0.342800
vn -0.990400 0.137700 0.000000
vn -0.892500 0.308500 0.328800
vn -0.952300 0.305000 0.000000
vn -0.929000 0.139200 -0.342800
vn -0.929300 -0.120900 -0.348800
vn -0.700000 0.141500 -0.700000
vn -0.701500 -0.125400 -0.701500
vn -0.892500 0.308500 -0.328800
vn -0.671300 0.313900 -0.671300
vn -0.822800 -0.466400 -0.324600
vn -0.881100 -0.473000 0.000000
vn -0.563200 -0.775800 -0.284300
vn -0.594100 -0.804300 0.000000
vn -0.627900 -0.459700 -0.627900
vn -0.497600 -0.710500 -0.497600
vn -0.822800 -0.466400 0.324600
vn -0.563200 -0.775800 0.284300
vn 0.000000 -0.116500 -0.993200
vn -0.348800 -0.120900 -0.929300
vn -0.342800 0.139200 -0.929000
vn 0.000000 0.137700 -0.990400
vn -0.328800 0.308500 -0.892500
vn 0.000000 0.305000 -0.952300
vn 0.342800 0.139200 -0.929000
vn 0.348800 -0.120900 -0.929300
vn 0.328800 0.308500 -0.892500
vn 0.324600 -0.466400 -0.822800
vn 0.000000 -0.473000 -0.881100
vn 0.284300 -0.775800 -0.563200
vn 0.000000 -0.804300 -0.594100
vn -0.324600 -0.466400 -0.822800
vn -0.284300 -0.775800 -0.563200
vn 0.000000 -1.000000 0.000000
vn 0.000000 -0.964400 -0.264300
vn 0.266100 -0.926500 -0.266100
vn 0.264300 -0.964400 0.000000
vn 0.266100 -0.926500 0.266100
vn 0.000000 -0.964400 0.264300
vn -0.266100 -0.926500 0.266100
vn -0.264300 -0.964400 0.000000
vn -0.266100 -0.926500 -0.266100
vn 0.000000 0.490900 0.871200
vn -0.296900 0.492300 0.818200
vn -0.312300 0.421400 0.851400
vn 0.000000 0.417700 0.908600
vn -0.613500 0.497100 0.613500
vn -0.639100 0.427700 0.639100
vn 0.312300 0.421400 0.851400
vn 0.296900 0.492300 0.818200
vn 0.639100 0.427700 0.639100
vn 0.613500 0.497100 0.613500
vn 0.290900 0.549700 0.783100
vn 0.000000 0.550100 0.835100
vn 0.352400 0.608900 0.710600
vn 0.000000 0.615600 0.788000
vn 0.590500 0.550100 0.590500
vn 0.571800 0.588300 0.571800
vn -0.290900 0.549700 0.783100
vn -0.590500 0.550100 0.590500
vn -0.352400 0.608900 0.710600
vn -0.571800 0.588300 0.571800
vn 0.000000 1.000000 0.000000
vn 0.000000 0.807900 -0.589300
vn -0.502500 0.703500 -0.502500
vn -0.589300 0.807900 0.000000
vn -0.710600 0.608900 -0.352400
vn -0.788000 0.615600 0.000000
vn 0.000000 0.615600 -0.788000
vn -0.352400 0.608900 -0.710600
vn -0.571800 0.588300 -0.571800
vn -0.502500 0.703500 0.502500
vn 0.000000 0.807900 0.589300
vn -0.710600 0.608900 0.352400
vn 0.502500 0.703500 0.502500
vn 0.589300 0.807900 0.000000
vn 0.710600 0.608900 0.352400
vn 0.788000 0.615600 0.000000
vn 0.502500 0.703500 -0.502500
vn 0.352400 0.608900 -0.710600
vn 0.710600 0.608900 -0.352400
vn 0.571800 0.588300 -0.571800
vn -0.871200 0.490900 0.000000
vn -0.818200 0.492300 -0.296900
vn -0.851400 0.421400 -0.312300
vn -0.908600 0.417700 0.000000
vn -0.613500 0.497100 -0.613500
vn -0.639100 0.427700 -0.639100
vn -0.851400 0.421400 0.312300
vn -0.818200 0.492300 0.296900
vn -0.783100 0.549700 0.290900
vn -0.835100 0.550100 0.000000
vn -0.783100 0.549700 -0.290900
vn -0.590500 0.550100 -0.590500
vn 0.871200 0.490900 0.000000
vn 0.818200 0.492300 0.296900
vn 0.851400 0.421400 0.312300
vn 0.908600 0.417700 0.000000
vn 0.851400 0.421400 -0.312300
vn 0.818200 0.492300 -0.296900
vn 0.639100 0.427700 -0.639100
vn 0.613500 0.497100 -0.613500
vn 0.783100 0.549700 -0.290900
vn 0.835100 0.550100 0.000000
vn 0.590500 0.550100 -0.590500
vn 0.783100 0.549700 0.290900
vn 0.000000 0.490900 -0.871200
vn 0.296900 0.492300 -0.818200
vn 0.312300 0.421400 -0.851400
vn 0.000000 0.417700 -0.908600
vn -0.312300 0.421400 -0.851400
vn -0.296900 0.492300 -0.818200
vn -0.290900 0.549700 -0.783100
vn 0.000000 0.550100 -0.835100
vn 0.290900 0.549700 -0.783100
usemtl Light
s 1
f 1//1 5//2 6//3 2//4
f 2//4 6//3 94//5 95//6
f 5//2 92//7 93//8 6//3
f 6//3 93//8 152//9 94//5
f 1//1 2//4 7//10 3//11
f 3//11 7//10 97//12 98//13
f 2//4 95//6 96//14 7//10
f 7//10 96//14 154//15 97//12
f 1//1 3//11 8//16 4//17
f 4//17 8//16 100//18 101//19
f 3//11 98//13 99//20 8//16
f 8//16 99//20 153//21 100//18
f 1//1 4//17 9//22 5//2
f 5//2 9//22 91//23 92//7
f 4//17 101//19 102//24 9//22
f 9//22 102//24 151//25 91//23
f 10//26 14//27 15//28 11//29
f 11//29 15//28 103//30 104//31
f 14//27 98//13 97//12 15//28
f 15//28 97//12 154//15 103//30
f 10//26 11//29 16//32 12//33
f 12//33 16//32 106//34 107//35
f 11//29 104//31 105//36 16//32
f 16//32 105//36 158//37 106//34
f 10//26 12//33 17//38 13//39
f 13//39 17//38 109//40 110//41
f 12//33 107//35 108//42 17//38
f 17//38 108//42 157//43 109//40
f 10//26 13//39 18//44 14//27
f 14//27 18//44 99//20 98//13
f 13//39 110//41 111//45 18//44
f 18//44 111//45 153//21 99//20
f 19//46 23//47 24//48 20//49
f 20//49 24//48 112//50 113//51
f 23//47 107//35 106//34 24//48
f 24//48 106//34 158//37 112//50
f 19//46 20//49 25//52 21//53
f 21//53 25//52 115//54 116//55
f 20//49 113//51 114//56 25//52
f 25//52 114//56 156//57 115//54
f 19//46 21//53 26//58 22//59
f 22//59 26//58 118//60 119//61
f 21//53 116//55 117//62 26//58
f 26//58 117//62 155//63 118//60
f 19//46 22//59 27//64 23//47
f 23//47 27//64 108//42 107//35
f 22//59 119//61 120//65 27//64
f 27//64 120//65 157//43 108//42
f 28//66 32//67 33//68 29//69
f 29//69 33//68 121//70 122//71
f 32//67 116//55 115//54 33//68
f 33//68 115//54 156//57 121//70
f 28//66 29//69 34//72 30//73
f 30//73 34//72 93//8 92//7
f 29//69 122//71 123//74 34//72
f 34//72 123//74 152//9 93//8
f 28//66 30//73 35//75 31//76
f 31//76 35//75 124//77 125//78
f 30//73 92//7 91//23 35//75
f 35//75 91//23 151//25 124//77
f 28//66 31//76 36//79 32//67
f 32//67 36//79 117//62 116//55
f 31//76 125//78 126//80 36//79
f 36//79 126//80 155//63 117//62
f 37//81 41//82 42//83 38//84
f 38//84 42//83 102//24 101//19
f 41//82 125//78 124//77 42//83
f 42//83 124//77 151//25 102//24
f 37//81 38//84 43//85 39//86
f 39//86 43//85 111//45 110//41
f 38//84 101//19 100//18 43//85
f 43//85 100//18 153//21 111//45
f 37//81 39//86 44//87 40//88
f 40//88 44//87 120//65 119//61
f 39//86 110//41 109//40 44//87
f 44//87 109//40 157//43 120//65
f 37//81 40//88 45//89 41//82
f 41//82 45//89 126//80 125//78
f 40//88 119//61 118//60 45//89
f 45//89 118//60 155//63 126//80
f 46//90 50//91 51//92 47//93
f 47//93 51//92 105//36 104//31
f 50//91 143//94 144//95 51//92
f 51//92 144//95 158//37 105//36
f 46//90 47//93 52//96 48//97
f 48//97 52//96 139//98 140//99
f 47//93 104//31 103//30 52//96
f 52//96 103//30 154//15 139//98
f 46//90 48//97 53//100 49//101
f 49//101 53//100 130//102 131//103
f 48//97 140//99 141//104 53//100
f 53//100 141//104 160//105 130//102
f 46//90 49//101 54//106 50//91
f 50//91 54//106 142//107 143//94
f 49//101 131//103 132//108 54//106
f 54//106 132//108 162//109 142//107
f 55//110 59//111 60//112 56//113
f 56//113 60//112 135//114 134//115
f 59//111 137//116 136//117 60//112
f 60//112 136//117 161//118 135//114
f 55//110 56//113 61//119 57//120
f 57//120 61//119 132//108 131//103
f 56//113 134//115 133//121 61//119
f 61//119 133//121 162//109 132//108
f 55//110 57//120 62//122 58//123
f 58//123 62//122 129//124 128//125
f 57//120 131//103 130//102 62//122
f 62//122 130//102 160//105 129//124
f 55//110 58//123 63//126 59//111
f 59//111 63//126 138//127 137//116
f 58//123 128//125 127//128 63//126
f 63//126 127//128 159//129 138//127
f 64//130 68//131 69//132 65//133
f 65//133 69//132 114//56 113//51
f 68//131 146//134 147//135 69//132
f 69//132 147//135 156//57 114//56
f 64//130 65//133 70//136 66//137
f 66//137 70//136 144//95 143//94
f 65//133 113//51 112//50 70//136
f 70//136 112//50 158//37 144//95
f 64//130 66//137 71//138 67//139
f 67//139 71//138 133//121 134//115
f 66//137 143//94 142//107 71//138
f 71//138 142//107 162//109 133//121
f 64//130 67//139 72//140 68//131
f 68//131 72//140 145//141 146//134
f 67//139 134//115 135//114 72//140
f 72//140 135//114 161//118 145//141
f 73//142 77//143 78//144 74//145
f 74//145 78//144 96//14 95//6
f 77//143 140//99 139//98 78//144
f 78//144 139//98 154//15 96//14
f 73//142 74//145 79//146 75//147
f 75//147 79//146 148//148 149//149
f 74//145 95//6 94//5 79//146
f 79//146 94//5 152//9 148//148
f 73//142 75//147 80//150 76//151
f 76//151 80//150 127//128 128//125
f 75//147 149//149 150//152 80//150
f 80//150 150//152 159//129 127//128
f 73//142 76//151 81//153 77//143
f 77//143 81//153 141//104 140//99
f 76//151 128//125 129//124 81//153
f 81//153 129//124 160//105 141//104
f 82//154 86//155 87//156 83//157
f 83//157 87//156 123//74 122//71
f 86//155 149//149 148//148 87//156
f 87//156 148//148 152//9 123//74
f 82//154 83//157 88//158 84//159
f 84//159 88//158 147//135 146//134
f 83//157 122//71 121//70 88//158
f 88//158 121//70 156//57 147//135
f 82//154 84//159 89//160 85//161
f 85//161 89//160 136//117 137//116
f 84//159 146//134 145//141 89//160
f 89//160 145//141 161//118 136//117
f 82//154 85//161 90//162 86//155
f 86//155 90//162 150//152 149//149
f 85//161 137//116 138//127 90//162
f 90//162 138//127 159//129 150//152
