# Blender v2.76 (sub 0) OBJ File: 'dizzy-z-scene-01.blend'
# www.blender.org
mtllib meteorite.mtl
o Cube.003_Cube.084
v 0.547607 0.211919 -0.294772
v 0.533574 0.221759 0.143948
v 0.447874 -0.271901 0.216508
v 0.631543 -0.251646 -0.193833
v 0.321025 0.131381 0.808557
v -0.077745 0.322231 0.677771
v -0.127862 -0.332075 0.750949
v 0.224596 -0.215039 0.743199
v -0.565229 0.364231 0.278327
v -0.532958 0.245170 -0.282514
v -0.632532 -0.233138 -0.489305
v -0.600608 -0.230780 0.306506
v -0.174947 0.211485 -0.726820
v 0.197696 0.203453 -0.750903
v 0.237196 -0.257694 -0.659376
v -0.216376 -0.333663 -0.823851
v 0.339622 -0.696825 -0.427885
v 0.277134 -0.592950 0.278125
v -0.124756 -0.570235 0.348025
v -0.129656 -0.589276 -0.400600
v -0.192269 0.598664 -0.243358
v -0.006996 0.437482 0.356023
v 0.395289 0.615459 0.333075
v 0.331790 0.493189 -0.324998
v 0.569382 0.254328 -0.145258
v 0.513689 0.009243 0.320803
v 0.675341 -0.248624 -0.001114
v 0.615859 0.080603 -0.388696
v 0.041208 0.277984 0.772076
v -0.286744 -0.015139 0.743186
v 0.010361 -0.228279 0.777583
v 0.279959 -0.021367 0.691294
v -0.739975 0.186320 0.024884
v -0.730785 0.116527 -0.237170
v -0.689137 -0.276484 -0.029474
v -0.650569 0.086991 0.395782
v 0.011119 0.204786 -0.802153
v 0.307672 -0.044145 -0.800135
v 0.018625 -0.280982 -0.852802
v -0.211471 0.006675 -0.782315
v 0.318274 -0.651339 0.115109
v 0.080638 -0.729495 0.332374
v -0.295087 -0.874075 -0.076415
v -0.044067 -0.704730 -0.243630
v -0.274309 0.765458 -0.078385
v 0.063575 0.749626 0.319318
v 0.582389 0.638267 0.056025
v 0.199630 0.769750 -0.378248
v 0.375718 -0.161805 -0.569933
v 0.269563 0.232925 -0.582868
v 0.529095 0.429108 -0.390767
v 0.620691 0.517139 0.328843
v 0.319894 0.067837 0.483149
v 0.258765 -0.225548 0.557940
v 0.576829 -0.451202 0.461705
v 0.590667 -0.322736 -0.410803
v 0.257166 0.383628 0.546049
v -0.039675 0.415000 0.605784
v -0.349041 0.205537 0.574799
v -0.373882 -0.289202 0.513029
v -0.185992 -0.481934 0.472171
v 0.117954 -0.278631 0.631037
v -0.516459 0.424733 0.289627
v -0.475540 0.322094 -0.279894
v -0.488008 0.247036 -0.633411
v -0.319456 -0.212051 -0.504593
v -0.501531 -0.500140 -0.253110
v -0.555186 -0.516275 0.388418
v -0.161963 0.457078 -0.504939
v 0.172617 0.378159 -0.460330
v 0.157926 -0.483516 -0.495436
v -0.192285 -0.558080 -0.677951
v 0.492088 -0.009838 0.035697
v -0.014165 0.018993 0.767891
v -0.722646 0.142066 -0.020557
v 0.014975 -0.003161 -0.693532
v 0.229683 -0.965983 0.005314
v 0.229321 0.995262 0.070747
v 0.461547 0.014788 -0.681980
v 0.737167 0.481146 0.078467
v 0.347275 -0.067331 0.476571
v 0.749532 -0.473105 -0.004394
v -0.108701 0.480113 0.690837
v -0.433790 0.025018 0.623925
v 0.104679 -0.512468 0.553033
v -0.360461 0.557029 -0.083210
v -0.419549 -0.051325 -0.553788
v -0.726020 -0.558502 -0.149831
v 0.040813 0.460650 -0.660079
v -0.040491 -0.435015 -0.551898
v 0.392908 -0.344324 -0.502506
v 0.357174 0.287313 -0.316768
v 0.362150 -0.343266 0.519310
v 0.444584 0.282356 0.488240
v -0.357642 -0.362175 -0.433156
v -0.281349 0.362759 -0.542808
v -0.361264 -0.377204 0.349509
v -0.232693 0.324797 0.426459
v -0.129656 -0.589276 -0.400600
vt 0.659358 0.785069
vt 0.618947 0.786516
vt 0.600391 0.691367
vt 0.703947 0.768221
vt 0.767094 0.183651
vt 0.735683 0.141567
vt 0.777406 0.048255
vt 0.851039 0.099506
vt 0.824569 0.180327
vt 0.810805 0.195593
vt 0.460605 0.886476
vt 0.510919 0.850220
vt 0.510919 0.999517
vt 0.457977 0.924502
vt 0.548644 0.748503
vt 0.529307 0.675202
vt 0.549164 0.850221
vt 0.473758 0.822174
vt 0.449186 0.722759
vt 0.466826 0.649747
vt 0.487091 0.618794
vt 0.584211 0.601390
vt 0.653007 0.657620
vt 0.479337 0.558211
vt 0.590748 0.850220
vt 0.590748 0.940188
vt 0.562168 0.901132
vt 0.510919 0.855155
vt 0.555619 0.551722
vt 0.687028 0.609570
vt 0.697559 0.667059
vt 0.353797 0.648272
vt 0.369300 0.701409
vt 0.308350 0.711428
vt 0.320075 0.588833
vt 0.333617 0.526802
vt 0.369300 0.511485
vt 0.024530 0.701712
vt 0.115277 0.806022
vt 0.086379 0.868008
vt 0.012577 0.812021
vt 0.124198 0.886481
vt 0.124198 0.983094
vt 0.079408 0.972083
vt 0.070564 0.883087
vt 0.378750 0.638933
vt 0.423138 0.603227
vt 0.407831 0.718206
vt 0.386167 0.220316
vt 0.476846 0.161560
vt 0.522695 0.232517
vt 0.458391 0.247923
vt 0.502830 0.257050
vt 0.490130 0.376422
vt 0.441016 0.312496
vt 0.331888 0.724455
vt 0.327848 0.711429
vt 0.373442 0.744110
vt 0.341308 0.761069
vt 0.520479 0.224099
vt 0.580350 0.269916
vt 0.558394 0.331313
vt 0.544030 0.390462
vt 0.426493 0.407477
vt 0.408108 0.358511
vt 0.801544 0.465934
vt 0.865321 0.407477
vt 0.914591 0.428295
vt 0.884523 0.514703
vt 0.884358 0.571219
vt 0.823134 0.561846
vt 0.737103 0.549329
vt 0.768640 0.440641
vt 0.378750 0.306740
vt 0.400247 0.251033
vt 0.429594 0.540494
vt 0.405892 0.504261
vt 0.503457 0.462163
vt 0.456695 0.518517
vt 0.511362 0.545128
vt 0.672500 0.321892
vt 0.734455 0.375757
vt 0.735683 0.377420
vt 0.634206 0.406405
vt 0.668210 0.299887
vt 0.729295 0.209292
vt 0.252637 0.294271
vt 0.259706 0.235816
vt 0.308412 0.209417
vt 0.327121 0.211606
vt 0.330235 0.357648
vt 0.260608 0.318581
vt 0.008280 0.883087
vt 0.030562 0.897651
vt 0.070564 0.959530
vt 0.000000 0.959530
vt 0.175361 0.353494
vt 0.134472 0.274208
vt 0.137982 0.198142
vt 0.232064 0.110651
vt 0.107530 0.236796
vt 0.457977 0.959539
vt 0.378750 0.959539
vt 0.402952 0.916324
vt 0.444719 0.850220
vt 0.128909 0.108588
vt 0.162639 0.055896
vt 0.301167 0.078746
vt 0.378750 0.138530
vt 0.265213 0.000000
vt 0.961489 0.552984
vt 0.926832 0.586853
vt 0.990209 0.471238
vt 0.218039 0.924913
vt 0.189921 0.891057
vt 0.251631 0.883087
vt 0.251631 0.954605
vt 0.118989 0.390233
vt 0.076183 0.344564
vt 0.665073 0.943526
vt 0.590748 0.943526
vt 0.617849 0.884529
vt 0.628307 0.850220
vt 0.205742 0.417901
vt 0.154021 0.462919
vt 0.083807 0.418703
vt 0.124198 0.921129
vt 0.189921 0.883087
vt 0.189921 0.954839
vt 0.128584 0.933604
vt 0.872378 0.048374
vt 0.918917 0.025316
vt 0.944417 0.106174
vt 0.889763 0.149521
vt 0.810512 0.000000
vt 0.834671 0.919668
vt 0.808165 0.834544
vt 0.896492 0.840713
vt 0.850364 0.898356
vt 0.168437 0.807324
vt 0.142273 0.883087
vt 0.123579 0.755098
vt 0.195810 0.723502
vt 0.245476 0.743629
vt 0.243990 0.846469
vt 0.816687 0.784810
vt 0.896492 0.768877
vt 0.305019 0.826140
vt 0.308350 0.748376
vt 0.010122 0.266368
vt 0.000000 0.190702
vt 0.100654 0.184839
vt 0.166499 0.668950
vt 0.114078 0.546415
vt 0.179773 0.511485
vt 0.244592 0.617664
vt 0.063289 0.739867
vt 0.000000 0.615323
vt 0.594748 0.488463
vt 0.582574 0.420792
vt 0.703947 0.407477
vt 0.645384 0.492752
vt 0.801520 0.922308
vt 0.808165 0.973216
vt 0.710420 1.000000
vt 0.703947 0.878704
vt 0.755498 0.826668
vt 0.808165 0.768877
vt 0.807490 0.609054
vt 0.858106 0.768877
vt 0.703947 0.768877
vt 0.742029 0.643845
vt 1.000000 0.725311
vt 0.269032 0.676403
vt 0.308350 0.541461
vt 0.046351 0.146287
vt 0.081808 0.009294
vt 0.287350 0.409417
vt 0.358200 0.416979
vt 0.378750 0.500702
vt 0.249705 0.511485
vt 0.193570 0.388594
vt 0.566881 0.192456
vt 0.595460 0.110462
vt 0.642321 0.004536
vt 0.735683 0.148452
vt 0.308350 0.824775
vt 0.373442 0.894685
vt 0.519984 0.067275
vt 0.544731 0.000000
vt 0.444511 0.137118
vt 0.470631 0.038305
vt 0.831640 0.401146
vt 0.763843 0.395951
vt 0.744736 0.333634
vt 0.806762 0.346126
vt 0.863296 0.211937
vt 0.940505 0.238339
vt 0.944417 0.390890
vn 0.916800 0.220700 -0.332800
vn 0.975900 -0.215600 -0.033900
vn 0.981100 0.058700 0.184200
vn 0.927400 0.200100 -0.316000
vn 0.773200 0.093700 -0.627100
vn 0.570700 0.660500 -0.488000
vn 0.335500 0.339200 -0.878800
vn 0.598800 0.362500 -0.714200
vn 0.977100 0.210700 0.027800
vn 0.914900 -0.335700 0.223800
vn 0.856600 0.062800 0.512100
vn 0.793000 0.268100 0.547000
vn 0.821400 -0.047200 0.568300
vn 0.910200 0.017600 0.413800
vn 0.874500 -0.124300 0.468700
vn 0.830800 0.320000 0.455300
vn 0.906300 0.384500 0.175500
vn 0.821500 -0.245100 0.514900
vn 0.509500 -0.085600 0.856200
vn 0.682800 -0.216500 0.697700
vn 0.957100 -0.280300 0.073200
vn 0.951400 0.233500 -0.200500
vn 0.772500 -0.124300 -0.622700
vn 0.489900 -0.181700 -0.852600
vn 0.701900 -0.382300 -0.601000
vn 0.573900 0.062300 0.816500
vn -0.020800 0.329100 0.944100
vn -0.075300 0.024600 0.996900
vn 0.739400 -0.175800 0.649900
vn 0.490800 0.516600 0.701600
vn -0.610900 0.507400 0.607800
vn -0.697700 0.337700 0.631700
vn -0.486000 0.038400 0.873100
vn -0.922700 0.360200 0.137600
vn -0.349200 0.798600 0.490100
vn -0.489300 0.566900 0.662700
vn -0.666100 0.066300 0.742900
vn -0.304300 -0.529000 0.792100
vn 0.134000 -0.276800 0.951500
vn -0.617500 -0.449700 0.645300
vn -0.373400 -0.392000 0.840700
vn -0.349300 -0.625900 0.697300
vn 0.303800 -0.669900 0.677400
vn 0.591900 -0.274800 0.757700
vn 0.487400 -0.592500 0.641300
vn -0.686300 0.636900 0.351100
vn -0.855000 0.517500 0.034700
vn -0.960100 0.279500 -0.005900
vn -0.849500 0.085300 0.520500
vn -0.455200 0.793800 0.403300
vn -0.654300 0.745400 -0.127200
vn -0.754400 0.558900 -0.344100
vn -0.920200 0.219800 -0.324000
vn -0.638700 0.701700 -0.315800
vn -0.402300 0.765500 -0.502100
vn -0.655300 0.425300 -0.624200
vn -0.681300 0.027200 -0.731500
vn -0.643700 -0.197900 -0.739200
vn -0.990700 -0.132000 0.031800
vn -0.721700 -0.221100 -0.655900
vn -0.558200 -0.576100 -0.597100
vn -0.523500 -0.528600 -0.668200
vn -0.828500 -0.535400 -0.164000
vn -0.848400 -0.190100 0.494000
vn -0.574400 -0.464700 0.673800
vn -0.315000 0.285600 -0.905100
vn 0.011000 0.242200 -0.970200
vn 0.034600 0.006900 -0.999400
vn -0.366500 -0.011700 -0.930300
vn -0.462100 0.702400 -0.541400
vn 0.086700 0.643400 -0.760600
vn 0.415700 0.404000 -0.814800
vn 0.457400 -0.062900 -0.887000
vn 0.654400 0.377500 -0.655100
vn 0.416400 -0.504300 -0.756500
vn 0.278800 -0.270500 -0.921400
vn 0.117500 -0.605300 -0.787200
vn 0.306900 -0.752900 -0.582200
vn -0.359100 -0.326200 -0.874400
vn -0.237000 -0.762500 -0.601900
vn 0.356600 -0.699700 -0.619100
vn 0.588400 -0.791700 0.164200
vn 0.278700 -0.958400 0.061000
vn 0.120900 -0.758000 -0.640900
vn 0.494400 -0.687900 0.531300
vn 0.138700 -0.732800 0.666100
vn -0.333200 -0.698900 0.632800
vn -0.327600 -0.932100 -0.154600
vn 0.429300 -0.749300 -0.504200
vn -0.534800 -0.651800 -0.537600
vn -0.512600 0.694700 -0.504600
vn -0.568100 0.821900 -0.040500
vn 0.163700 0.980400 0.109700
vn 0.251300 0.690100 -0.678600
vn -0.719900 0.631900 0.286900
vn -0.231100 0.699600 0.676100
vn 0.418300 0.621800 0.662000
vn 0.604100 0.796300 -0.032000
vn 0.579400 0.358300 -0.732000
usemtl MarsGround
s 1
f 1/1/1 25/2/2 73/3/3 28/4/4
f 1/5/1 28/6/4 79/7/5 50/8/6
f 1/5/1 50/8/6 92/9/7 51/10/8
f 1/11/1 51/12/8 80/13/9 25/14/2
f 2/15/10 26/16/11 73/3/3 25/2/2
f 2/15/10 25/2/2 80/17/9 52/18/12
f 2/15/10 52/18/12 94/19/13 53/20/14
f 2/15/10 53/20/14 81/21/15 26/16/11
f 3/22/16 27/23/17 73/3/3 26/16/11
f 3/22/16 26/16/11 81/21/15 54/24/18
f 3/25/16 54/26/18 93/27/19 55/28/20
f 3/22/16 55/29/20 82/30/21 27/23/17
f 4/31/22 28/4/4 73/3/3 27/23/17
f 4/32/22 27/33/17 82/34/21 56/35/23
f 4/32/22 56/35/23 91/36/24 49/37/25
f 4/38/22 49/39/25 79/40/5 28/41/4
f 5/42/26 29/43/27 74/44/28 32/45/29
f 5/46/26 32/47/29 81/21/15 53/20/14
f 5/46/26 53/20/14 94/19/13 57/48/30
f 5/49/26 57/50/30 83/51/31 29/52/27
f 6/53/32 30/54/33 74/55/28 29/52/27
f 6/56/32 29/57/27 83/58/31 58/59/34
f 6/53/32 58/60/34 98/61/35 59/62/36
f 6/53/32 59/62/36 84/63/37 30/54/33
f 7/64/38 31/65/39 74/55/28 30/54/33
f 7/66/38 30/67/33 84/68/37 60/69/40
f 7/66/38 60/69/40 97/70/41 61/71/42
f 7/66/38 61/71/42 85/72/43 31/73/39
f 8/74/44 32/75/29 74/55/28 31/65/39
f 8/76/44 31/77/39 85/78/43 62/79/45
f 8/76/44 62/79/45 93/80/19 54/24/18
f 8/76/44 54/24/18 81/21/15 32/47/29
f 9/81/46 33/82/47 75/83/48 36/84/49
f 9/81/46 36/84/49 84/63/37 59/62/36
f 9/81/46 59/62/36 98/61/35 63/85/50
f 9/81/46 63/85/50 86/86/51 33/82/47
f 10/87/52 34/88/53 75/89/48 33/90/47
f 10/87/52 33/90/47 86/91/51 64/92/54
f 10/93/52 64/94/54 96/95/55 65/96/56
f 10/87/52 65/97/56 87/98/57 34/88/53
f 11/99/58 35/100/59 75/89/48 34/88/53
f 11/99/58 34/88/53 87/98/57 66/101/60
f 11/102/58 66/103/60 95/104/61 67/105/62
f 11/99/58 67/106/62 88/107/63 35/100/59
f 12/108/64 36/109/49 75/89/48 35/100/59
f 12/108/64 35/100/59 88/107/63 68/110/65
f 12/111/64 68/112/65 97/70/41 60/69/40
f 12/111/64 60/69/40 84/68/37 36/113/49
f 13/114/66 37/115/67 76/116/68 40/117/69
f 13/118/66 40/119/69 87/98/57 65/97/56
f 13/120/66 65/121/56 96/122/55 69/123/70
f 13/118/66 69/124/70 89/125/71 37/126/67
f 14/127/72 38/128/73 76/129/68 37/130/67
f 14/131/72 37/132/67 89/133/71 70/134/74
f 14/131/72 70/134/74 92/9/7 50/8/6
f 14/131/72 50/8/6 79/7/5 38/135/73
f 15/136/75 39/137/76 76/138/68 38/139/73
f 15/140/75 38/141/73 79/40/5 49/39/25
f 15/140/75 49/39/25 91/142/24 71/143/77
f 15/140/75 71/143/77 90/144/78 39/145/76
f 16/146/79 40/147/69 76/138/68 39/137/76
f 16/148/79 39/145/76 90/144/78 72/149/80
f 16/150/79 72/151/80 95/152/61 66/101/60
f 16/150/79 66/101/60 87/98/57 40/119/69
f 17/153/81 41/154/82 77/155/83 44/156/84
f 17/153/81 44/156/84 90/144/78 71/143/77
f 17/153/81 71/143/77 91/142/24 56/157/23
f 17/153/81 56/157/23 82/158/21 41/154/82
f 18/159/85 42/160/86 77/161/83 41/162/82
f 18/163/85 41/164/82 82/165/21 55/166/20
f 18/163/85 55/166/20 93/167/19 62/168/45
f 18/159/85 62/79/45 85/78/43 42/160/86
f 19/169/87 43/170/88 77/171/83 42/172/86
f 19/169/87 42/172/86 85/72/43 61/71/42
f 19/169/87 61/71/42 97/70/41 68/112/65
f 19/169/87 68/112/65 88/173/63 43/170/88
f 20/174/89 44/156/84 77/155/83 43/175/88
f 99/176/90 43/177/88 88/107/63 67/106/62
f 99/176/90 67/106/62 95/152/61 72/151/80
f 20/174/89 72/149/80 90/144/78 44/156/84
f 21/178/91 45/179/92 78/180/93 48/181/94
f 21/178/91 48/181/94 89/125/71 69/124/70
f 21/178/91 69/124/70 96/182/55 64/92/54
f 21/178/91 64/92/54 86/91/51 45/179/92
f 22/183/95 46/184/96 78/185/93 45/186/92
f 22/183/95 45/186/92 86/86/51 63/85/50
f 22/183/95 63/85/50 98/61/35 58/60/34
f 22/187/95 58/59/34 83/58/31 46/188/96
f 23/189/97 47/190/98 78/185/93 46/184/96
f 23/189/97 46/184/96 83/51/31 57/50/30
f 23/189/97 57/50/30 94/191/13 52/192/12
f 23/193/97 52/194/12 80/195/9 47/196/98
f 24/197/99 48/198/94 78/199/93 47/196/98
f 24/197/99 47/196/98 80/195/9 51/10/8
f 24/197/99 51/10/8 92/9/7 70/134/74
f 24/197/99 70/134/74 89/133/71 48/198/94
