# Blender v2.76 (sub 0) OBJ File: 'dizzy-z-scene-01.blend'
# www.blender.org
mtllib meteorite.mtl
o Cube.004_Cube.085
v 0.552778 0.273311 -0.285562
v 0.538746 0.283150 0.134739
v 0.602791 -0.339056 0.207299
v 0.786461 -0.318801 -0.184623
v 0.343156 0.190704 0.787003
v -0.152860 0.369788 0.656217
v -0.187929 -0.382092 0.729395
v 0.295399 -0.257296 0.721645
v -0.675917 0.371802 0.269118
v -0.643646 0.252741 -0.273304
v -0.731112 -0.337030 -0.480096
v -0.699187 -0.334671 0.297297
v -0.250063 0.259042 -0.705267
v 0.219827 0.262777 -0.729349
v 0.307999 -0.299951 -0.637822
v -0.276443 -0.383679 -0.802297
v 0.360088 -0.710942 -0.418675
v 0.297600 -0.607067 0.268916
v -0.202783 -0.610730 0.338816
v -0.207683 -0.629772 -0.391390
v -0.305969 0.728773 -0.234148
v -0.120695 0.567591 0.346813
v 0.255582 0.762771 0.323866
v 0.192083 0.640501 -0.315788
v 0.490481 0.306973 -0.145258
v 0.682286 -0.005074 0.310907
v 0.759621 -0.321721 -0.001114
v 0.784456 0.066285 -0.378800
v 0.018151 0.334884 0.748955
v -0.350057 -0.023887 0.720064
v 0.006598 -0.263478 0.754461
v 0.340983 -0.020848 0.668173
v -0.772686 0.162234 0.024884
v -0.822460 0.039686 -0.227275
v -0.737870 -0.395315 -0.029474
v -0.742244 0.010150 0.385886
v -0.011938 0.261686 -0.779031
v 0.368696 -0.043626 -0.777014
v 0.014862 -0.316181 -0.829681
v -0.274784 -0.002073 -0.759194
v 0.301381 -0.587734 0.115108
v 0.037921 -0.669154 0.322479
v -0.379440 -0.846102 -0.076415
v -0.086785 -0.644389 -0.233735
v -0.387265 0.854324 -0.078385
v -0.068707 0.851079 0.309423
v 0.353756 0.766381 0.056025
v 0.067348 0.871203 -0.368352
v 0.521554 -0.216290 -0.553033
v 0.320505 0.293753 -0.565968
v 0.373885 0.559310 -0.382243
v 0.465481 0.647341 0.320320
v 0.370836 0.128665 0.466249
v 0.404601 -0.280032 0.541040
v 0.603621 -0.533135 0.453182
v 0.617460 -0.404670 -0.402280
v 0.216473 0.517901 0.529149
v -0.138368 0.533518 0.588884
v -0.481058 0.241477 0.557899
v -0.482612 -0.365347 0.496129
v -0.251399 -0.554226 0.455271
v 0.184664 -0.342271 0.614137
v -0.582982 0.498942 0.281103
v -0.542064 0.396303 -0.271370
v -0.620024 0.282976 -0.616511
v -0.428186 -0.288196 -0.487693
v -0.549898 -0.561142 -0.244587
v -0.603552 -0.577277 0.379894
v -0.260655 0.575596 -0.488039
v 0.131924 0.512433 -0.443430
v 0.224635 -0.547156 -0.478536
v -0.257692 -0.630372 -0.661050
v 0.665141 -0.028285 0.035697
v -0.018004 0.018897 0.743104
v -0.730004 0.028869 -0.020557
v 0.011136 -0.003258 -0.668745
v 0.145894 -0.729508 0.005314
v 0.053589 1.000484 0.070747
v 0.591829 0.008110 -0.663831
v 0.458327 0.598754 0.078467
v 0.477558 -0.074010 0.458421
v 0.660597 -0.553473 -0.004394
v -0.174226 0.608175 0.672687
v -0.555380 -0.007197 0.605775
v 0.094276 -0.566974 0.534884
v -0.348394 0.594616 -0.083210
v -0.541139 -0.083540 -0.535639
v -0.719646 -0.575541 -0.149831
v -0.024712 0.588711 -0.641930
v -0.050893 -0.489521 -0.533748
v 0.514798 -0.418214 -0.488136
v 0.333246 0.408734 -0.302399
v 0.484040 -0.417157 0.504941
v 0.420656 0.403777 0.473871
v -0.450802 -0.453159 -0.418787
v -0.404949 0.455110 -0.528439
v -0.454424 -0.468188 0.335140
v -0.356293 0.417147 0.412090
vt 0.248453 0.169530
vt 0.178815 0.214601
vt 0.130119 0.139489
vt 0.209834 0.098326
vt 0.288755 0.072379
vt 0.315911 0.137000
vt 0.327693 0.195616
vt 0.288281 0.237953
vt 0.227400 0.285310
vt 0.112840 0.255463
vt 0.064122 0.190659
vt 0.162766 0.317487
vt 0.116098 0.329696
vt 0.067047 0.294697
vt 0.021496 0.241732
vt 0.034142 0.126286
vt 0.091438 0.072720
vt 0.000000 0.181289
vt 0.719808 0.406641
vt 0.678642 0.452334
vt 0.652623 0.409478
vt 0.673555 0.362678
vt 0.022195 0.080503
vt 0.072948 0.026789
vt 0.169755 0.040353
vt 0.147709 0.000969
vt 0.213158 0.000000
vt 0.248865 0.023592
vt 0.664848 0.615202
vt 0.606207 0.648760
vt 0.574558 0.585810
vt 0.641516 0.553789
vt 0.702156 0.514765
vt 0.715007 0.577821
vt 0.719808 0.625280
vt 0.689973 0.667326
vt 0.638272 0.703405
vt 0.541583 0.666094
vt 0.506221 0.609488
vt 0.140413 0.688451
vt 0.073326 0.693198
vt 0.055241 0.626557
vt 0.118145 0.625916
vt 0.174538 0.617176
vt 0.209331 0.657886
vt 0.482546 0.674673
vt 0.441498 0.621870
vt 0.480651 0.543083
vt 0.547015 0.518322
vt 0.419324 0.556011
vt 0.416991 0.501227
vt 0.459005 0.477038
vt 0.526007 0.447998
vt 0.616360 0.488528
vt 0.599028 0.422623
vt 0.253178 0.909206
vt 0.180122 0.928659
vt 0.174807 0.845935
vt 0.253534 0.832259
vt 0.261597 0.596668
vt 0.308395 0.631144
vt 0.245196 0.693198
vt 0.195504 0.563049
vt 0.217276 0.490120
vt 0.291756 0.520480
vt 0.096572 0.934703
vt 0.085265 0.859654
vt 0.176258 1.000000
vt 0.099325 1.000000
vt 0.040560 0.984509
vt 0.017920 0.937747
vt 0.001134 0.872161
vt 0.077195 0.781948
vt 0.159296 0.761766
vt 0.000000 0.802668
vt 0.009438 0.751645
vt 0.062670 0.718388
vt 0.136918 0.693198
vt 0.233802 0.756452
vt 0.207614 0.694791
vt 0.373605 0.545304
vt 0.384364 0.473870
vt 0.287389 0.755880
vt 0.309766 0.821915
vt 0.842077 0.132528
vt 0.908723 0.154961
vt 0.880479 0.226724
vt 0.809902 0.197591
vt 0.738803 0.164847
vt 0.777115 0.104860
vt 0.815736 0.060582
vt 0.870438 0.062606
vt 0.933209 0.076683
vt 0.965602 0.179810
vt 0.945479 0.249327
vt 0.983641 0.105715
vt 0.373605 0.132121
vt 0.372132 0.211474
vt 0.351025 0.065484
vt 0.919519 0.308686
vt 0.852053 0.287958
vt 1.000000 0.264316
vt 0.976040 0.322208
vt 0.508165 0.361656
vt 0.435068 0.333094
vt 0.442835 0.300589
vt 0.498621 0.310680
vt 0.576059 0.307372
vt 0.583910 0.362402
vt 0.783549 0.258113
vt 0.825864 0.336984
vt 0.757069 0.304289
vt 0.711548 0.269925
vt 0.716235 0.226144
vt 0.470950 0.240145
vt 0.445013 0.161191
vt 0.543848 0.142626
vt 0.560950 0.229213
vt 0.403793 0.251244
vt 0.373605 0.179380
vt 0.440388 0.084598
vt 0.528112 0.062084
vt 0.375507 0.107281
vt 0.601581 0.362402
vt 0.442536 0.025236
vt 0.515828 0.000830
vt 0.616672 0.054529
vt 0.641011 0.127667
vt 0.591750 0.000000
vt 0.435717 0.425530
vt 0.683262 0.055003
vt 0.711548 0.121824
vt 0.647234 0.210075
vt 0.711548 0.198966
vt 0.693995 0.258146
vt 0.647835 0.285444
vt 0.157133 0.395521
vt 0.135637 0.465003
vt 0.063060 0.450621
vt 0.091934 0.377584
vt 0.878385 0.000000
vt 0.947053 0.008117
vt 0.801176 0.020144
vt 0.230580 0.423535
vt 0.119235 0.546259
vt 0.051214 0.539548
vt 0.000000 0.534278
vt 0.007699 0.452137
vt 0.007157 0.614801
vt 0.200330 0.372838
vt 0.123267 0.369171
vt 0.274553 0.343835
vt 0.335944 0.286904
vt 0.373605 0.312555
vt 0.311121 0.377584
vt 1.000000 0.046173
vn 0.753000 0.635700 -0.170100
vn 0.907400 0.419800 0.015300
vn 0.946000 0.277000 0.168300
vn 0.915900 0.318300 -0.244400
vn 0.684300 0.121200 -0.719000
vn 0.524700 0.649600 -0.550200
vn 0.415100 0.467800 -0.780300
vn 0.620800 0.466100 -0.630300
vn 0.847600 0.516400 -0.122000
vn 0.951100 0.284700 0.119800
vn 0.863300 0.207000 0.460200
vn 0.788800 0.484500 0.378300
vn 0.840100 0.194200 0.506400
vn 0.858300 0.254200 0.445600
vn 0.801000 0.071700 0.594300
vn 0.917100 -0.004800 0.398700
vn 0.977800 -0.124400 0.168800
vn 0.723200 -0.191100 0.663700
vn 0.528000 -0.242100 0.814000
vn 0.634500 -0.509600 0.581000
vn 0.714700 -0.697600 0.049600
vn 0.956700 -0.254400 -0.141300
vn 0.717500 -0.453900 -0.528300
vn 0.450100 -0.349400 -0.821700
vn 0.598700 -0.398700 -0.694600
vn 0.541500 0.142900 0.828500
vn -0.032900 0.254700 0.966400
vn -0.053200 0.013600 0.998500
vn 0.658400 0.018600 0.752400
vn 0.437500 0.560000 0.703500
vn -0.521300 0.485600 0.701700
vn -0.553000 0.247500 0.795500
vn -0.382000 0.026800 0.923700
vn -0.879000 0.294000 0.375300
vn -0.447200 0.687200 0.572400
vn -0.534700 0.429600 0.727700
vn -0.636200 0.018400 0.771300
vn -0.238900 -0.489500 0.838600
vn 0.083700 -0.271200 0.958800
vn -0.550300 -0.448100 0.704500
vn -0.331700 -0.447500 0.830500
vn -0.254800 -0.691000 0.676400
vn 0.238300 -0.768200 0.594200
vn 0.463800 -0.241600 0.852400
vn 0.298300 -0.647500 0.701300
vn -0.811900 0.538900 0.224500
vn -0.935000 0.354300 -0.012700
vn -0.995600 0.066700 0.065700
vn -0.904500 0.019000 0.426000
vn -0.624300 0.727500 0.284500
vn -0.821600 0.565400 0.071900
vn -0.857600 0.485200 -0.170600
vn -0.976500 0.093800 -0.193700
vn -0.743800 0.658300 -0.115800
vn -0.481200 0.678200 -0.555400
vn -0.690600 0.357100 -0.628900
vn -0.656100 0.006100 -0.754600
vn -0.693400 -0.282400 -0.662800
vn -0.969900 -0.238500 0.048600
vn -0.659000 -0.234100 -0.714800
vn -0.514700 -0.645800 -0.563900
vn -0.490800 -0.655900 -0.573400
vn -0.744400 -0.650100 -0.152400
vn -0.883000 -0.237300 0.405000
vn -0.541400 -0.571500 0.616600
vn -0.270600 0.211400 -0.939200
vn 0.021500 0.215000 -0.976300
vn 0.025300 0.011400 -0.999600
vn -0.301400 -0.008700 -0.953400
vn -0.488600 0.633800 -0.599600
vn 0.072300 0.606300 -0.791900
vn 0.357700 0.394300 -0.846500
vn 0.338300 -0.018500 -0.940900
vn 0.606800 0.433300 -0.666300
vn 0.297200 -0.455100 -0.839400
vn 0.221700 -0.265600 -0.938200
vn 0.075100 -0.669600 -0.738900
vn 0.256800 -0.798700 -0.544200
vn -0.326700 -0.312100 -0.892100
vn -0.206000 -0.803600 -0.558300
vn 0.246100 -0.861900 -0.443300
vn 0.302300 -0.951100 0.063300
vn 0.201200 -0.976500 0.077000
vn 0.207800 -0.893200 -0.398800
vn 0.275700 -0.910300 0.308800
vn 0.175700 -0.898400 0.402500
vn -0.161500 -0.843800 0.511700
vn -0.180300 -0.973400 -0.141100
vn 0.069200 -0.912000 -0.404200
vn -0.649000 0.683400 -0.334100
vn -0.651400 0.756100 0.062600
vn 0.112300 0.988000 0.105600
vn 0.254300 0.781900 -0.569200
vn -0.770100 0.572100 0.281900
vn -0.260800 0.772100 0.579500
vn 0.449100 0.730600 0.514400
vn 0.638800 0.766500 -0.067000
vn 0.660600 0.477200 -0.579400
usemtl MarsGround
s 1
f 1/1/1 25/2/2 73/3/3 28/4/4
f 1/1/1 28/4/4 79/5/5 50/6/6
f 1/1/1 50/6/6 92/7/7 51/8/8
f 1/1/1 51/8/8 80/9/9 25/2/2
f 2/10/10 26/11/11 73/3/3 25/2/2
f 2/10/10 25/2/2 80/9/9 52/12/12
f 2/10/10 52/12/12 94/13/13 53/14/14
f 2/10/10 53/14/14 81/15/15 26/11/11
f 3/16/16 27/17/17 73/3/3 26/11/11
f 3/16/16 26/11/11 81/15/15 54/18/18
f 3/19/16 54/20/18 93/21/19 55/22/20
f 3/16/16 55/23/20 82/24/21 27/17/17
f 4/25/22 28/4/4 73/3/3 27/17/17
f 4/25/22 27/17/17 82/24/21 56/26/23
f 4/25/22 56/26/23 91/27/24 49/28/25
f 4/25/22 49/28/25 79/5/5 28/4/4
f 5/29/26 29/30/27 74/31/28 32/32/29
f 5/29/26 32/32/29 81/33/15 53/34/14
f 5/29/26 53/34/14 94/35/13 57/36/30
f 5/29/26 57/36/30 83/37/31 29/30/27
f 6/38/32 30/39/33 74/31/28 29/30/27
f 6/40/32 29/41/27 83/42/31 58/43/34
f 6/40/32 58/43/34 98/44/35 59/45/36
f 6/38/32 59/46/36 84/47/37 30/39/33
f 7/48/38 31/49/39 74/31/28 30/39/33
f 7/48/38 30/39/33 84/47/37 60/50/40
f 7/48/38 60/50/40 97/51/41 61/52/42
f 7/48/38 61/52/42 85/53/43 31/49/39
f 8/54/44 32/32/29 74/31/28 31/49/39
f 8/54/44 31/49/39 85/53/43 62/55/45
f 8/54/44 62/55/45 93/21/19 54/20/18
f 8/54/44 54/20/18 81/33/15 32/32/29
f 9/56/46 33/57/47 75/58/48 36/59/49
f 9/60/46 36/61/49 84/62/37 59/45/36
f 9/60/46 59/45/36 98/44/35 63/63/50
f 9/60/46 63/63/50 86/64/51 33/65/47
f 10/66/52 34/67/53 75/58/48 33/57/47
f 10/66/52 33/57/47 86/68/51 64/69/54
f 10/66/52 64/69/54 96/70/55 65/71/56
f 10/66/52 65/71/56 87/72/57 34/67/53
f 11/73/58 35/74/59 75/58/48 34/67/53
f 11/73/58 34/67/53 87/72/57 66/75/60
f 11/73/58 66/75/60 95/76/61 67/77/62
f 11/73/58 67/77/62 88/78/63 35/74/59
f 12/79/64 36/59/49 75/58/48 35/74/59
f 12/79/64 35/74/59 88/78/63 68/80/65
f 12/81/64 68/82/65 97/51/41 60/50/40
f 12/79/64 60/83/40 84/84/37 36/59/49
f 13/85/66 37/86/67 76/87/68 40/88/69
f 13/85/66 40/88/69 87/89/57 65/90/56
f 13/85/66 65/90/56 96/91/55 69/92/70
f 13/85/66 69/92/70 89/93/71 37/86/67
f 14/94/72 38/95/73 76/87/68 37/86/67
f 14/94/72 37/86/67 89/93/71 70/96/74
f 14/97/72 70/98/74 92/7/7 50/6/6
f 14/97/72 50/6/6 79/5/5 38/99/73
f 15/100/75 39/101/76 76/87/68 38/95/73
f 15/100/75 38/95/73 79/102/5 49/103/25
f 15/104/75 49/105/25 91/106/24 71/107/77
f 15/104/75 71/107/77 90/108/78 39/109/76
f 16/110/79 40/88/69 76/87/68 39/101/76
f 16/110/79 39/101/76 90/111/78 72/112/80
f 16/110/79 72/112/80 95/113/61 66/114/60
f 16/110/79 66/114/60 87/89/57 40/88/69
f 17/115/81 41/116/82 77/117/83 44/118/84
f 17/115/81 44/118/84 90/108/78 71/107/77
f 17/115/81 71/107/77 91/106/24 56/119/23
f 17/115/81 56/119/23 82/120/21 41/116/82
f 18/121/85 42/122/86 77/117/83 41/116/82
f 18/121/85 41/116/82 82/120/21 55/123/20
f 18/124/85 55/22/20 93/21/19 62/55/45
f 18/121/85 62/125/45 85/126/43 42/122/86
f 19/127/87 43/128/88 77/117/83 42/122/86
f 19/127/87 42/122/86 85/126/43 61/129/42
f 19/130/87 61/52/42 97/51/41 68/82/65
f 19/127/87 68/131/65 88/132/63 43/128/88
f 20/133/89 44/118/84 77/117/83 43/128/88
f 20/133/89 43/128/88 88/132/63 67/134/62
f 20/133/89 67/134/62 95/135/61 72/136/80
f 20/133/89 72/136/80 90/108/78 44/118/84
f 21/137/90 45/138/91 78/139/92 48/140/93
f 21/141/90 48/142/93 89/93/71 69/92/70
f 21/141/90 69/92/70 96/91/55 64/143/54
f 21/137/90 64/144/54 86/64/51 45/138/91
f 22/145/94 46/146/95 78/139/92 45/138/91
f 22/145/94 45/138/91 86/64/51 63/63/50
f 22/145/94 63/63/50 98/44/35 58/43/34
f 22/145/94 58/43/34 83/42/31 46/146/95
f 23/147/96 47/148/97 78/139/92 46/146/95
f 23/147/96 46/146/95 83/42/31 57/149/30
f 23/150/96 57/151/30 94/13/13 52/12/12
f 23/150/96 52/12/12 80/9/9 47/152/97
f 24/153/98 48/154/93 78/155/92 47/152/97
f 24/153/98 47/152/97 80/9/9 51/8/8
f 24/153/98 51/8/8 92/7/7 70/98/74
f 24/156/98 70/96/74 89/93/71 48/142/93
