# Blender v2.76 (sub 0) OBJ File: 'dizzy-z-scene-01.blend'
# www.blender.org
mtllib meteorite.mtl
o Cube.005_Cube.086
v 0.808650 0.043699 0.016844
v 0.748500 0.357409 -0.167667
v 0.658166 -0.013709 0.241756
v 0.810908 -0.259462 0.117782
v 0.853203 -0.047630 -0.257619
v 0.822797 0.409106 -0.365059
v 0.798808 0.182548 0.335153
v 0.676940 -0.223987 0.327403
v 0.629633 -0.121569 -0.346805
v 0.003882 -0.011426 0.872928
v -0.020823 0.244305 0.609437
v -0.269285 -0.001542 0.782018
v 0.001488 -0.244142 0.789619
v 0.257983 0.009595 0.765537
v 0.320245 0.226643 0.803699
v -0.237998 0.126868 0.639224
v -0.249688 -0.296940 0.617493
v 0.177777 -0.198978 0.700272
v -0.618176 0.092162 0.036410
v -0.551080 0.342004 -0.088984
v -0.706096 0.027508 -0.268606
v -0.511891 -0.467093 0.044407
v -0.625305 0.130164 0.358324
v -0.629360 0.234072 0.300134
v -0.715769 0.314817 -0.458775
v -0.580161 -0.350966 -0.327535
v -0.600910 -0.229123 0.312403
v 0.109162 0.039525 -0.897702
v 0.042967 0.319879 -0.797404
v 0.203916 -0.028478 -0.826295
v -0.012363 -0.404593 -0.791897
v -0.191087 -0.088888 -0.878186
v -0.298542 0.107494 -0.708879
v 0.188368 0.330339 -0.636112
v 0.254188 -0.360617 -0.763236
v -0.271036 -0.391627 -0.672802
v -0.032813 -0.892852 -0.019799
v 0.354999 -0.740365 -0.017782
v -0.003161 -0.763359 0.266415
v -0.264981 -0.883911 0.000038
v -0.137083 -0.785480 -0.221755
v 0.229196 -0.705620 -0.315964
v 0.177900 -0.739211 0.237102
v -0.369844 -0.688797 0.404707
v -0.374093 -0.824080 -0.391902
v 0.057649 0.836457 -0.015503
v -0.075434 0.644005 0.056025
v 0.174069 0.790006 0.293437
v 0.399963 0.795104 0.001914
v -0.025227 0.747175 -0.347885
v -0.234871 0.641402 -0.415874
v -0.143275 0.729434 0.353950
v 0.288441 0.573793 0.224819
v 0.246769 0.663509 -0.327424
v 0.485511 -0.236313 -0.402041
v 0.560712 0.130294 -0.740255
v 0.538059 0.263181 -0.601135
v 0.675182 0.561382 -0.256233
v 0.632509 0.594887 0.002952
v 0.612658 0.451692 0.231351
v 0.547067 0.202305 0.475660
v 0.433107 0.153962 0.677051
v 0.385226 -0.233801 0.576554
v 0.420684 -0.546456 0.298686
v 0.389525 -0.422692 -0.061564
v 0.566182 -0.474589 -0.222915
v 0.298871 0.494322 0.610636
v -0.002363 0.484760 0.717869
v -0.206161 0.515225 0.642245
v -0.534371 0.246087 0.686853
v -0.563072 -0.013046 0.694272
v -0.459057 -0.331992 0.469233
v -0.291456 -0.466142 0.611033
v -0.022899 -0.469258 0.547043
v 0.285320 -0.374864 0.554780
v -0.406828 0.466545 0.435347
v -0.350275 0.503009 0.005314
v -0.357955 0.612157 -0.219422
v -0.365513 0.255152 -0.643202
v -0.511478 -0.009423 -0.539394
v -0.488317 -0.450868 -0.712880
v -0.455013 -0.711452 -0.294564
v -0.649491 -0.647718 0.076722
v -0.470117 -0.546099 0.299980
v -0.104410 0.400186 -0.636418
v 0.225739 0.542866 -0.701071
v 0.302861 0.439054 -0.515010
v 0.082934 -0.551081 -0.725168
v -0.043991 -0.687203 -0.663826
v -0.305912 -0.719071 -0.513120
v 0.425913 -0.405418 -0.505472
v 0.447427 0.427593 -0.319735
v 0.400446 -0.338215 0.522277
v 0.534837 0.422636 0.491207
v -0.386924 -0.656621 -0.436123
v -0.353947 0.415988 -0.545775
v -0.393955 -0.431106 0.352476
v -0.305289 0.378038 0.429426
vt 0.123968 0.273046
vt 0.163462 0.353756
vt 0.060841 0.416642
vt 0.063728 0.347039
vt 0.024314 0.382949
vt 0.000000 0.302944
vt 0.171566 0.491373
vt 0.130296 0.456603
vt 0.056669 0.923123
vt 0.044177 0.802024
vt 0.124059 0.833496
vt 0.118904 0.920834
vt 0.067629 0.184975
vt 0.130752 0.188816
vt 0.067465 0.124252
vt 0.071569 0.050636
vt 0.019929 0.221541
vt 0.012984 0.134207
vt 0.175122 0.149183
vt 0.191010 0.220892
vt 0.271367 0.115489
vt 0.268658 0.231867
vt 0.176768 0.050141
vt 0.205398 0.060464
vt 0.201122 0.358655
vt 0.846167 0.891770
vt 0.853998 0.822316
vt 0.843213 0.772426
vt 0.955460 0.842123
vt 0.282610 0.290937
vt 0.294128 0.371387
vt 0.241703 0.356365
vt 0.579307 0.462754
vt 0.512532 0.449708
vt 0.481327 0.421135
vt 0.563400 0.345971
vt 0.464568 0.319677
vt 0.542348 0.327180
vt 0.110929 0.000000
vt 0.051263 0.008509
vt 0.000661 0.084808
vt 0.627049 0.361183
vt 0.646152 0.419387
vt 0.693367 0.329158
vt 0.719801 0.379545
vt 0.347035 0.775236
vt 0.347035 0.859306
vt 0.293837 0.849244
vt 0.291855 0.744416
vt 0.590418 0.288392
vt 0.622849 0.255620
vt 0.888047 0.396912
vt 0.816382 0.381842
vt 0.822899 0.273270
vt 0.888484 0.319646
vt 0.812693 0.226661
vt 0.883186 0.215573
vt 0.739400 0.361526
vt 0.768193 0.236145
vt 0.321790 0.631115
vt 0.291855 0.586027
vt 0.291870 0.537898
vt 0.349868 0.590370
vt 0.934569 0.316450
vt 0.954659 0.384379
vt 0.989197 0.285815
vt 1.000000 0.407857
vt 0.963621 0.243689
vt 0.993674 0.248177
vt 0.432688 0.663803
vt 0.408646 0.762592
vt 0.384306 0.738909
vt 0.374750 0.615613
vt 0.680934 0.117340
vt 0.713378 0.229234
vt 0.641925 0.232780
vt 0.619715 0.123195
vt 0.431882 0.878627
vt 0.365760 0.864920
vt 0.395360 0.491869
vt 0.461355 0.566461
vt 0.365760 0.878627
vt 0.454764 0.882665
vt 0.454764 1.000000
vt 0.382357 0.948520
vt 0.610823 0.045771
vt 0.719801 0.019729
vt 0.266402 0.500085
vt 0.291855 0.665470
vt 0.213980 0.601895
vt 0.176634 0.562692
vt 0.563664 0.573742
vt 0.578425 0.700056
vt 0.657286 0.608936
vt 0.621450 0.711712
vt 0.485866 0.493909
vt 0.607819 0.462754
vt 0.650423 0.565467
vt 0.503813 0.767454
vt 0.525756 0.829581
vt 0.588282 0.786530
vt 0.488822 0.878627
vt 0.488822 0.975519
vt 0.456525 0.950182
vt 0.454764 0.898272
vt 0.033152 0.624794
vt 0.062172 0.527764
vt 0.133733 0.549125
vt 0.101711 0.663926
vt 0.160020 0.654932
vt 0.122197 0.757613
vt 0.172395 0.491373
vt 0.103820 0.719182
vt 0.017975 0.645104
vt 0.000000 0.772193
vt 0.339219 0.859306
vt 0.339219 0.948282
vt 0.291855 0.938676
vt 0.308714 0.887015
vt 0.120431 0.778734
vt 0.982735 0.704914
vt 0.953065 0.725051
vt 0.865986 0.712282
vt 0.878155 0.628350
vt 0.830623 0.643083
vt 0.802409 0.590289
vt 0.311694 0.440136
vt 0.365760 0.401916
vt 0.888824 0.542694
vt 0.973110 0.601561
vt 0.894902 0.473485
vt 0.982735 0.489319
vt 0.799848 0.498499
vt 0.812974 0.473761
vt 0.691924 0.541861
vt 0.743985 0.529130
vt 0.744602 0.653497
vt 0.698630 0.672813
vt 0.345519 0.193321
vt 0.365760 0.277203
vt 0.882701 0.000000
vt 0.983762 0.042999
vt 0.937188 0.088440
vt 0.889784 0.086402
vt 0.337339 0.102063
vt 1.000000 0.152256
vt 0.793202 0.129528
vt 0.821747 0.004855
vt 0.766311 0.148308
vt 0.719801 0.079998
vt 0.349868 0.491373
vt 0.300060 0.498496
vt 0.709224 0.469726
vt 0.768801 0.462754
vt 0.691924 0.720429
vt 0.691924 0.588418
vt 0.671214 0.548835
vt 0.492267 0.081301
vt 0.515603 0.010732
vt 0.575292 0.000000
vt 0.540818 0.127304
vt 0.243352 0.761263
vt 0.249472 0.682806
vt 0.555243 0.179647
vt 0.470224 0.174871
vt 0.360676 0.643659
vt 0.360676 0.744416
vt 0.294483 0.735629
vt 0.291855 0.631115
vt 0.456574 0.207998
vt 0.409450 0.117419
vt 0.384133 0.255917
vt 0.365760 0.172855
vt 0.409048 0.320478
vt 0.291855 0.830237
vt 0.234909 0.913708
vt 0.191062 0.819835
vt 0.167640 0.940873
vn 0.985200 -0.096700 0.141400
vn 0.937600 -0.245900 -0.245800
vn 0.773700 0.524200 -0.355700
vn 0.931000 0.299300 0.208800
vn 0.573400 0.752100 -0.324800
vn 0.662000 0.719700 0.209100
vn 0.556700 0.036200 -0.829900
vn 0.403400 0.532500 -0.744000
vn 0.279000 0.613500 -0.738700
vn 0.900900 0.050000 0.431000
vn 0.859200 -0.049000 0.509300
vn 0.727500 0.017800 0.685800
vn 0.704300 -0.148200 0.694200
vn 0.654800 0.641500 0.399500
vn 0.615400 0.611800 0.496900
vn 0.816400 -0.323900 0.478000
vn 0.879300 -0.455300 0.139600
vn 0.639000 -0.670900 0.376300
vn 0.765100 -0.643200 0.029100
vn 0.590400 -0.321900 0.740000
vn 0.508100 -0.517700 0.688300
vn 0.693600 -0.586700 -0.417800
vn 0.706600 -0.368500 -0.604100
vn 0.773700 -0.580200 -0.254500
vn 0.697700 -0.468800 -0.541700
vn -0.084900 0.067800 0.994100
vn 0.385500 -0.087800 0.918500
vn 0.353300 0.219200 0.909500
vn -0.142800 0.229200 0.962800
vn 0.449400 0.596600 0.664900
vn 0.024700 0.410900 0.911300
vn -0.181900 0.466500 0.865600
vn -0.281000 0.052500 0.958300
vn -0.569800 0.476400 0.669600
vn -0.675200 -0.134800 0.725200
vn -0.303500 0.476200 0.825300
vn -0.531400 0.593400 0.604400
vn -0.364300 -0.485000 0.795000
vn 0.042000 -0.501500 0.864100
vn -0.401200 -0.490200 0.773700
vn 0.128700 -0.641300 0.756400
vn -0.687600 -0.425500 0.588400
vn -0.759400 -0.266200 0.593700
vn 0.415300 -0.452800 0.789000
vn 0.337900 -0.587600 0.735100
vn -0.998400 0.005500 0.055800
vn -0.994400 -0.020800 0.103900
vn -0.901700 0.425000 0.079300
vn -0.833600 0.519200 0.188300
vn -0.653400 0.713600 0.252800
vn -0.598200 0.796200 0.090700
vn -0.843800 0.363800 -0.394600
vn -0.996200 -0.047500 -0.072700
vn -0.437600 0.343400 -0.831000
vn -0.738300 -0.064500 -0.671300
vn -0.514400 0.857500 0.007300
vn -0.369700 0.629600 -0.683200
vn -0.968700 -0.194900 -0.153800
vn -0.997300 -0.066700 0.029300
vn -0.845100 -0.487400 -0.219700
vn -0.903300 -0.414000 0.112000
vn -0.634800 -0.344400 -0.691700
vn -0.717100 -0.458300 -0.525100
vn -0.959500 -0.225000 0.169500
vn -0.838500 -0.317800 0.442600
vn 0.197500 0.166500 -0.966000
vn -0.359600 -0.004000 -0.933100
vn -0.504000 0.304400 -0.808300
vn 0.044000 0.454800 -0.889500
vn -0.375600 0.574600 -0.727100
vn 0.421900 0.477100 -0.771000
vn 0.623200 0.228200 -0.747900
vn 0.478000 -0.014600 -0.878200
vn 0.569300 0.567600 -0.594700
vn 0.535800 -0.355200 -0.766000
vn -0.069200 -0.338500 -0.938400
vn 0.332100 -0.584600 -0.740200
vn 0.003400 -0.766000 -0.642800
vn -0.336900 -0.316200 -0.886800
vn -0.235500 -0.723300 -0.649100
vn 0.180400 -0.983600 0.003800
vn 0.201400 -0.925100 -0.321800
vn 0.485800 -0.819000 -0.305200
vn 0.663000 -0.747500 0.041400
vn 0.429800 -0.779300 0.455900
vn 0.152100 -0.829700 0.537000
vn -0.420700 -0.650700 0.632000
vn -0.222400 -0.969700 0.101300
vn -0.425200 -0.810200 -0.403300
vn -0.148900 0.988600 -0.018400
vn -0.210400 0.919600 -0.331700
vn -0.479700 0.765300 -0.429100
vn -0.537900 0.842700 0.020400
vn -0.450600 0.855600 0.254600
vn 0.166800 0.909300 0.381200
vn 0.448400 0.783300 0.430600
vn 0.428900 0.898500 0.093400
vn 0.433800 0.779000 -0.452700
usemtl MarsGround
s 1
f 1/1/1 5/2/2 6/3/3 2/4/4
f 2/4/4 6/3/3 58/5/5 59/6/6
f 5/2/2 56/7/7 57/8/8 6/3/3
f 6/9/3 57/10/8 92/11/9 58/12/5
f 1/1/1 2/4/4 7/13/10 3/14/11
f 3/14/11 7/13/10 61/15/12 62/16/13
f 2/4/4 59/6/6 60/17/14 7/13/10
f 7/13/10 60/17/14 94/18/15 61/15/12
f 1/1/1 3/14/11 8/19/16 4/20/17
f 4/20/17 8/19/16 64/21/18 65/22/19
f 3/14/11 62/16/13 63/23/20 8/19/16
f 8/19/16 63/23/20 93/24/21 64/21/18
f 1/1/1 4/20/17 9/25/22 5/2/2
f 5/26/2 9/27/22 55/28/23 56/29/7
f 4/20/17 65/22/19 66/30/24 9/25/22
f 9/25/22 66/30/24 91/31/25 55/32/23
f 10/33/26 14/34/27 15/35/28 11/36/29
f 11/36/29 15/35/28 67/37/30 68/38/31
f 14/39/27 62/16/13 61/15/12 15/40/28
f 15/40/28 61/15/12 94/18/15 67/41/30
f 10/33/26 11/36/29 16/42/32 12/43/33
f 12/43/33 16/42/32 70/44/34 71/45/35
f 11/46/29 68/47/31 69/48/36 16/49/32
f 16/42/32 69/50/36 98/51/37 70/44/34
f 10/52/26 12/53/33 17/54/38 13/55/39
f 13/55/39 17/54/38 73/56/40 74/57/41
f 12/53/33 71/58/35 72/59/42 17/54/38
f 17/60/38 72/61/42 97/62/43 73/63/40
f 10/52/26 13/55/39 18/64/44 14/65/27
f 14/65/27 18/64/44 63/66/20 62/67/13
f 13/55/39 74/57/41 75/68/45 18/64/44
f 18/64/44 75/68/45 93/69/21 63/66/20
f 19/70/46 23/71/47 24/72/48 20/73/49
f 20/74/49 24/75/48 76/76/50 77/77/51
f 23/71/47 71/78/35 70/79/34 24/72/48
f 24/75/48 70/44/34 98/51/37 76/76/50
f 19/70/46 20/73/49 25/80/52 21/81/53
f 21/82/53 25/83/52 79/84/54 80/85/55
f 20/74/49 77/77/51 78/86/56 25/87/52
f 25/88/52 78/89/56 96/90/57 79/91/54
f 19/70/46 21/81/53 26/92/58 22/93/59
f 22/93/59 26/92/58 82/94/60 83/95/61
f 21/81/53 80/96/55 81/97/62 26/92/58
f 26/92/58 81/97/62 95/98/63 82/94/60
f 19/70/46 22/93/59 27/99/64 23/71/47
f 23/71/47 27/99/64 72/100/42 71/78/35
f 22/93/59 83/95/61 84/101/65 27/99/64
f 27/102/64 84/103/65 97/104/43 72/105/42
f 28/106/66 32/107/67 33/108/68 29/109/69
f 29/109/69 33/108/68 85/110/70 86/111/71
f 32/107/67 80/112/55 79/91/54 33/108/68
f 33/108/68 79/91/54 96/90/57 85/110/70
f 28/106/66 29/109/69 34/113/72 30/114/73
f 30/114/73 34/113/72 57/10/8 56/115/7
f 29/116/69 86/117/71 87/118/74 34/119/72
f 34/113/72 87/120/74 92/11/9 57/10/8
f 28/121/66 30/122/73 35/123/75 31/124/76
f 31/124/76 35/123/75 88/125/77 89/126/78
f 30/122/73 56/29/7 55/28/23 35/123/75
f 35/127/75 55/32/23 91/31/25 88/128/77
f 28/121/66 31/124/76 36/129/79 32/130/67
f 32/130/67 36/129/79 81/131/62 80/132/55
f 31/124/76 89/126/78 90/133/80 36/129/79
f 36/129/79 90/133/80 95/134/63 81/131/62
f 37/135/81 41/136/82 42/137/83 38/138/84
f 38/139/84 42/140/83 66/30/24 65/22/19
f 41/136/82 89/126/78 88/125/77 42/137/83
f 42/140/83 88/128/77 91/31/25 66/30/24
f 37/141/81 38/142/84 43/143/85 39/144/86
f 39/144/86 43/143/85 75/68/45 74/57/41
f 38/139/84 65/22/19 64/21/18 43/145/85
f 43/143/85 64/146/18 93/69/21 75/68/45
f 37/141/81 39/144/86 44/147/87 40/148/88
f 40/148/88 44/147/87 84/149/65 83/150/61
f 39/144/86 74/57/41 73/56/40 44/147/87
f 44/151/87 73/63/40 97/62/43 84/152/65
f 37/135/81 40/153/88 45/154/89 41/136/82
f 41/136/82 45/154/89 90/133/80 89/126/78
f 40/155/88 83/95/61 82/94/60 45/156/89
f 45/156/89 82/94/60 95/98/63 90/157/80
f 46/158/90 50/159/91 51/160/92 47/161/93
f 47/161/93 51/160/92 78/86/56 77/77/51
f 50/162/91 86/111/71 85/110/70 51/163/92
f 51/163/92 85/110/70 96/90/57 78/89/56
f 46/158/90 47/161/93 52/164/94 48/165/95
f 48/165/95 52/164/94 69/50/36 68/38/31
f 47/166/93 77/167/51 76/168/50 52/169/94
f 52/164/94 76/76/50 98/51/37 69/50/36
f 46/158/90 48/165/95 53/170/96 49/171/97
f 49/171/97 53/170/96 60/172/14 59/173/6
f 48/165/95 68/38/31 67/37/30 53/170/96
f 53/170/96 67/37/30 94/174/15 60/172/14
f 46/175/90 49/176/97 54/177/98 50/162/91
f 50/162/91 54/177/98 87/120/74 86/111/71
f 49/176/97 59/178/6 58/12/5 54/177/98
f 54/177/98 58/12/5 92/11/9 87/120/74
