# Blender v2.79 (sub 0) OBJ File: 'dizzy-z-scene-02.blend'
# www.blender.org
mtllib platform4.mtl
o Platform4.000_Cube.4047
v -0.296920 -0.028339 -3.600000
v -1.312833 -0.028339 -3.600000
v -0.296920 0.220384 -3.600000
v 0.718993 -0.028339 -3.600000
v -0.296920 -0.277061 -3.600000
v -1.312833 -0.277061 -3.600000
v -1.312833 0.220384 -3.600000
v 0.718993 0.220384 -3.600000
v 0.718993 -0.277061 -3.600000
v 1.734906 -0.028339 0.000000
v 1.734906 0.220384 0.000000
v 1.734906 -0.028339 1.800000
v 1.734906 -0.277061 0.000000
v 1.734906 -0.028339 -1.800000
v 1.734906 0.220384 -1.800000
v 1.734906 0.220384 1.800000
v 1.734906 -0.277061 1.800000
v 1.734906 -0.277061 -1.800000
v -0.296920 -0.525784 0.000000
v -1.312833 -0.525784 0.000000
v -0.296920 -0.525784 -1.800000
v 0.718993 -0.525784 0.000000
v -0.296920 -0.525784 1.800000
v -1.312833 -0.525784 1.800000
v -1.312833 -0.525784 -1.800000
v 0.718993 -0.525784 -1.800000
v 0.718993 -0.525784 1.800000
v -0.296920 0.469106 0.000000
v -1.312833 0.469106 0.000000
v -0.296920 0.469106 1.800000
v 0.718993 0.469106 0.000000
v -0.296920 0.469106 -1.800000
v -1.312833 0.469106 -1.800000
v -1.312833 0.469106 1.800000
v 0.718993 0.469106 1.800000
v 0.718993 0.469106 -1.800000
v -0.296920 -0.028339 3.600000
v -1.312833 -0.028339 3.600000
v -0.296920 -0.277061 3.600000
v 0.718993 -0.028339 3.600000
v -0.296920 0.220384 3.600000
v -1.312833 0.220384 3.600000
v -1.312833 -0.277061 3.600000
v 0.718993 -0.277061 3.600000
v 0.718993 0.220384 3.600000
v -2.328746 -0.028339 0.000000
v -2.328746 -0.028339 1.800000
v -2.328746 0.220384 0.000000
v -2.328746 -0.028339 -1.800000
v -2.328746 -0.277061 0.000000
v -2.328746 -0.277061 1.800000
v -2.328746 0.220384 1.800000
v -2.328746 0.220384 -1.800000
v -2.328746 -0.277061 -1.800000
v 1.633315 -0.277061 -3.420000
v 1.633315 -0.028339 -3.420000
v 1.633315 0.220384 -3.420000
v 1.633315 0.444234 -1.800000
v 1.633315 0.444234 0.000000
v 1.633315 0.444234 1.800000
v 1.633315 0.220384 3.420000
v 1.633315 -0.028339 3.420000
v 1.633315 -0.277061 3.420000
v 1.633315 -0.500911 1.800000
v 1.633315 -0.500911 0.000000
v 1.633315 -0.500911 -1.800000
v -1.312833 0.444234 -3.420000
v -0.296920 0.444234 -3.420000
v 0.718993 0.444234 -3.420000
v -1.312833 0.444234 3.420000
v -0.296920 0.444234 3.420000
v 0.718993 0.444234 3.420000
v -2.227155 -0.277061 3.420000
v -2.227155 -0.028339 3.420000
v -2.227155 0.220384 3.420000
v -2.227155 0.444234 1.800000
v -2.227155 0.444234 0.000000
v -2.227155 0.444234 -1.800000
v -2.227155 0.220384 -3.420000
v -2.227155 -0.028339 -3.420000
v -2.227155 -0.277061 -3.420000
v -2.227155 -0.500911 -1.800000
v -2.227155 -0.500911 0.000000
v -2.227155 -0.500911 1.800000
v 0.718993 -0.500911 3.420000
v -0.296920 -0.500911 3.420000
v -1.312833 -0.500911 3.420000
v 0.718993 -0.500911 -3.420000
v -0.296920 -0.500911 -3.420000
v -1.312833 -0.500911 -3.420000
v 1.513663 -0.471617 -3.208000
v 1.513663 0.414940 -3.208000
v 1.513663 -0.471617 3.208000
v 1.513663 0.414940 3.208000
v -2.107503 -0.471617 3.208000
v -2.107503 -0.471617 -3.208000
v -2.107503 0.414940 3.208000
v -2.107503 0.414940 -3.208000
vn 0.0000 0.0000 -1.0000
vn 0.0000 -0.3322 -0.9432
vn -0.0962 -0.3486 -0.9323
vn -0.0970 0.0000 -0.9953
vn -0.6945 -0.3294 -0.6396
vn -0.7521 0.0000 -0.6590
vn 0.0000 -0.8985 -0.4389
vn -0.0597 -0.8979 -0.4362
vn -0.4617 -0.8412 -0.2812
vn -0.0962 0.3486 -0.9323
vn 0.0000 0.3322 -0.9432
vn -0.0597 0.8979 -0.4362
vn 0.0000 0.8985 -0.4389
vn -0.6945 0.3294 -0.6396
vn -0.4617 0.8412 -0.2812
vn 0.0962 0.3486 -0.9323
vn 0.0970 0.0000 -0.9953
vn 0.6945 0.3294 -0.6396
vn 0.7521 0.0000 -0.6590
vn 0.0597 0.8979 -0.4362
vn 0.4617 0.8412 -0.2812
vn 0.0962 -0.3486 -0.9323
vn 0.0597 -0.8979 -0.4362
vn 0.6945 -0.3294 -0.6396
vn 0.4617 -0.8412 -0.2812
vn 1.0000 0.0000 0.0000
vn 0.9995 0.0000 -0.0313
vn 0.9721 0.2321 -0.0335
vn 0.9774 0.2114 0.0000
vn 0.5426 0.8396 -0.0256
vn 0.5530 0.8332 0.0000
vn 0.9721 0.2321 0.0335
vn 0.9995 0.0000 0.0313
vn 0.6945 0.3294 0.6396
vn 0.7521 0.0000 0.6590
vn 0.5426 0.8396 0.0256
vn 0.4617 0.8412 0.2812
vn 0.9721 -0.2321 0.0335
vn 0.9774 -0.2114 0.0000
vn 0.5426 -0.8396 0.0256
vn 0.5530 -0.8332 0.0000
vn 0.6945 -0.3294 0.6396
vn 0.4617 -0.8412 0.2812
vn 0.9721 -0.2321 -0.0335
vn 0.5426 -0.8396 -0.0256
vn 0.0000 -1.0000 0.0000
vn 0.0000 -1.0000 0.0077
vn -0.0153 -0.9998 0.0086
vn -0.0136 -0.9999 0.0000
vn -0.5426 -0.8396 0.0256
vn -0.5530 -0.8332 0.0000
vn 0.0000 -0.8985 0.4389
vn -0.0597 -0.8979 0.4362
vn -0.4617 -0.8412 0.2812
vn -0.0153 -0.9998 -0.0086
vn 0.0000 -1.0000 -0.0077
vn -0.5426 -0.8396 -0.0256
vn 0.0153 -0.9998 -0.0086
vn 0.0136 -0.9999 0.0000
vn 0.0153 -0.9998 0.0086
vn 0.0597 -0.8979 0.4362
vn 0.0000 1.0000 0.0000
vn 0.0000 1.0000 -0.0077
vn -0.0153 0.9998 -0.0086
vn -0.0136 0.9999 0.0000
vn -0.5426 0.8396 -0.0256
vn -0.5530 0.8332 0.0000
vn -0.0153 0.9998 0.0086
vn 0.0000 1.0000 0.0077
vn -0.0597 0.8979 0.4362
vn 0.0000 0.8985 0.4389
vn -0.5426 0.8396 0.0256
vn -0.4617 0.8412 0.2812
vn 0.0153 0.9998 0.0086
vn 0.0136 0.9999 0.0000
vn 0.0597 0.8979 0.4362
vn 0.0153 0.9998 -0.0086
vn 0.0000 0.0000 1.0000
vn 0.0000 0.3322 0.9432
vn -0.0962 0.3486 0.9323
vn -0.0970 0.0000 0.9953
vn -0.6945 0.3294 0.6396
vn -0.7521 0.0000 0.6590
vn -0.0962 -0.3486 0.9323
vn 0.0000 -0.3322 0.9432
vn -0.6945 -0.3294 0.6396
vn 0.0962 -0.3486 0.9323
vn 0.0970 0.0000 0.9953
vn 0.0962 0.3486 0.9323
vn -1.0000 0.0000 0.0000
vn -0.9774 -0.2114 0.0000
vn -0.9721 -0.2321 0.0335
vn -0.9995 0.0000 0.0313
vn -0.9721 0.2321 0.0335
vn -0.9774 0.2114 0.0000
vn -0.9721 0.2321 -0.0335
vn -0.9995 0.0000 -0.0313
vn -0.9721 -0.2321 -0.0335
usemtl MarsGround
s 1
f 1//1 5//2 6//3 2//4
f 2//4 6//3 81//5 80//6
f 5//2 89//7 90//8 6//3
f 6//3 90//8 96//9 81//5
f 1//1 2//4 7//10 3//11
f 3//11 7//10 67//12 68//13
f 2//4 80//6 79//14 7//10
f 7//10 79//14 98//15 67//12
f 1//1 3//11 8//16 4//17
f 4//17 8//16 57//18 56//19
f 3//11 68//13 69//20 8//16
f 8//16 69//20 92//21 57//18
f 1//1 4//17 9//22 5//2
f 5//2 9//22 88//23 89//7
f 4//17 56//19 55//24 9//22
f 9//22 55//24 91//25 88//23
f 10//26 14//27 15//28 11//29
f 11//29 15//28 58//30 59//31
f 14//27 56//19 57//18 15//28
f 15//28 57//18 92//21 58//30
f 10//26 11//29 16//32 12//33
f 12//33 16//32 61//34 62//35
f 11//29 59//31 60//36 16//32
f 16//32 60//36 94//37 61//34
f 10//26 12//33 17//38 13//39
f 13//39 17//38 64//40 65//41
f 12//33 62//35 63//42 17//38
f 17//38 63//42 93//43 64//40
f 10//26 13//39 18//44 14//27
f 14//27 18//44 55//24 56//19
f 13//39 65//41 66//45 18//44
f 18//44 66//45 91//25 55//24
f 19//46 23//47 24//48 20//49
f 20//49 24//48 84//50 83//51
f 23//47 86//52 87//53 24//48
f 24//48 87//53 95//54 84//50
f 19//46 20//49 25//55 21//56
f 21//56 25//55 90//8 89//7
f 20//49 83//51 82//57 25//55
f 25//55 82//57 96//9 90//8
f 19//46 21//56 26//58 22//59
f 22//59 26//58 66//45 65//41
f 21//56 89//7 88//23 26//58
f 26//58 88//23 91//25 66//45
f 19//46 22//59 27//60 23//47
f 23//47 27//60 85//61 86//52
f 22//59 65//41 64//40 27//60
f 27//60 64//40 93//43 85//61
f 28//62 32//63 33//64 29//65
f 29//65 33//64 78//66 77//67
f 32//63 68//13 67//12 33//64
f 33//64 67//12 98//15 78//66
f 28//62 29//65 34//68 30//69
f 30//69 34//68 70//70 71//71
f 29//65 77//67 76//72 34//68
f 34//68 76//72 97//73 70//70
f 28//62 30//69 35//74 31//75
f 31//75 35//74 60//36 59//31
f 30//69 71//71 72//76 35//74
f 35//74 72//76 94//37 60//36
f 28//62 31//75 36//77 32//63
f 32//63 36//77 69//20 68//13
f 31//75 59//31 58//30 36//77
f 36//77 58//30 92//21 69//20
f 37//78 41//79 42//80 38//81
f 38//81 42//80 75//82 74//83
f 41//79 71//71 70//70 42//80
f 42//80 70//70 97//73 75//82
f 37//78 38//81 43//84 39//85
f 39//85 43//84 87//53 86//52
f 38//81 74//83 73//86 43//84
f 43//84 73//86 95//54 87//53
f 37//78 39//85 44//87 40//88
f 40//88 44//87 63//42 62//35
f 39//85 86//52 85//61 44//87
f 44//87 85//61 93//43 63//42
f 37//78 40//88 45//89 41//79
f 41//79 45//89 72//76 71//71
f 40//88 62//35 61//34 45//89
f 45//89 61//34 94//37 72//76
f 46//90 50//91 51//92 47//93
f 47//93 51//92 73//86 74//83
f 50//91 83//51 84//50 51//92
f 51//92 84//50 95//54 73//86
f 46//90 47//93 52//94 48//95
f 48//95 52//94 76//72 77//67
f 47//93 74//83 75//82 52//94
f 52//94 75//82 97//73 76//72
f 46//90 48//95 53//96 49//97
f 49//97 53//96 79//14 80//6
f 48//95 77//67 78//66 53//96
f 53//96 78//66 98//15 79//14
f 46//90 49//97 54//98 50//91
f 50//91 54//98 82//57 83//51
f 49//97 80//6 81//5 54//98
f 54//98 81//5 96//9 82//57
