# Blender v2.76 (sub 0) OBJ File: 'dizzy-z-scene-01.blend'
# www.blender.org
mtllib scene-01.mtl
o Platfrom1.000_Cube.1096
v -0.250015 -0.000000 -1.874537
v 0.598988 -0.000000 -1.874074
v -0.250015 -0.202448 -1.749564
v -1.099018 -0.000000 -1.874074
v -0.250015 0.202448 -1.749564
v 0.598826 0.202397 -1.749128
v 0.598826 -0.202397 -1.749128
v -1.098856 -0.202397 -1.749128
v -1.098856 0.202397 -1.749128
v -0.250015 -0.000000 1.874537
v 0.598988 -0.000000 1.874074
v -0.250015 0.202448 1.749564
v -1.099018 -0.000000 1.874074
v -0.250015 -0.202448 1.749564
v 0.598826 -0.202397 1.749129
v 0.598826 0.202397 1.749129
v -1.098856 0.202397 1.749129
v -1.098856 -0.202397 1.749129
v -0.250015 -0.506125 0.000000
v 0.598988 -0.506000 0.000000
v -0.250015 -0.472382 0.749810
v -1.099018 -0.506000 0.000000
v -0.250015 -0.472382 -0.749809
v 0.598826 -0.472265 -0.749619
v 0.598826 -0.472265 0.749619
v -1.098856 -0.472265 0.749619
v -1.098856 -0.472265 -0.749619
v -0.250015 0.506125 0.000000
v 0.598988 0.506000 0.000000
v -0.250015 0.472382 -0.749809
v -1.099018 0.506000 0.000000
v -0.250015 0.472382 0.749810
v 0.598826 0.472265 0.749619
v 0.598826 0.472265 -0.749619
v -1.098856 0.472265 -0.749619
v -1.098856 0.472265 0.749619
v 1.449172 -0.000000 0.000000
v 1.448778 -0.252875 0.000000
v 1.448778 -0.000000 -0.936574
v 1.448778 0.252875 0.000000
v 1.448778 -0.000000 0.936574
v 1.448408 -0.236015 0.874129
v 1.448408 -0.236015 -0.874128
v 1.448408 0.236015 -0.874128
v 1.448408 0.236015 0.874129
v -1.949202 -0.000000 0.000000
v -1.948809 -0.000000 0.936574
v -1.948809 0.252875 0.000000
v -1.948809 -0.000000 -0.936574
v -1.948809 -0.252875 0.000000
v -1.948438 -0.236015 0.874129
v -1.948438 0.236015 0.874129
v -1.948438 0.236015 -0.874128
v -1.948438 -0.236015 -0.874128
v 1.235642 0.210750 1.529943
v 1.235937 -0.000000 1.639236
v 1.235642 -0.210750 1.529943
v 1.235642 0.413084 0.780556
v 1.235937 0.442594 0.000000
v 1.235642 0.413084 -0.780555
v 1.235642 0.210750 -1.529943
v 1.235937 -0.000000 -1.639236
v 1.235642 -0.210750 -1.529943
v 1.235642 -0.413084 -0.780555
v 1.235937 -0.442594 0.000000
v 1.235642 -0.413084 0.780556
v -1.735672 0.210750 1.529943
v -1.735967 -0.000000 1.639236
v -1.735672 -0.210750 1.529943
v -1.735672 0.413084 0.780556
v -1.735967 0.442594 0.000000
v -1.735672 0.413084 -0.780555
v -1.735672 0.210750 -1.529943
v -1.735967 -0.000000 -1.639236
v -1.735672 -0.210750 -1.529943
v -1.735672 -0.413084 -0.780555
v -1.735967 -0.442594 0.000000
v -1.735672 -0.413084 0.780556
v 0.598664 -0.371062 -1.374305
v -0.250015 -0.371156 -1.374653
v -1.098694 -0.371062 -1.374305
v -1.098694 0.371062 -1.374305
v -0.250015 0.371156 -1.374653
v 0.598664 0.371062 -1.374305
v 0.598664 0.371062 1.374306
v -0.250015 0.371156 1.374653
v -1.098694 0.371062 1.374306
v -1.098694 -0.371062 1.374306
v -0.250015 -0.371156 1.374653
v 0.598664 -0.371062 1.374306
v 1.070415 -0.340990 -1.262927
v 1.070415 0.340990 -1.262927
v 1.070415 -0.340990 1.262927
v 1.070415 0.340990 1.262927
v -1.570445 -0.340990 -1.262927
v -1.570445 0.340990 -1.262927
v -1.570445 -0.340990 1.262927
v -1.570445 0.340990 1.262927
vn 0.000000 0.000000 -1.000000
vn 0.000000 0.751500 -0.659600
vn 0.117600 0.727900 -0.675500
vn 0.161600 0.000000 -0.986800
vn 0.609800 0.599700 -0.518200
vn 0.661700 0.000000 -0.749700
vn 0.000000 0.957700 -0.287600
vn 0.058000 0.954700 -0.291800
vn 0.246700 0.932800 -0.262500
vn 0.117600 -0.727900 -0.675500
vn 0.000000 -0.751500 -0.659600
vn 0.058000 -0.954700 -0.291800
vn 0.000000 -0.957700 -0.287600
vn 0.609800 -0.599700 -0.518200
vn 0.246700 -0.932800 -0.262500
vn -0.117600 -0.727900 -0.675500
vn -0.161600 0.000000 -0.986800
vn -0.609800 -0.599700 -0.518200
vn -0.661700 0.000000 -0.749700
vn -0.058000 -0.954700 -0.291800
vn -0.246700 -0.932800 -0.262500
vn -0.117600 0.727900 -0.675500
vn -0.058000 0.954700 -0.291800
vn -0.609800 0.599700 -0.518200
vn -0.246700 0.932800 -0.262500
vn 0.000000 0.000000 1.000000
vn 0.000000 -0.751500 0.659600
vn 0.117600 -0.727900 0.675500
vn 0.161600 0.000000 0.986800
vn 0.609800 -0.599700 0.518200
vn 0.661700 0.000000 0.749700
vn 0.000000 -0.957700 0.287600
vn 0.058000 -0.954700 0.291800
vn 0.246700 -0.932800 0.262500
vn 0.117600 0.727900 0.675500
vn 0.000000 0.751500 0.659600
vn 0.058000 0.954700 0.291800
vn 0.000000 0.957700 0.287600
vn 0.609800 0.599700 0.518200
vn 0.246700 0.932800 0.262500
vn -0.117600 0.727900 0.675500
vn -0.161600 0.000000 0.986800
vn -0.609800 0.599700 0.518200
vn -0.661700 0.000000 0.749700
vn -0.058000 0.954700 0.291800
vn -0.246700 0.932800 0.262500
vn -0.117600 -0.727900 0.675500
vn -0.058000 -0.954700 0.291800
vn -0.609800 -0.599700 0.518200
vn -0.246700 -0.932800 0.262500
vn 0.000000 -1.000000 0.000000
vn 0.000000 -0.994700 -0.102600
vn 0.046600 -0.993600 -0.102500
vn 0.047500 -0.998900 0.000000
vn 0.368800 -0.923000 -0.109600
vn 0.388100 -0.921600 0.000000
vn 0.046600 -0.993600 0.102500
vn 0.000000 -0.994700 0.102600
vn 0.368800 -0.923000 0.109600
vn -0.046600 -0.993600 0.102500
vn -0.047500 -0.998900 0.000000
vn -0.368800 -0.923000 0.109600
vn -0.388100 -0.921600 0.000000
vn -0.046600 -0.993600 -0.102500
vn -0.368800 -0.923000 -0.109600
vn 0.000000 1.000000 0.000000
vn 0.000000 0.994700 0.102600
vn 0.046600 0.993600 0.102500
vn 0.047500 0.998900 0.000000
vn 0.368800 0.923000 0.109600
vn 0.388100 0.921600 0.000000
vn 0.046600 0.993600 -0.102500
vn 0.000000 0.994700 -0.102600
vn 0.368800 0.923000 -0.109600
vn -0.046600 0.993600 -0.102500
vn -0.047500 0.998900 0.000000
vn -0.368800 0.923000 -0.109600
vn -0.388100 0.921600 0.000000
vn -0.046600 0.993600 0.102500
vn -0.368800 0.923000 0.109600
vn 1.000000 0.000000 0.000000
vn 0.984300 0.000000 0.176500
vn 0.870400 -0.469200 0.148800
vn 0.906000 -0.423200 0.000000
vn 0.870400 -0.469200 -0.148800
vn 0.984300 0.000000 -0.176500
vn 0.870400 0.469200 -0.148800
vn 0.906000 0.423200 0.000000
vn 0.870400 0.469200 0.148800
vn -1.000000 0.000000 0.000000
vn -0.906000 -0.423200 0.000000
vn -0.870400 -0.469200 0.148800
vn -0.984300 0.000000 0.176500
vn -0.870400 0.469200 0.148800
vn -0.906000 0.423200 0.000000
vn -0.870400 0.469200 -0.148800
vn -0.984300 0.000000 -0.176500
vn -0.870400 -0.469200 -0.148800
usemtl MarsGround
s 1
f 1//1 5//2 6//3 2//4
f 2//4 6//3 61//5 62//6
f 5//2 83//7 84//8 6//3
f 6//3 84//8 92//9 61//5
f 1//1 2//4 7//10 3//11
f 3//11 7//10 79//12 80//13
f 2//4 62//6 63//14 7//10
f 7//10 63//14 91//15 79//12
f 1//1 3//11 8//16 4//17
f 4//17 8//16 75//18 74//19
f 3//11 80//13 81//20 8//16
f 8//16 81//20 95//21 75//18
f 1//1 4//17 9//22 5//2
f 5//2 9//22 82//23 83//7
f 4//17 74//19 73//24 9//22
f 9//22 73//24 96//25 82//23
f 10//26 14//27 15//28 11//29
f 11//29 15//28 57//30 56//31
f 14//27 89//32 90//33 15//28
f 15//28 90//33 93//34 57//30
f 10//26 11//29 16//35 12//36
f 12//36 16//35 85//37 86//38
f 11//29 56//31 55//39 16//35
f 16//35 55//39 94//40 85//37
f 10//26 12//36 17//41 13//42
f 13//42 17//41 67//43 68//44
f 12//36 86//38 87//45 17//41
f 17//41 87//45 98//46 67//43
f 10//26 13//42 18//47 14//27
f 14//27 18//47 88//48 89//32
f 13//42 68//44 69//49 18//47
f 18//47 69//49 97//50 88//48
f 19//51 23//52 24//53 20//54
f 20//54 24//53 64//55 65//56
f 23//52 80//13 79//12 24//53
f 24//53 79//12 91//15 64//55
f 19//51 20//54 25//57 21//58
f 21//58 25//57 90//33 89//32
f 20//54 65//56 66//59 25//57
f 25//57 66//59 93//34 90//33
f 19//51 21//58 26//60 22//61
f 22//61 26//60 78//62 77//63
f 21//58 89//32 88//48 26//60
f 26//60 88//48 97//50 78//62
f 19//51 22//61 27//64 23//52
f 23//52 27//64 81//20 80//13
f 22//61 77//63 76//65 27//64
f 27//64 76//65 95//21 81//20
f 28//66 32//67 33//68 29//69
f 29//69 33//68 58//70 59//71
f 32//67 86//38 85//37 33//68
f 33//68 85//37 94//40 58//70
f 28//66 29//69 34//72 30//73
f 30//73 34//72 84//8 83//7
f 29//69 59//71 60//74 34//72
f 34//72 60//74 92//9 84//8
f 28//66 30//73 35//75 31//76
f 31//76 35//75 72//77 71//78
f 30//73 83//7 82//23 35//75
f 35//75 82//23 96//25 72//77
f 28//66 31//76 36//79 32//67
f 32//67 36//79 87//45 86//38
f 31//76 71//78 70//80 36//79
f 36//79 70//80 98//46 87//45
f 37//81 41//82 42//83 38//84
f 38//84 42//83 66//59 65//56
f 41//82 56//31 57//30 42//83
f 42//83 57//30 93//34 66//59
f 37//81 38//84 43//85 39//86
f 39//86 43//85 63//14 62//6
f 38//84 65//56 64//55 43//85
f 43//85 64//55 91//15 63//14
f 37//81 39//86 44//87 40//88
f 40//88 44//87 60//74 59//71
f 39//86 62//6 61//5 44//87
f 44//87 61//5 92//9 60//74
f 37//81 40//88 45//89 41//82
f 41//82 45//89 55//39 56//31
f 40//88 59//71 58//70 45//89
f 45//89 58//70 94//40 55//39
f 46//90 50//91 51//92 47//93
f 47//93 51//92 69//49 68//44
f 50//91 77//63 78//62 51//92
f 51//92 78//62 97//50 69//49
f 46//90 47//93 52//94 48//95
f 48//95 52//94 70//80 71//78
f 47//93 68//44 67//43 52//94
f 52//94 67//43 98//46 70//80
f 46//90 48//95 53//96 49//97
f 49//97 53//96 73//24 74//19
f 48//95 71//78 72//77 53//96
f 53//96 72//77 96//25 73//24
f 46//90 49//97 54//98 50//91
f 50//91 54//98 76//65 77//63
f 49//97 74//19 75//18 54//98
f 54//98 75//18 95//21 76//65
