# Blender v2.76 (sub 0) OBJ File: 'dizzy-z-scene-01.blend'
# www.blender.org
mtllib pressure-protection.mtl
o PressureProtection_Cube.1481
v 0.742734 0.968750 0.000000
v 0.720937 1.375000 0.000000
v 0.693219 0.968750 0.297094
v 0.750000 0.500000 0.000000
v 0.693219 0.968750 -0.297094
v 0.672875 1.375000 -0.288375
v 0.672875 1.375000 0.288375
v 0.700000 0.500000 0.300000
v 0.700000 0.500000 -0.300000
v 0.000000 0.968750 0.742734
v 0.000000 1.375000 0.720937
v -0.297094 0.968750 0.693219
v 0.000000 0.500000 0.750000
v 0.297094 0.968750 0.693219
v 0.288375 1.375000 0.672875
v -0.288375 1.375000 0.672875
v -0.300000 0.500000 0.700000
v 0.300000 0.500000 0.700000
v -0.742734 0.968750 0.000000
v -0.720937 1.375000 0.000000
v -0.693219 0.968750 -0.297094
v -0.750000 0.500000 0.000000
v -0.693219 0.968750 0.297094
v -0.672875 1.375000 0.288375
v -0.672875 1.375000 -0.288375
v -0.700000 0.500000 -0.300000
v -0.700000 0.500000 0.300000
v 0.000000 0.000000 0.000000
v 0.375000 0.000000 0.000000
v 0.000000 0.000000 0.375000
v -0.375000 0.000000 0.000000
v 0.000000 0.000000 -0.375000
v 0.350000 0.000000 -0.350000
v 0.350000 0.000000 0.350000
v -0.350000 0.000000 0.350000
v -0.350000 0.000000 -0.350000
v 0.513169 1.972221 0.000000
v 0.604688 1.875000 0.000000
v 0.478958 1.972221 -0.205268
v 0.412989 2.013885 0.000000
v 0.478958 1.972221 0.205268
v 0.564375 1.875000 0.241875
v 0.564375 1.875000 -0.241875
v 0.385456 2.013885 -0.165196
v 0.385456 2.013885 0.165196
v 0.278963 2.268207 0.000000
v 0.296739 2.151385 0.000000
v 0.260295 2.266536 -0.111479
v 0.249111 2.371441 0.000000
v 0.260295 2.266536 0.111479
v 0.276956 2.151385 0.118696
v 0.276956 2.151385 -0.118696
v 0.232222 2.364757 -0.099222
v 0.232222 2.364757 0.099222
v 0.000000 1.972221 -0.513169
v 0.000000 1.875000 -0.604687
v -0.205268 1.972221 -0.478958
v 0.000000 2.013885 -0.412989
v 0.205268 1.972221 -0.478958
v 0.241875 1.875000 -0.564375
v -0.241875 1.875000 -0.564375
v -0.165196 2.013885 -0.385456
v 0.165196 2.013885 -0.385456
v 0.000000 1.972221 0.513169
v 0.000000 1.875000 0.604688
v 0.205268 1.972221 0.478958
v 0.000000 2.013885 0.412989
v -0.205268 1.972221 0.478958
v -0.241875 1.875000 0.564375
v 0.241875 1.875000 0.564375
v 0.165196 2.013885 0.385456
v -0.165196 2.013885 0.385456
v -0.513169 1.972221 0.000000
v -0.604688 1.875000 0.000000
v -0.478958 1.972221 0.205268
v -0.412989 2.013885 0.000000
v -0.478958 1.972221 -0.205268
v -0.564375 1.875000 -0.241875
v -0.564375 1.875000 0.241875
v -0.385456 2.013885 0.165196
v -0.385456 2.013885 -0.165196
v 0.000000 2.516580 0.000000
v -0.106611 2.500347 0.000000
v 0.000000 2.500347 0.106611
v 0.106611 2.500347 0.000000
v 0.000000 2.500347 -0.106611
v -0.099222 2.485070 -0.099222
v -0.099222 2.485070 0.099222
v 0.099222 2.485070 0.099222
v 0.099222 2.485070 -0.099222
v 0.000000 2.268207 -0.278963
v 0.000000 2.151385 -0.296739
v -0.111479 2.266536 -0.260295
v 0.000000 2.371441 -0.249111
v 0.111479 2.266536 -0.260295
v 0.118696 2.151385 -0.276956
v -0.118696 2.151385 -0.276956
v -0.099222 2.364757 -0.232222
v 0.099222 2.364757 -0.232222
v 0.000000 2.268207 0.278963
v 0.000000 2.151385 0.296739
v 0.111479 2.266536 0.260295
v 0.000000 2.371441 0.249111
v -0.111479 2.266536 0.260295
v -0.118696 2.151385 0.276956
v 0.118696 2.151385 0.276956
v 0.099222 2.364757 0.232222
v -0.099222 2.364757 0.232222
v -0.278963 2.268207 0.000000
v -0.296739 2.151385 0.000000
v -0.260295 2.266536 0.111479
v -0.249111 2.371441 0.000000
v -0.260295 2.266536 -0.111479
v -0.276956 2.151385 -0.118696
v -0.276956 2.151385 0.118696
v -0.232222 2.364757 0.099222
v -0.232222 2.364757 -0.099222
v 0.000000 0.968750 -0.742734
v 0.000000 0.500000 -0.750000
v -0.297094 0.968750 -0.693219
v 0.000000 1.375000 -0.720937
v 0.297094 0.968750 -0.693219
v 0.300000 0.500000 -0.700000
v -0.300000 0.500000 -0.700000
v -0.288375 1.375000 -0.672875
v 0.288375 1.375000 -0.672875
v 0.019420 1.055574 -0.756145
v 0.019420 0.992536 -0.756145
v -0.168080 1.055574 -0.756145
v 0.019420 1.118611 -0.756145
v 0.206920 1.055574 -0.756145
v 0.194420 0.996739 -0.756145
v -0.155580 0.996739 -0.756145
v -0.155580 1.114409 -0.756145
v 0.194420 1.114409 -0.756145
v 0.550000 0.500000 -0.550000
v 0.544672 0.968750 -0.544672
v 0.528688 1.375000 -0.528688
v 0.632188 1.687500 -0.270938
v 0.677344 1.687500 0.000000
v 0.632188 1.687500 0.270938
v 0.528688 1.375000 0.528688
v 0.544672 0.968750 0.544672
v 0.550000 0.500000 0.550000
v 0.700000 0.000000 0.300000
v 0.750000 0.000000 0.000000
v 0.700000 0.000000 -0.300000
v 0.270938 1.687500 0.632188
v 0.000000 1.687500 0.677344
v -0.270938 1.687500 0.632188
v -0.528688 1.375000 0.528688
v -0.544672 0.968750 0.544672
v -0.550000 0.500000 0.550000
v -0.300000 0.000000 0.700000
v 0.000000 0.000000 0.750000
v 0.300000 0.000000 0.700000
v -0.632188 1.687500 0.270938
v -0.677344 1.687500 0.000000
v -0.632188 1.687500 -0.270938
v -0.528688 1.375000 -0.528688
v -0.544672 0.968750 -0.544672
v -0.550000 0.500000 -0.550000
v -0.700000 0.000000 -0.300000
v -0.750000 0.000000 0.000000
v -0.700000 0.000000 0.300000
v -0.270938 1.687500 -0.632187
v 0.000000 1.687500 -0.677344
v 0.270938 1.687500 -0.632187
v 0.300000 0.000000 -0.700000
v 0.000000 0.000000 -0.750000
v -0.300000 0.000000 -0.700000
v 0.309560 2.055202 -0.132668
v 0.331671 2.055202 0.000000
v 0.309560 2.055202 0.132668
v 0.132668 2.055202 0.309560
v 0.000000 2.055202 0.331671
v -0.132668 2.055202 0.309560
v -0.309560 2.055202 0.132668
v -0.331671 2.055202 0.000000
v -0.309560 2.055202 -0.132668
v -0.132668 2.055202 -0.309560
v 0.000000 2.055202 -0.331671
v 0.132668 2.055202 -0.309560
v 0.443438 1.875000 -0.443438
v 0.376324 1.972221 -0.376324
v 0.302859 2.013885 -0.302859
v 0.302859 2.013885 0.302859
v 0.376324 1.972221 0.376324
v 0.443438 1.875000 0.443438
v -0.443438 1.875000 -0.443438
v -0.376324 1.972221 -0.376324
v -0.302859 2.013885 -0.302859
v -0.302859 2.013885 0.302859
v -0.376324 1.972221 0.376324
v -0.443438 1.875000 0.443438
v 0.182083 2.439714 -0.091833
v 0.195542 2.451888 0.000000
v 0.182083 2.439714 0.091833
v 0.091833 2.439713 0.182083
v 0.000000 2.451888 0.195542
v -0.091833 2.439713 0.182083
v -0.182083 2.439713 0.091833
v -0.195542 2.451888 0.000000
v -0.182083 2.439713 -0.091833
v -0.091833 2.439713 -0.182083
v 0.000000 2.451888 -0.195542
v 0.091833 2.439713 -0.182083
v 0.217609 2.151385 -0.217609
v 0.204423 2.264864 -0.204423
v 0.182083 2.358073 -0.182083
v 0.182083 2.358073 0.182083
v 0.204423 2.264864 0.204423
v 0.217609 2.151385 0.217609
v -0.217609 2.151385 -0.217609
v -0.204423 2.264864 -0.204423
v -0.182083 2.358073 -0.182083
v -0.182083 2.358073 0.182083
v -0.204423 2.264864 0.204423
v -0.217609 2.151385 0.217609
v 0.369420 1.106004 -0.756145
v 0.394420 1.055574 -0.756145
v 0.369420 1.005144 -0.756145
v 0.169420 0.937903 -0.756145
v 0.019420 0.929498 -0.756145
v -0.130580 0.937903 -0.756145
v -0.330580 1.005144 -0.756145
v -0.355580 1.055574 -0.756145
v -0.330580 1.106004 -0.756145
v -0.130580 1.173244 -0.756145
v 0.019420 1.181649 -0.756145
v 0.169420 1.173244 -0.756145
v 0.550000 0.000000 -0.550000
v 0.496719 1.687500 -0.496719
v 0.550000 0.000000 0.550000
v 0.496719 1.687500 0.496719
v -0.550000 0.000000 -0.550000
v -0.496719 1.687500 -0.496719
v -0.550000 0.000000 0.550000
v -0.496719 1.687500 0.496719
v 0.243225 2.055202 -0.243225
v 0.243225 2.055202 0.243225
v -0.243225 2.055202 -0.243225
v -0.243225 2.055202 0.243225
v 0.154815 2.415047 -0.154815
v 0.154815 2.415047 0.154815
v -0.154815 2.415047 -0.154815
v -0.154815 2.415047 0.154815
v 0.294420 0.963119 -0.756145
v -0.255580 0.963119 -0.756145
v 0.294420 1.148029 -0.756145
v -0.255580 1.148029 -0.756145
vn 0.999400 0.034500 0.000000
vn 0.937800 0.034900 -0.345400
vn 0.933900 0.096800 -0.344100
vn 0.995400 0.095500 0.000000
vn 0.908100 0.251300 -0.334900
vn 0.968600 0.248500 0.000000
vn 0.706600 0.035700 -0.706600
vn 0.703600 0.098800 -0.703600
vn 0.683600 0.255400 -0.683600
vn 0.933900 0.096800 0.344100
vn 0.937800 0.034900 0.345400
vn 0.703600 0.098800 0.703600
vn 0.706600 0.035700 0.706600
vn 0.908100 0.251300 0.334900
vn 0.683600 0.255400 0.683600
vn 0.938400 0.007800 0.345500
vn 1.000000 0.007700 0.000000
vn 0.698800 -0.667400 0.257300
vn 0.740600 -0.671900 0.000000
vn 0.707100 0.008000 0.707100
vn 0.533500 -0.656400 0.533500
vn 0.938400 0.007800 -0.345500
vn 0.707100 0.008000 -0.707100
vn 0.698800 -0.667400 -0.257300
vn 0.533500 -0.656400 -0.533500
vn 0.000000 0.034500 0.999400
vn 0.345400 0.034900 0.937800
vn 0.344100 0.096800 0.933900
vn 0.000000 0.095500 0.995400
vn 0.334900 0.251300 0.908100
vn 0.000000 0.248500 0.968600
vn -0.344100 0.096800 0.933900
vn -0.345400 0.034900 0.937800
vn -0.703600 0.098800 0.703600
vn -0.706600 0.035700 0.706600
vn -0.334900 0.251300 0.908100
vn -0.683600 0.255400 0.683600
vn -0.345500 0.007800 0.938400
vn 0.000000 0.007700 1.000000
vn -0.257300 -0.667400 0.698800
vn 0.000000 -0.671900 0.740600
vn -0.707100 0.008000 0.707100
vn -0.533500 -0.656400 0.533500
vn 0.345500 0.007800 0.938400
vn 0.257300 -0.667400 0.698800
vn -0.999400 0.034500 0.000000
vn -0.937800 0.034900 0.345400
vn -0.933900 0.096800 0.344100
vn -0.995400 0.095500 0.000000
vn -0.908100 0.251300 0.334900
vn -0.968600 0.248500 0.000000
vn -0.933900 0.096800 -0.344100
vn -0.937800 0.034900 -0.345400
vn -0.703600 0.098800 -0.703600
vn -0.706600 0.035700 -0.706600
vn -0.908100 0.251300 -0.334900
vn -0.683600 0.255400 -0.683600
vn -0.938400 0.007800 -0.345500
vn -1.000000 0.007700 0.000000
vn -0.698800 -0.667400 -0.257300
vn -0.740600 -0.671900 0.000000
vn -0.707100 0.008000 -0.707100
vn -0.533500 -0.656400 -0.533500
vn -0.938400 0.007800 0.345500
vn -0.698800 -0.667400 0.257300
vn 0.000000 -1.000000 0.000000
vn 0.000000 -0.671900 -0.740600
vn 0.257300 -0.667400 -0.698800
vn -0.257300 -0.667400 -0.698800
vn 0.583100 0.812300 0.000000
vn 0.544900 0.814400 0.199400
vn 0.796900 0.528100 0.293500
vn 0.851500 0.524400 0.000000
vn 0.408200 0.816500 0.408200
vn 0.598400 0.532800 0.598400
vn 0.796900 0.528100 -0.293500
vn 0.544900 0.814400 -0.199400
vn 0.598400 0.532800 -0.598400
vn 0.408200 0.816500 -0.408200
vn 0.385200 0.912000 -0.141300
vn 0.415500 0.909600 0.000000
vn 0.680300 0.689000 -0.249700
vn 0.730900 0.682500 0.000000
vn 0.283900 0.915800 -0.283900
vn 0.503300 0.702400 -0.503300
vn 0.385200 0.912000 0.141300
vn 0.283900 0.915800 0.283900
vn 0.680300 0.689000 0.249700
vn 0.503300 0.702400 0.503300
vn 0.975800 0.218500 0.000000
vn 0.911600 0.225500 0.343700
vn 0.907400 0.254600 0.334200
vn 0.968100 0.250300 0.000000
vn 0.687600 0.233300 0.687600
vn 0.682500 0.261700 0.682500
vn 0.907400 0.254600 -0.334200
vn 0.911600 0.225500 -0.343700
vn 0.682500 0.261700 -0.682500
vn 0.687600 0.233300 -0.687600
vn 0.842000 0.421900 -0.336100
vn 0.904000 0.427500 0.000000
vn 0.638400 0.698400 -0.323600
vn 0.676700 0.736200 0.000000
vn 0.642500 0.417400 -0.642500
vn 0.557000 0.616100 -0.557000
vn 0.842000 0.421900 0.336100
vn 0.642500 0.417400 0.642500
vn 0.638400 0.698400 0.323600
vn 0.557000 0.616100 0.557000
vn 0.000000 0.812300 -0.583100
vn 0.199400 0.814400 -0.544900
vn 0.293500 0.528100 -0.796900
vn 0.000000 0.524400 -0.851500
vn 0.334900 0.251300 -0.908100
vn 0.000000 0.248500 -0.968600
vn -0.293500 0.528100 -0.796900
vn -0.199400 0.814400 -0.544900
vn -0.598400 0.532800 -0.598400
vn -0.408200 0.816500 -0.408200
vn -0.334900 0.251300 -0.908100
vn -0.141300 0.912000 -0.385200
vn 0.000000 0.909600 -0.415500
vn -0.249700 0.689000 -0.680300
vn 0.000000 0.682500 -0.730900
vn -0.283900 0.915800 -0.283900
vn -0.503300 0.702400 -0.503300
vn 0.141300 0.912000 -0.385200
vn 0.249700 0.689000 -0.680300
vn 0.000000 0.812300 0.583100
vn -0.199400 0.814400 0.544900
vn -0.293500 0.528100 0.796900
vn 0.000000 0.524400 0.851500
vn -0.408200 0.816500 0.408200
vn -0.598400 0.532800 0.598400
vn 0.293500 0.528100 0.796900
vn 0.199400 0.814400 0.544900
vn 0.141300 0.912000 0.385200
vn 0.000000 0.909600 0.415500
vn 0.249700 0.689000 0.680300
vn 0.000000 0.682500 0.730900
vn -0.141300 0.912000 0.385200
vn -0.283900 0.915800 0.283900
vn -0.249700 0.689000 0.680300
vn -0.503300 0.702400 0.503300
vn -0.583100 0.812300 0.000000
vn -0.544900 0.814400 -0.199400
vn -0.796900 0.528100 -0.293500
vn -0.851500 0.524400 0.000000
vn -0.796900 0.528100 0.293500
vn -0.544900 0.814400 0.199400
vn -0.385200 0.912000 0.141300
vn -0.415500 0.909600 0.000000
vn -0.680300 0.689000 0.249700
vn -0.730900 0.682500 0.000000
vn -0.385200 0.912000 -0.141300
vn -0.680300 0.689000 -0.249700
vn 0.000000 1.000000 0.000000
vn 0.000000 0.944700 -0.327900
vn -0.322900 0.889600 -0.322900
vn -0.327900 0.944700 0.000000
vn -0.638400 0.698400 -0.323600
vn -0.676700 0.736200 0.000000
vn 0.000000 0.736200 -0.676700
vn -0.323600 0.698400 -0.638400
vn -0.557000 0.616100 -0.557000
vn -0.322900 0.889600 0.322900
vn 0.000000 0.944700 0.327900
vn -0.323600 0.698400 0.638400
vn 0.000000 0.736200 0.676700
vn -0.638400 0.698400 0.323600
vn -0.557000 0.616100 0.557000
vn 0.322900 0.889600 0.322900
vn 0.327900 0.944700 0.000000
vn 0.323600 0.698400 0.638400
vn 0.322900 0.889600 -0.322900
vn 0.323600 0.698400 -0.638400
vn 0.000000 0.218500 -0.975800
vn 0.343700 0.225500 -0.911600
vn 0.334200 0.254600 -0.907400
vn 0.000000 0.250300 -0.968100
vn -0.334200 0.254600 -0.907400
vn -0.343700 0.225500 -0.911600
vn -0.682500 0.261700 -0.682500
vn -0.687600 0.233300 -0.687600
vn -0.336100 0.421900 -0.842000
vn 0.000000 0.427500 -0.904000
vn -0.642500 0.417400 -0.642500
vn 0.336100 0.421900 -0.842000
vn 0.000000 0.218500 0.975800
vn -0.343700 0.225500 0.911600
vn -0.334200 0.254600 0.907400
vn 0.000000 0.250300 0.968100
vn -0.687600 0.233300 0.687600
vn -0.682500 0.261700 0.682500
vn 0.334200 0.254600 0.907400
vn 0.343700 0.225500 0.911600
vn 0.336100 0.421900 0.842000
vn 0.000000 0.427500 0.904000
vn -0.336100 0.421900 0.842000
vn -0.642500 0.417400 0.642500
vn -0.975800 0.218500 0.000000
vn -0.911600 0.225500 -0.343700
vn -0.907400 0.254600 -0.334200
vn -0.968100 0.250300 0.000000
vn -0.907400 0.254600 0.334200
vn -0.911600 0.225500 0.343700
vn -0.842000 0.421900 0.336100
vn -0.904000 0.427500 0.000000
vn -0.842000 0.421900 -0.336100
vn 0.000000 0.034500 -0.999400
vn 0.345400 0.034900 -0.937800
vn 0.345500 0.007800 -0.938400
vn 0.000000 0.007700 -1.000000
vn -0.345500 0.007800 -0.938400
vn -0.345400 0.034900 -0.937800
vn -0.344100 0.096800 -0.933900
vn 0.000000 0.095500 -0.995400
vn 0.344100 0.096800 -0.933900
vn -0.000000 0.000000 -1.000000
usemtl PressureProtection
s 1
f 1//1 5//2 6//3 2//4
f 2//4 6//3 139//5 140//6
f 5//2 137//7 138//8 6//3
f 6//3 138//8 233//9 139//5
f 1//1 2//4 7//10 3//11
f 3//11 7//10 142//12 143//13
f 2//4 140//6 141//14 7//10
f 7//10 141//14 235//15 142//12
f 1//1 3//11 8//16 4//17
f 4//17 8//16 145//18 146//19
f 3//11 143//13 144//20 8//16
f 8//16 144//20 234//21 145//18
f 1//1 4//17 9//22 5//2
f 5//2 9//22 136//23 137//7
f 4//17 146//19 147//24 9//22
f 9//22 147//24 232//25 136//23
f 10//26 14//27 15//28 11//29
f 11//29 15//28 148//30 149//31
f 14//27 143//13 142//12 15//28
f 15//28 142//12 235//15 148//30
f 10//26 11//29 16//32 12//33
f 12//33 16//32 151//34 152//35
f 11//29 149//31 150//36 16//32
f 16//32 150//36 239//37 151//34
f 10//26 12//33 17//38 13//39
f 13//39 17//38 154//40 155//41
f 12//33 152//35 153//42 17//38
f 17//38 153//42 238//43 154//40
f 10//26 13//39 18//44 14//27
f 14//27 18//44 144//20 143//13
f 13//39 155//41 156//45 18//44
f 18//44 156//45 234//21 144//20
f 19//46 23//47 24//48 20//49
f 20//49 24//48 157//50 158//51
f 23//47 152//35 151//34 24//48
f 24//48 151//34 239//37 157//50
f 19//46 20//49 25//52 21//53
f 21//53 25//52 160//54 161//55
f 20//49 158//51 159//56 25//52
f 25//52 159//56 237//57 160//54
f 19//46 21//53 26//58 22//59
f 22//59 26//58 163//60 164//61
f 21//53 161//55 162//62 26//58
f 26//58 162//62 236//63 163//60
f 19//46 22//59 27//64 23//47
f 23//47 27//64 153//42 152//35
f 22//59 164//61 165//65 27//64
f 27//64 165//65 238//43 153//42
f 28//66 32//66 33//66 29//66
f 29//66 33//66 147//24 146//19
f 32//66 170//67 169//68 33//66
f 33//66 169//68 232//25 147//24
f 28//66 29//66 34//66 30//66
f 30//66 34//66 156//45 155//41
f 29//66 146//19 145//18 34//66
f 34//66 145//18 234//21 156//45
f 28//66 30//66 35//66 31//66
f 31//66 35//66 165//65 164//61
f 30//66 155//41 154//40 35//66
f 35//66 154//40 238//43 165//65
f 28//66 31//66 36//66 32//66
f 32//66 36//66 171//69 170//67
f 31//66 164//61 163//60 36//66
f 36//66 163//60 236//63 171//69
f 37//70 41//71 42//72 38//73
f 38//73 42//72 141//14 140//6
f 41//71 188//74 189//75 42//72
f 42//72 189//75 235//15 141//14
f 37//70 38//73 43//76 39//77
f 39//77 43//76 184//78 185//79
f 38//73 140//6 139//5 43//76
f 43//76 139//5 233//9 184//78
f 37//70 39//77 44//80 40//81
f 40//81 44//80 172//82 173//83
f 39//77 185//79 186//84 44//80
f 44//80 186//84 240//85 172//82
f 37//70 40//81 45//86 41//71
f 41//71 45//86 187//87 188//74
f 40//81 173//83 174//88 45//86
f 45//86 174//88 241//89 187//87
f 46//90 50//91 51//92 47//93
f 47//93 51//92 174//88 173//83
f 50//91 212//94 213//95 51//92
f 51//92 213//95 241//89 174//88
f 46//90 47//93 52//96 48//97
f 48//97 52//96 208//98 209//99
f 47//93 173//83 172//82 52//96
f 52//96 172//82 240//85 208//98
f 46//90 48//97 53//100 49//101
f 49//101 53//100 196//102 197//103
f 48//97 209//99 210//104 53//100
f 53//100 210//104 244//105 196//102
f 46//90 49//101 54//106 50//91
f 50//91 54//106 211//107 212//94
f 49//101 197//103 198//108 54//106
f 54//106 198//108 245//109 211//107
f 55//110 59//111 60//112 56//113
f 56//113 60//112 168//114 167//115
f 59//111 185//79 184//78 60//112
f 60//112 184//78 233//9 168//114
f 55//110 56//113 61//116 57//117
f 57//117 61//116 190//118 191//119
f 56//113 167//115 166//120 61//116
f 61//116 166//120 237//57 190//118
f 55//110 57//117 62//121 58//122
f 58//122 62//121 181//123 182//124
f 57//117 191//119 192//125 62//121
f 62//121 192//125 242//126 181//123
f 55//110 58//122 63//127 59//111
f 59//111 63//127 186//84 185//79
f 58//122 182//124 183//128 63//127
f 63//127 183//128 240//85 186//84
f 64//129 68//130 69//131 65//132
f 65//132 69//131 150//36 149//31
f 68//130 194//133 195//134 69//131
f 69//131 195//134 239//37 150//36
f 64//129 65//132 70//135 66//136
f 66//136 70//135 189//75 188//74
f 65//132 149//31 148//30 70//135
f 70//135 148//30 235//15 189//75
f 64//129 66//136 71//137 67//138
f 67//138 71//137 175//139 176//140
f 66//136 188//74 187//87 71//137
f 71//137 187//87 241//89 175//139
f 64//129 67//138 72//141 68//130
f 68//130 72//141 193//142 194//133
f 67//138 176//140 177//143 72//141
f 72//141 177//143 243//144 193//142
f 73//145 77//146 78//147 74//148
f 74//148 78//147 159//56 158//51
f 77//146 191//119 190//118 78//147
f 78//147 190//118 237//57 159//56
f 73//145 74//148 79//149 75//150
f 75//150 79//149 195//134 194//133
f 74//148 158//51 157//50 79//149
f 79//149 157//50 239//37 195//134
f 73//145 75//150 80//151 76//152
f 76//152 80//151 178//153 179//154
f 75//150 194//133 193//142 80//151
f 80//151 193//142 243//144 178//153
f 73//145 76//152 81//155 77//146
f 77//146 81//155 192//125 191//119
f 76//152 179//154 180//156 81//155
f 81//155 180//156 242//126 192//125
f 82//157 86//158 87//159 83//160
f 83//160 87//159 204//161 203//162
f 86//158 206//163 205//164 87//159
f 87//159 205//164 246//165 204//161
f 82//157 83//160 88//166 84//167
f 84//167 88//166 201//168 200//169
f 83//160 203//162 202//170 88//166
f 88//166 202//170 247//171 201//168
f 82//157 84//167 89//172 85//173
f 85//173 89//172 198//108 197//103
f 84//167 200//169 199//174 89//172
f 89//172 199//174 245//109 198//108
f 82//157 85//173 90//175 86//158
f 86//158 90//175 207//176 206//163
f 85//173 197//103 196//102 90//175
f 90//175 196//102 244//105 207//176
f 91//177 95//178 96//179 92//180
f 92//180 96//179 183//128 182//124
f 95//178 209//99 208//98 96//179
f 96//179 208//98 240//85 183//128
f 91//177 92//180 97//181 93//182
f 93//182 97//181 214//183 215//184
f 92//180 182//124 181//123 97//181
f 97//181 181//123 242//126 214//183
f 91//177 93//182 98//185 94//186
f 94//186 98//185 205//164 206//163
f 93//182 215//184 216//187 98//185
f 98//185 216//187 246//165 205//164
f 91//177 94//186 99//188 95//178
f 95//178 99//188 210//104 209//99
f 94//186 206//163 207//176 99//188
f 99//188 207//176 244//105 210//104
f 100//189 104//190 105//191 101//192
f 101//192 105//191 177//143 176//140
f 104//190 218//193 219//194 105//191
f 105//191 219//194 243//144 177//143
f 100//189 101//192 106//195 102//196
f 102//196 106//195 213//95 212//94
f 101//192 176//140 175//139 106//195
f 106//195 175//139 241//89 213//95
f 100//189 102//196 107//197 103//198
f 103//198 107//197 199//174 200//169
f 102//196 212//94 211//107 107//197
f 107//197 211//107 245//109 199//174
f 100//189 103//198 108//199 104//190
f 104//190 108//199 217//200 218//193
f 103//198 200//169 201//168 108//199
f 108//199 201//168 247//171 217//200
f 109//201 113//202 114//203 110//204
f 110//204 114//203 180//156 179//154
f 113//202 215//184 214//183 114//203
f 114//203 214//183 242//126 180//156
f 109//201 110//204 115//205 111//206
f 111//206 115//205 219//194 218//193
f 110//204 179//154 178//153 115//205
f 115//205 178//153 243//144 219//194
f 109//201 111//206 116//207 112//208
f 112//208 116//207 202//170 203//162
f 111//206 218//193 217//200 116//207
f 116//207 217//200 247//171 202//170
f 109//201 112//208 117//209 113//202
f 113//202 117//209 216//187 215//184
f 112//208 203//162 204//161 117//209
f 117//209 204//161 246//165 216//187
f 118//210 122//211 123//212 119//213
f 119//213 123//212 169//68 170//67
f 122//211 137//7 136//23 123//212
f 123//212 136//23 232//25 169//68
f 118//210 119//213 124//214 120//215
f 120//215 124//214 162//62 161//55
f 119//213 170//67 171//69 124//214
f 124//214 171//69 236//63 162//62
f 118//210 120//215 125//216 121//217
f 121//217 125//216 166//120 167//115
f 120//215 161//55 160//54 125//216
f 125//216 160//54 237//57 166//120
f 118//210 121//217 126//218 122//211
f 122//211 126//218 138//8 137//7
f 121//217 167//115 168//114 126//218
f 126//218 168//114 233//9 138//8
usemtl Bone
s off
f 127//219 131//219 132//219 128//219
f 128//219 132//219 223//219 224//219
f 131//219 221//219 222//219 132//219
f 132//219 222//219 248//219 223//219
f 127//219 128//219 133//219 129//219
f 129//219 133//219 226//219 227//219
f 128//219 224//219 225//219 133//219
f 133//219 225//219 249//219 226//219
f 127//219 129//219 134//219 130//219
f 130//219 134//219 229//219 230//219
f 129//219 227//219 228//219 134//219
f 134//219 228//219 251//219 229//219
f 127//219 130//219 135//219 131//219
f 131//219 135//219 220//219 221//219
f 130//219 230//219 231//219 135//219
f 135//219 231//219 250//219 220//219
