# Blender v2.79 (sub 0) OBJ File: 'dizzy-z-scene-02.blend'
# www.blender.org
mtllib scene-02-dangers.mtl
o Stalactite-02.003_Cube.4116
v -36.348267 66.399460 -0.035592
v -36.348267 66.399460 0.036408
v -36.398266 66.399460 -0.035592
v -36.398266 66.399460 0.036408
v -36.251347 66.938477 -0.118265
v -36.251347 66.938484 0.119082
v -36.494541 66.973366 0.119082
v -36.494541 66.973366 -0.118265
vn 0.6504 0.4395 -0.6195
vn 0.6504 0.4396 0.6194
vn 0.5183 -0.6644 0.5384
vn 0.5183 -0.6644 -0.5384
vn -0.5824 0.5455 0.6027
vn -0.5343 -0.6556 0.5335
vn -0.5824 0.5455 -0.6027
vn -0.5343 -0.6556 -0.5335
usemtl MarsGround
s 1
f 5//1 6//2 2//3 1//4
f 6//2 7//5 4//6 2//3
f 7//5 8//7 3//8 4//6
f 8//7 5//1 1//4 3//8
f 1//4 2//3 4//6 3//8
f 5//1 8//7 7//5 6//2
o Stalactite-02.002_Cube.4115
v -23.748266 66.499458 -0.035592
v -23.748266 66.499458 0.036408
v -23.798267 66.499458 -0.035592
v -23.798267 66.499458 0.036408
v -23.651346 67.038483 -0.118265
v -23.651346 67.038483 0.119082
v -23.894541 67.073364 0.119082
v -23.894541 67.073364 -0.118265
vn 0.6504 0.4396 -0.6195
vn 0.6504 0.4396 0.6195
vn 0.5183 -0.6644 0.5384
vn 0.5183 -0.6644 -0.5384
vn -0.5824 0.5455 0.6027
vn -0.5343 -0.6556 0.5335
vn -0.5824 0.5455 -0.6027
vn -0.5343 -0.6556 -0.5335
usemtl MarsGround
s 1
f 13//9 14//10 10//11 9//12
f 14//10 15//13 12//14 10//11
f 15//13 16//15 11//16 12//14
f 16//15 13//9 9//12 11//16
f 9//12 10//11 12//14 11//16
f 13//9 16//15 15//13 14//10
o Stalactite-02.001_Cube.1683
v -394.390076 -49.903259 -0.035593
v -394.390076 -49.903259 0.036407
v -394.440094 -49.903259 -0.035593
v -394.440094 -49.903259 0.036407
v -394.293152 -49.364243 -0.118266
v -394.293152 -49.364243 0.119081
v -394.536346 -49.329357 0.119081
v -394.536346 -49.329357 -0.118266
vn 0.6504 0.4396 -0.6194
vn 0.6504 0.4396 0.6194
vn 0.5183 -0.6644 0.5384
vn 0.5183 -0.6644 -0.5384
vn -0.5823 0.5455 0.6027
vn -0.5343 -0.6556 0.5335
vn -0.5823 0.5455 -0.6027
vn -0.5343 -0.6556 -0.5335
usemtl MarsGround
s 1
f 21//17 22//18 18//19 17//20
f 22//18 23//21 20//22 18//19
f 23//21 24//23 19//24 20//22
f 24//23 21//17 17//20 19//24
f 17//20 18//19 20//22 19//24
f 21//17 24//23 23//21 22//18
o Stalactite-02_Cube.048
v -289.248260 -51.600533 -0.035592
v -289.248260 -51.600533 0.036408
v -289.298279 -51.600533 -0.035592
v -289.298279 -51.600533 0.036408
v -289.151337 -51.061516 -0.118265
v -289.151337 -51.061516 0.119082
v -289.394531 -51.026630 0.119082
v -289.394531 -51.026630 -0.118265
vn 0.6504 0.4395 -0.6195
vn 0.6504 0.4396 0.6195
vn 0.5183 -0.6644 0.5384
vn 0.5183 -0.6644 -0.5384
vn -0.5824 0.5455 0.6027
vn -0.5343 -0.6556 0.5335
vn -0.5824 0.5455 -0.6027
vn -0.5343 -0.6556 -0.5335
usemtl MarsGround
s 1
f 29//25 30//26 26//27 25//28
f 30//26 31//29 28//30 26//27
f 31//29 32//31 27//32 28//30
f 32//31 29//25 25//28 27//32
f 25//28 26//27 28//30 27//32
f 29//25 32//31 31//29 30//26
