# Dizzy Omega scene splitter

mtllib scene-01.mtl

o OverGround.057_Cube.1375
v -569.484497 20.015369 -1.874768
v -568.660217 20.015369 -1.874074
v -569.484558 19.812895 -1.749782
v -570.309265 20.015369 -1.875000
v -569.484558 20.217844 -1.749782
v -568.660400 20.217766 -1.749128
v -568.660400 19.812973 -1.749128
v -570.309265 19.812870 -1.750000
v -570.309265 20.217869 -1.750000
v -569.484497 20.015369 1.874769
v -568.660217 20.015369 1.874074
v -569.484558 20.217844 1.749782
v -570.309265 20.015369 1.875000
v -569.484558 19.812895 1.749782
v -568.660400 19.812973 1.749129
v -568.660400 20.217766 1.749129
v -570.309265 20.217869 1.750000
v -570.309265 19.812870 1.750000
v -569.484497 19.509182 0.000000
v -568.660217 19.509369 0.000000
v -569.484558 19.542929 0.749905
v -570.309265 19.509119 0.000000
v -569.484558 19.542929 -0.749904
v -568.660400 19.543104 -0.749619
v -568.660400 19.543104 0.749619
v -570.309265 19.542870 0.750000
v -570.309265 19.542870 -0.750000
v -569.484497 20.521557 0.000000
v -568.660217 20.521370 0.000000
v -569.484558 20.487810 -0.749904
v -570.309265 20.521620 0.000000
v -569.484558 20.487810 0.749905
v -568.660400 20.487635 0.749619
v -568.660400 20.487635 -0.749619
v -570.309265 20.487869 -0.750000
v -570.309265 20.487869 0.750000
v -567.835022 20.015369 0.000000
v -567.835449 19.762495 0.000000
v -567.835449 20.015369 -0.936574
v -567.835449 20.268244 0.000000
v -567.835449 20.015369 0.936574
v -567.835815 19.779354 0.874129
v -567.835815 19.779354 -0.874128
v -567.835815 20.251385 -0.874128
v -567.835815 20.251385 0.874129
v -571.134277 20.015369 0.000000
v -571.134277 20.015369 0.937500
v -571.134277 20.268494 0.000000
v -571.134277 20.015369 -0.937500
v -571.134277 19.762245 0.000000
v -571.134277 19.779119 0.875000
v -571.134277 20.251619 0.875000
v -571.134277 20.251619 -0.875000
v -571.134277 19.779119 -0.875000
v -568.042297 20.226120 1.529943
v -568.041992 20.015369 1.639236
v -568.042297 19.804619 1.529943
v -568.042297 20.428453 0.780556
v -568.041992 20.457962 0.000000
v -568.042297 20.428453 -0.780555
v -568.042297 20.226120 -1.529943
v -568.041992 20.015369 -1.639236
v -568.042297 19.804619 -1.529943
v -568.042297 19.602285 -0.780555
v -568.041992 19.572775 0.000000
v -568.042297 19.602285 0.780556
v -571.134277 20.217869 1.750000
v -571.134277 20.015369 1.875000
v -571.134277 19.812870 1.750000
v -571.134277 20.487869 0.750000
v -571.134277 20.521620 0.000000
v -571.134277 20.487869 -0.750000
v -571.134277 20.217869 -1.750000
v -571.134277 20.015369 -1.875000
v -571.134277 19.812870 -1.750000
v -571.134277 19.542870 -0.750000
v -571.134277 19.509119 0.000000
v -571.134277 19.542870 0.750000
v -568.660522 19.644306 -1.374305
v -569.484558 19.644167 -1.374826
v -570.309265 19.644119 -1.375000
v -570.309265 20.386620 -1.375000
v -569.484558 20.386572 -1.374826
v -568.660522 20.386433 -1.374305
v -568.660522 20.386433 1.374306
v -569.484558 20.386572 1.374827
v -570.309265 20.386620 1.375000
v -570.309265 19.644119 1.375000
v -569.484558 19.644167 1.374827
v -568.660522 19.644306 1.374306
v -568.202637 19.674379 -1.262927
v -568.202637 20.356359 -1.262927
v -568.202637 19.674379 1.262927
v -568.202637 20.356359 1.262927
v -571.134277 19.644119 -1.375000
v -571.134277 20.386620 -1.375000
v -571.134277 19.644119 1.375000
v -571.134277 20.386620 1.375000
vn 0.000500 0.000000 -1.000000
vn 0.000400 0.751600 -0.659600
vn 0.121200 0.727200 -0.675600
vn 0.166000 0.000000 -0.986100
vn 0.615400 0.597400 -0.514100
vn 0.667700 0.000000 -0.744300
vn 0.000200 0.957700 -0.287600
vn 0.059800 0.954600 -0.291900
vn 0.254400 0.931000 -0.261600
vn 0.121200 -0.727200 -0.675600
vn 0.000400 -0.751600 -0.659600
vn 0.059800 -0.954600 -0.291900
vn 0.000200 -0.957700 -0.287600
vn 0.615400 -0.597400 -0.514100
vn 0.254400 -0.931000 -0.261600
vn 0.000100 -0.751600 -0.659600
vn 0.000100 0.000000 -1.000000
vn -0.646700 -0.573300 -0.503100
vn -0.605800 0.000000 -0.795600
vn 0.000000 -0.957700 -0.287600
vn -0.678800 -0.703300 -0.211200
vn 0.000100 0.751600 -0.659600
vn 0.000000 0.957700 -0.287600
vn -0.646700 0.573300 -0.503100
vn -0.678800 0.703300 -0.211200
vn 0.000500 0.000000 1.000000
vn 0.000400 -0.751600 0.659600
vn 0.121200 -0.727200 0.675600
vn 0.166000 0.000000 0.986100
vn 0.615400 -0.597400 0.514100
vn 0.667700 0.000000 0.744300
vn 0.000200 -0.957700 0.287600
vn 0.059800 -0.954600 0.291900
vn 0.254400 -0.931000 0.261600
vn 0.121200 0.727200 0.675600
vn 0.000400 0.751600 0.659600
vn 0.059800 0.954600 0.291900
vn 0.000200 0.957700 0.287600
vn 0.615400 0.597400 0.514100
vn 0.254400 0.931000 0.261600
vn 0.000100 0.751600 0.659600
vn 0.000100 0.000000 1.000000
vn -0.646700 0.573300 0.503100
vn -0.605800 0.000000 0.795600
vn 0.000000 0.957700 0.287600
vn -0.678800 0.703300 0.211200
vn 0.000100 -0.751600 0.659600
vn 0.000000 -0.957700 0.287600
vn -0.646700 -0.573300 0.503100
vn -0.678800 -0.703300 0.211200
vn 0.000100 -1.000000 0.000000
vn 0.000200 -0.994700 -0.102600
vn 0.048100 -0.993600 -0.102400
vn 0.048900 -0.998800 0.000000
vn 0.376600 -0.919900 -0.109000
vn 0.396200 -0.918100 0.000000
vn 0.048100 -0.993600 0.102400
vn 0.000200 -0.994700 0.102600
vn 0.376600 -0.919900 0.109000
vn 0.000000 -0.994700 0.102600
vn 0.000000 -1.000000 0.000000
vn -0.694300 -0.715800 0.073800
vn -0.697100 -0.716900 0.000000
vn 0.000000 -0.994700 -0.102600
vn -0.694300 -0.715800 -0.073800
vn 0.000100 1.000000 0.000000
vn 0.000200 0.994700 0.102600
vn 0.048100 0.993600 0.102400
vn 0.048900 0.998800 0.000000
vn 0.376600 0.919900 0.109000
vn 0.396200 0.918100 0.000000
vn 0.048100 0.993600 -0.102400
vn 0.000200 0.994700 -0.102600
vn 0.376600 0.919900 -0.109000
vn 0.000000 0.994700 -0.102600
vn 0.000000 1.000000 0.000000
vn -0.694300 0.715800 -0.073800
vn -0.697100 0.716900 0.000000
vn 0.000000 0.994700 0.102600
vn -0.694300 0.715800 0.073800
vn 1.000000 0.000000 0.000000
vn 0.985100 0.000000 0.171600
vn 0.873700 -0.463900 0.146200
vn 0.909100 -0.416400 0.000000
vn 0.873700 -0.463900 -0.146300
vn 0.985100 0.000000 -0.171600
vn 0.873700 0.463900 -0.146200
vn 0.909100 0.416400 0.000000
vn 0.873700 0.463900 0.146300
vn -1.000000 0.000000 0.000000
vn -1.000000 0.000100 0.000000
vn -1.000000 -0.000100 0.000000
usemtl MarsGround
s 1
f 1//1 5//2 6//3 2//4
f 2//4 6//3 61//5 62//6
f 5//2 83//7 84//8 6//3
f 6//3 84//8 92//9 61//5
f 1//1 2//4 7//10 3//11
f 3//11 7//10 79//12 80//13
f 2//4 62//6 63//14 7//10
f 7//10 63//14 91//15 79//12
f 1//1 3//11 8//16 4//17
f 4//17 8//16 75//18 74//19
f 3//11 80//13 81//20 8//16
f 8//16 81//20 95//21 75//18
f 1//1 4//17 9//22 5//2
f 5//2 9//22 82//23 83//7
f 4//17 74//19 73//24 9//22
f 9//22 73//24 96//25 82//23
f 10//26 14//27 15//28 11//29
f 11//29 15//28 57//30 56//31
f 14//27 89//32 90//33 15//28
f 15//28 90//33 93//34 57//30
f 10//26 11//29 16//35 12//36
f 12//36 16//35 85//37 86//38
f 11//29 56//31 55//39 16//35
f 16//35 55//39 94//40 85//37
f 10//26 12//36 17//41 13//42
f 13//42 17//41 67//43 68//44
f 12//36 86//38 87//45 17//41
f 17//41 87//45 98//46 67//43
f 10//26 13//42 18//47 14//27
f 14//27 18//47 88//48 89//32
f 13//42 68//44 69//49 18//47
f 18//47 69//49 97//50 88//48
f 19//51 23//52 24//53 20//54
f 20//54 24//53 64//55 65//56
f 23//52 80//13 79//12 24//53
f 24//53 79//12 91//15 64//55
f 19//51 20//54 25//57 21//58
f 21//58 25//57 90//33 89//32
f 20//54 65//56 66//59 25//57
f 25//57 66//59 93//34 90//33
f 19//51 21//58 26//60 22//61
f 22//61 26//60 78//62 77//63
f 21//58 89//32 88//48 26//60
f 26//60 88//48 97//50 78//62
f 19//51 22//61 27//64 23//52
f 23//52 27//64 81//20 80//13
f 22//61 77//63 76//65 27//64
f 27//64 76//65 95//21 81//20
f 28//66 32//67 33//68 29//69
f 29//69 33//68 58//70 59//71
f 32//67 86//38 85//37 33//68
f 33//68 85//37 94//40 58//70
f 28//66 29//69 34//72 30//73
f 30//73 34//72 84//8 83//7
f 29//69 59//71 60//74 34//72
f 34//72 60//74 92//9 84//8
f 28//66 30//73 35//75 31//76
f 31//76 35//75 72//77 71//78
f 30//73 83//7 82//23 35//75
f 35//75 82//23 96//25 72//77
f 28//66 31//76 36//79 32//67
f 32//67 36//79 87//45 86//38
f 31//76 71//78 70//80 36//79
f 36//79 70//80 98//46 87//45
f 37//81 41//82 42//83 38//84
f 38//84 42//83 66//59 65//56
f 41//82 56//31 57//30 42//83
f 42//83 57//30 93//34 66//59
f 37//81 38//84 43//85 39//86
f 39//86 43//85 63//14 62//6
f 38//84 65//56 64//55 43//85
f 43//85 64//55 91//15 63//14
f 37//81 39//86 44//87 40//88
f 40//88 44//87 60//74 59//71
f 39//86 62//6 61//5 44//87
f 44//87 61//5 92//9 60//74
f 37//81 40//88 45//89 41//82
f 41//82 45//89 55//39 56//31
f 40//88 59//71 58//70 45//89
f 45//89 58//70 94//40 55//39
f 46//90 50//91 51//90 47//90
f 47//90 51//90 69//49 68//44
f 50//91 77//63 78//62 51//90
f 51//90 78//62 97//50 69//49
f 46//90 47//90 52//90 48//92
f 48//92 52//90 70//80 71//78
f 47//90 68//44 67//43 52//90
f 52//90 67//43 98//46 70//80
f 46//90 48//92 53//90 49//90
f 49//90 53//90 73//24 74//19
f 48//92 71//78 72//77 53//90
f 53//90 72//77 96//25 73//24
f 46//90 49//90 54//90 50//91
f 50//91 54//90 76//65 77//63
f 49//90 74//19 75//18 54//90
f 54//90 75//18 95//21 76//65
o Cube.030_Cube.1374
v -572.895691 4.420636 -3.000000
v -572.895691 23.520638 -3.000000
v -572.895691 4.420636 3.000000
v -572.895691 23.520638 3.000000
v -587.495667 4.420636 -3.000000
v -587.495667 23.520638 -3.000000
v -587.495667 4.420636 3.000000
v -587.495667 23.520638 3.000000
vn 0.000000 0.000000 1.000000
vn 0.000000 0.000000 -1.000000
usemtl CastleWallWhite
s off
f 102//93 106//93 105//93 101//93
f 104//94 100//94 99//94 103//94
o Cube.022_Cube.1366
v -570.922668 5.506529 -3.000001
v -570.922668 23.506529 -3.000001
v -570.922668 5.506529 2.999999
v -570.922668 23.506529 2.999999
v -572.922668 5.506529 -3.000001
v -572.922668 23.506529 -3.000001
v -572.922668 5.506529 2.999999
v -572.922668 23.506529 2.999999
vt 0.894948 0.540947
vt 0.888198 0.656162
vt 0.942639 0.638201
vt 0.933120 0.549673
vt 0.869870 0.636668
vt 0.933130 0.612897
vt 0.870667 0.530902
vt 0.894797 0.547339
vt 0.894772 0.719063
vt 1.000459 8.438864
vt 0.000063 8.436975
vt 0.000063 -0.437437
vt 1.000459 -0.435548
vn 1.000000 0.000000 0.000000
vn 0.000000 0.000000 1.000000
vn 0.000000 1.000000 0.000000
vn 0.000000 -1.000000 0.000000
vn 0.000000 0.000000 -1.000000
usemtl CastleWall
s off
f 108/1/95 110/2/95 109/3/95 107/4/95
f 110/2/96 114/5/96 113/6/96 109/3/96
f 112/7/97 114/5/97 110/2/97 108/1/97
usemtl CastleWall_NONE
s off
f 112/10/99 108/11/99 107/12/99 111/13/99
