# Blender v2.76 (sub 0) OBJ File: 'dizzy-z-scene-01.blend'
# www.blender.org
mtllib stone-00.mtl
o Stone.000_Cube.079
v 1.133572 0.402391 -0.436271
v 1.071118 0.378013 0.285448
v 1.172238 -1.022164 0.358008
v 1.403600 -0.941705 -0.335333
v 0.502735 0.305995 1.139726
v -0.431652 0.564816 1.008940
v -0.513522 -0.719856 1.082119
v 0.462044 -0.752097 1.074368
v -1.222670 0.576166 0.419827
v -1.282359 0.388593 -0.424013
v -1.353593 -0.513805 -0.630805
v -1.228791 -0.606327 0.448006
v -0.535185 0.459964 -1.057990
v 0.382447 0.383032 -1.082072
v 0.463003 -0.753185 -0.990545
v -0.607523 -0.663760 -1.155020
v 0.544666 -1.545071 -0.569385
v 0.554502 -1.399959 0.419625
v -0.495128 -1.283189 0.489525
v -0.517280 -1.157526 -0.542099
v -0.476805 1.155820 -0.384857
v -0.348362 1.086625 0.497522
v 0.383504 1.248907 0.474575
v 0.310957 1.112028 -0.466497
v 1.117384 0.446280 -0.145258
v 1.200616 -0.390882 0.472839
v 1.412456 -1.027529 -0.001114
v 1.434475 -0.182950 -0.540733
v -0.030849 0.524991 1.127331
v -0.678034 -0.081067 1.098440
v -0.071989 -0.648021 1.132837
v 0.521090 -0.206859 1.046549
v -1.412965 0.328916 0.024884
v -1.537516 -0.042898 -0.389207
v -1.302124 -0.569689 -0.029474
v -1.356897 0.007196 0.547818
v -0.065181 0.453685 -1.157407
v 0.548311 -0.209683 -1.155390
v -0.074658 -0.668962 -1.208057
v -0.601645 -0.063282 -1.137570
v 0.590896 -1.420635 0.115109
v -0.001563 -1.385288 0.484411
v -0.672633 -1.191074 -0.076415
v -0.159631 -1.342068 -0.395667
v -0.539187 1.296328 -0.078385
v -0.080642 1.414350 0.471355
v 0.453234 1.273857 0.056025
v 0.052749 1.437277 -0.530284
v 0.921230 -0.751839 -0.829600
v 0.685730 0.370297 -0.842535
v 0.704010 0.862901 -0.521729
v 0.799063 0.969678 0.459806
v 0.709691 0.182507 0.742816
v 0.774136 -0.900083 0.817607
v 1.028870 -1.466883 0.592668
v 1.034273 -1.307850 -0.541766
v 0.375454 0.890556 0.805716
v -0.380965 0.950828 0.865451
v -0.950924 0.436065 0.834466
v -0.971637 -0.749393 0.772696
v -0.548622 -1.144507 0.731838
v 0.346609 -1.076220 0.890704
v -1.001877 0.904845 0.420590
v -0.981806 0.779602 -0.410856
v -1.125787 0.456494 -0.893078
v -0.944756 -0.509017 -0.764260
v -0.993881 -0.887083 -0.384073
v -1.048054 -1.167040 0.519381
v -0.489384 0.975097 -0.764606
v 0.275697 0.863553 -0.719997
v 0.360742 -1.234475 -0.755103
v -0.577762 -1.057729 -0.937618
v 1.332509 -0.353411 0.035697
v -0.085991 -0.085295 1.148736
v -1.416397 -0.011969 -0.020557
v -0.059091 -0.105486 -1.074377
v 0.143920 -1.444804 0.005314
v 0.041616 1.591502 0.070747
v 1.033700 -0.195917 -0.960840
v 0.812941 0.951832 0.078467
v 0.854689 -0.381707 0.755430
v 1.094854 -1.652556 -0.004394
v -0.202875 1.060052 0.969696
v -1.083858 -0.042933 0.902784
v 0.017492 -1.206250 0.831893
v -0.754532 0.935293 -0.083210
v -1.134061 -0.154147 -0.832648
v -1.145737 -0.943083 -0.149831
v -0.054761 1.031850 -0.938939
v -0.144824 -1.046499 -0.830757
v 0.831033 -1.151969 -0.723285
v 0.636462 0.675215 -0.537548
v 0.825588 -1.186438 0.740090
v 0.715574 0.672732 0.709019
v -0.877816 -0.770759 -0.653936
v -0.794972 0.803267 -0.763588
v -0.857979 -1.028357 0.570288
v -0.746348 0.766567 0.647238
vt 0.049162 0.203487
vt 0.091305 0.202406
vt 0.086758 0.345162
vt 0.000000 0.304250
vt 0.379747 0.243542
vt 0.417924 0.170311
vt 0.470359 0.251343
vt 0.439633 0.325518
vt 0.404279 0.326624
vt 0.373729 0.337009
vt 0.082433 0.118235
vt 0.156263 0.117891
vt 0.154103 0.223247
vt 0.158681 0.359931
vt 0.210329 0.123315
vt 0.248737 0.178585
vt 0.247966 0.262790
vt 0.229518 0.360831
vt 0.137766 0.464549
vt 0.066131 0.460070
vt 0.239172 0.449626
vt 0.220273 0.497237
vt 0.177866 0.543983
vt 0.087229 0.562862
vt 0.021911 0.437794
vt 0.510483 0.076917
vt 0.515440 0.031462
vt 0.626996 0.000000
vt 0.599258 0.097466
vt 0.605779 0.150964
vt 0.548586 0.193232
vt 0.323195 0.248379
vt 0.373149 0.204739
vt 0.373729 0.308557
vt 0.302416 0.333843
vt 0.295953 0.139806
vt 0.373729 0.108079
vt 0.938770 0.647582
vt 0.872458 0.552435
vt 0.957360 0.545682
vt 1.000000 0.628835
vt 0.997188 0.717260
vt 0.958726 0.714455
vt 0.881893 0.714453
vt 0.847147 0.650295
vt 0.804968 0.579463
vt 0.855715 0.469411
vt 0.924459 0.472858
vt 0.768916 0.500047
vt 0.025432 0.678740
vt 0.086650 0.607732
vt 0.132717 0.641213
vt 0.107882 0.695638
vt 0.080830 0.791162
vt 0.000000 0.748399
vt 0.305032 0.426681
vt 0.363397 0.404214
vt 0.000280 0.842402
vt 0.053430 0.839517
vt 0.069375 0.925786
vt 0.039438 0.903888
vt 0.788752 0.714773
vt 0.719775 0.725672
vt 0.695669 0.685510
vt 0.745228 0.625458
vt 0.838924 0.757992
vt 0.312975 0.683200
vt 0.296240 0.626190
vt 0.365576 0.562862
vt 0.365576 0.692065
vt 0.490890 0.677683
vt 0.482256 0.756274
vt 0.443644 0.763644
vt 0.422744 0.708934
vt 0.709592 0.782815
vt 0.839195 0.817171
vt 0.775366 0.832839
vt 0.499208 0.606773
vt 0.561512 0.584207
vt 0.563691 0.643665
vt 0.582343 0.747554
vt 0.551861 0.820325
vt 0.480249 0.853200
vt 0.606610 0.805010
vt 0.609998 0.851458
vt 0.569191 0.884409
vt 0.527073 0.906686
vt 0.426016 0.877304
vt 0.373729 0.782545
vt 0.458320 0.969193
vt 0.132202 0.562862
vt 0.155483 0.616246
vt 0.719073 0.555007
vt 0.569654 0.469411
vt 0.518599 0.436566
vt 0.584455 0.372518
vt 0.641517 0.433158
vt 0.639281 0.623259
vt 0.667043 0.708184
vt 0.581960 0.548934
vt 0.642106 0.522753
vt 0.695669 0.609827
vt 0.475547 0.380527
vt 0.529469 0.315557
vt 0.444588 0.468222
vt 0.424693 0.397806
vt 0.602678 0.252521
vt 0.656148 0.333559
vt 0.669344 0.189433
vt 0.704756 0.262241
vt 0.715053 0.377089
vt 0.756470 0.312381
vt 0.695669 0.807130
vt 0.687530 0.880724
vt 0.296240 0.910961
vt 0.184994 0.904709
vt 0.215994 0.832824
vt 0.276999 0.782938
vt 0.683667 0.122174
vt 0.736426 0.187567
vt 0.261277 0.981752
vt 0.204099 1.000000
vt 0.139590 0.893957
vt 0.145259 0.800077
vt 0.104792 0.973541
vt 0.151822 0.713554
vt 0.234269 0.687143
vt 0.241666 0.598698
vt 0.296240 0.717341
vt 0.267950 0.624451
vt 0.645690 0.912208
vt 0.756470 0.254184
vt 0.525242 0.534328
vt 0.473059 0.525029
vt 0.493526 0.469411
vt 0.580240 0.469994
vt 0.869341 0.879264
vt 0.890841 0.864236
vt 0.945324 0.772885
vt 1.000000 0.818887
vt 0.999119 0.886292
vt 0.253925 0.071368
vt 0.190120 0.058447
vt 0.233816 0.000000
vt 0.298115 0.037846
vt 0.129174 0.072587
vt 0.148051 0.012810
vt 0.387293 0.391265
vt 0.377981 0.453515
vn 0.789100 0.520500 -0.326100
vn 0.891700 0.449400 0.053700
vn 0.959400 0.150100 0.238800
vn 0.921300 0.170500 -0.349400
vn 0.572300 0.071700 -0.816900
vn 0.516200 0.477400 -0.711000
vn 0.454800 0.507100 -0.732100
vn 0.569700 0.607600 -0.553300
vn 0.748800 0.660200 -0.058500
vn 0.881600 0.285500 0.375700
vn 0.826700 0.092800 0.554900
vn 0.726200 0.556800 0.403100
vn 0.712200 0.292700 0.638000
vn 0.754100 0.180300 0.631500
vn 0.698200 0.048900 0.714200
vn 0.845700 -0.118700 0.520200
vn 0.965900 -0.227200 0.123800
vn 0.573600 -0.167700 0.801800
vn 0.367600 -0.412200 0.833600
vn 0.418700 -0.668400 0.614800
vn 0.451100 -0.892300 0.018000
vn 0.904600 -0.248300 -0.346400
vn 0.502000 -0.624400 -0.598300
vn 0.355100 -0.393400 -0.848000
vn 0.475900 -0.307700 -0.823900
vn 0.466100 0.166600 0.868900
vn 0.002800 0.235700 0.971800
vn -0.020800 0.006100 0.999800
vn 0.477200 0.009700 0.878700
vn 0.429400 0.525500 0.734400
vn -0.207300 0.615200 0.760600
vn -0.357000 0.292800 0.887000
vn -0.321100 0.030300 0.946500
vn -0.531900 0.557900 0.637000
vn -0.480800 0.612900 0.627000
vn -0.550200 0.376800 0.745100
vn -0.648900 0.027900 0.760300
vn -0.281200 -0.349200 0.893800
vn -0.012000 -0.248200 0.968600
vn -0.598200 -0.351600 0.720000
vn -0.454200 -0.525600 0.719400
vn -0.275400 -0.672400 0.687000
vn -0.030900 -0.728300 0.684500
vn 0.313400 -0.218300 0.924200
vn 0.095600 -0.609600 0.786900
vn -0.811600 0.514200 0.277200
vn -0.910900 0.410400 0.042900
vn -0.992900 -0.003400 0.119000
vn -0.913700 0.017200 0.406000
vn -0.628200 0.732700 0.261600
vn -0.670600 0.740700 -0.040100
vn -0.851100 0.477600 -0.217700
vn -0.976700 -0.003500 -0.214500
vn -0.688400 0.710500 -0.145700
vn -0.482400 0.683700 -0.547600
vn -0.637400 0.373200 -0.674000
vn -0.629100 -0.018100 -0.777100
vn -0.765000 -0.398800 -0.505600
vn -0.931800 -0.359700 0.048500
vn -0.611600 -0.333400 -0.717400
vn -0.625400 -0.591100 -0.509200
vn -0.599400 -0.720000 -0.349600
vn -0.718100 -0.680100 -0.147500
vn -0.894500 -0.288800 0.341100
vn -0.628600 -0.707400 0.323000
vn -0.244800 0.250500 -0.936600
vn 0.038700 0.241700 -0.969600
vn 0.018900 0.021500 -0.999600
vn -0.270500 0.005800 -0.962700
vn -0.411400 0.673600 -0.614000
vn 0.075100 0.609800 -0.789000
vn 0.346600 0.336300 -0.875600
vn 0.263200 0.005400 -0.964700
vn 0.517800 0.486500 -0.703700
vn 0.189900 -0.350500 -0.917100
vn 0.066200 -0.269100 -0.960800
vn -0.008000 -0.606600 -0.794900
vn -0.043500 -0.728900 -0.683200
vn -0.367700 -0.293600 -0.882400
vn -0.376400 -0.714100 -0.590200
vn -0.031300 -0.887300 -0.460200
vn -0.124900 -0.990300 0.060400
vn -0.158600 -0.986600 0.037200
vn -0.254300 -0.931700 -0.259200
vn -0.107800 -0.927900 0.356800
vn -0.096200 -0.955400 0.279100
vn -0.271000 -0.928000 0.255500
vn -0.358900 -0.918700 -0.164800
vn -0.361700 -0.881300 -0.304100
vn -0.535100 0.784600 -0.313200
vn -0.577100 0.816500 -0.017000
vn 0.071000 0.996600 0.042200
vn 0.168600 0.850700 -0.497800
vn -0.579600 0.750200 0.318200
vn -0.139700 0.871900 0.469200
vn 0.476100 0.757400 0.446800
vn 0.603900 0.795000 -0.056600
vn 0.615700 0.610100 -0.498500
usemtl MarsGround
s 1
f 1/1/1 25/2/2 73/3/3 28/4/4
f 1/5/1 28/6/4 79/7/5 50/8/6
f 1/5/1 50/8/6 92/9/7 51/10/8
f 1/1/1 51/11/8 80/12/9 25/2/2
f 2/13/10 26/14/11 73/3/3 25/2/2
f 2/13/10 25/2/2 80/12/9 52/15/12
f 2/13/10 52/15/12 94/16/13 53/17/14
f 2/13/10 53/17/14 81/18/15 26/14/11
f 3/19/16 27/20/17 73/3/3 26/14/11
f 3/19/16 26/14/11 81/18/15 54/21/18
f 3/19/16 54/21/18 93/22/19 55/23/20
f 3/19/16 55/23/20 82/24/21 27/20/17
f 4/25/22 28/4/4 73/3/3 27/20/17
f 4/26/22 27/27/17 82/28/21 56/29/23
f 4/26/22 56/29/23 91/30/24 49/31/25
f 4/26/22 49/31/25 79/7/5 28/6/4
f 5/32/26 29/33/27 74/34/28 32/35/29
f 5/32/26 32/35/29 81/18/15 53/17/14
f 5/32/26 53/17/14 94/16/13 57/36/30
f 5/32/26 57/36/30 83/37/31 29/33/27
f 6/38/32 30/39/33 74/40/28 29/41/27
f 6/38/32 29/41/27 83/42/31 58/43/34
f 6/38/32 58/43/34 98/44/35 59/45/36
f 6/38/32 59/45/36 84/46/37 30/39/33
f 7/47/38 31/48/39 74/40/28 30/39/33
f 7/47/38 30/39/33 84/46/37 60/49/40
f 7/50/38 60/51/40 97/52/41 61/53/42
f 7/50/38 61/53/42 85/54/43 31/55/39
f 8/56/44 32/35/29 74/34/28 31/57/39
f 8/58/44 31/55/39 85/54/43 62/59/45
f 8/58/44 62/59/45 93/60/19 54/61/18
f 8/56/44 54/21/18 81/18/15 32/35/29
f 9/62/46 33/63/47 75/64/48 36/65/49
f 9/62/46 36/65/49 84/46/37 59/45/36
f 9/62/46 59/45/36 98/44/35 63/66/50
f 9/67/46 63/68/50 86/69/51 33/70/47
f 10/71/52 34/72/53 75/73/48 33/74/47
f 10/75/52 33/63/47 86/76/51 64/77/54
f 10/71/52 64/78/54 96/79/55 65/80/56
f 10/71/52 65/80/56 87/81/57 34/72/53
f 11/82/58 35/83/59 75/73/48 34/72/53
f 11/82/58 34/72/53 87/81/57 66/84/60
f 11/82/58 66/84/60 95/85/61 67/86/62
f 11/82/58 67/86/62 88/87/63 35/83/59
f 12/88/64 36/89/49 75/73/48 35/83/59
f 12/88/64 35/83/59 88/87/63 68/90/65
f 12/91/64 68/92/65 97/52/41 60/51/40
f 12/93/64 60/49/40 84/46/37 36/65/49
f 13/94/66 37/95/67 76/96/68 40/97/69
f 13/98/66 40/99/69 87/81/57 65/80/56
f 13/98/66 65/80/56 96/79/55 69/100/70
f 13/98/66 69/100/70 89/101/71 37/102/67
f 14/103/72 38/104/73 76/96/68 37/95/67
f 14/103/72 37/95/67 89/105/71 70/106/74
f 14/103/72 70/106/74 92/9/7 50/8/6
f 14/103/72 50/8/6 79/7/5 38/104/73
f 15/107/75 39/108/76 76/96/68 38/104/73
f 15/107/75 38/104/73 79/7/5 49/31/25
f 15/107/75 49/31/25 91/30/24 71/109/77
f 15/107/75 71/109/77 90/110/78 39/108/76
f 16/111/79 40/97/69 76/96/68 39/108/76
f 16/111/79 39/108/76 90/110/78 72/112/80
f 16/113/79 72/114/80 95/85/61 66/84/60
f 16/113/79 66/84/60 87/81/57 40/99/69
f 17/115/81 41/116/82 77/117/83 44/118/84
f 17/119/81 44/120/84 90/110/78 71/109/77
f 17/119/81 71/109/77 91/30/24 56/29/23
f 17/115/81 56/121/23 82/122/21 41/116/82
f 18/123/85 42/124/86 77/117/83 41/116/82
f 18/123/85 41/116/82 82/122/21 55/125/20
f 18/123/85 55/125/20 93/60/19 62/59/45
f 18/123/85 62/59/45 85/54/43 42/124/86
f 19/126/87 43/127/88 77/117/83 42/124/86
f 19/126/87 42/124/86 85/54/43 61/53/42
f 19/126/87 61/53/42 97/52/41 68/92/65
f 19/126/87 68/92/65 88/128/63 43/127/88
f 20/129/89 44/118/84 77/117/83 43/127/88
f 20/129/89 43/127/88 88/128/63 67/130/62
f 20/131/89 67/86/62 95/85/61 72/114/80
f 20/132/89 72/112/80 90/110/78 44/120/84
f 21/133/90 45/134/91 78/135/92 48/136/93
f 21/133/90 48/136/93 89/101/71 69/100/70
f 21/133/90 69/100/70 96/79/55 64/78/54
f 21/137/90 64/77/54 86/76/51 45/138/91
f 22/139/94 46/140/95 78/141/92 45/138/91
f 22/139/94 45/138/91 86/76/51 63/66/50
f 22/139/94 63/66/50 98/44/35 58/43/34
f 22/139/94 58/43/34 83/42/31 46/140/95
f 23/142/96 47/143/97 78/144/92 46/145/95
f 23/142/96 46/145/95 83/37/31 57/36/30
f 23/142/96 57/36/30 94/16/13 52/15/12
f 23/142/96 52/15/12 80/12/9 47/143/97
f 24/146/98 48/147/93 78/144/92 47/143/97
f 24/146/98 47/143/97 80/12/9 51/11/8
f 24/148/98 51/10/8 92/9/7 70/106/74
f 24/148/98 70/106/74 89/105/71 48/149/93
