# Blender v2.76 (sub 0) OBJ File: 'dizzy-z-scene-01.blend'
# www.blender.org
mtllib stone-01.mtl
o Cube.001_Cube.081
v 1.069208 0.521393 -0.467996
v 0.928404 0.532291 0.245338
v 0.834220 -0.398493 0.355871
v 0.991990 -0.383043 -0.314231
v 0.468818 0.386476 1.287935
v -0.264586 0.550907 1.088702
v -0.351469 -0.513165 1.200178
v 0.375568 -0.408010 1.188371
v -0.906979 0.530008 0.450043
v -0.874708 0.410946 -0.449323
v -1.068476 -0.434938 -0.764338
v -1.036552 -0.432579 0.492970
v -0.359768 0.440611 -1.156324
v 0.362054 0.462993 -1.193009
v 0.382156 -0.451577 -1.053582
v -0.439983 -0.514753 -1.304135
v 0.275512 -1.137288 -0.670774
v 0.213024 -1.033413 0.449736
v -0.438896 -0.917218 0.556217
v -0.443797 -0.936259 -0.629209
v -0.401963 1.178284 -0.389675
v -0.272192 1.079542 0.568401
v 0.305696 1.267492 0.533444
v 0.264996 1.150323 -0.514041
v 1.020736 0.577364 -0.217730
v 1.051582 0.112937 0.516424
v 0.988821 -0.372857 0.001852
v 1.151585 0.179274 -0.612751
v 0.004468 0.533928 1.236193
v -0.486070 -0.019306 1.192182
v -0.036826 -0.434302 1.244581
v 0.488557 0.004661 1.113133
v -1.016245 0.330944 0.041455
v -1.120140 0.032168 -0.381925
v -1.105811 -0.496958 -0.041350
v -1.039924 0.002633 0.630643
v -0.006870 0.464940 -1.274912
v 0.504586 -0.019622 -1.271839
v -0.028562 -0.487004 -1.352069
v -0.410796 0.002508 -1.244692
v 0.185314 -1.061116 0.178899
v -0.127520 -1.099526 0.534051
v -0.632645 -1.168451 -0.112857
v -0.252226 -1.074761 -0.391766
v -0.449499 1.303253 -0.115859
v -0.142682 1.418554 0.514163
v 0.412714 1.331831 0.088894
v -0.002591 1.439574 -0.596835
v 0.683114 -0.316535 -0.905957
v 0.618708 0.505182 -0.925662
v 0.616574 0.944328 -0.612554
v 0.696885 1.029546 0.525321
v 0.649764 0.338699 0.780853
v 0.591853 -0.375931 0.894786
v 0.661480 -0.799061 0.727716
v 0.658106 -0.673832 -0.643077
v 0.294191 0.885564 0.876671
v -0.258501 0.903761 0.967668
v -0.669446 0.394850 0.920468
v -0.746840 -0.464818 0.826370
v -0.448040 -0.797543 0.764129
v 0.174251 -0.652316 1.006138
v -0.761831 0.864735 0.465581
v -0.720912 0.762096 -0.443656
v -0.808413 0.436349 -1.002656
v -0.692414 -0.387667 -0.806421
v -0.865620 -0.731105 -0.402856
v -0.919275 -0.747240 0.616074
v -0.379598 0.946104 -0.806949
v 0.234638 0.885863 -0.738994
v 0.214223 -0.857201 -0.792473
v -0.454333 -0.873689 -1.070506
v 1.063863 0.114388 0.057927
v -0.023396 0.028564 1.233887
v -1.049142 0.017603 -0.027766
v 0.017382 0.009107 -1.113515
v -0.045089 -1.202816 0.011644
v -0.034231 1.635398 0.111322
v 0.841431 0.069830 -1.079696
v 0.708715 1.014129 0.123082
v 0.758029 -0.007130 0.773884
v 0.696476 -0.837785 -0.003144
v -0.218483 1.010308 1.100286
v -0.790321 -0.009443 0.998356
v -0.011152 -0.887744 0.890363
v -0.524688 0.977354 -0.123209
v -0.776080 -0.085785 -0.884416
v -1.059265 -0.744185 -0.224696
v -0.054946 0.993962 -1.046334
v -0.156322 -0.810291 -0.881535
v 0.574470 -0.651116 -0.797057
v 0.570686 0.733382 -0.514114
v 0.557429 -0.647502 0.829754
v 0.624886 0.724798 0.782423
v -0.715417 -0.618672 -0.691413
v -0.562108 0.755870 -0.858452
v -0.719040 -0.633701 0.571087
v -0.513452 0.717907 0.688309
vt 0.496018 0.425728
vt 0.494663 0.373009
vt 0.577515 0.347722
vt 0.546686 0.475336
vt 0.230117 0.827236
vt 0.245604 0.902285
vt 0.166056 0.972297
vt 0.127623 0.876586
vt 0.147471 0.782905
vt 0.133556 0.766397
vt 0.210663 0.656798
vt 0.243892 0.782084
vt 0.517040 0.282036
vt 0.589862 0.262829
vt 0.440773 0.262428
vt 0.448854 0.187091
vt 0.508628 0.147528
vt 0.572182 0.167765
vt 0.626133 0.194688
vt 0.678248 0.295966
vt 0.659845 0.373522
vt 0.696221 0.174447
vt 0.741002 0.195674
vt 0.760255 0.230696
vt 0.746913 0.369295
vt 0.653374 0.432080
vt 0.704496 0.475336
vt 0.725338 0.671188
vt 0.655832 0.689410
vt 0.632298 0.670696
vt 0.637216 0.601286
vt 0.645023 0.512143
vt 0.722527 0.540076
vt 0.837211 0.035688
vt 0.913344 0.076938
vt 0.858641 0.159074
vt 0.796077 0.100071
vt 0.583112 0.056469
vt 0.641700 0.107724
vt 0.495107 0.093000
vt 0.928850 0.000000
vt 1.000000 0.038861
vt 0.953136 0.116715
vt 0.911757 0.229923
vt 0.996711 0.066641
vt 0.002326 0.213760
vt 0.022266 0.149755
vt 0.066153 0.211831
vt 0.024560 0.284894
vt 0.990459 0.202309
vt 0.956500 0.277562
vt 0.837924 0.288196
vt 0.806651 0.232119
vt 0.903861 0.350059
vt 0.747871 0.780809
vt 0.780905 0.673890
vt 0.833277 0.666546
vt 0.831431 0.741969
vt 0.838639 0.837269
vt 0.746506 0.836981
vt 0.760255 0.175691
vt 0.767837 0.905140
vt 0.808013 0.867129
vt 0.716189 0.102657
vt 0.758930 0.128967
vt 0.100641 0.288141
vt 0.169164 0.338705
vt 0.181216 0.399700
vt 0.068767 0.396474
vt 0.010162 0.370343
vt 0.307804 0.756197
vt 0.307804 0.834991
vt 0.252288 0.831580
vt 0.245604 0.762779
vt 0.099642 0.212176
vt 0.204158 0.171876
vt 0.255355 0.313383
vt 0.240556 0.407003
vt 0.256153 0.233615
vt 0.329853 0.221662
vt 0.351095 0.306183
vt 0.332708 0.397128
vt 0.308018 0.489753
vt 0.183840 0.499372
vt 0.321542 0.442990
vt 0.308427 0.756197
vt 0.245604 0.737466
vt 0.268364 0.695088
vt 0.308427 0.649777
vt 0.989688 0.475337
vt 0.973579 0.560850
vt 0.942273 0.542114
vt 0.892169 0.535217
vt 0.093453 0.476488
vt 0.813773 0.590546
vt 0.829610 0.640886
vt 0.953616 0.398550
vt 0.899084 0.426197
vt 0.888705 0.383974
vt 1.000000 0.325378
vt 0.443586 0.534353
vt 0.491573 0.489624
vt 0.513048 0.573879
vt 0.436771 0.586667
vt 0.385058 0.260683
vt 0.400383 0.346414
vt 0.323698 0.167933
vt 0.370095 0.127824
vt 0.411330 0.221053
vt 0.555415 0.475337
vt 0.580637 0.521558
vt 0.070332 0.910611
vt 0.012796 0.907918
vt 0.000000 0.794176
vt 0.073270 0.778568
vt 0.107374 1.000000
vt 0.582112 0.620724
vt 0.498305 0.613008
vt 0.578703 0.725389
vt 0.513429 0.732531
vt 0.333824 0.750156
vt 0.314345 0.665299
vt 0.383908 0.659598
vt 0.383908 0.766272
vt 0.436542 0.652496
vt 0.454995 0.736026
vt 0.411330 0.444116
vt 0.372000 0.509218
vt 0.302042 0.486566
vt 0.600707 0.777032
vt 0.639820 0.891049
vt 0.594756 0.903716
vt 0.533909 0.844297
vt 0.705678 0.798630
vt 0.922509 0.847936
vt 0.903606 0.797551
vt 0.989688 0.772974
vt 0.962081 0.820941
vt 0.661193 0.922942
vt 0.746506 0.897439
vt 0.314345 0.649777
vt 0.245604 0.585141
vt 0.265301 0.548969
vt 0.314345 0.509218
vt 0.401463 0.509218
vt 0.401463 0.645178
vt 0.368534 0.609264
vt 0.364151 0.535448
vt 0.871939 0.732501
vt 0.981543 0.653836
vt 0.821756 0.391306
vt 0.830367 0.364659
vt 0.486039 0.805431
vt 0.492966 0.922942
vt 0.411330 0.878296
vt 0.430395 0.838047
vt 0.314345 0.605687
vt 0.350921 0.509218
vt 0.364151 0.550350
vt 0.364151 0.659598
vt 0.251353 0.124733
vt 0.203384 0.104737
vt 0.170809 0.000000
vt 0.292989 0.037840
vt 0.089907 0.122161
vt 0.100567 0.047545
vt 0.000000 0.125235
vt 0.181140 0.546186
vt 0.150979 0.602378
vt 0.076898 0.536563
vt 0.110928 0.509218
vt 0.422252 0.139302
vt 0.411330 0.095333
vt 0.496892 0.000000
vt 0.245604 0.597986
vt 0.084496 0.708324
vt 0.025618 0.666047
vn 0.835200 0.484800 -0.259600
vn 0.897300 0.439800 0.037200
vn 0.990600 -0.021400 0.134800
vn 0.945200 0.036900 -0.324400
vn 0.710800 -0.023600 -0.703000
vn 0.522200 0.575400 -0.629400
vn 0.383600 0.539400 -0.749600
vn 0.534200 0.592600 -0.602800
vn 0.750800 0.660500 -0.001700
vn 0.907300 0.319100 0.273600
vn 0.894500 0.047500 0.444600
vn 0.726500 0.544700 0.418900
vn 0.750500 0.345000 0.563700
vn 0.808900 0.248500 0.532800
vn 0.820600 -0.055500 0.568700
vn 0.896500 -0.336300 0.288500
vn 0.921000 -0.382400 0.073300
vn 0.766300 -0.272000 0.582000
vn 0.585100 -0.483600 0.650900
vn 0.640200 -0.613000 0.463000
vn 0.712100 -0.701900 0.017300
vn 0.883800 -0.438200 -0.163800
vn 0.719200 -0.575300 -0.389500
vn 0.556800 -0.482600 -0.676000
vn 0.653700 -0.486300 -0.579800
vn 0.501000 0.161800 0.850200
vn -0.066200 0.238000 0.969000
vn -0.040900 0.010700 0.999100
vn 0.596100 -0.059300 0.800700
vn 0.434300 0.584800 0.685100
vn -0.371700 0.540700 0.754600
vn -0.542900 0.248700 0.802100
vn -0.418400 0.050000 0.906900
vn -0.786900 0.340000 0.515000
vn -0.618000 0.517800 0.591500
vn -0.636000 0.394500 0.663200
vn -0.705300 0.050100 0.707100
vn -0.351600 -0.438100 0.827300
vn 0.026800 -0.318000 0.947700
vn -0.648600 -0.402600 0.645900
vn -0.451800 -0.452000 0.769100
vn -0.399600 -0.652300 0.644000
vn 0.093200 -0.791100 0.604500
vn 0.450900 -0.294600 0.842500
vn 0.291000 -0.668900 0.684000
vn -0.864800 0.443100 0.236200
vn -0.926300 0.376300 -0.019800
vn -0.986500 0.160900 0.030100
vn -0.924000 0.086000 0.372400
vn -0.752500 0.603400 0.263800
vn -0.823900 0.566700 -0.004000
vn -0.899300 0.402400 -0.171100
vn -0.965200 0.170800 -0.197700
vn -0.816300 0.558100 -0.148600
vn -0.581800 0.607800 -0.540400
vn -0.726400 0.309100 -0.613700
vn -0.743100 0.073000 -0.665100
vn -0.744600 -0.246200 -0.620400
vn -0.982700 -0.181100 0.038800
vn -0.717900 -0.189800 -0.669700
vn -0.615300 -0.597000 -0.514700
vn -0.631600 -0.627300 -0.455600
vn -0.788400 -0.599700 -0.136300
vn -0.911700 -0.199300 0.359200
vn -0.632600 -0.542900 0.552200
vn -0.335700 0.220100 -0.915900
vn 0.001000 0.232500 -0.972600
vn 0.038800 0.014300 -0.999100
vn -0.339900 0.039900 -0.939600
vn -0.573800 0.601100 -0.556200
vn 0.006700 0.625300 -0.780400
vn 0.362400 0.394500 -0.844400
vn 0.351700 -0.083000 -0.932400
vn 0.536100 0.511600 -0.671400
vn 0.369100 -0.470700 -0.801300
vn 0.208800 -0.297300 -0.931600
vn 0.205600 -0.661200 -0.721400
vn 0.114100 -0.815300 -0.567600
vn -0.379900 -0.273200 -0.883800
vn -0.359700 -0.739600 -0.568700
vn 0.262900 -0.867500 -0.422200
vn 0.370700 -0.926200 0.068800
vn 0.019400 -0.999000 0.040300
vn -0.015000 -0.940700 -0.338900
vn 0.361500 -0.888600 0.282300
vn -0.006000 -0.917400 0.397700
vn -0.388200 -0.775300 0.498200
vn -0.394900 -0.913500 -0.097400
vn -0.282400 -0.878500 -0.385300
vn -0.705900 0.650000 -0.281400
vn -0.732700 0.680000 -0.024700
vn -0.062400 0.994600 0.082900
vn 0.079800 0.853200 -0.515500
vn -0.794300 0.536400 0.285300
vn -0.299900 0.823600 0.481400
vn 0.455800 0.751800 0.476400
vn 0.593500 0.804700 -0.012800
vn 0.623900 0.605200 -0.494500
usemtl MarsGround
s 1
f 1/1/1 25/2/2 73/3/3 28/4/4
f 1/5/1 28/6/4 79/7/5 50/8/6
f 1/5/1 50/8/6 92/9/7 51/10/8
f 1/5/1 51/10/8 80/11/9 25/12/2
f 2/13/10 26/14/11 73/3/3 25/2/2
f 2/13/10 25/2/2 80/15/9 52/16/12
f 2/13/10 52/16/12 94/17/13 53/18/14
f 2/13/10 53/18/14 81/19/15 26/14/11
f 3/20/16 27/21/17 73/3/3 26/14/11
f 3/20/16 26/14/11 81/19/15 54/22/18
f 3/20/16 54/22/18 93/23/19 55/24/20
f 3/20/16 55/24/20 82/25/21 27/21/17
f 4/26/22 28/4/4 73/3/3 27/21/17
f 4/26/22 27/21/17 82/25/21 56/27/23
f 4/28/22 56/29/23 91/30/24 49/31/25
f 4/28/22 49/31/25 79/32/5 28/33/4
f 5/34/26 29/35/27 74/36/28 32/37/29
f 5/38/26 32/39/29 81/19/15 53/18/14
f 5/38/26 53/18/14 94/17/13 57/40/30
f 5/34/26 57/41/30 83/42/31 29/35/27
f 6/43/32 30/44/33 74/36/28 29/35/27
f 6/43/32 29/35/27 83/42/31 58/45/34
f 6/46/32 58/47/34 98/48/35 59/49/36
f 6/43/32 59/50/36 84/51/37 30/44/33
f 7/52/38 31/53/39 74/36/28 30/44/33
f 7/52/38 30/44/33 84/51/37 60/54/40
f 7/55/38 60/56/40 97/57/41 61/58/42
f 7/55/38 61/58/42 85/59/43 31/60/39
f 8/61/44 32/37/29 74/36/28 31/53/39
f 8/62/44 31/60/39 85/59/43 62/63/45
f 8/64/44 62/65/45 93/23/19 54/22/18
f 8/64/44 54/22/18 81/19/15 32/39/29
f 9/66/46 33/67/47 75/68/48 36/69/49
f 9/66/46 36/69/49 84/70/37 59/49/36
f 9/71/46 59/72/36 98/73/35 63/74/50
f 9/66/46 63/75/50 86/76/51 33/67/47
f 10/77/52 34/78/53 75/68/48 33/67/47
f 10/77/52 33/67/47 86/76/51 64/79/54
f 10/77/52 64/79/54 96/80/55 65/81/56
f 10/77/52 65/81/56 87/82/57 34/78/53
f 11/83/58 35/84/59 75/68/48 34/78/53
f 11/83/58 34/78/53 87/82/57 66/85/60
f 11/86/58 66/87/60 95/88/61 67/89/62
f 11/90/58 67/91/62 88/92/63 35/93/59
f 12/94/64 36/69/49 75/68/48 35/84/59
f 12/95/64 35/93/59 88/92/63 68/96/65
f 12/97/64 68/98/65 97/99/41 60/54/40
f 12/97/64 60/54/40 84/51/37 36/100/49
f 13/101/66 37/102/67 76/103/68 40/104/69
f 13/105/66 40/106/69 87/82/57 65/81/56
f 13/105/66 65/81/56 96/80/55 69/107/70
f 13/105/66 69/107/70 89/108/71 37/109/67
f 14/110/72 38/111/73 76/103/68 37/102/67
f 14/112/72 37/113/67 89/114/71 70/115/74
f 14/112/72 70/115/74 92/9/7 50/8/6
f 14/112/72 50/8/6 79/7/5 38/116/73
f 15/117/75 39/118/76 76/103/68 38/111/73
f 15/117/75 38/111/73 79/32/5 49/31/25
f 15/117/75 49/31/25 91/30/24 71/119/77
f 15/117/75 71/119/77 90/120/78 39/118/76
f 16/121/79 40/122/69 76/123/68 39/124/76
f 16/125/79 39/118/76 90/120/78 72/126/80
f 16/127/79 72/128/80 95/129/61 66/85/60
f 16/127/79 66/85/60 87/82/57 40/106/69
f 17/130/81 41/131/82 77/132/83 44/133/84
f 17/130/81 44/133/84 90/120/78 71/119/77
f 17/130/81 71/119/77 91/30/24 56/29/23
f 17/130/81 56/29/23 82/134/21 41/131/82
f 18/135/85 42/136/86 77/137/83 41/138/82
f 18/139/85 41/131/82 82/134/21 55/140/20
f 18/141/85 55/142/20 93/143/19 62/144/45
f 18/145/85 62/146/45 85/147/43 42/148/86
f 19/149/87 43/150/88 77/137/83 42/136/86
f 19/149/87 42/136/86 85/59/43 61/58/42
f 19/151/87 61/152/42 97/99/41 68/98/65
f 19/149/87 68/96/65 88/92/63 43/150/88
f 20/153/89 44/133/84 77/132/83 43/154/88
f 20/153/89 43/154/88 88/155/63 67/156/62
f 20/157/89 67/158/62 95/159/61 72/160/80
f 20/153/89 72/126/80 90/120/78 44/133/84
f 21/161/90 45/162/91 78/163/92 48/164/93
f 21/161/90 48/164/93 89/108/71 69/107/70
f 21/161/90 69/107/70 96/80/55 64/79/54
f 21/161/90 64/79/54 86/76/51 45/162/91
f 22/165/94 46/166/95 78/163/92 45/162/91
f 22/165/94 45/162/91 86/76/51 63/75/50
f 22/165/94 63/75/50 98/48/35 58/47/34
f 22/165/94 58/47/34 83/167/31 46/166/95
f 23/168/96 47/169/97 78/170/92 46/171/95
f 23/172/96 46/173/95 83/174/31 57/40/30
f 23/172/96 57/40/30 94/17/13 52/16/12
f 23/168/96 52/175/12 80/11/9 47/169/97
f 24/176/98 48/177/93 78/170/92 47/169/97
f 24/176/98 47/169/97 80/11/9 51/10/8
f 24/176/98 51/10/8 92/9/7 70/115/74
f 24/176/98 70/115/74 89/114/71 48/177/93
