# Blender v2.76 (sub 0) OBJ File: 'dizzy-z-scene-01.blend'
# www.blender.org
mtllib temp-solid.mtl
o Stone2
v 33.977558 -5.366883 -1.200000
v 33.977558 -2.486883 -1.200000
v 33.977558 -5.366883 1.200000
v 33.977558 -2.486883 1.200000
v 31.577557 -5.366883 -1.200000
v 31.577557 -2.486883 -1.200000
v 31.577557 -5.366883 1.200000
v 31.577557 -2.486883 1.200000
vn 1.000000 0.000000 0.000000
vn 0.000000 0.000000 1.000000
vn -1.000000 0.000000 0.000000
vn 0.000000 0.000000 -1.000000
vn 0.000000 -1.000000 0.000000
vn 0.000000 1.000000 0.000000
usemtl None
s off
f 2//1 4//1 3//1 1//1
f 4//2 8//2 7//2 3//2
f 8//3 6//3 5//3 7//3
f 6//4 2//4 1//4 5//4
f 1//5 3//5 7//5 5//5
f 6//6 8//6 4//6 2//6
o GroundGarden
v -326.799988 -9.300000 -4.000000
v -326.099976 -6.000000 -4.000000
v -326.799988 -9.300000 4.000000
v -326.099976 -6.000000 4.000000
v -327.097565 -9.320000 -4.000000
v -327.097565 -6.075834 -4.000000
v -327.097565 -9.320000 4.000000
v -327.097565 -6.075834 4.000000
v -327.597565 -9.320000 -4.000000
v -327.597565 -5.875834 -4.000000
v -327.597565 -9.320000 4.000000
v -327.597565 -5.875834 4.000000
v -328.797577 -9.320000 -4.000000
v -328.797577 -5.475834 -4.000000
v -328.797577 -9.320000 4.000000
v -328.797577 -5.475834 4.000000
v -330.448792 -9.260000 -4.000000
v -329.798767 -5.637917 -4.000000
v -330.448792 -9.260000 4.000000
v -329.798767 -5.637917 4.000000
v -326.799988 -9.300000 -3.995249
v -326.099976 -6.000000 -3.995249
v -326.799988 -9.300000 4.004750
v -326.099976 -6.000000 4.004750
vn -0.058600 0.771500 0.633400
vn 0.098300 0.640400 0.761700
vn 0.024000 -0.714100 0.699600
vn 0.043400 -0.646400 0.761700
vn 0.098300 0.640400 -0.761700
vn 0.024000 -0.714100 -0.699600
vn 0.000000 -0.707100 -0.707100
vn 0.245400 0.670000 -0.700600
vn -0.058600 0.771500 -0.633400
vn 0.043400 -0.646400 -0.761700
vn 0.000000 -0.707100 0.707100
vn -0.012900 -0.711000 0.703000
vn -0.012900 -0.711000 -0.703000
vn 0.245400 0.670000 0.700600
vn 0.060700 0.751300 0.657100
vn 0.060700 0.751300 -0.657100
vn -0.101500 0.627200 -0.772100
vn -0.101500 0.627200 0.772100
vn -0.026800 -0.739100 -0.673100
vn -0.026800 -0.739100 0.673100
usemtl MarsGround
s 1
f 12//7 16//8 15//9 11//10
f 14//11 13//12 17//13 18//14
f 14//11 10//15 9//16 13//12
f 9//16 11//10 15//9 13//12
f 14//11 16//8 12//7 10//15
f 17//13 19//17 23//18 21//19
f 13//12 15//9 19//17 17//13
f 16//8 14//11 18//14 20//20
f 15//9 16//8 20//20 19//17
f 24//21 22//22 26//23 28//24
f 20//20 18//14 22//22 24//21
f 18//14 17//13 21//19 22//22
f 19//17 20//20 24//21 23//18
f 22//22 21//19 25//25 26//23
f 23//18 24//21 28//24 27//26
f 21//19 23//18 27//26 25//25
l 32 31
l 32 30
l 30 29
l 29 31
o AfterExplosure2
v -415.333282 -18.687216 -1.000000
v -415.333282 -18.387217 -1.000000
v -415.333282 -18.687216 1.000000
v -415.333282 -18.387217 1.000000
v -415.633301 -19.407217 -1.800000
v -415.633301 -18.267216 -1.800000
v -415.633301 -19.407217 1.800000
v -415.633301 -18.267216 1.800000
v -415.933289 -19.707216 -1.800000
v -415.933289 -18.167217 -1.800000
v -415.933289 -19.707216 1.800000
v -415.933289 -18.167217 1.800000
v -416.333282 -20.707216 -1.800000
v -416.333282 -17.967216 -1.800000
v -416.333282 -20.707216 1.800000
v -416.333282 -17.967216 1.800000
v -417.533295 -20.407217 -1.800000
v -417.533295 -17.467216 -1.800000
v -417.533295 -20.407217 1.800000
v -417.533295 -17.467216 1.800000
v -418.933289 -20.207216 -1.800000
v -418.933289 -16.567217 -1.800000
v -418.933289 -20.207216 1.800000
v -418.933289 -16.567217 1.800000
v -420.933289 -20.007217 -1.800000
v -420.933289 -14.867216 -1.800000
v -420.933289 -20.007217 1.800000
v -420.933289 -14.867216 1.800000
v -421.233276 -20.007217 -1.800000
v -421.233276 -14.567217 -1.800000
v -421.233276 -20.007217 1.800000
v -421.233276 -14.567217 1.800000
v -421.333282 -20.007217 -1.800000
v -421.333282 -14.167216 -1.800000
v -421.333282 -20.007217 1.800000
v -421.333282 -14.167216 1.800000
v -421.833282 -20.007217 -1.800000
v -421.833282 -14.117216 -1.800000
v -421.833282 -20.007217 1.800000
v -421.833282 -14.117216 1.800000
v -422.033295 -20.007217 -1.800000
v -422.033295 -14.317216 -1.800000
v -422.033295 -20.007217 1.800000
v -422.033295 -14.317216 1.800000
v -423.133301 -20.007217 -1.800000
v -423.133301 -17.217216 -1.800000
v -423.133301 -20.007217 1.800000
v -423.133301 -17.217216 1.800000
v -423.433289 -20.207216 -1.800000
v -423.433289 -17.917215 -1.800000
v -423.433289 -20.207216 1.800000
v -423.433289 -17.917215 1.800000
v -423.833282 -20.107216 -1.800000
v -423.833282 -19.117216 -1.800000
v -423.833282 -20.107216 1.800000
v -423.833282 -19.117216 1.800000
v -424.033295 -19.807217 -1.800000
v -424.033295 -19.717216 -1.800000
v -424.033295 -19.807217 1.800000
v -424.033295 -19.717216 1.800000
vn 1.000000 0.000000 0.000000
vn 0.936300 0.000000 0.351100
vn 0.707100 -0.707100 0.000000
vn 0.936300 0.000000 -0.351100
vn 0.923100 -0.384600 0.000000
vn 0.371400 0.928500 0.000000
vn 0.928500 -0.371400 0.000000
vn 0.316200 0.948700 0.000000
vn 0.000000 0.000000 1.000000
vn 0.000000 0.000000 -1.000000
vn 0.447200 0.894400 0.000000
vn -0.242500 -0.970100 0.000000
vn 0.384600 0.923100 0.000000
vn -0.099500 -0.995000 0.000000
vn -0.141400 -0.989900 0.000000
vn 0.540800 0.841200 0.000000
vn 0.647700 0.761900 0.000000
vn 0.000000 -1.000000 0.000000
vn 0.707100 0.707100 0.000000
vn 0.099500 0.995000 0.000000
vn 0.970100 0.242600 0.000000
vn -0.707100 0.707200 0.000000
vn -0.935000 0.354700 0.000000
vn 0.554700 -0.832000 0.000000
vn -0.919200 0.393900 0.000000
vn -0.832100 -0.554700 0.000000
vn -0.948700 0.316200 0.000000
vn -1.000000 0.000000 0.000000
usemtl None
s off
f 34//27 36//27 35//27 33//27
f 36//28 40//28 39//28 35//28
f 37//29 39//29 43//29 41//29
f 38//30 34//30 33//30 37//30
f 33//31 35//31 39//31 37//31
f 38//32 40//32 36//32 34//32
f 41//33 43//33 47//33 45//33
f 40//34 38//34 42//34 44//34
f 39//35 40//35 44//35 43//35
f 38//36 37//36 41//36 42//36
f 46//36 45//36 49//36 50//36
f 44//37 42//37 46//37 48//37
f 42//36 41//36 45//36 46//36
f 43//35 44//35 48//35 47//35
f 51//35 52//35 56//35 55//35
f 47//35 48//35 52//35 51//35
f 45//38 47//38 51//38 49//38
f 48//39 46//39 50//39 52//39
f 53//40 55//40 59//40 57//40
f 49//41 51//41 55//41 53//41
f 52//42 50//42 54//42 56//42
f 50//36 49//36 53//36 54//36
f 58//36 57//36 61//36 62//36
f 56//43 54//43 58//43 60//43
f 54//36 53//36 57//36 58//36
f 55//35 56//35 60//35 59//35
f 61//44 63//44 67//44 65//44
f 59//35 60//35 64//35 63//35
f 57//44 59//44 63//44 61//44
f 60//45 58//45 62//45 64//45
f 68//46 66//46 70//46 72//46
f 64//47 62//47 66//47 68//47
f 62//36 61//36 65//36 66//36
f 63//35 64//35 68//35 67//35
f 70//36 69//36 73//36 74//36
f 66//36 65//36 69//36 70//36
f 67//35 68//35 72//35 71//35
f 65//44 67//44 71//44 69//44
f 73//44 75//44 79//44 77//44
f 71//35 72//35 76//35 75//35
f 69//44 71//44 75//44 73//44
f 72//48 70//48 74//48 76//48
f 78//36 77//36 81//36 82//36
f 76//49 74//49 78//49 80//49
f 74//36 73//36 77//36 78//36
f 75//35 76//35 80//35 79//35
f 82//36 81//36 85//36 86//36
f 79//35 80//35 84//35 83//35
f 77//50 79//50 83//50 81//50
f 80//51 78//51 82//51 84//51
f 85//52 87//52 91//52 89//52
f 83//35 84//35 88//35 87//35
f 81//38 83//38 87//38 85//38
f 84//53 82//53 86//53 88//53
f 92//54 90//54 89//54 91//54
f 88//53 86//53 90//53 92//53
f 86//36 85//36 89//36 90//36
f 87//35 88//35 92//35 91//35
o AfterExplosure1
v -413.933289 -26.987217 -1.000000
v -413.933289 -20.887217 -1.000000
v -413.933289 -26.987217 1.000000
v -413.933289 -20.887217 1.000000
v -416.333282 -26.987217 -1.000000
v -416.333282 -20.887217 -1.000000
v -416.333282 -26.987217 1.000000
v -416.333282 -20.887217 1.000000
vn 1.000000 0.000000 0.000000
vn 0.000000 0.000000 1.000000
vn -1.000000 0.000000 0.000000
vn 0.000000 0.000000 -1.000000
vn 0.000000 -1.000000 0.000000
vn 0.000000 1.000000 0.000000
usemtl None
s off
f 94//55 96//55 95//55 93//55
f 96//56 100//56 99//56 95//56
f 100//57 98//57 97//57 99//57
f 98//58 94//58 93//58 97//58
f 93//59 95//59 99//59 97//59
f 98//60 100//60 96//60 94//60
o BeforeExplosure2
v -412.476074 -15.168324 -1.051920
v -412.476074 -14.102787 -1.051920
v -412.476074 -15.168324 1.111920
v -412.476074 -14.102787 1.111920
v -412.897675 -16.168324 -1.051920
v -412.897675 -14.102787 -1.051920
v -412.897675 -16.168324 1.111920
v -412.897675 -14.102787 1.111920
v -413.497681 -17.168324 -1.051920
v -413.497681 -14.102787 -1.051920
v -413.497681 -17.168324 1.111920
v -413.497681 -14.102787 1.111920
v -413.897675 -27.168324 -1.051920
v -413.897675 -14.102787 -1.051920
v -413.897675 -27.168324 1.111920
v -413.897675 -14.102787 1.111920
v -416.397675 -27.168324 -1.051920
v -416.397675 -14.102787 -1.051920
v -416.397675 -27.168324 1.111920
v -416.397675 -14.102787 1.111920
v -416.697693 -18.168324 -1.051920
v -416.697693 -14.102787 -1.051920
v -416.697693 -18.168324 1.111920
v -416.697693 -14.102787 1.111920
v -416.997681 -17.168324 -1.051920
v -416.997681 -14.102787 -1.051920
v -416.997681 -17.168324 1.111920
v -416.997681 -14.102787 1.111920
v -417.987671 -14.488323 -1.051920
v -417.987671 -14.102787 -1.051920
v -417.987671 -14.488323 1.111920
v -417.987671 -14.102787 1.111920
vn 1.000000 0.000000 0.000000
vn 0.000000 0.000000 1.000000
vn 0.000000 0.000000 -1.000000
vn 0.921500 -0.388500 0.000000
vn 0.000000 1.000000 0.000000
vn 0.999200 -0.040000 0.000000
vn 0.857500 -0.514500 0.000000
vn 0.000000 -1.000000 0.000000
vn -0.957800 -0.287300 0.000000
vn -0.999400 -0.033300 0.000000
vn -1.000000 0.000000 0.000000
vn -0.938000 -0.346500 0.000000
usemtl None
s off
f 102//61 104//61 103//61 101//61
f 104//62 108//62 107//62 103//62
f 106//63 105//63 109//63 110//63
f 106//63 102//63 101//63 105//63
f 101//64 103//64 107//64 105//64
f 106//65 108//65 104//65 102//65
f 109//66 111//66 115//66 113//66
f 105//67 107//67 111//67 109//67
f 108//65 106//65 110//65 112//65
f 107//62 108//62 112//62 111//62
f 114//63 113//63 117//63 118//63
f 112//65 110//65 114//65 116//65
f 110//63 109//63 113//63 114//63
f 111//62 112//62 116//62 115//62
f 118//63 117//63 121//63 122//63
f 115//62 116//62 120//62 119//62
f 113//68 115//68 119//68 117//68
f 116//65 114//65 118//65 120//65
f 121//69 123//69 127//69 125//69
f 119//62 120//62 124//62 123//62
f 117//70 119//70 123//70 121//70
f 120//65 118//65 122//65 124//65
f 126//63 125//63 129//63 130//63
f 124//65 122//65 126//65 128//65
f 122//63 121//63 125//63 126//63
f 123//62 124//62 128//62 127//62
f 132//71 130//71 129//71 131//71
f 127//62 128//62 132//62 131//62
f 125//72 127//72 131//72 129//72
f 128//65 126//65 130//65 132//65
o Platform3
v -427.976074 -17.168324 -1.051920
v -427.976074 -16.102787 -1.051920
v -427.976074 -17.168324 1.111920
v -427.976074 -16.102787 1.111920
v -431.997681 -17.168324 -1.051920
v -431.997681 -16.102787 -1.051920
v -431.997681 -17.168324 1.111920
v -431.997681 -16.102787 1.111920
vn 1.000000 0.000000 0.000000
vn 0.000000 0.000000 1.000000
vn -1.000000 0.000000 0.000000
vn 0.000000 0.000000 -1.000000
vn 0.000000 -1.000000 0.000000
vn 0.000000 1.000000 0.000000
usemtl None
s off
f 134//73 136//73 135//73 133//73
f 136//74 140//74 139//74 135//74
f 140//75 138//75 137//75 139//75
f 138//76 134//76 133//76 137//76
f 133//77 135//77 139//77 137//77
f 138//78 140//78 136//78 134//78
o Platform2
v -423.976074 -17.168324 -1.051920
v -423.976074 -16.102787 -1.051920
v -423.976074 -17.168324 1.111920
v -423.976074 -16.102787 1.111920
v -427.897675 -17.168324 -1.051920
v -427.897675 -16.102787 -1.051920
v -427.897675 -17.168324 1.111920
v -427.897675 -16.102787 1.111920
vn 1.000000 0.000000 0.000000
vn 0.000000 0.000000 1.000000
vn -1.000000 0.000000 0.000000
vn 0.000000 0.000000 -1.000000
vn 0.000000 -1.000000 0.000000
vn 0.000000 1.000000 0.000000
usemtl None
s off
f 142//79 144//79 143//79 141//79
f 144//80 148//80 147//80 143//80
f 148//81 146//81 145//81 147//81
f 146//82 142//82 141//82 145//82
f 141//83 143//83 147//83 145//83
f 146//84 148//84 144//84 142//84
o Platform1
v -416.876068 4.031677 -1.051920
v -416.876068 5.097214 -1.051920
v -416.876068 4.031677 1.111920
v -416.876068 5.097214 1.111920
v -420.397675 4.031677 -1.051920
v -420.397675 5.097214 -1.051920
v -420.397675 4.031677 1.111920
v -420.397675 5.097214 1.111920
vn 1.000000 0.000000 0.000000
vn 0.000000 0.000000 1.000000
vn -1.000000 0.000000 0.000000
vn 0.000000 0.000000 -1.000000
vn 0.000000 -1.000000 0.000000
vn 0.000000 1.000000 0.000000
usemtl None
s off
f 150//85 152//85 151//85 149//85
f 152//86 156//86 155//86 151//86
f 156//87 154//87 153//87 155//87
f 154//88 150//88 149//88 153//88
f 149//89 151//89 155//89 153//89
f 154//90 156//90 152//90 150//90
o BeforeExplosure1
v -412.034241 -14.124630 -2.000000
v -412.034241 -13.044630 -2.000000
v -412.034241 -14.124630 2.000000
v -412.034241 -13.044630 2.000000
v -418.434235 -14.124630 -2.000000
v -418.434235 -13.044630 -2.000000
v -418.434235 -14.124630 2.000000
v -418.434235 -13.044630 2.000000
vn 0.577300 0.577300 -0.577300
vn 0.577300 -0.577300 -0.577300
vn -0.577300 -0.577300 -0.577300
vn -0.577300 0.577300 -0.577300
vn 0.577300 -0.577300 0.577300
vn 0.577300 0.577300 0.577300
vn -0.577300 0.577300 0.577300
vn -0.577300 -0.577300 0.577300
usemtl MarsGround
s 1
f 158//91 157//92 161//93 162//94
f 159//95 160//96 164//97 163//98
f 157//92 159//95 163//98 161//93
f 160//96 158//91 162//94 164//97
f 159//95 157//92 158//91 160//96
f 163//98 164//97 162//94 161//93
o Stone
v -3.218752 -7.107176 -1.000000
v -3.218752 -5.107176 -1.000000
v -3.218752 -7.107176 1.000000
v -3.218752 -5.107176 1.000000
v -5.218752 -7.107176 -1.000000
v -5.218752 -5.107176 -1.000000
v -5.218752 -7.107176 1.000000
v -5.218752 -5.107176 1.000000
vn 1.000000 0.000000 0.000000
vn 0.000000 0.000000 1.000000
vn -1.000000 0.000000 0.000000
vn 0.000000 0.000000 -1.000000
vn 0.000000 -1.000000 0.000000
vn 0.000000 1.000000 0.000000
usemtl None
s off
f 166//99 168//99 167//99 165//99
f 168//100 172//100 171//100 167//100
f 172//101 170//101 169//101 171//101
f 170//102 166//102 165//102 169//102
f 165//103 167//103 171//103 169//103
f 170//104 172//104 168//104 166//104
o BranchForBreak
v -326.739624 2.176866 -0.138000
v -326.739624 2.311266 -0.138000
v -326.739624 2.176866 0.198000
v -326.739624 2.311266 0.198000
v -327.286438 2.176866 -0.138000
v -327.286438 2.311266 -0.138000
v -327.286438 2.176866 0.198000
v -327.286438 2.311266 0.198000
vn 1.000000 0.000000 0.000000
vn 0.000000 0.000000 1.000000
vn -1.000000 0.000000 0.000000
vn 0.000000 0.000000 -1.000000
vn 0.000000 -1.000000 0.000000
vn 0.000000 1.000000 0.000000
usemtl None
s off
f 174//105 176//105 175//105 173//105
f 176//106 180//106 179//106 175//106
f 180//107 178//107 177//107 179//107
f 178//108 174//108 173//108 177//108
f 173//109 175//109 179//109 177//109
f 178//110 180//110 176//110 174//110
