# Blender v2.79 (sub 0) OBJ File: 'dizzy-z-scene-02.blend'
# www.blender.org
mtllib underground-collisions.mtl
o 02.Ground.055_Cube.4128
v -479.394409 -156.264755 -3.599996
v -479.394409 -155.169861 -3.599996
v -479.394409 -156.264755 3.600004
v -479.394409 -155.169861 3.600004
v -482.258057 -156.264755 3.600004
v -482.258057 -156.264755 -3.599996
v -482.258057 -155.169861 3.600004
v -482.258057 -155.169861 -3.599996
vn -0.5773 -0.5773 -0.5773
vn -0.5773 0.5773 -0.5773
vn 0.5773 0.5773 -0.5773
vn 0.5773 -0.5773 -0.5773
vn 0.5773 0.5773 0.5773
vn 0.5773 -0.5773 0.5773
vn -0.5773 -0.5773 0.5773
vn -0.5773 0.5773 0.5773
usemtl MarsGround
s 1
f 6//1 8//2 2//3 1//4
f 2//3 4//5 3//6 1//4
f 5//7 6//1 1//4 3//6
f 8//2 7//8 4//5 2//3
f 7//8 5//7 3//6 4//5
f 5//7 7//8 8//2 6//1
o 02.Ground.047_Cube.4127
v -483.294403 -160.964752 -3.599996
v -483.294403 -158.969864 -3.599996
v -483.294403 -160.964752 3.600004
v -483.294403 -158.969864 3.600004
v -498.158051 -160.964752 3.600004
v -498.158051 -160.964752 -3.599996
v -498.158051 -158.969864 3.600004
v -498.158051 -158.969864 -3.599996
vn 0.0000 -0.7071 -0.7071
vn 0.0000 0.7071 -0.7071
vn 0.5773 0.5773 -0.5773
vn 0.5773 -0.5773 -0.5773
vn 0.5773 0.5773 0.5773
vn 0.5773 -0.5773 0.5773
vn 0.0000 -0.7071 0.7071
vn 0.0000 0.7071 0.7071
usemtl MarsGround
s 1
f 14//9 16//10 10//11 9//12
f 10//11 12//13 11//14 9//12
f 13//15 14//9 9//12 11//14
f 16//10 15//16 12//13 10//11
f 15//16 13//15 11//14 12//13
o 02.Ground.042_Cube.4038
v -465.294403 -161.012283 -3.599996
v -465.294403 -159.100372 -3.599996
v -465.294403 -161.012283 3.600004
v -465.294403 -159.100372 3.600004
v -466.935455 -159.057266 -3.599996
v -466.935455 -161.012283 -3.599996
v -466.935455 -161.012283 3.600004
v -466.935455 -159.057266 3.600004
v -466.658051 -161.012283 3.600004
v -466.658051 -161.012283 -3.599996
v -466.658051 -159.339355 3.600004
v -466.658051 -159.339355 -3.599996
v -467.635468 -159.057266 -3.599996
v -467.635468 -161.012283 -3.599996
v -467.635468 -161.012283 3.600004
v -467.635468 -159.057266 3.600004
v -467.735443 -158.157272 -3.599996
v -467.735443 -161.012283 -3.599996
v -467.735443 -161.012283 3.600004
v -467.735443 -158.157272 3.600004
v -468.635468 -158.157272 -3.599996
v -468.635468 -161.012283 -3.599996
v -468.635468 -161.012283 3.600004
v -468.635468 -158.157272 3.600004
v -468.735443 -157.157272 -3.599996
v -468.735443 -161.012283 -3.599996
v -468.735443 -161.012283 3.600004
v -468.735443 -157.157272 3.600004
v -469.635468 -157.157272 -3.599996
v -469.635468 -161.012283 -3.599996
v -469.635468 -161.012283 3.600004
v -469.635468 -157.157272 3.600004
v -469.735443 -156.187271 -3.599996
v -469.735443 -161.012283 -3.599996
v -469.735443 -161.012283 3.600004
v -469.735443 -156.187271 3.600004
v -470.535461 -156.187271 -3.599996
v -470.535461 -161.012283 -3.599996
v -470.535461 -161.012283 3.600004
v -470.535461 -156.187271 3.600004
v -470.615448 -155.287262 -3.599996
v -470.615448 -161.012283 -3.599996
v -470.615448 -161.012283 3.600004
v -470.615448 -155.287262 3.600004
v -471.515442 -155.287262 -3.599996
v -471.515442 -161.012283 -3.599996
v -471.515442 -161.012283 3.600004
v -471.515442 -155.287262 3.600004
v -471.615448 -154.187271 -3.599996
v -471.615448 -161.012283 -3.599996
v -471.615448 -161.012283 3.600004
v -471.615448 -154.187271 3.600004
v -472.515442 -161.012283 3.600004
v -472.515442 -153.287262 3.600004
v -472.415466 -154.187271 3.600004
v -472.415466 -161.012283 3.600004
v -472.415466 -161.012283 -3.599996
v -472.415466 -154.187271 -3.599996
v -475.515442 -161.012283 -3.599996
v -475.515442 -153.287262 -3.599996
v -475.515442 -153.287262 3.600004
v -475.515442 -161.012283 3.600004
v -472.515442 -153.287262 -3.599996
v -472.515442 -161.012283 -3.599996
v -434.294403 -161.012283 -3.599996
v -434.294403 -159.100372 -3.599996
v -434.294403 -161.012283 3.600004
v -434.294403 -159.100372 3.600004
vn 0.0000 -0.7071 -0.7071
vn 0.1711 0.5338 -0.8281
vn -0.0628 0.7229 -0.6881
vn -0.0628 0.7229 0.6881
vn 0.5773 0.5773 0.5773
vn 0.5773 0.5773 -0.5773
vn 0.0000 -0.7071 0.7071
vn 0.1711 0.5338 0.8281
vn 0.3003 0.7165 -0.6296
vn 0.3003 0.7165 0.6296
vn 0.3024 0.3378 -0.8913
vn 0.5417 0.6052 -0.5834
vn 0.3024 0.3378 0.8913
vn 0.5417 0.6052 0.5834
vn 0.3024 0.3342 -0.8926
vn 0.3024 0.3342 0.8926
vn 0.5453 0.6025 -0.5828
vn 0.3024 0.3352 -0.8923
vn 0.5453 0.6025 0.5828
vn 0.3024 0.3352 0.8923
vn 0.5443 0.6033 0.5829
vn 0.5443 0.6033 -0.5829
vn 0.3025 0.3306 -0.8939
vn 0.5489 0.5998 -0.5821
vn 0.3025 0.3306 0.8939
vn 0.5489 0.5998 0.5821
vn 0.3025 0.3312 0.8937
vn 0.5482 0.6003 0.5823
vn 0.3025 0.3312 -0.8937
vn 0.5482 0.6003 -0.5823
vn 0.0000 0.7071 0.7071
vn 0.0000 0.7071 -0.7071
vn 0.5773 -0.5773 0.5773
vn 0.5773 -0.5773 -0.5773
usemtl MarsGround
s 1
f 26//17 28//18 18//19 17//17
f 18//19 20//20 84//21 82//22
f 25//23 26//17 17//17 19//23
f 28//18 27//24 20//20 18//19
f 27//24 25//23 19//23 20//20
f 22//17 23//23 31//23 30//17
f 23//23 22//17 26//17 25//23
f 22//17 21//25 28//18 26//17
f 24//26 23//23 25//23 27//24
f 21//25 24//26 27//24 28//18
f 29//27 30//17 34//17 33//28
f 23//23 24//26 32//29 31//23
f 21//25 22//17 30//17 29//27
f 24//26 21//25 29//27 32//29
f 36//30 33//28 37//31 40//32
f 32//29 29//27 33//28 36//30
f 30//17 31//23 35//23 34//17
f 31//23 32//29 36//30 35//23
f 38//17 39//23 43//23 42//17
f 34//17 35//23 39//23 38//17
f 35//23 36//30 40//32 39//23
f 33//28 34//17 38//17 37//31
f 41//33 42//17 46//17 45//34
f 39//23 40//32 44//35 43//23
f 37//31 38//17 42//17 41//33
f 40//32 37//31 41//33 44//35
f 46//17 47//23 51//23 50//17
f 44//35 41//33 45//34 48//36
f 42//17 43//23 47//23 46//17
f 43//23 44//35 48//36 47//23
f 50//17 51//23 55//23 54//17
f 47//23 48//36 52//37 51//23
f 45//34 46//17 50//17 49//38
f 48//36 45//34 49//38 52//37
f 53//39 54//17 58//17 57//40
f 51//23 52//37 56//41 55//23
f 49//38 50//17 54//17 53//39
f 52//37 49//38 53//39 56//41
f 58//17 59//23 63//23 62//17
f 56//41 53//39 57//40 60//42
f 54//17 55//23 59//23 58//17
f 55//23 56//41 60//42 59//23
f 63//23 64//43 68//44 67//23
f 59//23 60//42 64//43 63//23
f 57//40 58//17 62//17 61//45
f 60//42 57//40 61//45 64//43
f 61//45 62//17 66//17 65//46
f 64//43 61//45 65//46 68//44
f 62//17 63//23 67//23 66//17
f 66//17 67//23 72//23 73//17
f 65//46 66//17 73//17 74//27
f 67//23 68//44 71//29 72//23
f 68//44 65//46 74//27 71//29
f 69//23 70//30 77//47 78//23
f 80//17 69//23 78//23 75//17
f 71//29 74//27 79//28 70//30
f 70//30 79//28 76//48 77//47
f 79//28 80//17 75//17 76//48
f 73//17 72//23 69//23 80//17
f 74//27 73//17 80//17 79//28
f 72//23 71//29 70//30 69//23
f 82//22 84//21 83//49 81//50
f 20//20 19//23 83//49 84//21
f 17//17 18//19 82//22 81//50
f 19//23 17//17 81//50 83//49
