# Blender v2.76 (sub 0) OBJ File: 'dizzy-z-scene-01.blend'
# www.blender.org
mtllib zaks-face.mtl
o Plane_Plane.003
v 1.000000 -1.000000 -0.000000
v 1.000000 -3.000000 -0.000000
v 3.000000 -1.000000 -0.000000
v 3.000000 -3.000000 -0.000000
v -1.000000 -1.000000 -0.000000
v -3.000000 -1.000000 -0.000000
v -1.000000 -3.000000 -0.000000
v -3.000000 -3.000000 -0.000000
v -1.000000 1.000000 0.000000
v -1.000000 3.000000 0.000000
v -3.000000 1.000000 0.000000
v -3.000000 3.000000 0.000000
v 1.000000 1.000000 0.000000
v 3.000000 1.000000 0.000000
v 1.000000 3.000000 0.000000
v 3.000000 3.000000 0.000000
v 0.000000 -1.000000 -0.000000
v 0.000000 -3.000000 -0.000000
v 1.000000 -2.000000 -0.000000
v 2.000000 -1.000000 -0.000000
v 3.000000 -2.000000 -0.000000
v 2.000000 -3.000000 -0.000000
v -1.000000 0.000000 0.000000
v -3.000000 0.000000 0.000000
v -2.000000 -1.000000 -0.000000
v -1.000000 -2.000000 -0.000000
v -2.000000 -3.000000 -0.000000
v -3.000000 -2.000000 -0.000000
v 0.000000 1.000000 0.000000
v 0.000000 3.000000 0.000000
v -1.000000 2.000000 0.000000
v -2.000000 1.000000 0.000000
v -3.000000 2.000000 0.000000
v -2.000000 3.000000 0.000000
v 1.000000 0.000000 0.000000
v 3.000000 0.000000 0.000000
v 2.000000 1.000000 0.000000
v 1.000000 2.000000 0.000000
v 2.000000 3.000000 0.000000
v 3.000000 2.000000 0.000000
v 4.000000 3.000000 0.000000
v 4.000000 1.000000 0.000000
v 4.000000 -1.000000 -0.000000
v 4.000000 -3.000000 -0.000000
v 3.000000 -4.000000 -0.000000
v 1.000000 -4.000000 -0.000000
v -1.000000 -4.000000 -0.000000
v -3.000000 -4.000000 -0.000000
v -4.000000 -3.000000 -0.000000
v -4.000000 -1.000000 -0.000000
v -4.000000 1.000000 0.000000
v -4.000000 3.000000 0.000000
v -3.000000 4.000000 0.000000
v -1.000000 4.000000 0.000000
v 1.000000 4.000000 0.000000
v 3.000000 4.000000 0.000000
v 0.000000 0.000000 0.000000
v 0.000000 -2.000000 -0.000000
v -2.000000 0.000000 0.000000
v 0.000000 2.000000 0.000000
v 2.000000 0.000000 0.000000
v 2.000000 -2.000000 -0.000000
v -2.000000 -2.000000 -0.000000
v -2.000000 2.000000 0.000000
v 2.000000 2.000000 0.000000
v 4.000000 2.000000 0.000000
v 4.000000 0.000000 0.000000
v 4.000000 -2.000000 -0.000000
v 2.000000 -4.000000 -0.000000
v 0.000000 -4.000000 -0.000000
v -2.000000 -4.000000 -0.000000
v -4.000000 -2.000000 -0.000000
v -4.000000 0.000000 0.000000
v -4.000000 2.000000 0.000000
v -2.000000 4.000000 0.000000
v 0.000000 4.000000 0.000000
v 2.000000 4.000000 0.000000
v 4.000000 4.000000 0.000000
v -4.000000 4.000000 0.000000
v -5.000000 -1.000000 -0.000000
v -5.000000 1.000000 0.000000
v -5.000000 3.000000 0.000000
v -5.000000 0.000000 0.000000
v -5.000000 2.000000 0.000000
v 5.000000 3.000000 0.000000
v 5.000000 1.000000 0.000000
v 5.000000 -1.000000 -0.000000
v 5.000000 2.000000 0.000000
v 5.000000 0.000000 0.000000
vt 0.311139 0.689241
vt 0.336142 0.689241
vt 0.336142 0.714244
vt 0.311139 0.714244
vt 0.286136 0.714244
vt 0.286136 0.689241
vt 0.286136 0.664238
vt 0.311139 0.664238
vt 0.336142 0.664238
vt 0.311139 0.639235
vt 0.336142 0.639235
vt 0.286136 0.639235
vt 0.286136 0.614232
vt 0.311139 0.614232
vt 0.336142 0.614232
vt 0.261133 0.689241
vt 0.261133 0.714244
vt 0.236130 0.714244
vt 0.236130 0.689241
vt 0.236130 0.664238
vt 0.261133 0.664238
vt 0.261133 0.639235
vt 0.236130 0.639235
vt 0.261133 0.614232
vt 0.361146 0.689241
vt 0.361146 0.714244
vt 0.361146 0.664238
vt 0.386149 0.664238
vt 0.386149 0.689241
vt 0.386149 0.714244
vt 0.411152 0.689241
vt 0.411152 0.714244
vt 0.411152 0.664238
vt 0.436155 0.664238
vt 0.436155 0.689241
vt 0.436155 0.714244
vt 0.361146 0.639235
vt 0.361146 0.614232
vt 0.386149 0.614232
vt 0.386149 0.639235
vt 0.411152 0.639235
vt 0.411152 0.614232
vt 0.436155 0.639235
vt 0.361146 0.739248
vt 0.336142 0.739248
vt 0.386149 0.739248
vt 0.386149 0.764251
vt 0.361146 0.764251
vt 0.336142 0.764251
vt 0.361146 0.789254
vt 0.336142 0.789254
vt 0.386149 0.789254
vt 0.386149 0.814257
vt 0.361146 0.814257
vt 0.336142 0.814257
vt 0.411152 0.739248
vt 0.436155 0.739248
vt 0.436155 0.764251
vt 0.411152 0.764251
vt 0.411152 0.789254
vt 0.436155 0.789254
vt 0.436155 0.814257
vt 0.411152 0.814257
vt 0.311139 0.739248
vt 0.311139 0.764251
vt 0.286136 0.764251
vt 0.286136 0.739248
vt 0.261133 0.739248
vt 0.261133 0.764251
vt 0.236130 0.764251
vt 0.236130 0.739248
vt 0.311139 0.789254
vt 0.311139 0.814257
vt 0.286136 0.814257
vt 0.286136 0.789254
vt 0.261133 0.789254
vt 0.261133 0.814257
vt 0.236130 0.814257
vt 0.236130 0.789254
vt 0.461158 0.714244
vt 0.461158 0.739248
vt 0.461158 0.764251
vt 0.461158 0.689241
vt 0.461158 0.789254
vt 0.211127 0.739248
vt 0.211127 0.714244
vt 0.211127 0.789254
vt 0.211127 0.764251
vt 0.211127 0.689241
vn 0.000000 0.000000 -1.000000
usemtl ZaksFace
s off
f 1/1/1 17/2/1 57/3/1 35/4/1
f 1/1/1 35/4/1 61/5/1 20/6/1
f 1/1/1 20/6/1 62/7/1 19/8/1
f 1/1/1 19/8/1 58/9/1 17/2/1
f 2/10/1 18/11/1 58/9/1 19/8/1
f 2/10/1 19/8/1 62/7/1 22/12/1
f 2/10/1 22/12/1 69/13/1 46/14/1
f 2/10/1 46/14/1 70/15/1 18/11/1
f 3/16/1 20/6/1 61/5/1 36/17/1
f 3/16/1 36/17/1 67/18/1 43/19/1
f 3/16/1 43/19/1 68/20/1 21/21/1
f 3/16/1 21/21/1 62/7/1 20/6/1
f 4/22/1 22/12/1 62/7/1 21/21/1
f 4/22/1 21/21/1 68/20/1 44/23/1
f 4/22/1 45/24/1 69/13/1 22/12/1
f 5/25/1 23/26/1 57/3/1 17/2/1
f 5/25/1 17/2/1 58/9/1 26/27/1
f 5/25/1 26/27/1 63/28/1 25/29/1
f 5/25/1 25/29/1 59/30/1 23/26/1
f 6/31/1 24/32/1 59/30/1 25/29/1
f 6/31/1 25/29/1 63/28/1 28/33/1
f 6/31/1 28/33/1 72/34/1 50/35/1
f 6/31/1 50/35/1 73/36/1 24/32/1
f 7/37/1 26/27/1 58/9/1 18/11/1
f 7/37/1 18/11/1 70/15/1 47/38/1
f 7/37/1 47/38/1 71/39/1 27/40/1
f 7/37/1 27/40/1 63/28/1 26/27/1
f 8/41/1 28/33/1 63/28/1 27/40/1
f 8/41/1 27/40/1 71/39/1 48/42/1
f 8/41/1 49/43/1 72/34/1 28/33/1
f 9/44/1 29/45/1 57/3/1 23/26/1
f 9/44/1 23/26/1 59/30/1 32/46/1
f 9/44/1 32/46/1 64/47/1 31/48/1
f 9/44/1 31/48/1 60/49/1 29/45/1
f 10/50/1 30/51/1 60/49/1 31/48/1
f 10/50/1 31/48/1 64/47/1 34/52/1
f 10/50/1 34/52/1 75/53/1 54/54/1
f 10/50/1 54/54/1 76/55/1 30/51/1
f 11/56/1 32/46/1 59/30/1 24/32/1
f 11/56/1 24/32/1 73/36/1 51/57/1
f 11/56/1 51/57/1 74/58/1 33/59/1
f 11/56/1 33/59/1 64/47/1 32/46/1
f 12/60/1 34/52/1 64/47/1 33/59/1
f 12/60/1 33/59/1 74/58/1 52/61/1
f 12/60/1 52/61/1 79/62/1 53/63/1
f 12/60/1 53/63/1 75/53/1 34/52/1
f 13/64/1 35/4/1 57/3/1 29/45/1
f 13/64/1 29/45/1 60/49/1 38/65/1
f 13/64/1 38/65/1 65/66/1 37/67/1
f 13/64/1 37/67/1 61/5/1 35/4/1
f 14/68/1 36/17/1 61/5/1 37/67/1
f 14/68/1 37/67/1 65/66/1 40/69/1
f 14/68/1 40/69/1 66/70/1 42/71/1
f 14/68/1 42/71/1 67/18/1 36/17/1
f 15/72/1 38/65/1 60/49/1 30/51/1
f 15/72/1 30/51/1 76/55/1 55/73/1
f 15/72/1 55/73/1 77/74/1 39/75/1
f 15/72/1 39/75/1 65/66/1 38/65/1
f 16/76/1 40/69/1 65/66/1 39/75/1
f 16/76/1 39/75/1 77/74/1 56/77/1
f 16/76/1 56/77/1 78/78/1 41/79/1
f 16/76/1 41/79/1 66/70/1 40/69/1
f 51/57/1 73/36/1 83/80/1 81/81/1
f 74/58/1 51/57/1 81/81/1 84/82/1
f 73/36/1 50/35/1 80/83/1 83/80/1
f 52/61/1 74/58/1 84/82/1 82/84/1
f 67/18/1 42/71/1 86/85/1 89/86/1
f 66/70/1 41/79/1 85/87/1 88/88/1
f 43/19/1 67/18/1 89/86/1 87/89/1
f 42/71/1 66/70/1 88/88/1 86/85/1
